<svg width="682" height="308" viewBox="0 0 682 308" fill="none" xmlns="http://www.w3.org/2000/svg">
<path d="M0.120399 250.439L0 250.842L0.493175 250.739L0.120399 250.439ZM72.373 9.48776C72.6478 9.70197 72.9112 9.96561 73.2161 10.1057C73.3102 10.1551 73.5324 9.87906 73.6942 9.75546C73.4157 9.5289 73.1409 9.31052 72.8698 9.08807C72.7004 9.21991 72.5386 9.35181 72.373 9.48776ZM670.752 175.153C672.178 175.878 673.571 176.586 675.017 177.324C674.648 178.078 674.524 178.728 674.268 178.798C671.606 179.511 668.922 180.129 665.91 180.854C665.462 182.283 664.962 183.882 664.359 185.797C663.648 185.884 662.744 186.164 661.879 186.069C654.312 185.212 646.753 184.277 639.186 183.387C638.045 183.251 636.886 183.095 635.742 183.148C633.931 183.231 632.858 184.545 632.094 186.193C631.307 187.882 632.052 190.102 633.709 190.411C637.112 191.045 640.553 191.433 643.978 191.927C645.341 192.121 646.809 192.133 647.381 194.592C644.818 195.07 642.269 195.548 639.115 196.137C640.251 197.999 641.162 199.498 642.435 201.591C638.554 201.71 635.214 201.809 631.83 201.908C630.682 205.059 633.088 206.769 633.396 208.833C635.516 211.189 639.111 209.418 641.238 213.002C636.551 214.184 632.433 215.391 628.096 215.082C616.599 214.258 605.113 213.29 593.616 212.503C584.19 211.856 574.756 211.342 565.322 210.864C563.576 210.777 561.81 211.119 560.01 211.263C560.206 213.492 561.622 213.29 562.631 213.414C571.101 214.46 579.582 215.387 588.056 216.429C599.497 217.834 610.937 219.3 622.374 220.767C627.369 221.405 632.372 221.558 637.168 223.934C639.999 225.339 643.478 225.179 646.662 225.743C648.202 226.015 649.738 226.332 651.466 226.662C651.538 229.343 649.452 230.196 648.684 231.873C647.969 233.434 647.001 234.855 646.079 236.301C645.556 237.125 644.878 237.833 644.332 238.645C641.678 242.583 641.942 244.84 645.469 248.342C645.966 248.832 646.557 249.207 647.077 249.611C645.669 256.263 645.669 256.263 648.432 267.357C651.842 268.963 656.646 269.47 655.998 276.23C652.437 276.016 648.831 275.793 645.221 275.587C642.472 275.431 639.826 275.126 637.349 277.334C636.318 278.257 634.289 278.108 632.737 278.01C615.018 276.873 597.306 275.53 579.579 274.512C572.678 274.117 565.748 274.426 558.825 274.393C556.942 274.385 555.12 274.529 553.441 276.605C554.672 277.231 555.749 278.166 556.909 278.302C562.868 279.019 568.838 279.591 574.813 280.094C582.383 280.733 589.957 281.26 597.453 281.832C598.315 283.381 599.011 284.634 599.753 285.972C604.503 285.622 608.75 288.259 613.478 288.481C618.526 288.72 623.544 289.803 628.57 290.541C633.366 291.241 638.158 291.974 642.834 292.675C644.584 295.463 646.233 298.092 648.059 301C646.237 301.713 643.557 301.84 642.627 303.307C640.255 307.031 637.123 306.17 634.044 306.116C625.28 305.964 616.603 304.889 607.982 303.179C606.182 302.825 604.308 302.92 602.467 302.833C597.174 302.602 591.877 302.483 586.592 302.137C574.854 301.375 563.124 300.493 551.39 299.669C548.171 299.439 544.949 299.216 541.726 299.035C539.889 298.932 537.947 298.495 536.219 298.957C527.338 301.334 518.352 299.669 509.43 299.908C498.152 300.217 486.858 299.879 475.572 299.929C474.281 299.937 472.96 300.592 471.71 301.103C470.434 301.622 469.274 302.606 467.972 302.895C466.093 303.315 464.042 303.447 464.456 299.974C461.105 300.271 458.131 299.492 455.681 302.285C455.097 302.952 453.482 302.866 452.417 302.656C445.641 301.342 438.812 302.112 432.017 301.803C420.945 301.305 409.96 303.356 398.896 302.705C396.615 302.574 394.307 302.907 392.007 302.981C390.4 303.027 388.6 303.513 387.2 302.911C382.302 300.823 377.793 302.112 373.136 303.83C371.001 304.617 368.618 304.732 366.337 304.864C353.952 305.544 341.582 306.816 329.162 305.935C324.205 307.57 319.269 306.343 314.289 306.03C310.419 305.778 306.496 306.602 302.592 305.778C301.749 305.597 300.684 305.795 299.904 306.227C296.573 308.093 293.23 307.628 289.827 306.606C288.724 306.277 287.331 305.577 286.48 306.013C281.62 308.51 276.549 306.689 271.614 307.031C265.211 307.476 258.739 306.837 252.298 306.652C241.012 306.322 229.726 305.997 218.44 305.642C208.536 305.338 198.624 305.128 188.723 304.608C183.709 304.345 178.796 303.307 173.669 304.172C170.111 304.769 166.343 304.007 162.676 303.706C155.11 303.088 147.551 302.281 139.976 301.721C133.637 301.251 127.343 299.859 120.928 300.74C119.366 300.95 117.359 301.082 116.2 300.221C113.049 297.886 109.728 298.256 106.288 298.256C104.277 298.256 102.214 296.852 100.264 297.07C93.2359 297.849 86.7421 294.495 79.8719 294.281C76.1939 294.17 72.5008 293.647 68.8493 293.882C65.5176 294.092 62.4195 293.606 59.4117 292.201C53.5653 289.474 47.32 288.741 41.1462 288.901C35.8871 289.041 31.2606 287.286 26.5474 285.445C25.0454 284.856 23.7014 283.785 22.2596 283.002C18.5214 280.967 18.5139 280.984 13.8422 283.031C8.745 280.774 6.66316 275.666 4.66044 270.599C4.17105 269.359 4.55874 267.686 4.60768 266.216C4.67544 264.239 5.24773 262.286 4.03179 260.366C3.68922 259.823 3.97911 258.389 4.43085 257.738C5.19882 256.63 5.14227 255.666 5.10839 254.34C4.99169 249.339 7.17509 247.25 11.8544 247.337C12.9085 247.357 13.9664 247.213 14.9414 247.155C15.5136 244.437 13.6765 243.114 12.9876 240.556C13.94 238.369 15.1033 235.691 16.2816 232.981C14.7042 228.985 13.1006 224.927 11.5119 220.903C13.3152 216.108 13.9249 210.921 17.8852 207.857C15.6754 198.674 15.6755 198.674 11.6776 195.75C13.1081 194.423 14.467 193.167 16.1046 191.651C15.2688 190.386 14.4182 189.089 13.3001 187.387C16.0633 185.764 18.6156 184.265 21.0813 182.819C20.9119 181.13 20.5805 179.725 20.686 178.362C20.7914 176.916 21.3146 175.507 21.7137 173.847C17.2527 170.93 11.798 170.601 7.93179 165.452C6.51256 160.739 6.9192 155.215 8.57183 149.621C9.01604 148.113 9.27191 146.795 10.6158 145.988C10.9885 145.765 11.2747 145.32 11.5533 144.937C12.4756 143.672 10.0249 141.975 11.8055 140.999C13.2887 140.192 12.931 139.03 12.7654 137.881C12.6223 136.913 12.3062 135.936 11.8996 135.059C11.1091 133.374 10.8419 131.862 11.9825 130.149C13.4958 127.866 12.7767 125.176 12.2761 122.841C11.9561 121.354 10.3675 120.196 9.17787 118.672C9.74255 110.079 10.3373 101.152 10.9509 91.8547C9.16656 90.7713 7.44246 89.7209 5.63925 88.6293C5.87265 87.6736 5.83495 86.6396 6.24529 86.3471C8.14637 84.9836 10.1678 83.8178 12.3663 82.4461C13.0063 80.4894 11.0978 79.2495 10.36 77.0991C11.0941 76.1764 12.0728 75.2001 12.7768 74.0219C14.964 70.3392 14.7155 69.2517 10.9247 65.7338C11.7152 64.6298 12.3739 62.7719 13.3451 62.5371C16.3116 61.8409 15.5248 59.118 16.3191 57.0213C14.8923 54.9616 13.394 52.7865 11.6134 50.216C13.1682 46.9988 13.1758 43.3366 13.044 39.5633C12.8897 35.3162 13.0779 31.0898 14.339 26.8798C15.3103 23.6419 15.2463 20.0334 15.7395 15.7574C16.6053 15.0942 18.0696 13.9655 19.6733 12.7379C19.5566 10.8306 19.4399 8.90683 19.3119 6.82654C19.8841 6.55469 20.5054 5.98209 21.1039 6.00677C27.5413 6.27042 33.9748 6.61649 40.4083 6.97076C41.7636 7.04904 43.2016 7.64227 44.4552 7.32095C52.2252 5.32306 59.7091 8.72565 67.4076 7.60928C67.4076 8.11597 67.4037 8.62677 67.4037 9.13757C64.042 9.13757 60.6841 9.13757 57.3224 9.13757C62.1749 11.0778 66.696 14.085 72.0228 13.3682C72.8021 13.2652 73.6379 13.7141 74.4585 13.8295C76.0246 14.0561 77.6057 14.4227 79.1642 14.3362C79.8832 14.295 80.8769 13.5083 81.2007 12.7709C81.9046 11.1479 80.3687 10.7688 79.4125 9.96143C80.6209 8.63913 82.1644 7.44452 81.3325 4.8287C80.4365 4.59802 79.356 4.32205 78.174 4.01721C78.5429 3.79065 78.8404 3.4487 79.1416 3.44458C81.6789 3.41162 84.2198 3.51459 86.7533 3.42807C89.0535 3.34979 91.4778 3.5434 93.6161 2.80191C98.0959 1.25302 102.677 1.3725 107.244 0.861694C113.722 0.136688 120.126 0.647552 126.567 1.1254C143.127 2.35709 159.687 3.51868 176.255 4.65564C191.893 5.72668 207.523 6.85959 223.172 7.72876C243.663 8.86572 264.16 9.78842 284.658 10.7771C296.407 11.3414 308.16 11.8192 319.906 12.4083C326.347 12.7296 332.81 12.9233 339.214 13.6895C343.505 14.2003 347.737 14.3939 352.047 14.2127C354.942 14.0932 357.859 15.2383 360.784 15.3825C363.762 15.5349 366.763 15.0282 369.748 15.0653C371.321 15.0818 372.936 15.4773 374.453 15.9881C378.03 17.195 381.689 17.2322 385.276 16.5854C389.666 15.7986 394.014 15.9634 398.339 16.6431C400.553 16.9932 402.661 18.0972 405.462 19.09C406.926 17.7306 409.057 16.6801 411.779 16.919C422.79 17.8953 433.816 18.6245 444.835 19.4113C451.965 19.918 459.095 20.4081 466.225 20.8283C477.278 21.4833 488.326 22.0806 499.383 22.6903C510.887 23.3164 522.399 23.9384 533.911 24.5399C544.953 25.1125 555.998 25.7098 567.043 26.1876C576.702 26.6078 586.37 26.7397 596.026 27.2628C601.752 27.5718 607.459 28.3586 613.166 28.9889C620.262 29.7715 627.354 30.5913 634.443 31.4604C637.846 31.8765 641.238 32.4492 644.524 32.9311C645.236 35.6129 643.474 36.4079 642.585 37.7014C640.91 40.136 641.257 41.6559 643.85 42.9618C645.093 43.5879 646.41 44.0164 648.029 44.6714C648.029 48.6425 648.029 52.5888 648.029 56.8277C652.064 58.2777 653.702 62.5948 657.101 64.6709C657.651 65.0046 658.442 65.7543 658.396 66.2281C657.99 70.5246 661.344 72.2176 663.234 74.9117C663.919 75.8921 664.63 76.8478 665.44 77.9642C663.919 79.1753 662.635 80.201 661.156 81.3792C661.084 82.9486 661.001 84.6747 660.904 86.7302C655.245 88.2874 649.572 89.8486 643.941 91.4016C644.852 96.9216 645.228 97.5065 649.121 98.2686C655.912 99.5992 662.718 100.806 669.148 102.005C670.842 104.188 672.062 106.437 673.835 107.846C675.333 109.045 677.475 109.284 679.41 109.972C678.992 110.841 678.872 111.492 678.597 111.591C676.865 112.184 674.938 112.307 674.015 114.474C672.879 117.156 672.897 120.019 673.79 122.598C674.569 124.851 675.728 127.669 677.471 128.653C680.746 130.503 681.033 133.617 681.834 136.694C681.955 137.172 681.943 137.687 682 138.243C679.161 142.379 679.376 147.458 678.601 152.249C678.401 152.377 678.198 152.624 678.006 152.616C673.869 152.422 669.679 151.639 665.62 152.142C661.517 152.653 657.519 153.753 653.326 153.11C652.004 152.904 650.6 153.423 649.226 153.501C646.933 153.641 644.633 153.827 642.337 153.753C634.748 153.51 627.155 153.168 619.407 153.74C620.194 153.992 620.97 154.325 621.768 154.478C624.836 155.054 624.839 155.034 626.225 158.972C628.419 159.277 630.693 159.594 633.125 159.936C633.893 161.439 634.65 162.922 635.297 164.183C646.504 166.053 657.421 167.878 668.53 169.736C669.31 171.635 670.036 173.406 670.752 175.153Z" fill="white"/>
</svg>
