<svg width="200" height="90" viewBox="0 0 200 90" fill="none" xmlns="http://www.w3.org/2000/svg">
<g filter="url(#filter0_d_2775_7732)">
<path d="M182.325 16.0674V2C183.896 2.03671 187.575 2.27347 191.036 4.03155C192.746 4.90046 193.87 5.79951 194.574 6.53475V16.0674H182.325Z" fill="#000033" fill-opacity="0.82"/>
<mask id="mask0_2775_7732" style="mask-type:luminance" maskUnits="userSpaceOnUse" x="13" y="6" width="182" height="63">
<path d="M194.574 6.70898C193.737 7.43394 192.407 8.373 190.369 9.21592C189.196 9.70123 187.99 10.057 186.823 10.318C185.228 10.676 183.624 10.6686 182.003 10.6686C163.043 10.6686 144.081 10.6686 125.121 10.6686C95.3027 10.6686 65.4839 10.6686 35.6656 10.6686C35.0375 10.6686 34.4149 10.6974 33.8001 10.7522C28.981 11.185 24.5973 13.2805 21.1364 16.5073C19.5595 17.9781 18.1739 19.6844 17.0268 21.5755C14.7139 25.387 13.3685 29.9499 13.3685 34.8537C13.3685 38.9429 13.3685 43.0326 13.3685 47.1218C13.3685 52.2452 13.3685 57.3682 13.3685 62.4917C13.3685 64.3824 13.3685 66.2739 13.3685 68.165C18.2253 68.165 23.0829 68.165 27.9397 68.165C58.8794 68.165 89.8183 68.165 120.758 68.165C140.029 68.165 159.3 68.165 178.571 68.165C179.781 68.165 180.991 68.165 182.201 68.165C185.618 68.165 188.711 66.6631 190.95 64.2342C192.212 62.866 193.202 61.2039 193.826 59.3499C194.31 57.9139 194.574 56.3623 194.574 54.7438C194.574 50.8153 194.574 46.8872 194.574 42.9587C194.574 33.4256 194.574 23.8929 194.574 14.3598C194.574 11.8097 194.574 9.25911 194.574 6.70898Z" fill="white"/>
</mask>
<g mask="url(#mask0_2775_7732)">
<mask id="mask1_2775_7732" style="mask-type:luminance" maskUnits="userSpaceOnUse" x="13" y="6" width="182" height="63">
<path d="M194.574 6.70898C193.737 7.43394 192.407 8.373 190.369 9.21592C189.196 9.70123 187.99 10.057 186.823 10.318C185.228 10.676 183.624 10.6686 182.003 10.6686C163.043 10.6686 144.081 10.6686 125.121 10.6686C95.3027 10.6686 65.4839 10.6686 35.6656 10.6686C35.0375 10.6686 34.4149 10.6974 33.8001 10.7522C28.981 11.185 24.5973 13.2805 21.1364 16.5073C19.5595 17.9781 18.1739 19.6844 17.0268 21.5755C14.7139 25.387 13.3685 29.9499 13.3685 34.8537C13.3685 38.9429 13.3685 43.0326 13.3685 47.1218C13.3685 52.2452 13.3685 57.3682 13.3685 62.4917C13.3685 64.3824 13.3685 66.2739 13.3685 68.165C18.2253 68.165 23.0829 68.165 27.9397 68.165C58.8794 68.165 89.8183 68.165 120.758 68.165C140.029 68.165 159.3 68.165 178.571 68.165C179.781 68.165 180.991 68.165 182.201 68.165C185.618 68.165 188.711 66.6631 190.95 64.2342C192.212 62.866 193.202 61.2039 193.826 59.3499C194.31 57.9139 194.574 56.3623 194.574 54.7438C194.574 50.8153 194.574 46.8872 194.574 42.9587C194.574 33.4256 194.574 23.8929 194.574 14.3598C194.574 11.8097 194.574 9.25911 194.574 6.70898Z" fill="white"/>
</mask>
<g mask="url(#mask1_2775_7732)">
<path d="M194.574 6.71338C193.742 7.43546 192.411 8.37302 190.371 9.21734C190.36 10.4984 190.354 11.7736 190.344 13.0547C192.121 12.3443 193.506 11.4706 194.574 10.5389C194.574 9.25793 194.574 7.98862 194.574 6.71338Z" fill="#BAEAFA"/>
<path d="M194.574 10.5389C193.506 11.4706 192.121 12.3442 190.344 13.0547C190.338 14.3357 190.338 15.6164 190.338 16.8975C191.847 16.321 193.275 15.5116 194.574 14.3645C194.574 13.0834 194.574 11.8083 194.574 10.5389Z" fill="#BAEAFA"/>
<path d="M190.371 9.21726C189.201 9.70053 187.993 10.0613 186.828 10.3175C186.806 11.5695 186.796 12.8213 186.785 14.0732C187.977 13.8403 189.185 13.5204 190.344 13.0546C190.355 11.7736 190.36 10.4983 190.371 9.21726Z" fill="#BAEAFA"/>
<path d="M190.343 13.0557C189.184 13.5215 187.976 13.8414 186.784 14.0743C186.779 15.3321 186.773 16.584 186.779 17.8359C187.992 17.638 189.189 17.3352 190.338 16.8985C190.338 15.6174 190.338 14.3367 190.343 13.0557Z" fill="#BAEAFA"/>
<path d="M186.828 10.3178C185.234 10.6788 183.628 10.6729 182.007 10.6729C181.975 11.919 181.959 13.1827 181.943 14.4404C183.564 14.4288 185.191 14.388 186.785 14.0735C186.796 12.8216 186.807 11.5697 186.828 10.3178Z" fill="#BAEAFA"/>
<path d="M186.785 14.0735C185.191 14.388 183.564 14.4288 181.943 14.4404C181.932 15.6982 181.927 16.962 181.932 18.2197C183.548 18.2021 185.18 18.103 186.78 17.8351C186.774 16.5832 186.78 15.3313 186.785 14.0735Z" fill="#BAEAFA"/>
<path d="M182.008 10.6729C163.046 10.6729 144.085 10.6729 125.124 10.6729C124.764 11.8491 124.453 13.0372 124.179 14.2368C143.398 14.2484 162.73 14.5744 181.943 14.4404C181.96 13.1827 181.975 11.919 182.008 10.6729Z" fill="#BAEAFA"/>
<path d="M181.941 14.4399C162.728 14.5738 143.396 14.2479 124.177 14.2362C123.909 15.4357 123.678 16.647 123.484 17.864C142.961 17.8873 162.459 18.4928 181.931 18.2192C181.925 16.9614 181.931 15.6976 181.941 14.4399Z" fill="#BAEAFA"/>
<path d="M125.121 10.6734C117.417 10.6734 109.708 10.6734 102.005 10.6734C101.527 11.8147 101.113 12.9853 100.748 14.1616C108.565 14.1964 116.381 14.2315 124.176 14.2373C124.45 13.0378 124.761 11.8497 125.121 10.6734Z" fill="#BAEAFA"/>
<path d="M124.18 14.2364C116.385 14.2304 108.568 14.1955 100.752 14.1607C100.387 15.3427 100.081 16.5305 99.8176 17.73C107.709 17.7941 115.595 17.8526 123.487 17.8643C123.68 16.6472 123.911 15.4359 124.18 14.2364Z" fill="#BAEAFA"/>
<path d="M102.004 10.674C94.3002 10.674 86.5911 10.674 78.8874 10.674C78.2915 11.7862 77.7762 12.9217 77.3198 14.0746C85.1148 14.0862 92.9312 14.1272 100.748 14.1621C101.113 12.9859 101.526 11.8153 102.004 10.674Z" fill="#BAEAFA"/>
<path d="M100.75 14.1602C92.9335 14.1253 85.1172 14.0843 77.3222 14.0726C76.8659 15.2256 76.4794 16.3905 76.1466 17.5726C84.0382 17.6018 91.9243 17.6713 99.8159 17.7295C100.079 16.53 100.385 15.3422 100.75 14.1602Z" fill="#BAEAFA"/>
<path d="M78.8906 10.6734C71.3104 10.6734 63.7301 10.6734 56.1498 10.6734C55.7955 11.2149 55.4627 11.7625 55.1513 12.3156C62.7584 12.3272 70.446 12.3564 78.0531 12.3564C78.3162 11.7916 78.5954 11.2266 78.8906 10.6734Z" fill="#BAEAFA"/>
<path d="M78.0547 12.3557C70.4476 12.3557 62.76 12.3265 55.1529 12.3149C54.8415 12.8681 54.5464 13.4268 54.278 13.9916C61.9495 14.0264 69.6531 14.0558 77.3246 14.0732C77.5501 13.4968 77.797 12.9263 78.0547 12.3557Z" fill="#BAEAFA"/>
<path d="M77.3242 14.0733C69.6527 14.0557 61.9491 14.0271 54.2776 13.9921C53.73 15.1218 53.2629 16.2689 52.8603 17.4277C60.623 17.5034 68.3859 17.5441 76.1486 17.5732C76.4814 16.3912 76.8679 15.2262 77.3242 14.0733Z" fill="#BAEAFA"/>
<path d="M56.1484 10.6732C49.3198 10.6732 42.4912 10.6732 35.6679 10.6732C35.2653 11.1972 34.8842 11.733 34.5245 12.2687C41.3692 12.2047 48.3052 12.3037 55.1499 12.3154C55.4613 11.7623 55.7941 11.2147 56.1484 10.6732Z" fill="#BAEAFA"/>
<path d="M55.1523 12.315C48.3076 12.3034 41.3717 12.2043 34.5269 12.2683C34.1726 12.804 33.8398 13.3514 33.5284 13.8988C40.4054 13.7008 47.4004 13.9573 54.2774 13.9922C54.5458 13.4274 54.841 12.8682 55.1523 12.315Z" fill="#BAEAFA"/>
<path d="M54.2734 13.9922C47.3965 13.9574 40.4014 13.7008 33.5244 13.8988C32.9017 14.9993 32.3648 16.1232 31.9085 17.2645C38.8392 16.8626 45.9416 17.3637 52.8562 17.4277C53.2588 16.269 53.7259 15.1219 54.2734 13.9922Z" fill="#BAEAFA"/>
<path d="M35.668 10.6731C35.0399 10.6731 34.4171 10.6965 33.7997 10.7548C32.9837 11.8146 32.2698 12.9034 31.6417 14.0098C32.2645 13.9574 32.898 13.9224 33.5261 13.8991C34.1488 12.8044 34.8574 11.7212 35.668 10.6731Z" fill="#BAEAFA"/>
<path d="M33.5273 13.898C32.8993 13.9212 32.2657 13.9563 31.643 14.0087C31.0203 15.115 30.4781 16.2445 30.0165 17.3975C30.6445 17.3451 31.278 17.2986 31.9115 17.2637C32.3678 16.1224 32.9046 14.9985 33.5273 13.898Z" fill="#BAEAFA"/>
<path d="M33.8008 10.754C31.3903 10.9695 29.0928 11.6044 26.9615 12.5827C26.1617 13.4794 25.4423 14.4516 24.7981 15.459C26.9294 14.6671 29.2216 14.2012 31.6428 14.009C32.2709 12.9027 32.9848 11.8138 33.8008 10.754Z" fill="#BAEAFA"/>
<path d="M31.6406 14.0096C29.2194 14.2017 26.9272 14.6676 24.7959 15.4596C24.1517 16.4611 23.5827 17.5095 23.0619 18.5518C25.2415 17.9054 27.5768 17.5731 30.0141 17.3984C30.4757 16.2455 31.0179 15.116 31.6406 14.0096Z" fill="#BAEAFA"/>
<path d="M26.9609 12.583C26.1611 13.4797 25.4417 14.4519 24.7975 15.4593C23.7346 15.8494 22.7091 16.3326 21.7267 16.8975C22.387 15.9716 23.1062 15.0984 23.9008 14.3123C24.8725 13.6543 25.8926 13.0721 26.9609 12.583Z" fill="#BAEAFA"/>
<path d="M23.9023 14.3121C23.1078 15.0982 22.3886 15.9714 21.7282 16.8972C20.7512 17.4679 19.8117 18.1259 18.9259 18.8828C19.6131 18.0385 20.3485 17.2467 21.1376 16.5072C22.0073 15.7037 22.9253 14.9642 23.9023 14.3121Z" fill="#BAEAFA"/>
<path d="M24.7969 15.4591C22.671 16.2452 20.7007 17.3689 18.9237 18.8828C18.2365 19.733 17.6031 20.63 17.0287 21.5791C18.854 20.1584 20.8833 19.1976 23.0629 18.5513C23.5836 17.509 24.1526 16.4606 24.7969 15.4591Z" fill="#BAEAFA"/>
<path d="M194.574 14.365C194.574 23.8971 194.574 33.4291 194.574 42.9612C192.781 44.679 190.768 45.6342 188.642 46.1641C188.583 36.6262 188.465 26.9485 188.578 17.4572C190.73 16.8982 192.776 15.9488 194.574 14.365Z" fill="#BAEAFA"/>
<path d="M188.576 17.4568C188.463 26.9482 188.582 36.6258 188.641 46.1637C186.515 46.6936 184.276 46.7927 182.027 46.7869C181.914 37.2431 181.704 27.6702 181.93 18.2197C184.158 18.1904 186.418 18.0217 188.576 17.4568Z" fill="#BAEAFA"/>
<path d="M181.931 18.2199C162.459 18.4936 142.961 17.8881 123.484 17.8648C122.046 26.9776 122.636 36.6084 122.856 46.1871C142.58 46.3792 162.304 46.7231 182.027 46.7871C181.915 37.2434 181.705 27.6705 181.931 18.2199Z" fill="#BAEAFA"/>
<path d="M123.484 17.8642C107.707 17.8466 91.9235 17.6313 76.1456 17.5731C73.7567 26.4355 74.5297 36.0954 74.841 45.709C90.8444 45.8662 106.853 46.0235 122.856 46.1865C122.636 36.6078 122.046 26.9771 123.484 17.8642Z" fill="#BAEAFA"/>
<path d="M76.1484 17.5731C73.6897 26.4297 74.3983 36.0954 74.6452 45.709C74.7097 45.709 74.7795 45.709 74.8439 45.709C74.5325 36.0954 73.7595 26.4356 76.1484 17.5731Z" fill="#BAEAFA"/>
<path d="M76.1484 17.5731C68.3857 17.5438 60.6228 17.5032 52.8601 17.4275C49.9074 26.0862 50.6804 35.6882 50.9381 45.2319C58.8405 45.3833 66.7429 45.6275 74.6452 45.709C74.3983 36.0954 73.6897 26.4297 76.1484 17.5731Z" fill="#BAEAFA"/>
<path d="M52.8594 17.427C45.3113 17.3572 37.5433 16.7688 30.0168 17.3976C26.5595 25.9922 27.3808 35.6755 27.6438 45.3008C35.4012 45.0271 43.1693 45.0854 50.9374 45.2309C50.6797 35.6872 49.9067 26.0857 52.8594 17.427Z" fill="#BAEAFA"/>
<path d="M30.0156 17.398C25.1411 17.7474 20.6852 18.7376 17.0293 21.5792C14.7155 25.3874 13.3679 29.9526 13.3679 34.8555C17.5822 32.9805 22.3494 32.2525 27.401 32.0195C27.5352 26.9478 28.1581 22.0156 30.0156 17.398Z" fill="#BAEAFA"/>
<path d="M27.4028 32.0203C27.2848 36.3817 27.521 40.848 27.6445 45.3025C25.1482 45.3899 22.7001 45.5702 20.3165 45.8672C20.2574 41.599 20.0105 37.0514 20.0696 32.824C22.421 32.3756 24.8743 32.1368 27.4028 32.0203Z" fill="#BAEAFA"/>
<path d="M20.0656 32.8232C20.0065 37.0506 20.2535 41.5982 20.3125 45.8664C17.9236 46.1633 15.6044 46.5767 13.3658 47.124C13.3658 43.0364 13.3658 38.9432 13.3658 34.8555C15.4756 33.918 17.7196 33.2657 20.0656 32.8232Z" fill="#BAEAFA"/>
<path d="M194.574 42.9612C194.574 46.8917 194.574 50.8163 194.574 54.7468C192.813 56.546 190.827 57.513 188.707 58.0312C188.878 54.1124 188.631 49.9839 188.642 46.1641C190.768 45.6342 192.781 44.679 194.574 42.9612Z" fill="#BAEAFA"/>
<path d="M188.64 46.1645C188.63 49.9843 188.876 54.1128 188.705 58.0316C186.589 58.5499 184.351 58.6139 182.08 58.6081C182.413 54.6951 182.01 50.5026 182.026 46.7876C184.276 46.7936 186.514 46.6944 188.64 46.1645Z" fill="#BAEAFA"/>
<path d="M194.574 54.7462C194.574 56.365 194.311 57.9141 193.828 59.3523C192.062 61.169 190.065 62.1242 187.939 62.6191C188.401 61.1867 188.642 59.6262 188.707 58.0307C190.827 57.5125 192.813 56.5455 194.574 54.7462Z" fill="#BAEAFA"/>
<path d="M188.707 58.0306C188.643 59.6261 188.401 61.1865 187.939 62.619C185.808 63.1139 183.548 63.1489 181.256 63.1256C181.701 61.699 181.948 60.1734 182.082 58.607C184.353 58.6131 186.592 58.5488 188.707 58.0306Z" fill="#BAEAFA"/>
<path d="M182.028 46.787C182.006 51.9868 182.806 58.1299 181.254 63.126C171.446 63.0794 161.644 62.9396 151.835 62.7999C153.07 57.6525 152.442 51.8292 152.442 46.5362C162.304 46.6526 172.166 46.7578 182.028 46.787Z" fill="#BAEAFA"/>
<path d="M152.444 46.5355C142.583 46.4132 132.721 46.2794 122.859 46.1862C122.87 48.8764 122.993 51.6189 122.993 54.3499C132.828 54.4314 142.717 54.5829 152.605 54.7227C152.6 51.9626 152.444 49.1849 152.444 46.5355Z" fill="#BAEAFA"/>
<path d="M152.605 54.7233C142.717 54.5835 132.828 54.432 122.993 54.3505C122.993 57.0756 122.88 59.7952 122.419 62.4388C132.227 62.5087 142.035 62.6542 151.838 62.7998C152.455 60.2261 152.605 57.4833 152.605 54.7233Z" fill="#BAEAFA"/>
<path d="M122.858 46.187C106.855 46.0239 90.846 45.8667 74.8427 45.7094C74.891 48.4345 74.9983 51.1889 75.0358 53.9315C90.9694 54.0771 107.059 54.2516 122.992 54.3506C122.992 51.6196 122.869 48.8771 122.858 46.187Z" fill="#BAEAFA"/>
<path d="M122.992 54.3502C107.059 54.2511 90.9694 54.0767 75.0358 53.9311C75.0788 56.6737 75.0523 59.4161 74.832 62.1237C90.6957 62.246 106.559 62.4094 122.418 62.4385C122.879 59.7949 122.992 57.0753 122.992 54.3502Z" fill="#BAEAFA"/>
<path d="M74.8445 45.7102C74.9357 51.1663 75.274 56.7097 74.8338 62.125C67.0281 62.0609 59.2277 62.0027 51.4273 61.9794C51.6367 56.4884 51.3629 50.747 51.2448 45.2386C59.1149 45.39 66.9797 45.6287 74.8445 45.7102Z" fill="#BAEAFA"/>
<path d="M51.2409 45.2375C51.359 50.746 51.6328 56.4874 51.4234 61.9784C43.6231 61.9491 35.8173 61.9555 28.017 62.002C28.0007 56.4352 27.7862 50.8623 27.6413 45.3015C35.5006 45.022 43.3708 45.0861 51.2409 45.2375Z" fill="#BAEAFA"/>
<path d="M27.6438 45.3011C27.7888 50.8619 28.0034 56.4344 28.0195 62.0011C25.5823 62.0187 23.1129 62.0943 20.6595 62.1875C20.6539 56.8421 20.391 51.2111 20.3158 45.8657C22.6994 45.5687 25.1475 45.3884 27.6438 45.3011Z" fill="#BAEAFA"/>
<path d="M20.3125 45.8669C20.3877 51.2123 20.6509 56.8433 20.6562 62.1887C18.2029 62.2818 15.7602 62.3981 13.3658 62.4971C13.3658 57.3729 13.3658 52.2487 13.3658 47.1245C15.6045 46.5772 17.9236 46.1638 20.3125 45.8669Z" fill="#BAEAFA"/>
<path d="M193.828 59.3523C192.534 60.6857 191.112 61.5536 189.608 62.1184C189.313 63.0559 188.97 63.9525 188.551 64.7852C190.043 64.1679 191.423 63.2476 192.631 61.9782C193.114 61.1572 193.517 60.2781 193.828 59.3523Z" fill="#BAEAFA"/>
<path d="M192.633 61.9794C191.425 63.2488 190.045 64.1691 188.553 64.7863C188.134 65.6248 187.635 66.399 187.023 67.1152C188.505 66.4339 189.836 65.4501 190.953 64.2389C191.586 63.5518 192.15 62.7946 192.633 61.9794Z" fill="#BAEAFA"/>
<path d="M189.609 62.1176C188.106 62.6824 186.517 62.9386 184.885 63.0551C184.595 64.0042 184.225 64.9126 183.774 65.7686C185.449 65.7103 187.054 65.4016 188.552 64.7844C188.97 63.9517 189.314 63.0551 189.609 62.1176Z" fill="#BAEAFA"/>
<path d="M188.551 64.7851C187.053 65.4023 185.448 65.711 183.773 65.7692C183.322 66.6252 182.796 67.4285 182.205 68.168C183.913 68.168 185.539 67.7894 187.021 67.114C187.633 66.3977 188.132 65.6236 188.551 64.7851Z" fill="#BAEAFA"/>
<path d="M184.883 63.0561C183.691 63.1376 182.478 63.1376 181.254 63.1259C180.964 64.0576 180.588 64.9542 180.137 65.7986C181.356 65.8046 182.574 65.81 183.772 65.7691C184.223 64.9131 184.593 64.0052 184.883 63.0561Z" fill="#BAEAFA"/>
<path d="M183.773 65.7692C182.576 65.8101 181.358 65.8038 180.139 65.7983C179.693 66.6426 179.167 67.4343 178.577 68.168C179.785 68.168 180.993 68.168 182.206 68.168C182.796 67.4285 183.322 66.6252 183.773 65.7692Z" fill="#BAEAFA"/>
<path d="M181.254 63.1262C171.446 63.0796 161.643 62.9398 151.835 62.8001C151.604 63.755 151.309 64.6808 150.949 65.5775C160.682 65.6765 170.42 65.7755 180.137 65.7988C180.588 64.9545 180.964 64.0578 181.254 63.1262Z" fill="#BAEAFA"/>
<path d="M180.137 65.7983C170.42 65.775 160.681 65.6759 150.948 65.5769C150.589 66.4737 150.159 67.3353 149.665 68.168C159.302 68.168 168.938 68.168 178.575 68.168C179.165 67.4343 179.691 66.6426 180.137 65.7983Z" fill="#BAEAFA"/>
<path d="M151.836 62.7997C142.033 62.6541 132.225 62.5086 122.417 62.4387C122.25 63.4169 122.036 64.3836 121.762 65.3386C131.484 65.3734 141.217 65.4782 150.95 65.5771C151.31 64.6804 151.605 63.7546 151.836 62.7997Z" fill="#BAEAFA"/>
<path d="M150.949 65.5769C141.216 65.478 131.483 65.3733 121.761 65.3384C121.487 66.2991 121.16 67.2363 120.757 68.168C130.394 68.168 140.03 68.168 149.666 68.168C150.16 67.3353 150.59 66.4737 150.949 65.5769Z" fill="#BAEAFA"/>
<path d="M122.418 62.4385C122.085 64.395 121.559 66.3105 120.759 68.168C105.293 68.168 89.8209 68.168 74.3544 68.168C74.7838 66.2115 75.0522 64.1268 75.2187 62.1237C90.9536 62.2518 106.688 62.4094 122.418 62.4385Z" fill="#BAEAFA"/>
<path d="M75.2188 62.1237C75.0523 64.1268 74.7839 66.2115 74.3545 68.168C66.6185 68.168 58.8827 68.168 51.1468 68.168C51.3239 66.1416 51.5708 64.0161 51.6191 61.9781C59.4892 62.0014 67.354 62.0596 75.2188 62.1237Z" fill="#BAEAFA"/>
<path d="M51.6172 61.9781C51.5689 64.0161 51.322 66.1416 51.1449 68.168C43.409 68.168 35.6784 68.168 27.9425 68.168C28.0015 66.1125 28.0229 64.0572 28.0175 62.0017C35.8823 61.9493 43.7524 61.9489 51.6172 61.9781Z" fill="#BAEAFA"/>
<path d="M28.0187 62.0017C28.0243 64.0572 28.0025 66.1125 27.9436 68.168C25.5117 68.168 23.0851 68.168 20.6532 68.168C20.6853 66.194 20.664 64.1621 20.6589 62.1881C23.1122 62.095 25.5814 62.0192 28.0187 62.0017Z" fill="#BAEAFA"/>
<path d="M20.66 62.1881C20.6651 64.1621 20.6869 66.194 20.6543 68.168C18.2278 68.168 15.8013 68.168 13.3694 68.168C13.3694 66.2756 13.3694 64.3831 13.3694 62.4965C15.7637 62.3975 18.2066 62.2813 20.66 62.1881Z" fill="#BAEAFA"/>
</g>
</g>
<mask id="mask2_2775_7732" style="mask-type:luminance" maskUnits="userSpaceOnUse" x="3" y="21" width="25" height="63">
<path d="M17.1824 21.1182C17.0552 21.3355 16.9281 21.5529 16.8009 21.7697C16.4999 22.2848 16.1989 22.7994 15.8979 23.3144C15.5172 24.1601 15.1597 25.0379 14.8283 25.9314C14.4168 27.0432 14.0461 28.1797 13.7228 29.3114C13.5823 29.8023 13.4509 30.2932 13.3289 30.7804C11.5699 37.997 9.81099 45.2136 8.05206 52.4307C7.08396 56.4015 6.1163 60.3727 5.1482 64.3435C4.5783 66.6814 4.00884 69.0188 3.43894 71.3562C2.71576 74.3229 2.86946 77.4902 4.01996 80.2935C4.52735 81.5297 5.19359 82.6035 6.04993 83.0424C6.279 82.5677 6.50851 82.0926 6.73758 81.618C7.26594 80.5238 7.79387 79.4297 8.32224 78.335C9.01673 76.8967 9.71123 75.4579 10.4057 74.0192C10.5201 73.7828 10.6344 73.5459 10.7487 73.3091C14.3231 65.9044 17.8979 58.4992 21.4723 51.0945C23.6106 46.6654 25.7484 42.2362 27.8867 37.8071C27.8867 37.8071 27.8006 37.7899 27.6435 37.7523C25.6953 37.2883 12.8245 33.7155 17.1824 21.1182Z" fill="white"/>
</mask>
<g mask="url(#mask2_2775_7732)">
<mask id="mask3_2775_7732" style="mask-type:luminance" maskUnits="userSpaceOnUse" x="2" y="21" width="26" height="63">
<path d="M17.1785 21.1191C17.0513 21.3365 16.9242 21.5538 16.797 21.7707C16.496 22.2858 16.195 22.8003 15.894 23.3154C15.5133 24.1611 15.1558 25.0388 14.8244 25.9324C14.4129 27.0442 14.0422 28.1806 13.7189 29.3124C13.5784 29.8033 13.447 30.2942 13.325 30.7814C11.566 37.998 9.80708 45.2146 8.04815 52.4316C7.08005 56.4024 6.11239 60.3737 5.14429 64.3445C4.5744 66.6823 4.00493 69.0198 3.43503 71.3572C2.71185 74.3239 2.86556 77.4912 4.01606 80.2944C4.52344 81.5307 5.18968 82.6045 6.04603 83.0433C6.2751 82.5687 6.5046 82.0936 6.73367 81.619C7.26204 80.5248 7.78996 79.4306 8.31833 78.336C9.01282 76.8977 9.70733 75.4589 10.4018 74.0201C10.5161 73.7838 10.6305 73.5469 10.7448 73.31C14.3192 65.9054 17.894 58.5002 21.4684 51.0955C23.6067 46.6664 25.7445 42.2372 27.8828 37.808C27.8828 37.808 27.7967 37.7908 27.6396 37.7532C25.6914 37.2893 12.8206 33.7165 17.1785 21.1191Z" fill="white"/>
</mask>
<g mask="url(#mask3_2775_7732)">
<path d="M17.1768 21.1194C17.1139 21.2275 17.051 21.3356 16.9881 21.4437C14.8484 27.678 16.8885 31.7595 19.6811 34.3477C19.7859 34.2424 19.8909 34.1341 20.043 33.9862C17.1271 31.4606 14.9978 27.4163 17.1768 21.1194Z" fill="#000033" fill-opacity="0.82"/>
<path d="M20.0443 33.9865C19.8922 34.1344 19.7873 34.2427 19.6824 34.348C22.475 36.9361 26.0202 38.0282 26.8882 38.2842C27.1478 38.1164 27.3967 37.9371 27.6406 37.7522C26.6678 37.5218 22.9628 36.512 20.0443 33.9865Z" fill="#000033" fill-opacity="0.82"/>
<path d="M16.988 21.4441C12.706 33.9099 25.1482 37.7724 26.8867 38.2843C26.6297 38.4549 26.3649 38.6199 26.0948 38.7764C24.5635 38.2132 12.5934 34.1032 16.7967 21.7711C16.8596 21.663 16.9224 21.5522 16.988 21.4441Z" fill="#000033" fill-opacity="0.82"/>
<path d="M16.7995 21.7716C16.498 22.2864 16.1964 22.801 15.8974 23.3158C12.2081 34.6981 22.1487 39.2404 21.9861 40.7393C23.4047 40.1306 24.8155 39.5191 26.0977 38.7768C24.5663 38.2137 12.5963 34.1037 16.7995 21.7716Z" fill="#000033" fill-opacity="0.82"/>
<path d="M15.8976 23.3152C15.5148 24.1599 15.1582 25.0391 14.8278 25.9321C11.8936 35.8439 18.6064 41.077 15.7404 44.0576C17.5261 42.6356 19.7653 41.6914 21.9863 40.7387C22.1489 39.2398 12.2083 34.6975 15.8976 23.3152Z" fill="#000033" fill-opacity="0.82"/>
<path d="M14.8272 25.9326C11.8931 35.8445 18.6058 41.0775 15.7398 44.0581C15.1839 44.5018 14.7329 45.0594 14.3343 45.6709C16.9931 42.0645 11.7331 36.3763 14.5258 26.7717C14.6228 26.4901 14.7224 26.2114 14.8272 25.9326Z" fill="#000033" fill-opacity="0.82"/>
<path d="M14.5253 26.7724C11.7327 36.377 16.9927 42.0653 14.3338 45.6716C13.9352 46.2802 13.5865 46.9457 13.2352 47.6055C15.4404 42.6311 11.7564 36.5474 14.2395 27.6169C14.3313 27.3325 14.4283 27.0511 14.5253 26.7724Z" fill="#000033" fill-opacity="0.82"/>
<path d="M14.2422 27.6165C13.0028 32.0818 13.3013 35.8361 13.6367 39.0955C13.3957 39.286 13.1548 39.4766 12.8901 39.7041C12.864 36.2684 12.8857 32.5939 13.9748 28.4642C14.0612 28.1798 14.1505 27.898 14.2422 27.6165Z" fill="#000033" fill-opacity="0.82"/>
<path d="M13.9727 28.4638C12.8845 32.5935 12.861 36.268 12.8872 39.7038C12.625 39.9284 12.339 40.1929 12.0087 40.5342C12.3259 36.9733 12.7035 33.2876 13.7209 29.3115C13.8022 29.0299 13.8861 28.7454 13.9727 28.4638Z" fill="#000033" fill-opacity="0.82"/>
<path d="M13.632 39.0949C13.1495 39.4788 12.667 39.8514 12.0063 40.5339C11.6916 44.0948 11.4348 47.5334 10.6638 51.0146C11.8203 50.2154 12.5334 48.9214 13.2335 47.6045C14.3375 45.1159 13.9676 42.3542 13.632 39.0949Z" fill="#000033" fill-opacity="0.82"/>
<path d="M13.7188 29.3115C13.6479 29.5589 13.5798 29.8035 13.5143 30.048C12.5677 33.8421 11.9436 37.4967 11.351 41.0889C11.5582 40.9495 11.7652 40.8016 12.0065 40.5342C12.3238 36.9734 12.7013 33.2876 13.7188 29.3115Z" fill="#000033" fill-opacity="0.82"/>
<path d="M12.0078 40.5347C11.7666 40.802 11.5595 40.95 11.3524 41.0893C10.7597 44.6815 10.1959 48.214 9.37 51.7578C9.81311 51.536 10.2485 51.3026 10.6654 51.0154C11.4363 47.5341 11.6931 44.0955 12.0078 40.5347Z" fill="#000033" fill-opacity="0.82"/>
<path d="M13.5156 30.0481C13.4501 30.2927 13.3871 30.5374 13.3268 30.782C12.4458 34.3912 11.5674 37.9973 10.689 41.6064C10.9355 41.3647 11.1452 41.2312 11.3524 41.089C11.945 37.4968 12.569 33.8422 13.5156 30.0481Z" fill="#000033" fill-opacity="0.82"/>
<path d="M11.3516 41.0882C11.1444 41.2304 10.9346 41.364 10.6882 41.6057C9.80714 45.2149 8.9287 48.8243 8.04765 52.4307C8.48293 52.1917 8.92863 51.9814 9.36917 51.7567C10.1951 48.2129 10.7589 44.6804 11.3516 41.0882Z" fill="#000033" fill-opacity="0.82"/>
<path d="M27.6417 37.7523C27.7989 37.7895 27.8828 37.8095 27.8828 37.8095C27.6024 37.9858 27.3116 38.1562 27.0129 38.3184C27.0129 38.3137 26.971 38.3039 26.8898 38.2839C27.1492 38.1161 27.398 37.9372 27.6417 37.7523Z" fill="#000033" fill-opacity="0.82"/>
<path d="M26.8887 38.2847C26.9699 38.3046 27.0117 38.3159 27.0117 38.3191C26.713 38.4841 26.409 38.6402 26.0998 38.7881C26.0998 38.7825 26.0999 38.7772 26.0956 38.7772C26.3655 38.6207 26.6302 38.4557 26.887 38.2851L26.8887 38.2847Z" fill="#000033" fill-opacity="0.82"/>
<path d="M27.8828 37.8098C27.6022 37.9862 27.3112 38.1566 27.0123 38.3187C26.4616 39.5388 25.2738 42.1413 24.0518 44.792C24.2458 44.7095 24.44 44.6211 24.6786 44.4505C25.7458 42.2377 26.8156 40.0226 27.8828 37.8098Z" fill="#000033" fill-opacity="0.82"/>
<path d="M24.6758 44.4504C24.4372 44.621 24.243 44.7094 24.049 44.7919C22.8244 47.4455 21.5684 50.1504 20.8814 51.5781C21.0781 51.416 21.2721 51.2563 21.4662 51.0942C22.536 48.8815 23.6059 46.6659 24.6758 44.4504Z" fill="#000033" fill-opacity="0.82"/>
<path d="M27.0117 38.319C25.9104 40.7592 22.2603 48.723 20.8837 51.5785C20.6871 51.7406 20.4879 51.9024 20.2912 52.0674C20.9048 50.7847 26.031 39.2406 26.0991 38.7884C26.4086 38.6404 26.7128 38.4839 27.0117 38.319Z" fill="#000033" fill-opacity="0.82"/>
<path d="M26.0956 38.7767C26.2162 38.8195 20.9143 50.7616 20.2902 52.0671C19.0814 53.0597 17.8437 54.0838 16.6192 55.1162C17.259 53.6088 20.707 42.3259 20.7805 41.2594C22.5924 40.4687 24.4515 39.7295 26.0956 38.7767Z" fill="#000033" fill-opacity="0.82"/>
<path d="M20.7812 41.2594C18.9693 42.05 17.2021 42.8921 15.7389 44.0581C15.6052 45.1048 15.0912 48.2162 14.5326 51.2793C15.8385 50.1815 17.3595 49.0866 18.9118 48.0229C19.8636 44.8802 20.7445 41.7912 20.7812 41.2594Z" fill="#000033" fill-opacity="0.82"/>
<path d="M18.9102 48.0234C17.3579 49.0871 15.8368 50.1819 14.531 51.2798C13.9699 54.3429 13.3616 57.3578 13.0339 58.2139C14.185 57.1871 15.3938 56.1491 16.6183 55.1167C16.9382 54.363 17.9609 51.1662 18.9102 48.0234Z" fill="#000033" fill-opacity="0.82"/>
<path d="M15.7383 44.0579C14.6265 44.9452 13.9368 46.2848 13.2341 47.6045C12.9378 49.1688 12.408 51.7627 11.8364 54.3281C12.6729 53.2502 13.4962 52.1493 14.532 51.279C15.0905 48.2159 15.6046 45.1045 15.7383 44.0579Z" fill="#000033" fill-opacity="0.82"/>
<path d="M14.5312 51.2791C13.4955 52.1494 12.6722 53.2503 11.8357 54.3282C11.2667 56.8936 10.6531 59.4304 10.1864 60.8809C11.1408 59.9907 12.077 59.0692 13.0341 58.2132C13.3619 57.3571 13.9701 54.3422 14.5312 51.2791Z" fill="#000033" fill-opacity="0.82"/>
<path d="M13.2344 47.6049C12.6392 50.7334 11.1209 57.9802 10.1874 60.8812C9.23293 61.7742 8.2601 62.6333 7.23223 63.3643C8.44627 59.2716 9.73913 55.1844 10.6647 51.015C11.8211 50.2158 12.5343 48.9217 13.2344 47.6049Z" fill="#000033" fill-opacity="0.82"/>
<path d="M10.668 51.0144C9.74239 55.1839 8.44952 59.271 7.23548 63.3637C6.93131 63.5799 6.57478 63.7477 6.21293 63.8984C7.30374 59.8655 8.42598 55.8296 9.37258 51.7569C9.8157 51.535 10.2511 51.3017 10.668 51.0144Z" fill="#000033" fill-opacity="0.82"/>
<path d="M9.37109 51.7573C8.93055 51.982 8.48485 52.1923 8.04957 52.4313C7.80834 53.4239 7.56711 54.4166 7.32327 55.4092C7.74279 55.1845 8.19107 54.9994 8.63162 54.806C8.88856 53.7907 9.13509 52.7755 9.37109 51.7573Z" fill="#000033" fill-opacity="0.82"/>
<path d="M8.63281 54.8058C8.19227 54.9993 7.74398 55.1843 7.32446 55.409C7.08323 56.4016 6.84194 57.3942 6.60067 58.3896C6.98354 58.1906 7.41885 58.0228 7.8463 57.8436C8.11373 56.8311 8.37844 55.8183 8.63281 54.8058Z" fill="#000033" fill-opacity="0.82"/>
<path d="M7.84375 57.8427C7.41631 58.0219 6.98099 58.1897 6.59812 58.3888C6.35428 59.3813 6.11305 60.3736 5.87182 61.3662C6.21795 61.1928 6.62687 61.0392 7.03068 60.8714C7.30339 59.8617 7.57627 58.8524 7.84375 57.8427Z" fill="#000033" fill-opacity="0.82"/>
<path d="M7.03125 60.872C6.62744 61.0398 6.21852 61.1934 5.87238 61.3668C5.63115 62.3594 5.38731 63.3521 5.14608 64.3447C5.47646 64.1855 5.84615 64.0492 6.21066 63.8984C6.48336 62.8888 6.75855 61.8817 7.03125 60.872Z" fill="#000033" fill-opacity="0.82"/>
<path d="M21.4688 51.0937C21.2747 51.2558 21.0806 51.4155 20.884 51.5776C19.1167 55.2522 17.394 58.9321 15.687 62.6152C15.8338 62.4787 15.9832 62.3423 16.1091 62.203C17.8948 58.4999 19.6831 54.7968 21.4688 51.0937Z" fill="#000033" fill-opacity="0.82"/>
<path d="M16.1094 62.204C15.9835 62.3434 15.8341 62.4797 15.6873 62.6163C14.8325 64.4593 13.9801 66.3025 13.1306 68.1426C13.2407 68.0118 13.3484 67.8812 13.427 67.7589C14.3212 65.9073 15.2152 64.0556 16.1094 62.204Z" fill="#000033" fill-opacity="0.82"/>
<path d="M13.4297 67.7582C13.351 67.8805 13.2434 68.0111 13.1332 68.1419C12.2836 69.9849 11.4315 71.8249 10.5767 73.665C10.6344 73.5455 10.6922 73.4294 10.7498 73.3099C11.6414 71.4584 12.5355 69.6069 13.4297 67.7582Z" fill="#000033" fill-opacity="0.82"/>
<path d="M20.8867 51.5784C20.6901 51.7405 20.4909 51.9023 20.2942 52.0673C18.5478 55.7106 16.8907 59.371 15.2624 63.0342C15.3909 62.892 15.5402 62.7554 15.6897 62.616C17.3967 58.9329 19.1194 55.253 20.8867 51.5784Z" fill="#000033" fill-opacity="0.82"/>
<path d="M15.6875 62.6155C15.538 62.7549 15.3887 62.8914 15.2602 63.0337C13.6318 66.6969 12.0347 70.3629 10.4037 74.0205C10.4614 73.9011 10.5192 73.7844 10.5743 73.6649C12.284 69.9846 13.9779 66.2987 15.6875 62.6155Z" fill="#000033" fill-opacity="0.82"/>
<path d="M20.2891 52.0671C16.7989 59.3537 13.6601 66.7058 10.4007 74.0209C10.052 74.7404 9.70593 75.4601 9.3598 76.1797C9.87373 69.6524 13.8726 61.3761 16.618 55.1162C17.8426 54.0838 19.0802 53.0597 20.2891 52.0671Z" fill="#000033" fill-opacity="0.82"/>
<path d="M16.6211 55.1157C15.3965 56.1481 14.1878 57.1862 13.0366 58.2129C12.0349 60.8323 10.2991 64.4274 9.09024 68.085C9.84018 67.2146 10.994 66.3784 12.1556 65.5479C13.5611 61.879 15.2497 58.247 16.6211 55.1157Z" fill="#000033" fill-opacity="0.82"/>
<path d="M12.1523 65.5486C10.9908 66.379 9.83692 67.2153 9.08698 68.0856C7.87816 71.746 7.20174 75.4662 8.31615 78.3359C8.66489 77.6192 9.01086 76.8994 9.35961 76.1798C9.6166 72.9148 10.7443 69.2146 12.1523 65.5486Z" fill="#000033" fill-opacity="0.82"/>
<path d="M13.0352 58.2125C12.0781 59.0686 11.1419 59.99 10.1874 60.8802C9.35884 63.292 7.80918 66.9297 6.90715 70.5332C7.6964 69.6686 8.47782 68.7871 9.08878 68.0846C10.2976 64.427 12.0335 60.8319 13.0352 58.2125Z" fill="#000033" fill-opacity="0.82"/>
<path d="M9.08984 68.0856C8.47888 68.788 7.69746 69.6696 6.90821 70.5342C6.0088 74.1405 5.75708 77.707 7.52706 79.9795C7.79188 79.4305 8.0568 78.8848 8.31901 78.3359C7.2046 75.4662 7.88103 71.7459 9.08984 68.0856Z" fill="#000033" fill-opacity="0.82"/>
<path d="M10.1875 60.8809C8.5303 65.7046 3.98614 75.4371 7.52606 79.9792C7.26119 80.5253 6.99893 81.0712 6.73411 81.6201C1.88574 78.2783 5.92387 67.7724 7.23232 63.364C8.26019 62.6331 9.23302 61.774 10.1875 60.8809Z" fill="#000033" fill-opacity="0.82"/>
<path d="M7.23438 63.3635C6.62603 63.7958 5.81065 64.026 5.14724 64.3445C4.57825 66.6824 4.00648 69.0206 3.43748 71.3584C4.04061 70.8578 4.74069 70.4139 5.30969 69.8422C5.94424 67.3081 6.76501 64.9448 7.23438 63.3635Z" fill="#000033" fill-opacity="0.82"/>
<path d="M5.30859 69.8428C4.7396 70.4145 4.03951 70.8584 3.43639 71.3589C2.71269 74.3254 2.8675 77.4906 4.01864 80.2949C4.30706 79.9224 4.6242 79.564 4.90216 79.1715C3.98177 76.6374 4.4931 73.0993 5.30859 69.8428Z" fill="#000033" fill-opacity="0.82"/>
<path d="M4.90147 79.1713C4.6235 79.5638 4.30636 79.9221 4.01795 80.2947C4.524 81.5319 5.18992 82.6041 6.04738 83.0449C6.27551 82.57 6.50624 82.0949 6.73438 81.6199C5.85332 81.0113 5.26593 80.1696 4.90147 79.1713Z" fill="#000033" fill-opacity="0.82"/>
</g>
</g>
</g>
<path d="M52.882 51V29.614H47.986V25.67H57.506V51H52.882ZM72.7489 51.408C70.7316 51.408 68.9636 50.864 67.4449 49.776C65.9262 48.688 64.7362 47.158 63.8749 45.186C63.0362 43.214 62.6169 40.9247 62.6169 38.318C62.6169 35.6887 63.0362 33.3993 63.8749 31.45C64.7136 29.5007 65.8922 27.982 67.4109 26.894C68.9296 25.806 70.6976 25.262 72.7149 25.262C74.7776 25.262 76.5569 25.806 78.0529 26.894C79.5716 27.982 80.7616 29.512 81.6229 31.484C82.4842 33.4333 82.9149 35.7113 82.9149 38.318C82.9149 40.9247 82.4842 43.214 81.6229 45.186C80.7842 47.1353 79.6056 48.6653 78.0869 49.776C76.5682 50.864 74.7889 51.408 72.7489 51.408ZM72.7829 47.192C73.9389 47.192 74.9249 46.8407 75.7409 46.138C76.5569 45.4127 77.1802 44.3927 77.6109 43.078C78.0642 41.7407 78.2909 40.154 78.2909 38.318C78.2909 36.482 78.0642 34.9067 77.6109 33.592C77.1802 32.2547 76.5456 31.2347 75.7069 30.532C74.8909 29.8293 73.8936 29.478 72.7149 29.478C71.5816 29.478 70.6069 29.8293 69.7909 30.532C68.9749 31.2347 68.3402 32.2547 67.8869 33.592C67.4562 34.9067 67.2409 36.482 67.2409 38.318C67.2409 40.1313 67.4562 41.7067 67.8869 43.044C68.3402 44.3587 68.9749 45.3787 69.7909 46.104C70.6296 46.8293 71.6269 47.192 72.7829 47.192ZM93.2761 51V25.67H101.538C104.213 25.67 106.536 26.214 108.508 27.302C110.503 28.3673 112.044 29.852 113.132 31.756C114.22 33.6373 114.764 35.8247 114.764 38.318C114.764 40.7887 114.22 42.9873 113.132 44.914C112.044 46.818 110.503 48.314 108.508 49.402C106.536 50.4673 104.213 51 101.538 51H93.2761ZM97.9001 46.92H101.64C103.363 46.92 104.847 46.5687 106.094 45.866C107.363 45.1407 108.349 44.1433 109.052 42.874C109.755 41.582 110.106 40.0633 110.106 38.318C110.106 36.55 109.755 35.0313 109.052 33.762C108.349 32.4927 107.363 31.5067 106.094 30.804C104.847 30.1013 103.363 29.75 101.64 29.75H97.9001V46.92ZM123.614 51.408C122.322 51.408 121.2 51.1927 120.248 50.762C119.296 50.3313 118.559 49.7193 118.038 48.926C117.516 48.11 117.256 47.1693 117.256 46.104C117.256 45.084 117.482 44.1773 117.936 43.384C118.389 42.568 119.092 41.888 120.044 41.344C120.996 40.8 122.197 40.4147 123.648 40.188L129.7 39.202V42.602L124.498 43.486C123.614 43.6447 122.956 43.928 122.526 44.336C122.095 44.744 121.88 45.2767 121.88 45.934C121.88 46.5687 122.118 47.0787 122.594 47.464C123.092 47.8267 123.704 48.008 124.43 48.008C125.359 48.008 126.175 47.8153 126.878 47.43C127.603 47.022 128.158 46.4667 128.544 45.764C128.952 45.0613 129.156 44.2907 129.156 43.452V38.692C129.156 37.8987 128.838 37.2413 128.204 36.72C127.592 36.176 126.776 35.904 125.756 35.904C124.804 35.904 123.954 36.1647 123.206 36.686C122.48 37.1847 121.948 37.8533 121.608 38.692L117.97 36.924C118.332 35.9493 118.899 35.1107 119.67 34.408C120.463 33.6827 121.392 33.116 122.458 32.708C123.523 32.3 124.679 32.096 125.926 32.096C127.444 32.096 128.782 32.3793 129.938 32.946C131.094 33.49 131.989 34.2607 132.624 35.258C133.281 36.2327 133.61 37.3773 133.61 38.692V51H129.394V47.838L130.346 47.77C129.87 48.5633 129.303 49.232 128.646 49.776C127.988 50.2973 127.24 50.7053 126.402 51C125.563 51.272 124.634 51.408 123.614 51.408ZM139.97 58.514C139.472 58.514 138.984 58.4687 138.508 58.378C138.032 58.31 137.602 58.1853 137.216 58.004V54.264C137.511 54.332 137.862 54.4 138.27 54.468C138.701 54.536 139.098 54.57 139.46 54.57C140.48 54.57 141.217 54.332 141.67 53.856C142.146 53.38 142.566 52.7567 142.928 51.986L144.152 49.13L144.084 52.87L136.026 32.504H140.82L146.464 47.532H144.764L150.374 32.504H155.202L147.144 52.87C146.668 54.0713 146.09 55.0913 145.41 55.93C144.73 56.7687 143.937 57.4033 143.03 57.834C142.146 58.2873 141.126 58.514 139.97 58.514ZM164.686 51.408C162.714 51.408 160.992 50.9433 159.518 50.014C158.068 49.062 157.07 47.7813 156.526 46.172L159.858 44.574C160.334 45.6167 160.992 46.4327 161.83 47.022C162.692 47.6113 163.644 47.906 164.686 47.906C165.502 47.906 166.148 47.7247 166.624 47.362C167.1 46.9993 167.338 46.5233 167.338 45.934C167.338 45.5713 167.236 45.2767 167.032 45.05C166.851 44.8007 166.59 44.5967 166.25 44.438C165.933 44.2567 165.582 44.1093 165.196 43.996L162.17 43.146C160.606 42.6927 159.416 42.0013 158.6 41.072C157.807 40.1427 157.41 39.0433 157.41 37.774C157.41 36.6407 157.694 35.6547 158.26 34.816C158.85 33.9547 159.654 33.286 160.674 32.81C161.717 32.334 162.907 32.096 164.244 32.096C165.99 32.096 167.531 32.5153 168.868 33.354C170.206 34.1927 171.158 35.3713 171.724 36.89L168.324 38.488C168.007 37.6493 167.474 36.9807 166.726 36.482C165.978 35.9833 165.14 35.734 164.21 35.734C163.462 35.734 162.873 35.904 162.442 36.244C162.012 36.584 161.796 37.026 161.796 37.57C161.796 37.91 161.887 38.2047 162.068 38.454C162.25 38.7033 162.499 38.9073 162.816 39.066C163.156 39.2247 163.542 39.372 163.972 39.508L166.93 40.392C168.449 40.8453 169.616 41.5253 170.432 42.432C171.271 43.3387 171.69 44.4493 171.69 45.764C171.69 46.8747 171.396 47.8607 170.806 48.722C170.217 49.5607 169.401 50.218 168.358 50.694C167.316 51.17 166.092 51.408 164.686 51.408Z" fill="#0000FF"/>
<defs>
<filter id="filter0_d_2775_7732" x="0" y="0" width="199.574" height="89.042" filterUnits="userSpaceOnUse" color-interpolation-filters="sRGB">
<feFlood flood-opacity="0" result="BackgroundImageFix"/>
<feColorMatrix in="SourceAlpha" type="matrix" values="0 0 0 0 0 0 0 0 0 0 0 0 0 0 0 0 0 0 127 0" result="hardAlpha"/>
<feOffset dx="1" dy="2"/>
<feGaussianBlur stdDeviation="2"/>
<feComposite in2="hardAlpha" operator="out"/>
<feColorMatrix type="matrix" values="0 0 0 0 0 0 0 0 0 0 0 0 0 0 0 0 0 0 0.25 0"/>
<feBlend mode="normal" in2="BackgroundImageFix" result="effect1_dropShadow_2775_7732"/>
<feBlend mode="normal" in="SourceGraphic" in2="effect1_dropShadow_2775_7732" result="shape"/>
</filter>
</defs>
</svg>
