<svg width="200" height="90" viewBox="0 0 200 90" fill="none" xmlns="http://www.w3.org/2000/svg">
<g filter="url(#filter0_d_2209_5831)">
<path d="M182.197 16.0674V2C183.767 2.03671 187.443 2.27347 190.902 4.03155C192.611 4.90046 193.734 5.79951 194.438 6.53475V16.0674H182.197Z" fill="#000033" fill-opacity="0.82"/>
<mask id="mask0_2209_5831" style="mask-type:luminance" maskUnits="userSpaceOnUse" x="13" y="6" width="182" height="63">
<path d="M194.438 6.70898C193.601 7.43394 192.272 8.373 190.235 9.21592C189.063 9.70123 187.858 10.057 186.692 10.318C185.098 10.676 183.495 10.6686 181.876 10.6686C162.929 10.6686 143.981 10.6686 125.035 10.6686C95.2378 10.6686 65.4406 10.6686 35.6438 10.6686C35.0161 10.6686 34.394 10.6974 33.7796 10.7522C28.964 11.185 24.5835 13.2805 21.1251 16.5073C19.5493 17.9781 18.1647 19.6844 17.0185 21.5755C14.7072 25.387 13.3628 29.9499 13.3628 34.8537C13.3628 38.9429 13.3628 43.0326 13.3628 47.1218C13.3628 52.2452 13.3628 57.3682 13.3628 62.4917C13.3628 64.3824 13.3628 66.2739 13.3628 68.165C18.216 68.165 23.0702 68.165 27.9234 68.165C58.8408 68.165 89.7573 68.165 120.675 68.165C139.932 68.165 159.189 68.165 178.446 68.165C179.655 68.165 180.864 68.165 182.073 68.165C185.487 68.165 188.578 66.6631 190.816 64.2342C192.077 62.866 193.066 61.2039 193.69 59.3499C194.174 57.9139 194.438 56.3623 194.438 54.7438C194.438 50.8153 194.438 46.8872 194.438 42.9587C194.438 33.4256 194.438 23.8929 194.438 14.3598C194.438 11.8097 194.438 9.25911 194.438 6.70898Z" fill="white"/>
</mask>
<g mask="url(#mask0_2209_5831)">
<mask id="mask1_2209_5831" style="mask-type:luminance" maskUnits="userSpaceOnUse" x="13" y="6" width="182" height="63">
<path d="M194.438 6.70898C193.601 7.43394 192.272 8.373 190.235 9.21592C189.063 9.70123 187.858 10.057 186.692 10.318C185.098 10.676 183.495 10.6686 181.876 10.6686C162.929 10.6686 143.981 10.6686 125.035 10.6686C95.2378 10.6686 65.4406 10.6686 35.6438 10.6686C35.0161 10.6686 34.394 10.6974 33.7796 10.7522C28.964 11.185 24.5835 13.2805 21.1251 16.5073C19.5493 17.9781 18.1647 19.6844 17.0185 21.5755C14.7072 25.387 13.3628 29.9499 13.3628 34.8537C13.3628 38.9429 13.3628 43.0326 13.3628 47.1218C13.3628 52.2452 13.3628 57.3682 13.3628 62.4917C13.3628 64.3824 13.3628 66.2739 13.3628 68.165C18.216 68.165 23.0702 68.165 27.9234 68.165C58.8408 68.165 89.7573 68.165 120.675 68.165C139.932 68.165 159.189 68.165 178.446 68.165C179.655 68.165 180.864 68.165 182.073 68.165C185.487 68.165 188.578 66.6631 190.816 64.2342C192.077 62.866 193.066 61.2039 193.69 59.3499C194.174 57.9139 194.438 56.3623 194.438 54.7438C194.438 50.8153 194.438 46.8872 194.438 42.9587C194.438 33.4256 194.438 23.8929 194.438 14.3598C194.438 11.8097 194.438 9.25911 194.438 6.70898Z" fill="white"/>
</mask>
<g mask="url(#mask1_2209_5831)">
<path d="M194.438 6.71338C193.606 7.43546 192.276 8.37302 190.237 9.21734C190.226 10.4984 190.221 11.7736 190.21 13.0547C191.986 12.3443 193.37 11.4706 194.437 10.5389C194.437 9.25793 194.438 7.98862 194.438 6.71338Z" fill="#BAEAFA"/>
<path d="M194.438 10.5389C193.37 11.4706 191.986 12.3442 190.21 13.0547C190.205 14.3357 190.205 15.6164 190.205 16.8975C191.712 16.321 193.139 15.5116 194.437 14.3645C194.437 13.0834 194.438 11.8083 194.438 10.5389Z" fill="#BAEAFA"/>
<path d="M190.238 9.21726C189.069 9.70053 187.862 10.0613 186.698 10.3175C186.676 11.5695 186.665 12.8213 186.655 14.0732C187.845 13.8403 189.053 13.5204 190.211 13.0546C190.222 11.7736 190.227 10.4983 190.238 9.21726Z" fill="#BAEAFA"/>
<path d="M190.211 13.0557C189.052 13.5215 187.845 13.8414 186.654 14.0743C186.649 15.3321 186.643 16.584 186.649 17.8359C187.861 17.638 189.057 17.3352 190.205 16.8985C190.205 15.6174 190.205 14.3367 190.211 13.0557Z" fill="#BAEAFA"/>
<path d="M186.699 10.3178C185.106 10.6788 183.502 10.6729 181.882 10.6729C181.85 11.919 181.834 13.1827 181.817 14.4404C183.438 14.4288 185.063 14.388 186.656 14.0735C186.667 12.8216 186.678 11.5697 186.699 10.3178Z" fill="#BAEAFA"/>
<path d="M186.652 14.0735C185.059 14.388 183.434 14.4288 181.814 14.4404C181.803 15.6982 181.797 16.962 181.803 18.2197C183.418 18.2021 185.048 18.103 186.647 17.8351C186.642 16.5832 186.647 15.3313 186.652 14.0735Z" fill="#BAEAFA"/>
<path d="M181.879 10.6729C162.931 10.6729 143.984 10.6729 125.036 10.6729C124.677 11.8491 124.366 13.0372 124.092 14.2368C143.297 14.2484 162.615 14.5744 181.815 14.4404C181.831 13.1827 181.847 11.919 181.879 10.6729Z" fill="#BAEAFA"/>
<path d="M181.812 14.4399C162.613 14.5738 143.295 14.2479 124.09 14.2362C123.822 15.4357 123.591 16.647 123.398 17.864C142.86 17.8873 162.344 18.4928 181.802 18.2192C181.797 16.9614 181.802 15.6976 181.812 14.4399Z" fill="#BAEAFA"/>
<path d="M125.035 10.6734C117.337 10.6734 109.634 10.6734 101.935 10.6734C101.458 11.8147 101.045 12.9853 100.68 14.1616C108.491 14.1964 116.302 14.2315 124.091 14.2373C124.365 13.0378 124.676 11.8497 125.035 10.6734Z" fill="#BAEAFA"/>
<path d="M124.094 14.2364C116.304 14.2304 108.493 14.1955 100.683 14.1607C100.318 15.3427 100.012 16.5305 99.7492 17.73C107.635 17.7941 115.516 17.8526 123.402 17.8643C123.595 16.6472 123.826 15.4359 124.094 14.2364Z" fill="#BAEAFA"/>
<path d="M101.934 10.674C94.2354 10.674 86.532 10.674 78.8338 10.674C78.2384 11.7862 77.7234 12.9217 77.2673 14.0746C85.0567 14.0862 92.8674 14.1272 100.678 14.1621C101.043 12.9859 101.456 11.8153 101.934 10.674Z" fill="#BAEAFA"/>
<path d="M100.68 14.1602C92.8689 14.1253 85.0582 14.0843 77.2688 14.0726C76.8129 15.2256 76.4267 16.3905 76.0941 17.5726C83.98 17.6018 91.8603 17.6713 99.7462 17.7295C100.009 16.53 100.315 15.3422 100.68 14.1602Z" fill="#BAEAFA"/>
<path d="M78.8359 10.6734C71.2612 10.6734 63.6863 10.6734 56.1116 10.6734C55.7575 11.2149 55.4249 11.7625 55.1138 12.3156C62.7154 12.3272 70.3974 12.3564 77.999 12.3564C78.2619 11.7916 78.5409 11.2266 78.8359 10.6734Z" fill="#BAEAFA"/>
<path d="M78 12.3557C70.3984 12.3557 62.7164 12.3265 55.1148 12.3149C54.8036 12.8681 54.5087 13.4268 54.2405 13.9916C61.9064 14.0264 69.6045 14.0558 77.2705 14.0732C77.4958 13.4968 77.7425 12.9263 78 12.3557Z" fill="#BAEAFA"/>
<path d="M77.2695 14.0733C69.6036 14.0557 61.9055 14.0271 54.2395 13.9921C53.6924 15.1218 53.2256 16.2689 52.8233 17.4277C60.5804 17.5034 68.3376 17.5441 76.0948 17.5732C76.4274 16.3912 76.8136 15.2262 77.2695 14.0733Z" fill="#BAEAFA"/>
<path d="M56.1133 10.6732C49.2896 10.6732 42.4659 10.6732 35.6475 10.6732C35.2452 11.1972 34.8644 11.733 34.505 12.2687C41.3448 12.2047 48.2757 12.3037 55.1155 12.3154C55.4266 11.7623 55.7592 11.2147 56.1133 10.6732Z" fill="#BAEAFA"/>
<path d="M55.1133 12.315C48.2735 12.3034 41.3426 12.2043 34.5027 12.2683C34.1487 12.804 33.8161 13.3514 33.505 13.8988C40.377 13.7008 47.367 13.9573 54.239 13.9922C54.5072 13.4274 54.8021 12.8682 55.1133 12.315Z" fill="#BAEAFA"/>
<path d="M54.2383 13.9922C47.3663 13.9574 40.3763 13.7008 33.5043 13.8988C32.882 14.9993 32.3455 16.1232 31.8896 17.2645C38.8152 16.8626 45.9125 17.3637 52.822 17.4277C53.2244 16.269 53.6911 15.1219 54.2383 13.9922Z" fill="#BAEAFA"/>
<path d="M35.6445 10.6731C35.0169 10.6731 34.3946 10.6965 33.7776 10.7548C32.9622 11.8146 32.2488 12.9034 31.6212 14.0098C32.2435 13.9574 32.8765 13.9224 33.5042 13.8991C34.1265 12.8044 34.8345 11.7212 35.6445 10.6731Z" fill="#BAEAFA"/>
<path d="M33.5078 13.898C32.8802 13.9212 32.2471 13.9563 31.6248 14.0087C31.0026 15.115 30.4608 16.2445 29.9995 17.3975C30.6271 17.3451 31.2601 17.2986 31.8931 17.2637C32.3491 16.1224 32.8855 14.9985 33.5078 13.898Z" fill="#BAEAFA"/>
<path d="M33.7773 10.754C31.3686 10.9695 29.0728 11.6044 26.943 12.5827C26.1437 13.4794 25.4249 14.4516 24.7812 15.459C26.9109 14.6671 29.2015 14.2012 31.6209 14.009C32.2485 12.9027 32.9619 11.8138 33.7773 10.754Z" fill="#BAEAFA"/>
<path d="M31.6211 14.0096C29.2017 14.2017 26.9111 14.6676 24.7813 15.4596C24.1376 16.4611 23.569 17.5095 23.0486 18.5518C25.2266 17.9054 27.5602 17.5731 29.9957 17.3984C30.457 16.2455 30.9988 15.116 31.6211 14.0096Z" fill="#BAEAFA"/>
<path d="M26.9453 12.583C26.146 13.4797 25.4272 14.4519 24.7834 15.4593C23.7213 15.8494 22.6966 16.3326 21.7149 16.8975C22.3747 15.9716 23.0934 15.0984 23.8874 14.3123C24.8583 13.6543 25.8778 13.0721 26.9453 12.583Z" fill="#BAEAFA"/>
<path d="M23.8867 14.3121C23.0927 15.0982 22.374 15.9714 21.7142 16.8972C20.7378 17.4679 19.799 18.1259 18.9139 18.8828C19.6005 18.0385 20.3354 17.2467 21.124 16.5072C21.993 15.7037 22.9103 14.9642 23.8867 14.3121Z" fill="#BAEAFA"/>
<path d="M24.7812 15.4591C22.6569 16.2452 20.688 17.3689 18.9123 18.8828C18.2257 19.733 17.5927 20.63 17.0187 21.5791C18.8427 20.1584 20.8705 19.1976 23.0485 18.5513C23.5689 17.509 24.1375 16.4606 24.7812 15.4591Z" fill="#BAEAFA"/>
<path d="M194.438 14.365C194.438 23.8971 194.438 33.4291 194.438 42.9612C192.646 44.679 190.634 45.6342 188.51 46.1641C188.451 36.6262 188.333 26.9485 188.445 17.4572C190.597 16.8982 192.64 15.9488 194.438 14.365Z" fill="#BAEAFA"/>
<path d="M188.447 17.4568C188.335 26.9482 188.453 36.6258 188.512 46.1637C186.387 46.6936 184.15 46.7927 181.903 46.7869C181.79 37.2431 181.581 27.6702 181.806 18.2197C184.032 18.1904 186.291 18.0217 188.447 17.4568Z" fill="#BAEAFA"/>
<path d="M181.802 18.2199C162.344 18.4936 142.86 17.8881 123.398 17.8648C121.96 26.9776 122.55 36.6084 122.77 46.1871C142.48 46.3792 162.189 46.7231 181.898 46.7871C181.786 37.2434 181.576 27.6705 181.802 18.2199Z" fill="#BAEAFA"/>
<path d="M123.398 17.8642C107.632 17.8466 91.8603 17.6313 76.0939 17.5731C73.7067 26.4355 74.4791 36.0954 74.7903 45.709C90.782 45.8662 106.779 46.0235 122.771 46.1865C122.551 36.6078 121.961 26.9771 123.398 17.8642Z" fill="#BAEAFA"/>
<path d="M76.0977 17.5731C73.6407 26.4297 74.3488 36.0954 74.5955 45.709C74.6599 45.709 74.7297 45.709 74.794 45.709C74.4829 36.0954 73.7104 26.4356 76.0977 17.5731Z" fill="#BAEAFA"/>
<path d="M76.0977 17.5731C68.3405 17.5438 60.5833 17.5032 52.8261 17.4275C49.8756 26.0862 50.6481 35.6882 50.9056 45.2319C58.8022 45.3833 66.6989 45.6275 74.5955 45.709C74.3488 36.0954 73.6407 26.4297 76.0977 17.5731Z" fill="#BAEAFA"/>
<path d="M52.8242 17.427C45.2816 17.3572 37.5192 16.7688 29.9981 17.3976C26.5433 25.9922 27.364 35.6755 27.6269 45.3008C35.3787 45.0271 43.1411 45.0854 50.9036 45.2309C50.6462 35.6872 49.8737 26.0857 52.8242 17.427Z" fill="#BAEAFA"/>
<path d="M30 17.398C25.129 17.7474 20.6764 18.7376 17.0231 21.5792C14.711 25.3874 13.3643 29.9526 13.3643 34.8555C17.5755 32.9805 22.3393 32.2525 27.3873 32.0195C27.5214 26.9478 28.1438 22.0156 30 17.398Z" fill="#BAEAFA"/>
<path d="M27.3835 32.0203C27.2655 36.3817 27.5016 40.848 27.625 45.3025C25.1305 45.3899 22.6841 45.5702 20.3022 45.8672C20.2432 41.599 19.9965 37.0514 20.0555 32.824C22.4052 32.3756 24.8568 32.1368 27.3835 32.0203Z" fill="#BAEAFA"/>
<path d="M20.058 32.8232C19.999 37.0506 20.2457 41.5982 20.3047 45.8664C17.9175 46.1633 15.6 46.5767 13.363 47.124C13.363 43.0364 13.363 38.9432 13.363 34.8555C15.4713 33.918 17.7137 33.2657 20.058 32.8232Z" fill="#BAEAFA"/>
<path d="M194.438 42.9612C194.438 46.8917 194.438 50.8163 194.438 54.7468C192.678 56.546 190.693 57.513 188.574 58.0312C188.746 54.1124 188.499 49.9839 188.51 46.1641C190.634 45.6342 192.646 44.679 194.438 42.9612Z" fill="#BAEAFA"/>
<path d="M188.508 46.1645C188.497 49.9843 188.744 54.1128 188.572 58.0316C186.458 58.5499 184.221 58.6139 181.952 58.6081C182.285 54.6951 181.882 50.5026 181.898 46.7876C184.146 46.7936 186.383 46.6944 188.508 46.1645Z" fill="#BAEAFA"/>
<path d="M194.438 54.7462C194.438 56.365 194.175 57.9141 193.692 59.3523C191.927 61.169 189.931 62.1242 187.807 62.6191C188.268 61.1867 188.51 59.6262 188.574 58.0307C190.693 57.5125 192.678 56.5455 194.438 54.7462Z" fill="#BAEAFA"/>
<path d="M188.574 58.0306C188.51 59.6261 188.268 61.1865 187.807 62.619C185.677 63.1139 183.419 63.1489 181.128 63.1256C181.573 61.699 181.82 60.1734 181.954 58.607C184.223 58.6131 186.461 58.5488 188.574 58.0306Z" fill="#BAEAFA"/>
<path d="M181.899 46.787C181.877 51.9868 182.677 58.1299 181.126 63.126C171.325 63.0794 161.529 62.9396 151.728 62.7999C152.962 57.6525 152.335 51.8292 152.335 46.5362C162.189 46.6526 172.044 46.7578 181.899 46.787Z" fill="#BAEAFA"/>
<path d="M152.339 46.5355C142.484 46.4132 132.63 46.2794 122.775 46.1862C122.786 48.8764 122.909 51.6189 122.909 54.3499C132.737 54.4314 142.618 54.5829 152.5 54.7227C152.494 51.9626 152.339 49.1849 152.339 46.5355Z" fill="#BAEAFA"/>
<path d="M152.5 54.7233C142.618 54.5835 132.737 54.432 122.909 54.3505C122.909 57.0756 122.796 59.7952 122.335 62.4388C132.136 62.5087 141.937 62.6542 151.733 62.7998C152.35 60.2261 152.5 57.4833 152.5 54.7233Z" fill="#BAEAFA"/>
<path d="M122.772 46.187C106.78 46.0239 90.7833 45.8667 74.7915 45.7094C74.8398 48.4345 74.9471 51.1889 74.9846 53.9315C90.9066 54.0771 106.984 54.2516 122.906 54.3506C122.906 51.6196 122.783 48.8771 122.772 46.187Z" fill="#BAEAFA"/>
<path d="M122.906 54.3502C106.984 54.2511 90.9066 54.0767 74.9846 53.9311C75.0275 56.6737 75.001 59.4161 74.7809 62.1237C90.6332 62.246 106.485 62.4094 122.332 62.4385C122.794 59.7949 122.906 57.0753 122.906 54.3502Z" fill="#BAEAFA"/>
<path d="M74.7938 45.7102C74.885 51.1663 75.2231 56.7097 74.7832 62.125C66.9831 62.0609 59.1883 62.0027 51.3936 61.9794C51.6028 56.4884 51.3292 50.747 51.2112 45.2386C59.0757 45.39 66.9348 45.6287 74.7938 45.7102Z" fill="#BAEAFA"/>
<path d="M51.2099 45.2375C51.3279 50.746 51.6015 56.4874 51.3922 61.9784C43.5976 61.9491 35.7974 61.9555 28.0027 62.002C27.9864 56.4352 27.7721 50.8623 27.6273 45.3015C35.4809 45.022 43.3454 45.0861 51.2099 45.2375Z" fill="#BAEAFA"/>
<path d="M27.6285 45.3011C27.7733 50.8619 27.9878 56.4344 28.0039 62.0011C25.5684 62.0187 23.1008 62.0943 20.6492 62.1875C20.6436 56.8421 20.3809 51.2111 20.3057 45.8657C22.6876 45.5687 25.134 45.3884 27.6285 45.3011Z" fill="#BAEAFA"/>
<path d="M20.305 45.8669C20.3801 51.2123 20.643 56.8433 20.6484 62.1887C18.1968 62.2818 15.7559 62.3981 13.3633 62.4971C13.3633 57.3729 13.3633 52.2487 13.3633 47.1245C15.6003 46.5772 17.9178 46.1638 20.305 45.8669Z" fill="#BAEAFA"/>
<path d="M193.691 59.3523C192.399 60.6857 190.977 61.5536 189.475 62.1184C189.18 63.0559 188.836 63.9525 188.418 64.7852C189.909 64.1679 191.288 63.2476 192.495 61.9782C192.978 61.1572 193.38 60.2781 193.691 59.3523Z" fill="#BAEAFA"/>
<path d="M192.496 61.9794C191.289 63.2488 189.91 64.1691 188.419 64.7863C188.001 65.6248 187.502 66.399 186.89 67.1152C188.371 66.4339 189.701 65.4501 190.817 64.2389C191.45 63.5518 192.013 62.7946 192.496 61.9794Z" fill="#BAEAFA"/>
<path d="M189.477 62.1176C187.975 62.6824 186.386 62.9386 184.756 63.0551C184.466 64.0042 184.096 64.9126 183.645 65.7686C185.319 65.7103 186.923 65.4016 188.42 64.7844C188.838 63.9517 189.182 63.0551 189.477 62.1176Z" fill="#BAEAFA"/>
<path d="M188.418 64.7851C186.921 65.4023 185.317 65.711 183.644 65.7692C183.193 66.6252 182.667 67.4285 182.077 68.168C183.783 68.168 185.408 67.7894 186.889 67.114C187.501 66.3977 188 65.6236 188.418 64.7851Z" fill="#BAEAFA"/>
<path d="M184.754 63.0561C183.563 63.1376 182.351 63.1376 181.128 63.1259C180.838 64.0576 180.462 64.9542 180.012 65.7986C181.229 65.8046 182.447 65.81 183.644 65.7691C184.094 64.9131 184.464 64.0052 184.754 63.0561Z" fill="#BAEAFA"/>
<path d="M183.645 65.7692C182.448 65.8101 181.23 65.8038 180.013 65.7983C179.567 66.6426 179.042 67.4343 178.452 68.168C179.659 68.168 180.866 68.168 182.078 68.168C182.668 67.4285 183.194 66.6252 183.645 65.7692Z" fill="#BAEAFA"/>
<path d="M181.129 63.1262C171.328 63.0796 161.532 62.9398 151.731 62.8001C151.5 63.755 151.205 64.6808 150.846 65.5775C160.572 65.6765 170.303 65.7755 180.013 65.7988C180.464 64.9545 180.839 64.0578 181.129 63.1262Z" fill="#BAEAFA"/>
<path d="M180.012 65.7983C170.302 65.775 160.571 65.6759 150.845 65.5769C150.485 66.4737 150.056 67.3353 149.562 68.168C159.192 68.168 168.821 68.168 178.451 68.168C179.041 67.4343 179.566 66.6426 180.012 65.7983Z" fill="#BAEAFA"/>
<path d="M151.73 62.7997C141.935 62.6541 132.134 62.5086 122.333 62.4387C122.166 63.4169 121.952 64.3836 121.678 65.3386C131.394 65.3734 141.119 65.4782 150.845 65.5771C151.205 64.6804 151.5 63.7546 151.73 62.7997Z" fill="#BAEAFA"/>
<path d="M150.848 65.5769C141.122 65.478 131.396 65.3733 121.681 65.3384C121.407 66.2991 121.08 67.2363 120.677 68.168C130.307 68.168 139.936 68.168 149.566 68.168C150.059 67.3353 150.488 66.4737 150.848 65.5769Z" fill="#BAEAFA"/>
<path d="M122.332 62.4385C121.999 64.395 121.474 66.3105 120.674 68.168C105.219 68.168 89.7585 68.168 74.3032 68.168C74.7323 66.2115 75.0005 64.1268 75.1669 62.1237C90.8904 62.2518 106.614 62.4094 122.332 62.4385Z" fill="#BAEAFA"/>
<path d="M75.168 62.1237C75.0017 64.1268 74.7335 66.2115 74.3043 68.168C66.574 68.168 58.8438 68.168 51.1134 68.168C51.2904 66.1416 51.5371 64.0161 51.5854 61.9781C59.4498 62.0014 67.3089 62.0596 75.168 62.1237Z" fill="#BAEAFA"/>
<path d="M51.5859 61.9781C51.5377 64.0161 51.291 66.1416 51.114 68.168C43.3837 68.168 35.6587 68.168 27.9283 68.168C27.9874 66.1125 28.0087 64.0572 28.0033 62.0017C35.8624 61.9493 43.7269 61.9489 51.5859 61.9781Z" fill="#BAEAFA"/>
<path d="M28.0031 62.0017C28.0086 64.0572 27.9869 66.1125 27.9281 68.168C25.4979 68.168 23.0731 68.168 20.6429 68.168C20.675 66.194 20.6537 64.1621 20.6485 62.1881C23.1002 62.095 25.5676 62.0192 28.0031 62.0017Z" fill="#BAEAFA"/>
<path d="M20.6483 62.1881C20.6534 64.1621 20.6752 66.194 20.6426 68.168C18.2179 68.168 15.7931 68.168 13.3629 68.168C13.3629 66.2756 13.3629 64.3831 13.3629 62.4965C15.7555 62.3975 18.1967 62.2813 20.6483 62.1881Z" fill="#BAEAFA"/>
</g>
</g>
<mask id="mask2_2209_5831" style="mask-type:luminance" maskUnits="userSpaceOnUse" x="3" y="21" width="25" height="63">
<path d="M17.1706 21.1182C17.0435 21.3355 16.9165 21.5529 16.7894 21.7697C16.4886 22.2848 16.1878 22.7994 15.887 23.3144C15.5067 24.1601 15.1494 25.0379 14.8182 25.9314C14.4071 27.0432 14.0365 28.1797 13.7135 29.3114C13.5732 29.8023 13.4418 30.2932 13.3199 30.7804C11.5622 37.997 9.80452 45.2136 8.04686 52.4307C7.07946 56.4015 6.1125 60.3727 5.1451 64.3435C4.57562 66.6814 4.00657 69.0188 3.43708 71.3562C2.71442 74.3229 2.86802 77.4902 4.01768 80.2935C4.5247 81.5298 5.19046 82.6035 6.04619 83.0424C6.27509 82.5677 6.50443 82.0926 6.73334 81.618C7.26132 80.5238 7.78886 79.4297 8.31685 78.335C9.01084 76.8967 9.70484 75.4579 10.3988 74.0192C10.5131 73.7828 10.6273 73.5459 10.7416 73.3091C14.3134 65.9044 17.8856 58.4992 21.4574 51.0945C23.5941 46.6654 25.7304 42.2362 27.8672 37.8071C27.8672 37.8071 27.7812 37.7899 27.6242 37.7523C25.6774 37.2883 12.8158 33.7155 17.1706 21.1182Z" fill="white"/>
</mask>
<g mask="url(#mask2_2209_5831)">
<mask id="mask3_2209_5831" style="mask-type:luminance" maskUnits="userSpaceOnUse" x="2" y="21" width="26" height="63">
<path d="M17.1667 21.1191C17.0396 21.3365 16.9126 21.5538 16.7855 21.7707C16.4847 22.2858 16.1839 22.8003 15.8831 23.3154C15.5028 24.1611 15.1455 25.0388 14.8143 25.9324C14.4031 27.0442 14.0326 28.1806 13.7096 29.3124C13.5693 29.8033 13.4379 30.2942 13.3159 30.7814C11.5583 37.998 9.80062 45.2146 8.04296 52.4316C7.07556 56.4024 6.10859 60.3737 5.1412 64.3445C4.57171 66.6823 4.00266 69.0198 3.43317 71.3572C2.71051 74.3239 2.86411 77.4912 4.01377 80.2944C4.52079 81.5307 5.18655 82.6045 6.04228 83.0433C6.27119 82.5687 6.50052 82.0936 6.72943 81.619C7.25741 80.5248 7.78496 79.4306 8.31294 78.336C9.00693 76.8977 9.70093 75.4589 10.3949 74.0201C10.5092 73.7838 10.6234 73.5469 10.7377 73.31C14.3095 65.9054 17.8817 58.5002 21.4535 51.0955C23.5902 46.6664 25.7265 42.2372 27.8633 37.808C27.8633 37.808 27.7773 37.7908 27.6202 37.7532C25.6735 37.2893 12.8119 33.7165 17.1667 21.1191Z" fill="white"/>
</mask>
<g mask="url(#mask3_2209_5831)">
<path d="M17.1672 21.1194C17.1043 21.2275 17.0414 21.3356 16.9785 21.4437C14.8404 27.678 16.8791 31.7595 19.6696 34.3477C19.7744 34.2424 19.8793 34.1341 20.0312 33.9862C17.1175 31.4606 14.9898 27.4163 17.1672 21.1194Z" fill="#000033" fill-opacity="0.82"/>
<path d="M20.0303 33.9865C19.8783 34.1344 19.7734 34.2427 19.6687 34.348C22.4592 36.9361 26.0019 38.0282 26.8692 38.2842C27.1286 38.1164 27.3774 37.9371 27.6211 37.7522C26.649 37.5218 22.9466 36.512 20.0303 33.9865Z" fill="#000033" fill-opacity="0.82"/>
<path d="M16.9795 21.4441C12.7006 33.9099 25.1338 37.7724 26.8711 38.2843C26.6143 38.4549 26.3496 38.6199 26.0797 38.7764C24.5495 38.2132 12.5881 34.1032 16.7883 21.7711C16.8512 21.663 16.914 21.5522 16.9795 21.4441Z" fill="#000033" fill-opacity="0.82"/>
<path d="M16.7867 21.7716C16.4854 22.2864 16.184 22.801 15.8853 23.3158C12.1986 34.6981 22.132 39.2404 21.9696 40.7393C23.3871 40.1306 24.7968 39.5191 26.0781 38.7768C24.5479 38.2137 12.5865 34.1037 16.7867 21.7716Z" fill="#000033" fill-opacity="0.82"/>
<path d="M15.8864 23.3152C15.5038 24.1599 15.1475 25.0391 14.8174 25.9321C11.8853 35.8439 18.5932 41.077 15.7293 44.0576C17.5137 42.6356 19.7513 41.6914 21.9707 40.7387C22.1331 39.2398 12.1997 34.6975 15.8864 23.3152Z" fill="#000033" fill-opacity="0.82"/>
<path d="M14.8167 25.9326C11.8847 35.8445 18.5926 41.0775 15.7286 44.0581C15.1731 44.5018 14.7224 45.0594 14.3241 45.6709C16.981 42.0645 11.7249 36.3763 14.5155 26.7717C14.6124 26.4901 14.7119 26.2114 14.8167 25.9326Z" fill="#000033" fill-opacity="0.82"/>
<path d="M14.5179 26.7724C11.7273 36.377 16.9835 42.0652 14.3266 45.6716C13.9283 46.2802 13.5798 46.9457 13.2287 47.6055C15.4324 42.6311 11.751 36.5474 14.2323 27.6169C14.3241 27.3325 14.421 27.0511 14.5179 26.7724Z" fill="#000033" fill-opacity="0.82"/>
<path d="M14.2305 27.6165C12.9911 32.0818 13.2896 35.8361 13.625 39.0955C13.384 39.286 13.143 39.4766 12.8784 39.7041C12.8523 36.2684 12.874 32.5939 13.9631 28.4642C14.0495 28.1798 14.1388 27.898 14.2305 27.6165Z" fill="#000033" fill-opacity="0.82"/>
<path d="M13.9609 28.4638C12.8735 32.5935 12.8501 36.268 12.8762 39.7038C12.6142 39.9284 12.3285 40.1929 11.9984 40.5342C12.3154 36.9733 12.6927 33.2876 13.7094 29.3115C13.7906 29.0299 13.8745 28.7454 13.9609 28.4638Z" fill="#000033" fill-opacity="0.82"/>
<path d="M13.6244 39.0949C13.1423 39.4788 12.6602 39.8514 11.9999 40.5339C11.6855 44.0948 11.4288 47.5334 10.6584 51.0146C11.814 50.2154 12.5266 48.9214 13.2262 47.6045C14.3294 45.1159 13.9598 42.3542 13.6244 39.0949Z" fill="#000033" fill-opacity="0.82"/>
<path d="M13.7109 29.3115C13.6402 29.5589 13.5721 29.8035 13.5066 30.048C12.5607 33.8421 11.9371 37.4967 11.3449 41.0889C11.5519 40.9495 11.7588 40.8016 11.9999 40.5342C12.317 36.9734 12.6943 33.2876 13.7109 29.3115Z" fill="#000033" fill-opacity="0.82"/>
<path d="M12 40.5347C11.7589 40.802 11.552 40.95 11.345 41.0893C10.7528 44.6815 10.1894 48.214 9.36409 51.7578C9.80689 51.536 10.2419 51.3026 10.6585 51.0154C11.4289 47.5341 11.6856 44.0955 12 40.5347Z" fill="#000033" fill-opacity="0.82"/>
<path d="M13.5039 30.0481C13.4384 30.2927 13.3755 30.5374 13.3153 30.782C12.4348 34.3912 11.5571 37.9973 10.6793 41.6064C10.9256 41.3647 11.1352 41.2312 11.3422 41.089C11.9344 37.4968 12.558 33.8422 13.5039 30.0481Z" fill="#000033" fill-opacity="0.82"/>
<path d="M11.3438 41.0882C11.1367 41.2304 10.9271 41.364 10.6809 41.6057C9.80044 45.2149 8.92264 48.8243 8.04223 52.4307C8.47719 52.1917 8.92257 51.9814 9.3628 51.7567C10.1881 48.2129 10.7515 44.6804 11.3438 41.0882Z" fill="#000033" fill-opacity="0.82"/>
<path d="M27.6222 37.7523C27.7794 37.7895 27.8633 37.8095 27.8633 37.8095C27.5829 37.9858 27.2921 38.1562 26.9933 38.3184C26.9933 38.3137 26.9515 38.3039 26.8703 38.2839C27.1297 38.1161 27.3785 37.9372 27.6222 37.7523Z" fill="#000033" fill-opacity="0.82"/>
<path d="M26.8691 38.2847C26.9503 38.3046 26.9922 38.3159 26.9922 38.3191C26.6935 38.4841 26.3895 38.6402 26.0803 38.7881C26.0803 38.7825 26.0804 38.7772 26.0761 38.7772C26.346 38.6207 26.6107 38.4557 26.8675 38.2851L26.8691 38.2847Z" fill="#000033" fill-opacity="0.82"/>
<path d="M27.8633 37.8098C27.5829 37.9862 27.2921 38.1566 26.9933 38.3187C26.4431 39.5388 25.2561 42.1413 24.0351 44.792C24.2289 44.7095 24.423 44.6211 24.6614 44.4505C25.7279 42.2377 26.7968 40.0226 27.8633 37.8098Z" fill="#000033" fill-opacity="0.82"/>
<path d="M24.6602 44.4504C24.4217 44.621 24.2277 44.7094 24.0338 44.7919C22.8101 47.4455 21.555 50.1504 20.8685 51.5781C21.065 51.416 21.2589 51.2563 21.4529 51.0942C22.5219 48.8815 23.5911 46.6659 24.6602 44.4504Z" fill="#000033" fill-opacity="0.82"/>
<path d="M26.9922 38.319C25.8917 40.7592 22.2442 48.723 20.8686 51.5785C20.6721 51.7406 20.4731 51.9024 20.2765 52.0674C20.8897 50.7847 26.0121 39.2406 26.0803 38.7884C26.3895 38.6404 26.6935 38.4839 26.9922 38.319Z" fill="#000033" fill-opacity="0.82"/>
<path d="M26.08 38.7767C26.2005 38.8195 20.9024 50.7616 20.2788 52.0671C19.0708 53.0597 17.8341 54.0838 16.6104 55.1162C17.2497 53.6088 20.6953 42.3259 20.7687 41.2594C22.5793 40.4687 24.4371 39.7295 26.08 38.7767Z" fill="#000033" fill-opacity="0.82"/>
<path d="M20.7656 41.2594C18.955 42.05 17.189 42.8921 15.727 44.0581C15.5933 45.1048 15.0796 48.2162 14.5215 51.2793C15.8264 50.1815 17.3463 49.0866 18.8975 48.0229C19.8486 44.8802 20.7289 41.7912 20.7656 41.2594Z" fill="#000033" fill-opacity="0.82"/>
<path d="M18.8984 48.0234C17.3473 49.0871 15.8273 50.1819 14.5225 51.2798C13.9617 54.3429 13.3539 57.3578 13.0264 58.2139C14.1767 57.1871 15.3846 56.1491 16.6083 55.1167C16.9279 54.363 17.9499 51.1662 18.8984 48.0234Z" fill="#000033" fill-opacity="0.82"/>
<path d="M15.7305 44.0579C14.6195 44.9452 13.9303 46.2848 13.2281 47.6045C12.932 49.1688 12.4026 51.7627 11.8314 54.3281C12.6673 53.2502 13.49 52.1493 14.525 51.279C15.0832 48.2159 15.5968 45.1045 15.7305 44.0579Z" fill="#000033" fill-opacity="0.82"/>
<path d="M14.5234 51.2791C13.4884 52.1494 12.6657 53.2503 11.8299 54.3282C11.2613 56.8936 10.6481 59.4304 10.1817 60.8809C11.1355 59.9907 12.071 59.0692 13.0274 58.2132C13.3549 57.3571 13.9627 54.3422 14.5234 51.2791Z" fill="#000033" fill-opacity="0.82"/>
<path d="M13.2266 47.6049C12.6318 50.7334 11.1146 57.9802 10.1818 60.8812C9.22801 61.7742 8.25588 62.6333 7.22875 63.3643C8.44192 59.2716 9.73385 55.1844 10.6588 51.015C11.8143 50.2158 12.527 48.9217 13.2266 47.6049Z" fill="#000033" fill-opacity="0.82"/>
<path d="M10.6602 51.0144C9.73525 55.1839 8.44331 59.271 7.23015 63.3637C6.9262 63.5799 6.56992 63.7477 6.20834 63.8984C7.29836 59.8655 8.41979 55.8296 9.3657 51.7569C9.8085 51.535 10.2435 51.3017 10.6602 51.0144Z" fill="#000033" fill-opacity="0.82"/>
<path d="M9.36328 51.7573C8.92305 51.982 8.47768 52.1923 8.04271 52.4313C7.80166 53.4239 7.5606 54.4166 7.31694 55.4092C7.73616 55.1845 8.18411 54.9994 8.62434 54.806C8.8811 53.7907 9.12744 52.7755 9.36328 51.7573Z" fill="#000033" fill-opacity="0.82"/>
<path d="M8.625 54.8058C8.18477 54.9993 7.73681 55.1843 7.3176 55.409C7.07654 56.4016 6.83542 57.3942 6.59432 58.3896C6.97692 58.1906 7.41192 58.0228 7.83905 57.8436C8.1063 56.8311 8.37081 55.8183 8.625 54.8058Z" fill="#000033" fill-opacity="0.82"/>
<path d="M7.83984 57.8427C7.41271 58.0219 6.97771 58.1897 6.59511 58.3888C6.35145 59.3813 6.11039 60.3736 5.86933 61.3662C6.21522 61.1928 6.62385 61.0392 7.02736 60.8714C7.29987 59.8617 7.57256 58.8524 7.83984 57.8427Z" fill="#000033" fill-opacity="0.82"/>
<path d="M7.02734 60.872C6.62383 61.0398 6.2152 61.1934 5.86931 61.3668C5.62826 62.3594 5.38459 63.3521 5.14354 64.3447C5.47367 64.1855 5.8431 64.0492 6.20734 63.8984C6.47985 62.8888 6.75484 61.8817 7.02734 60.872Z" fill="#000033" fill-opacity="0.82"/>
<path d="M21.4531 51.0937C21.2592 51.2558 21.0653 51.4155 20.8688 51.5776C19.1027 55.2522 17.3813 58.9321 15.6755 62.6152C15.8223 62.4787 15.9715 62.3423 16.0973 62.203C17.8817 58.4999 19.6687 54.7968 21.4531 51.0937Z" fill="#000033" fill-opacity="0.82"/>
<path d="M16.0977 62.204C15.9719 62.3434 15.8226 62.4797 15.6759 62.6163C14.8217 64.4593 13.97 66.3025 13.121 68.1426C13.231 68.0118 13.3386 67.8812 13.4172 67.7589C14.3108 65.9073 15.2042 64.0556 16.0977 62.204Z" fill="#000033" fill-opacity="0.82"/>
<path d="M13.418 67.7582C13.3394 67.8805 13.2318 68.0111 13.1217 68.1419C12.2728 69.9849 11.4213 71.8249 10.5671 73.665C10.6247 73.5455 10.6824 73.4294 10.7401 73.3099C11.631 71.4584 12.5245 69.6069 13.418 67.7582Z" fill="#000033" fill-opacity="0.82"/>
<path d="M20.8711 51.5784C20.6746 51.7405 20.4755 51.9023 20.279 52.0673C18.5339 55.7106 16.878 59.371 15.2508 63.0342C15.3792 62.892 15.5285 62.7554 15.6778 62.616C17.3836 58.9329 19.105 55.253 20.8711 51.5784Z" fill="#000033" fill-opacity="0.82"/>
<path d="M15.6758 62.6155C15.5264 62.7549 15.3772 62.8914 15.2488 63.0337C13.6216 66.6969 12.0256 70.3629 10.3958 74.0205C10.4535 73.9011 10.5113 73.7844 10.5663 73.6649C12.2747 69.9846 13.9674 66.2987 15.6758 62.6155Z" fill="#000033" fill-opacity="0.82"/>
<path d="M20.2773 52.0671C16.7897 59.3537 13.6532 66.7058 10.3962 74.0209C10.0477 74.7404 9.70186 75.4601 9.35598 76.1797C9.86954 69.6524 13.8656 61.3761 16.609 55.1162C17.8326 54.0838 19.0694 53.0597 20.2773 52.0671Z" fill="#000033" fill-opacity="0.82"/>
<path d="M16.6094 55.1157C15.3857 56.1481 14.1778 57.1862 13.0275 58.2129C12.0265 60.8323 10.2919 64.4274 9.08396 68.085C9.83336 67.2146 10.9864 66.3784 12.1471 65.5479C13.5516 61.879 15.239 58.2471 16.6094 55.1157Z" fill="#000033" fill-opacity="0.82"/>
<path d="M12.1445 65.5486C10.9838 66.379 9.83079 67.2153 9.08138 68.0856C7.87344 71.746 7.19751 75.4662 8.31111 78.3359C8.6596 77.6192 9.00532 76.8994 9.35381 76.1798C9.61062 72.9148 10.7375 69.2146 12.1445 65.5486Z" fill="#000033" fill-opacity="0.82"/>
<path d="M13.0273 58.2125C12.0709 59.0686 11.1354 59.99 10.1817 60.8802C9.35368 63.292 7.80514 66.9297 6.90377 70.5332C7.69245 69.6686 8.4733 68.7871 9.08382 68.0846C10.2918 64.427 12.0264 60.8319 13.0273 58.2125Z" fill="#000033" fill-opacity="0.82"/>
<path d="M9.08203 68.0856C8.47151 68.788 7.69066 69.6696 6.90198 70.5342C6.00321 74.1405 5.75167 77.707 7.52037 79.9795C7.78501 79.4305 8.04973 78.8848 8.31175 78.3359C7.19815 75.4662 7.87409 71.7459 9.08203 68.0856Z" fill="#000033" fill-opacity="0.82"/>
<path d="M10.1797 60.8809C8.52369 65.7046 3.98281 75.4371 7.52017 79.9792C7.25549 80.5253 6.99342 81.0712 6.72879 81.6201C1.88393 78.2783 5.91914 67.7724 7.22664 63.364C8.25377 62.6331 9.2259 61.774 10.1797 60.8809Z" fill="#000033" fill-opacity="0.82"/>
<path d="M7.23047 63.3635C6.62256 63.7958 5.80778 64.026 5.14485 64.3445C4.57626 66.6824 4.00491 69.0206 3.43632 71.3584C4.03901 70.8578 4.73859 70.4139 5.30718 69.8422C5.94127 67.3081 6.76145 64.9448 7.23047 63.3635Z" fill="#000033" fill-opacity="0.82"/>
<path d="M5.30859 69.8428C4.74001 70.4145 4.04043 70.8584 3.43774 71.3589C2.71456 74.3254 2.86926 77.4906 4.01957 80.2949C4.30778 79.9224 4.62469 79.564 4.90246 79.1715C3.98272 76.6374 4.49369 73.0993 5.30859 69.8428Z" fill="#000033" fill-opacity="0.82"/>
<path d="M4.89889 79.1713C4.62112 79.5638 4.30421 79.9221 4.01601 80.2947C4.5217 81.5319 5.18713 82.6041 6.04397 83.0449C6.27193 82.57 6.5025 82.0949 6.73047 81.6199C5.85006 81.0113 5.26309 80.1696 4.89889 79.1713Z" fill="#000033" fill-opacity="0.82"/>
</g>
</g>
</g>
<path d="M44.608 56V50.096H32.296V45.992L44.32 29.18H49.432V45.992H53.356V50.096H49.432V56H44.608ZM35.896 47.756L35.032 45.992H44.608V33.032L45.868 33.428L35.896 47.756ZM68.0811 56L61.3491 36.416H66.3171L71.2491 51.284L69.5211 51.248L74.7771 36.416H78.9531L84.1731 51.248L82.4451 51.284L87.3771 36.416H92.3451L85.6131 56H81.4011L76.0731 40.484H77.6571L72.2571 56H68.0811ZM103.867 56.432C101.851 56.432 100.087 55.976 98.5748 55.064C97.0628 54.152 95.8868 52.916 95.0468 51.356C94.2068 49.796 93.7868 48.068 93.7868 46.172C93.7868 44.204 94.2068 42.464 95.0468 40.952C95.9108 39.416 97.0748 38.204 98.5388 37.316C100.027 36.428 101.683 35.984 103.507 35.984C105.043 35.984 106.387 36.236 107.539 36.74C108.715 37.244 109.711 37.94 110.527 38.828C111.343 39.716 111.967 40.736 112.399 41.888C112.831 43.016 113.047 44.24 113.047 45.56C113.047 45.896 113.023 46.244 112.975 46.604C112.951 46.964 112.891 47.276 112.795 47.54H97.6748V43.94H110.131L107.899 45.632C108.115 44.528 108.055 43.544 107.719 42.68C107.407 41.816 106.879 41.132 106.135 40.628C105.415 40.124 104.539 39.872 103.507 39.872C102.523 39.872 101.647 40.124 100.879 40.628C100.111 41.108 99.5228 41.828 99.1148 42.788C98.7308 43.724 98.5868 44.864 98.6828 46.208C98.5868 47.408 98.7428 48.476 99.1508 49.412C99.5828 50.324 100.207 51.032 101.023 51.536C101.863 52.04 102.823 52.292 103.903 52.292C104.983 52.292 105.895 52.064 106.639 51.608C107.407 51.152 108.007 50.54 108.439 49.772L112.255 51.644C111.871 52.58 111.271 53.408 110.455 54.128C109.639 54.848 108.667 55.412 107.539 55.82C106.435 56.228 105.211 56.432 103.867 56.432ZM125.91 56.432C123.894 56.432 122.13 55.976 120.618 55.064C119.106 54.152 117.93 52.916 117.09 51.356C116.25 49.796 115.83 48.068 115.83 46.172C115.83 44.204 116.25 42.464 117.09 40.952C117.954 39.416 119.118 38.204 120.582 37.316C122.07 36.428 123.726 35.984 125.55 35.984C127.086 35.984 128.43 36.236 129.582 36.74C130.758 37.244 131.754 37.94 132.57 38.828C133.386 39.716 134.01 40.736 134.442 41.888C134.874 43.016 135.09 44.24 135.09 45.56C135.09 45.896 135.066 46.244 135.018 46.604C134.994 46.964 134.934 47.276 134.838 47.54H119.718V43.94H132.174L129.942 45.632C130.158 44.528 130.098 43.544 129.762 42.68C129.45 41.816 128.922 41.132 128.178 40.628C127.458 40.124 126.582 39.872 125.55 39.872C124.566 39.872 123.69 40.124 122.922 40.628C122.154 41.108 121.566 41.828 121.158 42.788C120.774 43.724 120.63 44.864 120.726 46.208C120.63 47.408 120.786 48.476 121.194 49.412C121.626 50.324 122.25 51.032 123.066 51.536C123.906 52.04 124.866 52.292 125.946 52.292C127.026 52.292 127.938 52.064 128.682 51.608C129.45 51.152 130.05 50.54 130.482 49.772L134.298 51.644C133.914 52.58 133.314 53.408 132.498 54.128C131.682 54.848 130.71 55.412 129.582 55.82C128.478 56.228 127.254 56.432 125.91 56.432ZM138.665 56V28.748H143.381V46.604L141.581 46.064L150.797 36.416H156.665L149.429 44.3L156.809 56H151.409L145.001 45.848L147.809 45.272L141.905 51.608L143.381 48.728V56H138.665ZM166.894 56.432C164.806 56.432 162.982 55.94 161.422 54.956C159.886 53.948 158.83 52.592 158.254 50.888L161.782 49.196C162.286 50.3 162.982 51.164 163.87 51.788C164.782 52.412 165.79 52.724 166.894 52.724C167.758 52.724 168.442 52.532 168.946 52.148C169.45 51.764 169.702 51.26 169.702 50.636C169.702 50.252 169.594 49.94 169.378 49.7C169.186 49.436 168.91 49.22 168.55 49.052C168.214 48.86 167.842 48.704 167.434 48.584L164.23 47.684C162.574 47.204 161.314 46.472 160.45 45.488C159.61 44.504 159.19 43.34 159.19 41.996C159.19 40.796 159.49 39.752 160.09 38.864C160.714 37.952 161.566 37.244 162.646 36.74C163.75 36.236 165.01 35.984 166.426 35.984C168.274 35.984 169.906 36.428 171.322 37.316C172.738 38.204 173.746 39.452 174.346 41.06L170.746 42.752C170.41 41.864 169.846 41.156 169.054 40.628C168.262 40.1 167.374 39.836 166.39 39.836C165.598 39.836 164.974 40.016 164.518 40.376C164.062 40.736 163.834 41.204 163.834 41.78C163.834 42.14 163.93 42.452 164.122 42.716C164.314 42.98 164.578 43.196 164.914 43.364C165.274 43.532 165.682 43.688 166.138 43.832L169.27 44.768C170.878 45.248 172.114 45.968 172.978 46.928C173.866 47.888 174.31 49.064 174.31 50.456C174.31 51.632 173.998 52.676 173.374 53.588C172.75 54.476 171.886 55.172 170.782 55.676C169.678 56.18 168.382 56.432 166.894 56.432Z" fill="#0000FF"/>
<defs>
<filter id="filter0_d_2209_5831" x="0" y="0" width="199.438" height="89.042" filterUnits="userSpaceOnUse" color-interpolation-filters="sRGB">
<feFlood flood-opacity="0" result="BackgroundImageFix"/>
<feColorMatrix in="SourceAlpha" type="matrix" values="0 0 0 0 0 0 0 0 0 0 0 0 0 0 0 0 0 0 127 0" result="hardAlpha"/>
<feOffset dx="1" dy="2"/>
<feGaussianBlur stdDeviation="2"/>
<feComposite in2="hardAlpha" operator="out"/>
<feColorMatrix type="matrix" values="0 0 0 0 0 0 0 0 0 0 0 0 0 0 0 0 0 0 0.25 0"/>
<feBlend mode="normal" in2="BackgroundImageFix" result="effect1_dropShadow_2209_5831"/>
<feBlend mode="normal" in="SourceGraphic" in2="effect1_dropShadow_2209_5831" result="shape"/>
</filter>
</defs>
</svg>
