<svg width="201" height="90" viewBox="0 0 201 90" fill="none" xmlns="http://www.w3.org/2000/svg">
<g filter="url(#filter0_d_3454_11918)">
<path d="M182.899 16.0674V2C184.47 2.03671 188.149 2.27347 191.61 4.03155C193.321 4.90046 194.444 5.79951 195.148 6.53475V16.0674H182.899Z" fill="#000033" fill-opacity="0.82"/>
<mask id="mask0_3454_11918" style="mask-type:luminance" maskUnits="userSpaceOnUse" x="13" y="6" width="183" height="63">
<path d="M195.148 6.70898C194.311 7.43394 192.981 8.373 190.943 9.21592C189.77 9.70123 188.565 10.057 187.398 10.318C185.802 10.676 184.198 10.6686 182.578 10.6686C163.617 10.6686 144.656 10.6686 125.695 10.6686C95.8769 10.6686 66.0582 10.6686 36.2398 10.6686C35.6117 10.6686 34.9891 10.6974 34.3743 10.7522C29.5552 11.185 25.1716 13.2805 21.7106 16.5073C20.1337 17.9781 18.7481 19.6844 17.6011 21.5755C15.2881 25.387 13.9427 29.9499 13.9427 34.8537C13.9427 38.9429 13.9427 43.0326 13.9427 47.1218C13.9427 52.2452 13.9427 57.3682 13.9427 62.4917C13.9427 64.3824 13.9427 66.2739 13.9427 68.165C18.7995 68.165 23.6571 68.165 28.5139 68.165C59.4536 68.165 90.3925 68.165 121.332 68.165C140.603 68.165 159.874 68.165 179.145 68.165C180.355 68.165 181.565 68.165 182.775 68.165C186.192 68.165 189.285 66.6631 191.524 64.2342C192.786 62.866 193.776 61.2039 194.401 59.3499C194.885 57.9139 195.148 56.3623 195.148 54.7438C195.148 50.8153 195.148 46.8872 195.148 42.9587C195.148 33.4256 195.148 23.8929 195.148 14.3598C195.148 11.8097 195.148 9.25911 195.148 6.70898Z" fill="white"/>
</mask>
<g mask="url(#mask0_3454_11918)">
<mask id="mask1_3454_11918" style="mask-type:luminance" maskUnits="userSpaceOnUse" x="13" y="6" width="183" height="63">
<path d="M195.148 6.70898C194.311 7.43394 192.981 8.373 190.943 9.21592C189.77 9.70123 188.565 10.057 187.398 10.318C185.802 10.676 184.198 10.6686 182.578 10.6686C163.617 10.6686 144.656 10.6686 125.695 10.6686C95.8769 10.6686 66.0582 10.6686 36.2398 10.6686C35.6117 10.6686 34.9891 10.6974 34.3743 10.7522C29.5552 11.185 25.1716 13.2805 21.7106 16.5073C20.1337 17.9781 18.7481 19.6844 17.6011 21.5755C15.2881 25.387 13.9427 29.9499 13.9427 34.8537C13.9427 38.9429 13.9427 43.0326 13.9427 47.1218C13.9427 52.2452 13.9427 57.3682 13.9427 62.4917C13.9427 64.3824 13.9427 66.2739 13.9427 68.165C18.7995 68.165 23.6571 68.165 28.5139 68.165C59.4536 68.165 90.3925 68.165 121.332 68.165C140.603 68.165 159.874 68.165 179.145 68.165C180.355 68.165 181.565 68.165 182.775 68.165C186.192 68.165 189.285 66.6631 191.524 64.2342C192.786 62.866 193.776 61.2039 194.401 59.3499C194.885 57.9139 195.148 56.3623 195.148 54.7438C195.148 50.8153 195.148 46.8872 195.148 42.9587C195.148 33.4256 195.148 23.8929 195.148 14.3598C195.148 11.8097 195.148 9.25911 195.148 6.70898Z" fill="white"/>
</mask>
<g mask="url(#mask1_3454_11918)">
<path d="M195.148 6.71338C194.316 7.43546 192.985 8.37302 190.945 9.21734C190.934 10.4984 190.929 11.7736 190.918 13.0547C192.695 12.3443 194.08 11.4706 195.148 10.5389C195.148 9.25793 195.148 7.98862 195.148 6.71338Z" fill="#BAEAFA"/>
<path d="M195.148 10.5389C194.08 11.4706 192.695 12.3442 190.918 13.0547C190.913 14.3357 190.913 15.6164 190.913 16.8975C192.421 16.321 193.849 15.5116 195.148 14.3645C195.148 13.0834 195.148 11.8083 195.148 10.5389Z" fill="#BAEAFA"/>
<path d="M190.945 9.21726C189.775 9.70053 188.567 10.0613 187.402 10.3175C187.381 11.5695 187.37 12.8213 187.359 14.0732C188.551 13.8403 189.759 13.5204 190.918 13.0546C190.929 11.7736 190.934 10.4983 190.945 9.21726Z" fill="#BAEAFA"/>
<path d="M190.918 13.0557C189.758 13.5215 188.55 13.8414 187.358 14.0743C187.353 15.3321 187.348 16.584 187.353 17.8359C188.566 17.638 189.763 17.3352 190.912 16.8985C190.912 15.6174 190.912 14.3367 190.918 13.0557Z" fill="#BAEAFA"/>
<path d="M187.402 10.3178C185.808 10.6788 184.203 10.6729 182.581 10.6729C182.549 11.919 182.533 13.1827 182.517 14.4404C184.138 14.4288 185.765 14.388 187.359 14.0735C187.37 12.8216 187.381 11.5697 187.402 10.3178Z" fill="#BAEAFA"/>
<path d="M187.359 14.0735C185.765 14.388 184.138 14.4288 182.517 14.4404C182.506 15.6982 182.501 16.962 182.506 18.2197C184.122 18.2021 185.754 18.103 187.354 17.8351C187.349 16.5832 187.354 15.3313 187.359 14.0735Z" fill="#BAEAFA"/>
<path d="M182.582 10.6729C163.621 10.6729 144.659 10.6729 125.698 10.6729C125.338 11.8491 125.027 13.0372 124.753 14.2368C143.972 14.2484 163.304 14.5744 182.518 14.4404C182.534 13.1827 182.55 11.919 182.582 10.6729Z" fill="#BAEAFA"/>
<path d="M182.516 14.4399C163.302 14.5738 143.97 14.2479 124.751 14.2362C124.483 15.4357 124.252 16.647 124.059 17.864C143.535 17.8873 163.033 18.4928 182.505 18.2192C182.5 16.9614 182.505 15.6976 182.516 14.4399Z" fill="#BAEAFA"/>
<path d="M125.695 10.6734C117.992 10.6734 110.283 10.6734 102.579 10.6734C102.101 11.8147 101.688 12.9853 101.323 14.1616C109.139 14.1964 116.956 14.2315 124.751 14.2373C125.024 13.0378 125.336 11.8497 125.695 10.6734Z" fill="#BAEAFA"/>
<path d="M124.754 14.2364C116.959 14.2304 109.142 14.1955 101.326 14.1607C100.961 15.3427 100.655 16.5305 100.392 17.73C108.283 17.7941 116.17 17.8526 124.061 17.8643C124.254 16.6472 124.485 15.4359 124.754 14.2364Z" fill="#BAEAFA"/>
<path d="M102.578 10.674C94.8744 10.674 87.1653 10.674 79.4616 10.674C78.8657 11.7862 78.3504 12.9217 77.894 14.0746C85.689 14.0862 93.5054 14.1272 101.322 14.1621C101.687 12.9859 102.1 11.8153 102.578 10.674Z" fill="#BAEAFA"/>
<path d="M101.324 14.1602C93.5078 14.1253 85.6914 14.0843 77.8964 14.0726C77.4401 15.2256 77.0536 16.3905 76.7208 17.5726C84.6124 17.6018 92.4985 17.6713 100.39 17.7295C100.653 16.53 100.959 15.3422 101.324 14.1602Z" fill="#BAEAFA"/>
<path d="M79.4648 10.6734C71.8846 10.6734 64.3043 10.6734 56.724 10.6734C56.3697 11.2149 56.0369 11.7625 55.7255 12.3156C63.3326 12.3272 71.0202 12.3564 78.6273 12.3564C78.8904 11.7916 79.1696 11.2266 79.4648 10.6734Z" fill="#BAEAFA"/>
<path d="M78.6289 12.3557C71.0218 12.3557 63.3342 12.3265 55.7271 12.3149C55.4158 12.8681 55.1206 13.4268 54.8522 13.9916C62.5237 14.0264 70.2274 14.0558 77.8988 14.0732C78.1243 13.4968 78.3712 12.9263 78.6289 12.3557Z" fill="#BAEAFA"/>
<path d="M77.8984 14.0733C70.227 14.0557 62.5233 14.0271 54.8518 13.9921C54.3042 15.1218 53.8371 16.2689 53.4345 17.4277C61.1973 17.5034 68.9601 17.5441 76.7228 17.5732C77.0557 16.3912 77.4421 15.2262 77.8984 14.0733Z" fill="#BAEAFA"/>
<path d="M56.7227 10.6732C49.894 10.6732 43.0654 10.6732 36.2421 10.6732C35.8395 11.1972 35.4584 11.733 35.0987 12.2687C41.9435 12.2047 48.8794 12.3037 55.7241 12.3154C56.0355 11.7623 56.3683 11.2147 56.7227 10.6732Z" fill="#BAEAFA"/>
<path d="M55.7266 12.315C48.8818 12.3034 41.9459 12.2043 35.1011 12.2683C34.7468 12.804 34.414 13.3514 34.1026 13.8988C40.9796 13.7008 47.9746 13.9573 54.8516 13.9922C55.12 13.4274 55.4152 12.8682 55.7266 12.315Z" fill="#BAEAFA"/>
<path d="M54.8477 13.9922C47.9707 13.9574 40.9757 13.7008 34.0987 13.8988C33.4759 14.9993 32.9391 16.1232 32.4828 17.2645C39.4134 16.8626 46.5158 17.3637 53.4304 17.4277C53.833 16.269 54.3001 15.1219 54.8477 13.9922Z" fill="#BAEAFA"/>
<path d="M36.2422 10.6731C35.6141 10.6731 34.9913 10.6965 34.374 10.7548C33.5579 11.8146 32.844 12.9034 32.2159 14.0098C32.8387 13.9574 33.4722 13.9224 34.1003 13.8991C34.7231 12.8044 35.4316 11.7212 36.2422 10.6731Z" fill="#BAEAFA"/>
<path d="M34.1016 13.898C33.4735 13.9212 32.84 13.9563 32.2172 14.0087C31.5945 15.115 31.0523 16.2445 30.5907 17.3975C31.2188 17.3451 31.8522 17.2986 32.4857 17.2637C32.942 16.1224 33.4788 14.9985 34.1016 13.898Z" fill="#BAEAFA"/>
<path d="M34.375 10.754C31.9646 10.9695 29.667 11.6044 27.5357 12.5827C26.7359 13.4794 26.0165 14.4516 25.3723 15.459C27.5036 14.6671 29.7958 14.2012 32.217 14.009C32.8451 12.9027 33.559 11.8138 34.375 10.754Z" fill="#BAEAFA"/>
<path d="M32.2148 14.0096C29.7937 14.2017 27.5014 14.6676 25.3701 15.4596C24.7259 16.4611 24.1569 17.5095 23.6361 18.5518C25.8157 17.9054 28.151 17.5731 30.5883 17.3984C31.0499 16.2455 31.5921 15.116 32.2148 14.0096Z" fill="#BAEAFA"/>
<path d="M27.5352 12.583C26.7353 13.4797 26.0159 14.4519 25.3717 15.4593C24.3088 15.8494 23.2834 16.3326 22.3009 16.8975C22.9612 15.9716 23.6805 15.0984 24.475 14.3123C25.4467 13.6543 26.4669 13.0721 27.5352 12.583Z" fill="#BAEAFA"/>
<path d="M24.4766 14.3121C23.682 15.0982 22.9628 15.9714 22.3025 16.8972C21.3254 17.4679 20.3859 18.1259 19.5001 18.8828C20.1873 18.0385 20.9227 17.2467 21.7118 16.5072C22.5815 15.7037 23.4995 14.9642 24.4766 14.3121Z" fill="#BAEAFA"/>
<path d="M25.3711 15.4591C23.2452 16.2452 21.2749 17.3689 19.4979 18.8828C18.8108 19.733 18.1773 20.63 17.6029 21.5791C19.4282 20.1584 21.4575 19.1976 23.6371 18.5513C24.1578 17.509 24.7269 16.4606 25.3711 15.4591Z" fill="#BAEAFA"/>
<path d="M195.148 14.365C195.148 23.8971 195.148 33.4291 195.148 42.9612C193.355 44.679 191.342 45.6342 189.216 46.1641C189.157 36.6262 189.039 26.9485 189.152 17.4572C191.305 16.8982 193.35 15.9488 195.148 14.365Z" fill="#BAEAFA"/>
<path d="M189.15 17.4568C189.038 26.9482 189.156 36.6258 189.215 46.1637C187.089 46.6936 184.85 46.7927 182.601 46.7869C182.488 37.2431 182.279 27.6702 182.504 18.2197C184.732 18.1904 186.992 18.0217 189.15 17.4568Z" fill="#BAEAFA"/>
<path d="M182.505 18.2199C163.033 18.4936 143.535 17.8881 124.059 17.8648C122.62 26.9776 123.21 36.6084 123.431 46.1871C143.154 46.3792 162.878 46.7231 182.602 46.7871C182.489 37.2434 182.279 27.6705 182.505 18.2199Z" fill="#BAEAFA"/>
<path d="M124.059 17.8642C108.281 17.8466 92.4977 17.6313 76.7198 17.5731C74.3309 26.4355 75.1039 36.0954 75.4153 45.709C91.4186 45.8662 107.427 46.0235 123.431 46.1865C123.21 36.6078 122.62 26.9771 124.059 17.8642Z" fill="#BAEAFA"/>
<path d="M76.7227 17.5731C74.2639 26.4297 74.9725 36.0954 75.2195 45.709C75.2839 45.709 75.3537 45.709 75.4181 45.709C75.1067 36.0954 74.3337 26.4356 76.7227 17.5731Z" fill="#BAEAFA"/>
<path d="M76.7227 17.5731C68.9599 17.5438 61.1971 17.5032 53.4343 17.4275C50.4817 26.0862 51.2547 35.6882 51.5123 45.2319C59.4147 45.3833 67.3171 45.6275 75.2195 45.709C74.9725 36.0954 74.2639 26.4297 76.7227 17.5731Z" fill="#BAEAFA"/>
<path d="M53.4336 17.427C45.8856 17.3572 38.1175 16.7688 30.591 17.3976C27.1337 25.9922 27.955 35.6755 28.2181 45.3008C35.9754 45.0271 43.7435 45.0854 51.5116 45.2309C51.254 35.6872 50.481 26.0857 53.4336 17.427Z" fill="#BAEAFA"/>
<path d="M30.5898 17.398C25.7153 17.7474 21.2595 18.7376 17.6036 21.5792C15.2898 25.3874 13.9421 29.9526 13.9421 34.8555C18.1564 32.9805 22.9236 32.2525 27.9752 32.0195C28.1095 26.9478 28.7323 22.0156 30.5898 17.398Z" fill="#BAEAFA"/>
<path d="M27.9771 32.0203C27.859 36.3817 28.0953 40.848 28.2188 45.3025C25.7224 45.3899 23.2743 45.5702 20.8907 45.8672C20.8316 41.599 20.5847 37.0514 20.6438 32.824C22.9952 32.3756 25.4485 32.1368 27.9771 32.0203Z" fill="#BAEAFA"/>
<path d="M20.6398 32.8232C20.5808 37.0506 20.8277 41.5982 20.8867 45.8664C18.4978 46.1633 16.1787 46.5767 13.94 47.124C13.94 43.0364 13.94 38.9432 13.94 34.8555C16.0498 33.918 18.2938 33.2657 20.6398 32.8232Z" fill="#BAEAFA"/>
<path d="M195.148 42.9612C195.148 46.8917 195.148 50.8163 195.148 54.7468C193.388 56.546 191.401 57.513 189.281 58.0312C189.453 54.1124 189.206 49.9839 189.216 46.1641C191.342 45.6342 193.355 44.679 195.148 42.9612Z" fill="#BAEAFA"/>
<path d="M189.214 46.1645C189.204 49.9843 189.451 54.1128 189.279 58.0316C187.164 58.5499 184.925 58.6139 182.654 58.6081C182.987 54.6951 182.584 50.5026 182.601 46.7876C184.85 46.7936 187.089 46.6944 189.214 46.1645Z" fill="#BAEAFA"/>
<path d="M195.148 54.7462C195.148 56.365 194.885 57.9141 194.402 59.3523C192.636 61.169 190.639 62.1242 188.513 62.6191C188.975 61.1867 189.216 59.6262 189.281 58.0307C191.401 57.5125 193.388 56.5455 195.148 54.7462Z" fill="#BAEAFA"/>
<path d="M189.281 58.0306C189.217 59.6261 188.975 61.1865 188.514 62.619C186.382 63.1139 184.122 63.1489 181.83 63.1256C182.275 61.699 182.522 60.1734 182.656 58.607C184.927 58.6131 187.166 58.5488 189.281 58.0306Z" fill="#BAEAFA"/>
<path d="M182.602 46.787C182.58 51.9868 183.38 58.1299 181.829 63.126C172.021 63.0794 162.218 62.9396 152.41 62.7999C153.644 57.6525 153.016 51.8292 153.016 46.5362C162.878 46.6526 172.74 46.7578 182.602 46.787Z" fill="#BAEAFA"/>
<path d="M153.019 46.5355C143.157 46.4132 133.295 46.2794 123.433 46.1862C123.444 48.8764 123.567 51.6189 123.567 54.3499C133.402 54.4314 143.291 54.5829 153.18 54.7227C153.174 51.9626 153.019 49.1849 153.019 46.5355Z" fill="#BAEAFA"/>
<path d="M153.18 54.7233C143.291 54.5835 133.402 54.432 123.567 54.3505C123.567 57.0756 123.455 59.7952 122.993 62.4388C132.801 62.5087 142.609 62.6542 152.412 62.7998C153.029 60.2261 153.18 57.4833 153.18 54.7233Z" fill="#BAEAFA"/>
<path d="M123.432 46.187C107.429 46.0239 91.4202 45.8667 75.4169 45.7094C75.4652 48.4345 75.5725 51.1889 75.6101 53.9315C91.5436 54.0771 107.633 54.2516 123.566 54.3506C123.566 51.6196 123.443 48.8771 123.432 46.187Z" fill="#BAEAFA"/>
<path d="M123.566 54.3502C107.633 54.2511 91.5436 54.0767 75.6101 53.9311C75.653 56.6737 75.6265 59.4161 75.4062 62.1237C91.27 62.246 107.133 62.4094 122.992 62.4385C123.454 59.7949 123.566 57.0753 123.566 54.3502Z" fill="#BAEAFA"/>
<path d="M75.4187 45.7102C75.51 51.1663 75.8482 56.7097 75.408 62.125C67.6023 62.0609 59.8019 62.0027 52.0015 61.9794C52.2109 56.4884 51.9371 50.747 51.819 45.2386C59.6891 45.39 67.5539 45.6287 75.4187 45.7102Z" fill="#BAEAFA"/>
<path d="M51.8151 45.2375C51.9332 50.746 52.207 56.4874 51.9977 61.9784C44.1973 61.9491 36.3915 61.9555 28.5912 62.002C28.5749 56.4352 28.3604 50.8623 28.2155 45.3015C36.0748 45.022 43.945 45.0861 51.8151 45.2375Z" fill="#BAEAFA"/>
<path d="M28.2181 45.3011C28.363 50.8619 28.5777 56.4344 28.5938 62.0011C26.1565 62.0187 23.6871 62.0943 21.2337 62.1875C21.2281 56.8421 20.9652 51.2111 20.89 45.8657C23.2736 45.5687 25.7217 45.3884 28.2181 45.3011Z" fill="#BAEAFA"/>
<path d="M20.8868 45.8669C20.9619 51.2123 21.2251 56.8433 21.2305 62.1887C18.7771 62.2818 16.3344 62.3981 13.94 62.4971C13.94 57.3729 13.94 52.2487 13.94 47.1245C16.1787 46.5772 18.4978 46.1638 20.8868 45.8669Z" fill="#BAEAFA"/>
<path d="M194.402 59.3523C193.109 60.6857 191.686 61.5536 190.183 62.1184C189.887 63.0559 189.544 63.9525 189.125 64.7852C190.617 64.1679 191.997 63.2476 193.205 61.9782C193.688 61.1572 194.091 60.2781 194.402 59.3523Z" fill="#BAEAFA"/>
<path d="M193.207 61.9794C191.999 63.2488 190.619 64.1691 189.127 64.7863C188.708 65.6248 188.209 66.399 187.597 67.1152C189.079 66.4339 190.41 65.4501 191.527 64.2389C192.16 63.5518 192.724 62.7946 193.207 61.9794Z" fill="#BAEAFA"/>
<path d="M190.184 62.1176C188.68 62.6824 187.091 62.9386 185.459 63.0551C185.169 64.0042 184.799 64.9126 184.348 65.7686C186.023 65.7103 187.628 65.4016 189.126 64.7844C189.545 63.9517 189.888 63.0551 190.184 62.1176Z" fill="#BAEAFA"/>
<path d="M189.125 64.7851C187.627 65.4023 186.022 65.711 184.347 65.7692C183.896 66.6252 183.37 67.4285 182.78 68.168C184.487 68.168 186.113 67.7894 187.595 67.114C188.207 66.3977 188.706 65.6236 189.125 64.7851Z" fill="#BAEAFA"/>
<path d="M185.457 63.0561C184.265 63.1376 183.052 63.1376 181.828 63.1259C181.538 64.0576 181.162 64.9542 180.711 65.7986C181.93 65.8046 183.149 65.81 184.346 65.7691C184.797 64.9131 185.167 64.0052 185.457 63.0561Z" fill="#BAEAFA"/>
<path d="M184.348 65.7692C183.15 65.8101 181.932 65.8038 180.713 65.7983C180.268 66.6426 179.742 67.4343 179.151 68.168C180.359 68.168 181.567 68.168 182.78 68.168C183.371 67.4285 183.897 66.6252 184.348 65.7692Z" fill="#BAEAFA"/>
<path d="M181.828 63.1262C172.02 63.0796 162.217 62.9398 152.409 62.8001C152.178 63.755 151.883 64.6808 151.523 65.5775C161.256 65.6765 170.995 65.7755 180.711 65.7988C181.162 64.9545 181.538 64.0578 181.828 63.1262Z" fill="#BAEAFA"/>
<path d="M180.711 65.7983C170.994 65.775 161.256 65.6759 151.523 65.5769C151.163 66.4737 150.734 67.3353 150.24 68.168C159.876 68.168 169.512 68.168 179.149 68.168C179.739 67.4343 180.265 66.6426 180.711 65.7983Z" fill="#BAEAFA"/>
<path d="M152.41 62.7997C142.607 62.6541 132.799 62.5086 122.991 62.4387C122.825 63.4169 122.61 64.3836 122.336 65.3386C132.058 65.3734 141.791 65.4782 151.524 65.5771C151.884 64.6804 152.179 63.7546 152.41 62.7997Z" fill="#BAEAFA"/>
<path d="M151.523 65.5769C141.79 65.478 132.058 65.3733 122.335 65.3384C122.062 66.2991 121.734 67.2363 121.331 68.168C130.968 68.168 140.604 68.168 150.24 68.168C150.734 67.3353 151.164 66.4737 151.523 65.5769Z" fill="#BAEAFA"/>
<path d="M122.992 62.4385C122.659 64.395 122.133 66.3105 121.333 68.168C105.867 68.168 90.3951 68.168 74.9286 68.168C75.3581 66.2115 75.6265 64.1268 75.7929 62.1237C91.5278 62.2518 107.263 62.4094 122.992 62.4385Z" fill="#BAEAFA"/>
<path d="M75.793 62.1237C75.6265 64.1268 75.3581 66.2115 74.9287 68.168C67.1928 68.168 59.4569 68.168 51.721 68.168C51.8982 66.1416 52.145 64.0161 52.1933 61.9781C60.0635 62.0014 67.9282 62.0596 75.793 62.1237Z" fill="#BAEAFA"/>
<path d="M52.1914 61.9781C52.1431 64.0161 51.8963 66.1416 51.7191 68.168C43.9832 68.168 36.2526 68.168 28.5167 68.168C28.5757 66.1125 28.5972 64.0572 28.5918 62.0017C36.4565 61.9493 44.3267 61.9489 52.1914 61.9781Z" fill="#BAEAFA"/>
<path d="M28.5929 62.0017C28.5985 64.0572 28.5767 66.1125 28.5179 68.168C26.086 68.168 23.6594 68.168 21.2274 68.168C21.2595 66.194 21.2382 64.1621 21.2331 62.1881C23.6865 62.095 26.1557 62.0192 28.5929 62.0017Z" fill="#BAEAFA"/>
<path d="M21.2342 62.1881C21.2393 64.1621 21.2611 66.194 21.2286 68.168C18.8021 68.168 16.3755 68.168 13.9436 68.168C13.9436 66.2756 13.9436 64.3831 13.9436 62.4965C16.3379 62.3975 18.7808 62.2813 21.2342 62.1881Z" fill="#BAEAFA"/>
</g>
</g>
<mask id="mask2_3454_11918" style="mask-type:luminance" maskUnits="userSpaceOnUse" x="3" y="21" width="26" height="63">
<path d="M17.7566 21.1182C17.6295 21.3355 17.5023 21.5529 17.3751 21.7697C17.0741 22.2848 16.7731 22.7994 16.4721 23.3144C16.0915 24.1601 15.7339 25.0379 15.4025 25.9314C14.9911 27.0432 14.6203 28.1797 14.297 29.3114C14.1566 29.8023 14.0251 30.2932 13.9031 30.7804C12.1441 37.997 10.3852 45.2136 8.62627 52.4307C7.65818 56.4015 6.69052 60.3727 5.72242 64.3435C5.15252 66.6814 4.58306 69.0188 4.01316 71.3562C3.28997 74.3229 3.44368 77.4902 4.59418 80.2935C5.10156 81.5297 5.76781 82.6035 6.62415 83.0424C6.85322 82.5677 7.08273 82.0926 7.3118 81.618C7.84016 80.5238 8.36809 79.4297 8.89645 78.335C9.59095 76.8967 10.2855 75.4579 10.9799 74.0192C11.0943 73.7828 11.2086 73.5459 11.3229 73.3091C14.8973 65.9044 18.4721 58.4992 22.0465 51.0945C24.1848 46.6654 26.3226 42.2362 28.4609 37.8071C28.4609 37.8071 28.3749 37.7899 28.2177 37.7523C26.2695 37.2883 13.3987 33.7155 17.7566 21.1182Z" fill="white"/>
</mask>
<g mask="url(#mask2_3454_11918)">
<mask id="mask3_3454_11918" style="mask-type:luminance" maskUnits="userSpaceOnUse" x="3" y="21" width="26" height="63">
<path d="M17.7527 21.1191C17.6256 21.3365 17.4984 21.5538 17.3712 21.7707C17.0702 22.2858 16.7692 22.8003 16.4682 23.3154C16.0876 24.1611 15.73 25.0388 15.3986 25.9324C14.9872 27.0442 14.6164 28.1806 14.2931 29.3124C14.1527 29.8033 14.0212 30.2942 13.8992 30.7814C12.1402 37.998 10.3813 45.2146 8.62237 52.4316C7.65427 56.4024 6.68661 60.3737 5.71851 64.3445C5.14861 66.6823 4.57915 69.0198 4.00925 71.3572C3.28607 74.3239 3.43977 77.4912 4.59027 80.2944C5.09766 81.5307 5.7639 82.6045 6.62025 83.0433C6.84932 82.5687 7.07882 82.0936 7.30789 81.619C7.83626 80.5248 8.36418 79.4306 8.89255 78.336C9.58704 76.8977 10.2815 75.4589 10.976 74.0201C11.0904 73.7838 11.2047 73.5469 11.319 73.31C14.8934 65.9054 18.4682 58.5002 22.0426 51.0955C24.1809 46.6664 26.3187 42.2372 28.457 37.808C28.457 37.808 28.371 37.7908 28.2138 37.7532C26.2656 37.2893 13.3948 33.7165 17.7527 21.1191Z" fill="white"/>
</mask>
<g mask="url(#mask3_3454_11918)">
<path d="M17.7511 21.1194C17.6881 21.2275 17.6252 21.3356 17.5623 21.4437C15.4226 27.678 17.4627 31.7595 20.2553 34.3477C20.3601 34.2424 20.4651 34.1341 20.6172 33.9862C17.7013 31.4606 15.5721 27.4163 17.7511 21.1194Z" fill="#000033" fill-opacity="0.82"/>
<path d="M20.6185 33.9865C20.4665 34.1344 20.3615 34.2427 20.2567 34.348C23.0492 36.9361 26.5945 38.0282 27.4624 38.2842C27.722 38.1164 27.971 37.9371 28.2148 37.7522C27.242 37.5218 23.537 36.512 20.6185 33.9865Z" fill="#000033" fill-opacity="0.82"/>
<path d="M17.5622 21.4441C13.2802 33.9099 25.7224 37.7724 27.4609 38.2843C27.2039 38.4549 26.9391 38.6199 26.669 38.7764C25.1377 38.2132 13.1676 34.1032 17.3709 21.7711C17.4338 21.663 17.4966 21.5522 17.5622 21.4441Z" fill="#000033" fill-opacity="0.82"/>
<path d="M17.3738 21.7716C17.0722 22.2864 16.7706 22.801 16.4716 23.3158C12.7823 34.6981 22.7229 39.2404 22.5603 40.7393C23.9789 40.1306 25.3897 39.5191 26.6719 38.7768C25.1406 38.2137 13.1705 34.1037 17.3738 21.7716Z" fill="#000033" fill-opacity="0.82"/>
<path d="M16.4718 23.3152C16.089 24.1599 15.7324 25.0391 15.402 25.9321C12.4678 35.8439 19.1806 41.077 16.3146 44.0576C18.1003 42.6356 20.3396 41.6914 22.5605 40.7387C22.7231 39.2398 12.7825 34.6975 16.4718 23.3152Z" fill="#000033" fill-opacity="0.82"/>
<path d="M15.4015 25.9326C12.4673 35.8445 19.1801 41.0775 16.3141 44.0581C15.7582 44.5018 15.3071 45.0594 14.9085 45.6709C17.5673 42.0645 12.3074 36.3763 15.1 26.7717C15.197 26.4901 15.2966 26.2114 15.4015 25.9326Z" fill="#000033" fill-opacity="0.82"/>
<path d="M15.0995 26.7724C12.3069 36.377 17.5669 42.0653 14.908 45.6716C14.5094 46.2802 14.1607 46.9457 13.8094 47.6055C16.0146 42.6311 12.3306 36.5474 14.8137 27.6169C14.9055 27.3325 15.0025 27.0511 15.0995 26.7724Z" fill="#000033" fill-opacity="0.82"/>
<path d="M14.8164 27.6165C13.5771 32.0818 13.8756 35.8361 14.211 39.0955C13.9699 39.286 13.729 39.4766 13.4643 39.7041C13.4382 36.2684 13.4599 32.5939 14.549 28.4642C14.6355 28.1798 14.7247 27.898 14.8164 27.6165Z" fill="#000033" fill-opacity="0.82"/>
<path d="M14.5469 28.4638C13.4587 32.5935 13.4352 36.268 13.4614 39.7038C13.1992 39.9284 12.9133 40.1929 12.5829 40.5342C12.9002 36.9733 13.2777 33.2876 14.2952 29.3115C14.3764 29.0299 14.4603 28.7454 14.5469 28.4638Z" fill="#000033" fill-opacity="0.82"/>
<path d="M14.2062 39.0949C13.7237 39.4788 13.2413 39.8514 12.5805 40.5339C12.2658 44.0948 12.009 47.5334 11.2381 51.0146C12.3945 50.2154 13.1076 48.9214 13.8077 47.6045C14.9117 45.1159 14.5419 42.3542 14.2062 39.0949Z" fill="#000033" fill-opacity="0.82"/>
<path d="M14.293 29.3115C14.2221 29.5589 14.1541 29.8035 14.0885 30.048C13.1419 33.8421 12.5179 37.4967 11.9253 41.0889C12.1324 40.9495 12.3395 40.8016 12.5807 40.5342C12.898 36.9734 13.2755 33.2876 14.293 29.3115Z" fill="#000033" fill-opacity="0.82"/>
<path d="M12.582 40.5347C12.3408 40.802 12.1338 40.95 11.9266 41.0893C11.334 44.6815 10.7702 48.214 9.94421 51.7578C10.3873 51.536 10.8227 51.3026 11.2396 51.0154C12.0105 47.5341 12.2674 44.0955 12.582 40.5347Z" fill="#000033" fill-opacity="0.82"/>
<path d="M14.0898 30.0481C14.0243 30.2927 13.9613 30.5374 13.9011 30.782C13.02 34.3912 12.1416 37.9973 11.2632 41.6064C11.5097 41.3647 11.7195 41.2312 11.9266 41.089C12.5192 37.4968 13.1432 33.8422 14.0898 30.0481Z" fill="#000033" fill-opacity="0.82"/>
<path d="M11.9258 41.0882C11.7186 41.2304 11.5089 41.364 11.2624 41.6057C10.3814 45.2149 9.50292 48.8243 8.62187 52.4307C9.05715 52.1917 9.50285 51.9814 9.94339 51.7567C10.7693 48.2129 11.3331 44.6804 11.9258 41.0882Z" fill="#000033" fill-opacity="0.82"/>
<path d="M28.2159 37.7523C28.3731 37.7895 28.457 37.8095 28.457 37.8095C28.1767 37.9858 27.8858 38.1562 27.5871 38.3184C27.5871 38.3137 27.5453 38.3039 27.464 38.2839C27.7235 38.1161 27.9722 37.9372 28.2159 37.7523Z" fill="#000033" fill-opacity="0.82"/>
<path d="M27.4629 38.2847C27.5441 38.3046 27.5859 38.3159 27.5859 38.3191C27.2872 38.4841 26.9832 38.6402 26.674 38.7881C26.674 38.7825 26.6741 38.7772 26.6698 38.7772C26.9397 38.6207 27.2044 38.4557 27.4612 38.2851L27.4629 38.2847Z" fill="#000033" fill-opacity="0.82"/>
<path d="M28.457 37.8098C28.1764 37.9862 27.8854 38.1566 27.5865 38.3187C27.0358 39.5388 25.848 42.1413 24.6261 44.792C24.8201 44.7095 25.0142 44.6211 25.2528 44.4505C26.3201 42.2377 27.3898 40.0226 28.457 37.8098Z" fill="#000033" fill-opacity="0.82"/>
<path d="M25.25 44.4504C25.0114 44.621 24.8172 44.7094 24.6232 44.7919C23.3986 47.4455 22.1426 50.1504 21.4556 51.5781C21.6523 51.416 21.8463 51.2563 22.0404 51.0942C23.1102 48.8815 24.1802 46.6659 25.25 44.4504Z" fill="#000033" fill-opacity="0.82"/>
<path d="M27.5859 38.319C26.4846 40.7592 22.8345 48.723 21.4579 51.5785C21.2613 51.7406 21.0621 51.9024 20.8654 52.0674C21.479 50.7847 26.6052 39.2406 26.6734 38.7884C26.9828 38.6404 27.287 38.4839 27.5859 38.319Z" fill="#000033" fill-opacity="0.82"/>
<path d="M26.6698 38.7767C26.7905 38.8195 21.4885 50.7616 20.8644 52.0671C19.6556 53.0597 18.4179 54.0838 17.1934 55.1162C17.8332 53.6088 21.2813 42.3259 21.3547 41.2594C23.1666 40.4687 25.0258 39.7295 26.6698 38.7767Z" fill="#000033" fill-opacity="0.82"/>
<path d="M21.3555 41.2594C19.5435 42.05 17.7763 42.8921 16.3132 44.0581C16.1794 45.1048 15.6654 48.2162 15.1068 51.2793C16.4127 50.1815 17.9337 49.0866 19.486 48.0229C20.4378 44.8802 21.3187 41.7912 21.3555 41.2594Z" fill="#000033" fill-opacity="0.82"/>
<path d="M19.4844 48.0234C17.9321 49.0871 16.4111 50.1819 15.1052 51.2798C14.5441 54.3429 13.9359 57.3578 13.6081 58.2139C14.7592 57.1871 15.968 56.1491 17.1926 55.1167C17.5125 54.363 18.5352 51.1662 19.4844 48.0234Z" fill="#000033" fill-opacity="0.82"/>
<path d="M16.3125 44.0579C15.2007 44.9452 14.511 46.2848 13.8083 47.6045C13.512 49.1688 12.9823 51.7627 12.4107 54.3281C13.2471 53.2502 14.0704 52.1493 15.1062 51.279C15.6647 48.2159 16.1788 45.1045 16.3125 44.0579Z" fill="#000033" fill-opacity="0.82"/>
<path d="M15.1055 51.2791C14.0697 52.1494 13.2464 53.2503 12.4099 54.3282C11.841 56.8936 11.2274 59.4304 10.7606 60.8809C11.715 59.9907 12.6512 59.0692 13.6083 58.2132C13.9361 57.3571 14.5443 54.3422 15.1055 51.2791Z" fill="#000033" fill-opacity="0.82"/>
<path d="M13.8086 47.6049C13.2134 50.7334 11.6951 57.9802 10.7616 60.8812C9.80715 61.7742 8.83432 62.6333 7.80645 63.3643C9.02049 59.2716 10.3134 55.1844 11.2389 51.015C12.3953 50.2158 13.1085 48.9217 13.8086 47.6049Z" fill="#000033" fill-opacity="0.82"/>
<path d="M11.2422 51.0144C10.3166 55.1839 9.02374 59.271 7.8097 63.3637C7.50553 63.5799 7.14899 63.7477 6.78715 63.8984C7.87796 59.8655 9.0002 55.8296 9.9468 51.7569C10.3899 51.535 10.8253 51.3017 11.2422 51.0144Z" fill="#000033" fill-opacity="0.82"/>
<path d="M9.94531 51.7573C9.50477 51.982 9.05907 52.1923 8.62379 52.4313C8.38256 53.4239 8.14133 54.4166 7.89749 55.4092C8.31701 55.1845 8.76529 54.9994 9.20584 54.806C9.46278 53.7907 9.7093 52.7755 9.94531 51.7573Z" fill="#000033" fill-opacity="0.82"/>
<path d="M9.20703 54.8058C8.76648 54.9993 8.3182 55.1843 7.89868 55.409C7.65745 56.4016 7.41616 57.3942 7.17488 58.3896C7.55776 58.1906 7.99307 58.0228 8.42052 57.8436C8.68795 56.8311 8.95265 55.8183 9.20703 54.8058Z" fill="#000033" fill-opacity="0.82"/>
<path d="M8.41797 57.8427C7.99052 58.0219 7.55521 58.1897 7.17234 58.3888C6.92849 59.3813 6.68727 60.3736 6.44603 61.3662C6.79217 61.1928 7.20109 61.0392 7.6049 60.8714C7.8776 59.8617 8.15049 58.8524 8.41797 57.8427Z" fill="#000033" fill-opacity="0.82"/>
<path d="M7.60547 60.872C7.20166 61.0398 6.79274 61.1934 6.4466 61.3668C6.20537 62.3594 5.96153 63.3521 5.7203 64.3447C6.05068 64.1855 6.42037 64.0492 6.78487 63.8984C7.05758 62.8888 7.33277 61.8817 7.60547 60.872Z" fill="#000033" fill-opacity="0.82"/>
<path d="M22.043 51.0937C21.8489 51.2558 21.6549 51.4155 21.4582 51.5776C19.6909 55.2522 17.9682 58.9321 16.2612 62.6152C16.408 62.4787 16.5574 62.3423 16.6833 62.203C18.469 58.4999 20.2573 54.7968 22.043 51.0937Z" fill="#000033" fill-opacity="0.82"/>
<path d="M16.6836 62.204C16.5577 62.3434 16.4083 62.4797 16.2615 62.6163C15.4067 64.4593 14.5544 66.3025 13.7048 68.1426C13.8149 68.0118 13.9226 67.8812 14.0012 67.7589C14.8954 65.9073 15.7894 64.0556 16.6836 62.204Z" fill="#000033" fill-opacity="0.82"/>
<path d="M14.0039 67.7582C13.9253 67.8805 13.8176 68.0111 13.7074 68.1419C12.8579 69.9849 12.0058 71.8249 11.151 73.665C11.2086 73.5455 11.2664 73.4294 11.3241 73.3099C12.2156 71.4584 13.1098 69.6069 14.0039 67.7582Z" fill="#000033" fill-opacity="0.82"/>
<path d="M21.4609 51.5784C21.2643 51.7405 21.0651 51.9023 20.8684 52.0673C19.1221 55.7106 17.4649 59.371 15.8366 63.0342C15.9651 62.892 16.1144 62.7554 16.2639 62.616C17.9709 58.9329 19.6936 55.253 21.4609 51.5784Z" fill="#000033" fill-opacity="0.82"/>
<path d="M16.2617 62.6155C16.1122 62.7549 15.9629 62.8914 15.8344 63.0337C14.206 66.6969 12.6089 70.3629 10.9779 74.0205C11.0356 73.9011 11.0935 73.7844 11.1485 73.6649C12.8582 69.9846 14.5521 66.2987 16.2617 62.6155Z" fill="#000033" fill-opacity="0.82"/>
<path d="M20.8633 52.0671C17.3732 59.3537 14.2343 66.7058 10.975 74.0209C10.6262 74.7404 10.2802 75.4601 9.93402 76.1797C10.448 69.6524 14.4468 61.3761 17.1922 55.1162C18.4168 54.0838 19.6545 53.0597 20.8633 52.0671Z" fill="#000033" fill-opacity="0.82"/>
<path d="M17.1953 55.1157C15.9707 56.1481 14.762 57.1862 13.6108 58.2129C12.6092 60.8323 10.8733 64.4274 9.66446 68.085C10.4144 67.2146 11.5682 66.3784 12.7298 65.5479C14.1353 61.879 15.8239 58.247 17.1953 55.1157Z" fill="#000033" fill-opacity="0.82"/>
<path d="M12.7266 65.5486C11.565 66.379 10.4111 67.2153 9.6612 68.0856C8.45238 71.746 7.77596 75.4662 8.89036 78.3359C9.23911 77.6192 9.58508 76.8994 9.93382 76.1798C10.1908 72.9148 11.3185 69.2146 12.7266 65.5486Z" fill="#000033" fill-opacity="0.82"/>
<path d="M13.6094 58.2125C12.6523 59.0686 11.7161 59.99 10.7617 60.8802C9.93305 63.292 8.3834 66.9297 7.48137 70.5332C8.27062 69.6686 9.05204 68.7871 9.663 68.0846C10.8718 64.427 12.6077 60.8319 13.6094 58.2125Z" fill="#000033" fill-opacity="0.82"/>
<path d="M9.66406 68.0856C9.0531 68.788 8.27168 69.6696 7.48243 70.5342C6.58301 74.1405 6.3313 77.707 8.10128 79.9795C8.3661 79.4305 8.63101 78.8848 8.89323 78.3359C7.77882 75.4662 8.45525 71.7459 9.66406 68.0856Z" fill="#000033" fill-opacity="0.82"/>
<path d="M10.7617 60.8809C9.10452 65.7046 4.56036 75.4371 8.10028 79.9792C7.83541 80.5253 7.57315 81.0712 7.30833 81.6201C2.45996 78.2783 6.49808 67.7724 7.80654 63.364C8.83441 62.6331 9.80724 61.774 10.7617 60.8809Z" fill="#000033" fill-opacity="0.82"/>
<path d="M7.80859 63.3635C7.20025 63.7958 6.38487 64.026 5.72146 64.3445C5.15246 66.6824 4.5807 69.0206 4.0117 71.3584C4.61482 70.8578 5.31491 70.4139 5.88391 69.8422C6.51846 67.3081 7.33923 64.9448 7.80859 63.3635Z" fill="#000033" fill-opacity="0.82"/>
<path d="M5.88281 69.8428C5.31381 70.4145 4.61373 70.8584 4.0106 71.3589C3.28691 74.3254 3.44172 77.4906 4.59286 80.2949C4.88128 79.9224 5.19841 79.564 5.47638 79.1715C4.55598 76.6374 5.06732 73.0993 5.88281 69.8428Z" fill="#000033" fill-opacity="0.82"/>
<path d="M5.47569 79.1713C5.19772 79.5638 4.88058 79.9221 4.59217 80.2947C5.09822 81.5319 5.76414 82.6041 6.62159 83.0449C6.84972 82.57 7.08046 82.0949 7.30859 81.6199C6.42754 81.0113 5.84015 80.1696 5.47569 79.1713Z" fill="#000033" fill-opacity="0.82"/>
</g>
</g>
</g>
<path opacity="0.7" d="M50.0222 51L60.5622 29.58H48.6282V25.67H65.4242V29.58L55.1222 51H50.0222ZM79.7834 51L72.9834 25.67H77.9474L83.2854 47.26H81.9934L87.5694 25.67H92.3634L97.9054 47.26H96.6134L101.951 25.67H106.915L100.115 51H94.8114L89.2014 29.988H90.6974L85.0874 51H79.7834ZM117.024 51.408C115.12 51.408 113.454 50.9773 112.026 50.116C110.598 49.2547 109.487 48.0873 108.694 46.614C107.9 45.1407 107.504 43.5087 107.504 41.718C107.504 39.8593 107.9 38.216 108.694 36.788C109.51 35.3373 110.609 34.1927 111.992 33.354C113.397 32.5153 114.961 32.096 116.684 32.096C118.134 32.096 119.404 32.334 120.492 32.81C121.602 33.286 122.543 33.9433 123.314 34.782C124.084 35.6207 124.674 36.584 125.082 37.672C125.49 38.7373 125.694 39.8933 125.694 41.14C125.694 41.4573 125.671 41.786 125.626 42.126C125.603 42.466 125.546 42.7607 125.456 43.01H111.176V39.61H122.94L120.832 41.208C121.036 40.1653 120.979 39.236 120.662 38.42C120.367 37.604 119.868 36.958 119.166 36.482C118.486 36.006 117.658 35.768 116.684 35.768C115.754 35.768 114.927 36.006 114.202 36.482C113.476 36.9353 112.921 37.6153 112.536 38.522C112.173 39.406 112.037 40.4827 112.128 41.752C112.037 42.8853 112.184 43.894 112.57 44.778C112.978 45.6393 113.567 46.308 114.338 46.784C115.131 47.26 116.038 47.498 117.058 47.498C118.078 47.498 118.939 47.2827 119.642 46.852C120.367 46.4213 120.934 45.8433 121.342 45.118L124.946 46.886C124.583 47.77 124.016 48.552 123.246 49.232C122.475 49.912 121.557 50.4447 120.492 50.83C119.449 51.2153 118.293 51.408 117.024 51.408ZM137.842 51.408C135.938 51.408 134.272 50.9773 132.844 50.116C131.416 49.2547 130.305 48.0873 129.512 46.614C128.719 45.1407 128.322 43.5087 128.322 41.718C128.322 39.8593 128.719 38.216 129.512 36.788C130.328 35.3373 131.427 34.1927 132.81 33.354C134.215 32.5153 135.779 32.096 137.502 32.096C138.953 32.096 140.222 32.334 141.31 32.81C142.421 33.286 143.361 33.9433 144.132 34.782C144.903 35.6207 145.492 36.584 145.9 37.672C146.308 38.7373 146.512 39.8933 146.512 41.14C146.512 41.4573 146.489 41.786 146.444 42.126C146.421 42.466 146.365 42.7607 146.274 43.01H131.994V39.61H143.758L141.65 41.208C141.854 40.1653 141.797 39.236 141.48 38.42C141.185 37.604 140.687 36.958 139.984 36.482C139.304 36.006 138.477 35.768 137.502 35.768C136.573 35.768 135.745 36.006 135.02 36.482C134.295 36.9353 133.739 37.6153 133.354 38.522C132.991 39.406 132.855 40.4827 132.946 41.752C132.855 42.8853 133.003 43.894 133.388 44.778C133.796 45.6393 134.385 46.308 135.156 46.784C135.949 47.26 136.856 47.498 137.876 47.498C138.896 47.498 139.757 47.2827 140.46 46.852C141.185 46.4213 141.752 45.8433 142.16 45.118L145.764 46.886C145.401 47.77 144.835 48.552 144.064 49.232C143.293 49.912 142.375 50.4447 141.31 50.83C140.267 51.2153 139.111 51.408 137.842 51.408ZM149.888 51V25.262H154.342V42.126L152.642 41.616L161.346 32.504H166.888L160.054 39.95L167.024 51H161.924L155.872 41.412L158.524 40.868L152.948 46.852L154.342 44.132V51H149.888ZM176.55 51.408C174.578 51.408 172.855 50.9433 171.382 50.014C169.931 49.062 168.934 47.7813 168.39 46.172L171.722 44.574C172.198 45.6167 172.855 46.4327 173.694 47.022C174.555 47.6113 175.507 47.906 176.55 47.906C177.366 47.906 178.012 47.7247 178.488 47.362C178.964 46.9993 179.202 46.5233 179.202 45.934C179.202 45.5713 179.1 45.2767 178.896 45.05C178.714 44.8007 178.454 44.5967 178.114 44.438C177.796 44.2567 177.445 44.1093 177.06 43.996L174.034 43.146C172.47 42.6927 171.28 42.0013 170.464 41.072C169.67 40.1427 169.274 39.0433 169.274 37.774C169.274 36.6407 169.557 35.6547 170.124 34.816C170.713 33.9547 171.518 33.286 172.538 32.81C173.58 32.334 174.77 32.096 176.108 32.096C177.853 32.096 179.394 32.5153 180.732 33.354C182.069 34.1927 183.021 35.3713 183.588 36.89L180.188 38.488C179.87 37.6493 179.338 36.9807 178.59 36.482C177.842 35.9833 177.003 35.734 176.074 35.734C175.326 35.734 174.736 35.904 174.306 36.244C173.875 36.584 173.66 37.026 173.66 37.57C173.66 37.91 173.75 38.2047 173.932 38.454C174.113 38.7033 174.362 38.9073 174.68 39.066C175.02 39.2247 175.405 39.372 175.836 39.508L178.794 40.392C180.312 40.8453 181.48 41.5253 182.296 42.432C183.134 43.3387 183.554 44.4493 183.554 45.764C183.554 46.8747 183.259 47.8607 182.67 48.722C182.08 49.5607 181.264 50.218 180.222 50.694C179.179 51.17 177.955 51.408 176.55 51.408Z" fill="#0000FF"/>
<defs>
<filter id="filter0_d_3454_11918" x="0.574219" y="0" width="199.574" height="89.042" filterUnits="userSpaceOnUse" color-interpolation-filters="sRGB">
<feFlood flood-opacity="0" result="BackgroundImageFix"/>
<feColorMatrix in="SourceAlpha" type="matrix" values="0 0 0 0 0 0 0 0 0 0 0 0 0 0 0 0 0 0 127 0" result="hardAlpha"/>
<feOffset dx="1" dy="2"/>
<feGaussianBlur stdDeviation="2"/>
<feComposite in2="hardAlpha" operator="out"/>
<feColorMatrix type="matrix" values="0 0 0 0 0 0 0 0 0 0 0 0 0 0 0 0 0 0 0.25 0"/>
<feBlend mode="normal" in2="BackgroundImageFix" result="effect1_dropShadow_3454_11918"/>
<feBlend mode="normal" in="SourceGraphic" in2="effect1_dropShadow_3454_11918" result="shape"/>
</filter>
</defs>
</svg>
