<svg width="200" height="90" viewBox="0 0 200 90" fill="none" xmlns="http://www.w3.org/2000/svg">
<g filter="url(#filter0_d_3454_11787)">
<path d="M182.325 16.0674V2C183.896 2.03671 187.575 2.27347 191.036 4.03155C192.746 4.90046 193.87 5.79951 194.574 6.53475V16.0674H182.325Z" fill="#000033" fill-opacity="0.82"/>
<mask id="mask0_3454_11787" style="mask-type:luminance" maskUnits="userSpaceOnUse" x="13" y="6" width="182" height="63">
<path d="M194.574 6.70898C193.737 7.43394 192.407 8.373 190.369 9.21592C189.196 9.70123 187.99 10.057 186.823 10.318C185.228 10.676 183.624 10.6686 182.003 10.6686C163.043 10.6686 144.081 10.6686 125.121 10.6686C95.3027 10.6686 65.4839 10.6686 35.6656 10.6686C35.0375 10.6686 34.4149 10.6974 33.8001 10.7522C28.981 11.185 24.5973 13.2805 21.1364 16.5073C19.5595 17.9781 18.1739 19.6844 17.0268 21.5755C14.7139 25.387 13.3685 29.9499 13.3685 34.8537C13.3685 38.9429 13.3685 43.0326 13.3685 47.1218C13.3685 52.2452 13.3685 57.3682 13.3685 62.4917C13.3685 64.3824 13.3685 66.2739 13.3685 68.165C18.2253 68.165 23.0829 68.165 27.9397 68.165C58.8794 68.165 89.8183 68.165 120.758 68.165C140.029 68.165 159.3 68.165 178.571 68.165C179.781 68.165 180.991 68.165 182.201 68.165C185.618 68.165 188.711 66.6631 190.95 64.2342C192.212 62.866 193.202 61.2039 193.826 59.3499C194.31 57.9139 194.574 56.3623 194.574 54.7438C194.574 50.8153 194.574 46.8872 194.574 42.9587C194.574 33.4256 194.574 23.8929 194.574 14.3598C194.574 11.8097 194.574 9.25911 194.574 6.70898Z" fill="white"/>
</mask>
<g mask="url(#mask0_3454_11787)">
<mask id="mask1_3454_11787" style="mask-type:luminance" maskUnits="userSpaceOnUse" x="13" y="6" width="182" height="63">
<path d="M194.574 6.70898C193.737 7.43394 192.407 8.373 190.369 9.21592C189.196 9.70123 187.99 10.057 186.823 10.318C185.228 10.676 183.624 10.6686 182.003 10.6686C163.043 10.6686 144.081 10.6686 125.121 10.6686C95.3027 10.6686 65.4839 10.6686 35.6656 10.6686C35.0375 10.6686 34.4149 10.6974 33.8001 10.7522C28.981 11.185 24.5973 13.2805 21.1364 16.5073C19.5595 17.9781 18.1739 19.6844 17.0268 21.5755C14.7139 25.387 13.3685 29.9499 13.3685 34.8537C13.3685 38.9429 13.3685 43.0326 13.3685 47.1218C13.3685 52.2452 13.3685 57.3682 13.3685 62.4917C13.3685 64.3824 13.3685 66.2739 13.3685 68.165C18.2253 68.165 23.0829 68.165 27.9397 68.165C58.8794 68.165 89.8183 68.165 120.758 68.165C140.029 68.165 159.3 68.165 178.571 68.165C179.781 68.165 180.991 68.165 182.201 68.165C185.618 68.165 188.711 66.6631 190.95 64.2342C192.212 62.866 193.202 61.2039 193.826 59.3499C194.31 57.9139 194.574 56.3623 194.574 54.7438C194.574 50.8153 194.574 46.8872 194.574 42.9587C194.574 33.4256 194.574 23.8929 194.574 14.3598C194.574 11.8097 194.574 9.25911 194.574 6.70898Z" fill="white"/>
</mask>
<g mask="url(#mask1_3454_11787)">
<path d="M194.574 6.71338C193.742 7.43546 192.411 8.37302 190.371 9.21734C190.36 10.4984 190.354 11.7736 190.344 13.0547C192.121 12.3443 193.506 11.4706 194.574 10.5389C194.574 9.25793 194.574 7.98862 194.574 6.71338Z" fill="#BAEAFA"/>
<path d="M194.574 10.5389C193.506 11.4706 192.121 12.3442 190.344 13.0547C190.338 14.3357 190.338 15.6164 190.338 16.8975C191.847 16.321 193.275 15.5116 194.574 14.3645C194.574 13.0834 194.574 11.8083 194.574 10.5389Z" fill="#BAEAFA"/>
<path d="M190.371 9.21726C189.201 9.70053 187.993 10.0613 186.828 10.3175C186.806 11.5695 186.796 12.8213 186.785 14.0732C187.977 13.8403 189.185 13.5204 190.344 13.0546C190.355 11.7736 190.36 10.4983 190.371 9.21726Z" fill="#BAEAFA"/>
<path d="M190.343 13.0557C189.184 13.5215 187.976 13.8414 186.784 14.0743C186.779 15.3321 186.773 16.584 186.779 17.8359C187.992 17.638 189.189 17.3352 190.338 16.8985C190.338 15.6174 190.338 14.3367 190.343 13.0557Z" fill="#BAEAFA"/>
<path d="M186.828 10.3178C185.234 10.6788 183.628 10.6729 182.007 10.6729C181.975 11.919 181.959 13.1827 181.943 14.4404C183.564 14.4288 185.191 14.388 186.785 14.0735C186.796 12.8216 186.807 11.5697 186.828 10.3178Z" fill="#BAEAFA"/>
<path d="M186.785 14.0735C185.191 14.388 183.564 14.4288 181.943 14.4404C181.932 15.6982 181.927 16.962 181.932 18.2197C183.548 18.2021 185.18 18.103 186.78 17.8351C186.774 16.5832 186.78 15.3313 186.785 14.0735Z" fill="#BAEAFA"/>
<path d="M182.008 10.6729C163.046 10.6729 144.085 10.6729 125.124 10.6729C124.764 11.8491 124.453 13.0372 124.179 14.2368C143.398 14.2484 162.73 14.5744 181.943 14.4404C181.96 13.1827 181.975 11.919 182.008 10.6729Z" fill="#BAEAFA"/>
<path d="M181.941 14.4399C162.728 14.5738 143.396 14.2479 124.177 14.2362C123.909 15.4357 123.678 16.647 123.484 17.864C142.961 17.8873 162.459 18.4928 181.931 18.2192C181.925 16.9614 181.931 15.6976 181.941 14.4399Z" fill="#BAEAFA"/>
<path d="M125.121 10.6734C117.417 10.6734 109.708 10.6734 102.005 10.6734C101.527 11.8147 101.113 12.9853 100.748 14.1616C108.565 14.1964 116.381 14.2315 124.176 14.2373C124.45 13.0378 124.761 11.8497 125.121 10.6734Z" fill="#BAEAFA"/>
<path d="M124.18 14.2364C116.385 14.2304 108.568 14.1955 100.752 14.1607C100.387 15.3427 100.081 16.5305 99.8176 17.73C107.709 17.7941 115.595 17.8526 123.487 17.8643C123.68 16.6472 123.911 15.4359 124.18 14.2364Z" fill="#BAEAFA"/>
<path d="M102.004 10.674C94.3002 10.674 86.5911 10.674 78.8874 10.674C78.2915 11.7862 77.7762 12.9217 77.3198 14.0746C85.1148 14.0862 92.9312 14.1272 100.748 14.1621C101.113 12.9859 101.526 11.8153 102.004 10.674Z" fill="#BAEAFA"/>
<path d="M100.75 14.1602C92.9335 14.1253 85.1172 14.0843 77.3222 14.0726C76.8659 15.2256 76.4794 16.3905 76.1466 17.5726C84.0382 17.6018 91.9243 17.6713 99.8159 17.7295C100.079 16.53 100.385 15.3422 100.75 14.1602Z" fill="#BAEAFA"/>
<path d="M78.8906 10.6734C71.3104 10.6734 63.7301 10.6734 56.1498 10.6734C55.7955 11.2149 55.4627 11.7625 55.1513 12.3156C62.7584 12.3272 70.446 12.3564 78.0531 12.3564C78.3162 11.7916 78.5954 11.2266 78.8906 10.6734Z" fill="#BAEAFA"/>
<path d="M78.0547 12.3557C70.4476 12.3557 62.76 12.3265 55.1529 12.3149C54.8415 12.8681 54.5464 13.4268 54.278 13.9916C61.9495 14.0264 69.6531 14.0558 77.3246 14.0732C77.5501 13.4968 77.797 12.9263 78.0547 12.3557Z" fill="#BAEAFA"/>
<path d="M77.3242 14.0733C69.6527 14.0557 61.9491 14.0271 54.2776 13.9921C53.73 15.1218 53.2629 16.2689 52.8603 17.4277C60.623 17.5034 68.3859 17.5441 76.1486 17.5732C76.4814 16.3912 76.8679 15.2262 77.3242 14.0733Z" fill="#BAEAFA"/>
<path d="M56.1484 10.6732C49.3198 10.6732 42.4912 10.6732 35.6679 10.6732C35.2653 11.1972 34.8842 11.733 34.5245 12.2687C41.3692 12.2047 48.3052 12.3037 55.1499 12.3154C55.4613 11.7623 55.7941 11.2147 56.1484 10.6732Z" fill="#BAEAFA"/>
<path d="M55.1523 12.315C48.3076 12.3034 41.3717 12.2043 34.5269 12.2683C34.1726 12.804 33.8398 13.3514 33.5284 13.8988C40.4054 13.7008 47.4004 13.9573 54.2774 13.9922C54.5458 13.4274 54.841 12.8682 55.1523 12.315Z" fill="#BAEAFA"/>
<path d="M54.2734 13.9922C47.3965 13.9574 40.4014 13.7008 33.5244 13.8988C32.9017 14.9993 32.3648 16.1232 31.9085 17.2645C38.8392 16.8626 45.9416 17.3637 52.8562 17.4277C53.2588 16.269 53.7259 15.1219 54.2734 13.9922Z" fill="#BAEAFA"/>
<path d="M35.668 10.6731C35.0399 10.6731 34.4171 10.6965 33.7997 10.7548C32.9837 11.8146 32.2698 12.9034 31.6417 14.0098C32.2645 13.9574 32.898 13.9224 33.5261 13.8991C34.1488 12.8044 34.8574 11.7212 35.668 10.6731Z" fill="#BAEAFA"/>
<path d="M33.5273 13.898C32.8993 13.9212 32.2657 13.9563 31.643 14.0087C31.0203 15.115 30.4781 16.2445 30.0165 17.3975C30.6445 17.3451 31.278 17.2986 31.9115 17.2637C32.3678 16.1224 32.9046 14.9985 33.5273 13.898Z" fill="#BAEAFA"/>
<path d="M33.8008 10.754C31.3903 10.9695 29.0928 11.6044 26.9615 12.5827C26.1617 13.4794 25.4423 14.4516 24.7981 15.459C26.9294 14.6671 29.2216 14.2012 31.6428 14.009C32.2709 12.9027 32.9848 11.8138 33.8008 10.754Z" fill="#BAEAFA"/>
<path d="M31.6406 14.0096C29.2194 14.2017 26.9272 14.6676 24.7959 15.4596C24.1517 16.4611 23.5827 17.5095 23.0619 18.5518C25.2415 17.9054 27.5768 17.5731 30.0141 17.3984C30.4757 16.2455 31.0179 15.116 31.6406 14.0096Z" fill="#BAEAFA"/>
<path d="M26.9609 12.583C26.1611 13.4797 25.4417 14.4519 24.7975 15.4593C23.7346 15.8494 22.7091 16.3326 21.7267 16.8975C22.387 15.9716 23.1062 15.0984 23.9008 14.3123C24.8725 13.6543 25.8926 13.0721 26.9609 12.583Z" fill="#BAEAFA"/>
<path d="M23.9023 14.3121C23.1078 15.0982 22.3886 15.9714 21.7282 16.8972C20.7512 17.4679 19.8117 18.1259 18.9259 18.8828C19.6131 18.0385 20.3485 17.2467 21.1376 16.5072C22.0073 15.7037 22.9253 14.9642 23.9023 14.3121Z" fill="#BAEAFA"/>
<path d="M24.7969 15.4591C22.671 16.2452 20.7007 17.3689 18.9237 18.8828C18.2365 19.733 17.6031 20.63 17.0287 21.5791C18.854 20.1584 20.8833 19.1976 23.0629 18.5513C23.5836 17.509 24.1526 16.4606 24.7969 15.4591Z" fill="#BAEAFA"/>
<path d="M194.574 14.365C194.574 23.8971 194.574 33.4291 194.574 42.9612C192.781 44.679 190.768 45.6342 188.642 46.1641C188.583 36.6262 188.465 26.9485 188.578 17.4572C190.73 16.8982 192.776 15.9488 194.574 14.365Z" fill="#BAEAFA"/>
<path d="M188.576 17.4568C188.463 26.9482 188.582 36.6258 188.641 46.1637C186.515 46.6936 184.276 46.7927 182.027 46.7869C181.914 37.2431 181.704 27.6702 181.93 18.2197C184.158 18.1904 186.418 18.0217 188.576 17.4568Z" fill="#BAEAFA"/>
<path d="M181.931 18.2199C162.459 18.4936 142.961 17.8881 123.484 17.8648C122.046 26.9776 122.636 36.6084 122.856 46.1871C142.58 46.3792 162.304 46.7231 182.027 46.7871C181.915 37.2434 181.705 27.6705 181.931 18.2199Z" fill="#BAEAFA"/>
<path d="M123.484 17.8642C107.707 17.8466 91.9235 17.6313 76.1456 17.5731C73.7567 26.4355 74.5297 36.0954 74.841 45.709C90.8444 45.8662 106.853 46.0235 122.856 46.1865C122.636 36.6078 122.046 26.9771 123.484 17.8642Z" fill="#BAEAFA"/>
<path d="M76.1484 17.5731C73.6897 26.4297 74.3983 36.0954 74.6452 45.709C74.7097 45.709 74.7795 45.709 74.8439 45.709C74.5325 36.0954 73.7595 26.4356 76.1484 17.5731Z" fill="#BAEAFA"/>
<path d="M76.1484 17.5731C68.3857 17.5438 60.6228 17.5032 52.8601 17.4275C49.9074 26.0862 50.6804 35.6882 50.9381 45.2319C58.8405 45.3833 66.7429 45.6275 74.6452 45.709C74.3983 36.0954 73.6897 26.4297 76.1484 17.5731Z" fill="#BAEAFA"/>
<path d="M52.8594 17.427C45.3113 17.3572 37.5433 16.7688 30.0168 17.3976C26.5595 25.9922 27.3808 35.6755 27.6438 45.3008C35.4012 45.0271 43.1693 45.0854 50.9374 45.2309C50.6797 35.6872 49.9067 26.0857 52.8594 17.427Z" fill="#BAEAFA"/>
<path d="M30.0156 17.398C25.1411 17.7474 20.6852 18.7376 17.0293 21.5792C14.7155 25.3874 13.3679 29.9526 13.3679 34.8555C17.5822 32.9805 22.3494 32.2525 27.401 32.0195C27.5352 26.9478 28.1581 22.0156 30.0156 17.398Z" fill="#BAEAFA"/>
<path d="M27.4028 32.0203C27.2848 36.3817 27.521 40.848 27.6445 45.3025C25.1482 45.3899 22.7001 45.5702 20.3165 45.8672C20.2574 41.599 20.0105 37.0514 20.0696 32.824C22.421 32.3756 24.8743 32.1368 27.4028 32.0203Z" fill="#BAEAFA"/>
<path d="M20.0656 32.8232C20.0065 37.0506 20.2535 41.5982 20.3125 45.8664C17.9236 46.1633 15.6044 46.5767 13.3658 47.124C13.3658 43.0364 13.3658 38.9432 13.3658 34.8555C15.4756 33.918 17.7196 33.2657 20.0656 32.8232Z" fill="#BAEAFA"/>
<path d="M194.574 42.9612C194.574 46.8917 194.574 50.8163 194.574 54.7468C192.813 56.546 190.827 57.513 188.707 58.0312C188.878 54.1124 188.631 49.9839 188.642 46.1641C190.768 45.6342 192.781 44.679 194.574 42.9612Z" fill="#BAEAFA"/>
<path d="M188.64 46.1645C188.63 49.9843 188.876 54.1128 188.705 58.0316C186.589 58.5499 184.351 58.6139 182.08 58.6081C182.413 54.6951 182.01 50.5026 182.026 46.7876C184.276 46.7936 186.514 46.6944 188.64 46.1645Z" fill="#BAEAFA"/>
<path d="M194.574 54.7462C194.574 56.365 194.311 57.9141 193.828 59.3523C192.062 61.169 190.065 62.1242 187.939 62.6191C188.401 61.1867 188.642 59.6262 188.707 58.0307C190.827 57.5125 192.813 56.5455 194.574 54.7462Z" fill="#BAEAFA"/>
<path d="M188.707 58.0306C188.643 59.6261 188.401 61.1865 187.939 62.619C185.808 63.1139 183.548 63.1489 181.256 63.1256C181.701 61.699 181.948 60.1734 182.082 58.607C184.353 58.6131 186.592 58.5488 188.707 58.0306Z" fill="#BAEAFA"/>
<path d="M182.028 46.787C182.006 51.9868 182.806 58.1299 181.254 63.126C171.446 63.0794 161.644 62.9396 151.835 62.7999C153.07 57.6525 152.442 51.8292 152.442 46.5362C162.304 46.6526 172.166 46.7578 182.028 46.787Z" fill="#BAEAFA"/>
<path d="M152.444 46.5355C142.583 46.4132 132.721 46.2794 122.859 46.1862C122.87 48.8764 122.993 51.6189 122.993 54.3499C132.828 54.4314 142.717 54.5829 152.605 54.7227C152.6 51.9626 152.444 49.1849 152.444 46.5355Z" fill="#BAEAFA"/>
<path d="M152.605 54.7233C142.717 54.5835 132.828 54.432 122.993 54.3505C122.993 57.0756 122.88 59.7952 122.419 62.4388C132.227 62.5087 142.035 62.6542 151.838 62.7998C152.455 60.2261 152.605 57.4833 152.605 54.7233Z" fill="#BAEAFA"/>
<path d="M122.858 46.187C106.855 46.0239 90.846 45.8667 74.8427 45.7094C74.891 48.4345 74.9983 51.1889 75.0358 53.9315C90.9694 54.0771 107.059 54.2516 122.992 54.3506C122.992 51.6196 122.869 48.8771 122.858 46.187Z" fill="#BAEAFA"/>
<path d="M122.992 54.3502C107.059 54.2511 90.9694 54.0767 75.0358 53.9311C75.0788 56.6737 75.0523 59.4161 74.832 62.1237C90.6957 62.246 106.559 62.4094 122.418 62.4385C122.879 59.7949 122.992 57.0753 122.992 54.3502Z" fill="#BAEAFA"/>
<path d="M74.8445 45.7102C74.9357 51.1663 75.274 56.7097 74.8338 62.125C67.0281 62.0609 59.2277 62.0027 51.4273 61.9794C51.6367 56.4884 51.3629 50.747 51.2448 45.2386C59.1149 45.39 66.9797 45.6287 74.8445 45.7102Z" fill="#BAEAFA"/>
<path d="M51.2409 45.2375C51.359 50.746 51.6328 56.4874 51.4234 61.9784C43.6231 61.9491 35.8173 61.9555 28.017 62.002C28.0007 56.4352 27.7862 50.8623 27.6413 45.3015C35.5006 45.022 43.3708 45.0861 51.2409 45.2375Z" fill="#BAEAFA"/>
<path d="M27.6438 45.3011C27.7888 50.8619 28.0034 56.4344 28.0195 62.0011C25.5823 62.0187 23.1129 62.0943 20.6595 62.1875C20.6539 56.8421 20.391 51.2111 20.3158 45.8657C22.6994 45.5687 25.1475 45.3884 27.6438 45.3011Z" fill="#BAEAFA"/>
<path d="M20.3125 45.8669C20.3877 51.2123 20.6509 56.8433 20.6562 62.1887C18.2029 62.2818 15.7602 62.3981 13.3658 62.4971C13.3658 57.3729 13.3658 52.2487 13.3658 47.1245C15.6045 46.5772 17.9236 46.1638 20.3125 45.8669Z" fill="#BAEAFA"/>
<path d="M193.828 59.3523C192.534 60.6857 191.112 61.5536 189.608 62.1184C189.313 63.0559 188.97 63.9525 188.551 64.7852C190.043 64.1679 191.423 63.2476 192.631 61.9782C193.114 61.1572 193.517 60.2781 193.828 59.3523Z" fill="#BAEAFA"/>
<path d="M192.633 61.9794C191.425 63.2488 190.045 64.1691 188.553 64.7863C188.134 65.6248 187.635 66.399 187.023 67.1152C188.505 66.4339 189.836 65.4501 190.953 64.2389C191.586 63.5518 192.15 62.7946 192.633 61.9794Z" fill="#BAEAFA"/>
<path d="M189.609 62.1176C188.106 62.6824 186.517 62.9386 184.885 63.0551C184.595 64.0042 184.225 64.9126 183.774 65.7686C185.449 65.7103 187.054 65.4016 188.552 64.7844C188.97 63.9517 189.314 63.0551 189.609 62.1176Z" fill="#BAEAFA"/>
<path d="M188.551 64.7851C187.053 65.4023 185.448 65.711 183.773 65.7692C183.322 66.6252 182.796 67.4285 182.205 68.168C183.913 68.168 185.539 67.7894 187.021 67.114C187.633 66.3977 188.132 65.6236 188.551 64.7851Z" fill="#BAEAFA"/>
<path d="M184.883 63.0561C183.691 63.1376 182.478 63.1376 181.254 63.1259C180.964 64.0576 180.588 64.9542 180.137 65.7986C181.356 65.8046 182.574 65.81 183.772 65.7691C184.223 64.9131 184.593 64.0052 184.883 63.0561Z" fill="#BAEAFA"/>
<path d="M183.773 65.7692C182.576 65.8101 181.358 65.8038 180.139 65.7983C179.693 66.6426 179.167 67.4343 178.577 68.168C179.785 68.168 180.993 68.168 182.206 68.168C182.796 67.4285 183.322 66.6252 183.773 65.7692Z" fill="#BAEAFA"/>
<path d="M181.254 63.1262C171.446 63.0796 161.643 62.9398 151.835 62.8001C151.604 63.755 151.309 64.6808 150.949 65.5775C160.682 65.6765 170.42 65.7755 180.137 65.7988C180.588 64.9545 180.964 64.0578 181.254 63.1262Z" fill="#BAEAFA"/>
<path d="M180.137 65.7983C170.42 65.775 160.681 65.6759 150.948 65.5769C150.589 66.4737 150.159 67.3353 149.665 68.168C159.302 68.168 168.938 68.168 178.575 68.168C179.165 67.4343 179.691 66.6426 180.137 65.7983Z" fill="#BAEAFA"/>
<path d="M151.836 62.7997C142.033 62.6541 132.225 62.5086 122.417 62.4387C122.25 63.4169 122.036 64.3836 121.762 65.3386C131.484 65.3734 141.217 65.4782 150.95 65.5771C151.31 64.6804 151.605 63.7546 151.836 62.7997Z" fill="#BAEAFA"/>
<path d="M150.949 65.5769C141.216 65.478 131.483 65.3733 121.761 65.3384C121.487 66.2991 121.16 67.2363 120.757 68.168C130.394 68.168 140.03 68.168 149.666 68.168C150.16 67.3353 150.59 66.4737 150.949 65.5769Z" fill="#BAEAFA"/>
<path d="M122.418 62.4385C122.085 64.395 121.559 66.3105 120.759 68.168C105.293 68.168 89.8209 68.168 74.3544 68.168C74.7838 66.2115 75.0522 64.1268 75.2187 62.1237C90.9536 62.2518 106.688 62.4094 122.418 62.4385Z" fill="#BAEAFA"/>
<path d="M75.2188 62.1237C75.0523 64.1268 74.7839 66.2115 74.3545 68.168C66.6185 68.168 58.8827 68.168 51.1468 68.168C51.3239 66.1416 51.5708 64.0161 51.6191 61.9781C59.4892 62.0014 67.354 62.0596 75.2188 62.1237Z" fill="#BAEAFA"/>
<path d="M51.6172 61.9781C51.5689 64.0161 51.322 66.1416 51.1449 68.168C43.409 68.168 35.6784 68.168 27.9425 68.168C28.0015 66.1125 28.0229 64.0572 28.0175 62.0017C35.8823 61.9493 43.7524 61.9489 51.6172 61.9781Z" fill="#BAEAFA"/>
<path d="M28.0187 62.0017C28.0243 64.0572 28.0025 66.1125 27.9436 68.168C25.5117 68.168 23.0851 68.168 20.6532 68.168C20.6853 66.194 20.664 64.1621 20.6589 62.1881C23.1122 62.095 25.5814 62.0192 28.0187 62.0017Z" fill="#BAEAFA"/>
<path d="M20.66 62.1881C20.6651 64.1621 20.6869 66.194 20.6543 68.168C18.2278 68.168 15.8013 68.168 13.3694 68.168C13.3694 66.2756 13.3694 64.3831 13.3694 62.4965C15.7637 62.3975 18.2066 62.2813 20.66 62.1881Z" fill="#BAEAFA"/>
</g>
</g>
<mask id="mask2_3454_11787" style="mask-type:luminance" maskUnits="userSpaceOnUse" x="3" y="21" width="25" height="63">
<path d="M17.1824 21.1182C17.0552 21.3355 16.9281 21.5529 16.8009 21.7697C16.4999 22.2848 16.1989 22.7994 15.8979 23.3144C15.5172 24.1601 15.1597 25.0379 14.8283 25.9314C14.4168 27.0432 14.0461 28.1797 13.7228 29.3114C13.5823 29.8023 13.4509 30.2932 13.3289 30.7804C11.5699 37.997 9.81099 45.2136 8.05206 52.4307C7.08396 56.4015 6.1163 60.3727 5.1482 64.3435C4.5783 66.6814 4.00884 69.0188 3.43894 71.3562C2.71576 74.3229 2.86946 77.4902 4.01996 80.2935C4.52735 81.5297 5.19359 82.6035 6.04993 83.0424C6.279 82.5677 6.50851 82.0926 6.73758 81.618C7.26594 80.5238 7.79387 79.4297 8.32224 78.335C9.01673 76.8967 9.71123 75.4579 10.4057 74.0192C10.5201 73.7828 10.6344 73.5459 10.7487 73.3091C14.3231 65.9044 17.8979 58.4992 21.4723 51.0945C23.6106 46.6654 25.7484 42.2362 27.8867 37.8071C27.8867 37.8071 27.8006 37.7899 27.6435 37.7523C25.6953 37.2883 12.8245 33.7155 17.1824 21.1182Z" fill="white"/>
</mask>
<g mask="url(#mask2_3454_11787)">
<mask id="mask3_3454_11787" style="mask-type:luminance" maskUnits="userSpaceOnUse" x="2" y="21" width="26" height="63">
<path d="M17.1785 21.1191C17.0513 21.3365 16.9242 21.5538 16.797 21.7707C16.496 22.2858 16.195 22.8003 15.894 23.3154C15.5133 24.1611 15.1558 25.0388 14.8244 25.9324C14.4129 27.0442 14.0422 28.1806 13.7189 29.3124C13.5784 29.8033 13.447 30.2942 13.325 30.7814C11.566 37.998 9.80708 45.2146 8.04815 52.4316C7.08005 56.4024 6.11239 60.3737 5.14429 64.3445C4.5744 66.6823 4.00493 69.0198 3.43503 71.3572C2.71185 74.3239 2.86556 77.4912 4.01606 80.2944C4.52344 81.5307 5.18968 82.6045 6.04603 83.0433C6.2751 82.5687 6.5046 82.0936 6.73367 81.619C7.26204 80.5248 7.78996 79.4306 8.31833 78.336C9.01282 76.8977 9.70733 75.4589 10.4018 74.0201C10.5161 73.7838 10.6305 73.5469 10.7448 73.31C14.3192 65.9054 17.894 58.5002 21.4684 51.0955C23.6067 46.6664 25.7445 42.2372 27.8828 37.808C27.8828 37.808 27.7967 37.7908 27.6396 37.7532C25.6914 37.2893 12.8206 33.7165 17.1785 21.1191Z" fill="white"/>
</mask>
<g mask="url(#mask3_3454_11787)">
<path d="M17.1768 21.1204C17.1139 21.2285 17.051 21.3366 16.9881 21.4447C14.8484 27.679 16.8885 31.7605 19.6811 34.3486C19.7859 34.2434 19.8909 34.135 20.043 33.9872C17.1271 31.4616 14.9978 27.4173 17.1768 21.1204Z" fill="#000033" fill-opacity="0.82"/>
<path d="M20.0443 33.9875C19.8922 34.1353 19.7873 34.2437 19.6824 34.3489C22.475 36.9371 26.0202 38.0292 26.8882 38.2852C27.1478 38.1174 27.3967 37.938 27.6406 37.7532C26.6678 37.5228 22.9628 36.513 20.0443 33.9875Z" fill="#000033" fill-opacity="0.82"/>
<path d="M16.988 21.4451C12.706 33.9109 25.1482 37.7733 26.8867 38.2853C26.6297 38.4559 26.3649 38.6209 26.0948 38.7773C24.5635 38.2142 12.5934 34.1042 16.7967 21.7721C16.8596 21.664 16.9224 21.5532 16.988 21.4451Z" fill="#000033" fill-opacity="0.82"/>
<path d="M16.7995 21.7725C16.498 22.2874 16.1964 22.802 15.8974 23.3168C12.2081 34.699 22.1487 39.2414 21.9861 40.7402C23.4047 40.1316 24.8155 39.5201 26.0977 38.7778C24.5663 38.2146 12.5963 34.1047 16.7995 21.7725Z" fill="#000033" fill-opacity="0.82"/>
<path d="M15.8976 23.3162C15.5148 24.1609 15.1582 25.0401 14.8278 25.9331C11.8936 35.8449 18.6064 41.078 15.7404 44.0586C17.5261 42.6365 19.7653 41.6924 21.9863 40.7396C22.1489 39.2408 12.2083 34.6984 15.8976 23.3162Z" fill="#000033" fill-opacity="0.82"/>
<path d="M14.8272 25.9336C11.8931 35.8454 18.6058 41.0785 15.7398 44.0591C15.1839 44.5028 14.7329 45.0604 14.3343 45.6719C16.9931 42.0655 11.7331 36.3773 14.5258 26.7727C14.6228 26.4911 14.7224 26.2124 14.8272 25.9336Z" fill="#000033" fill-opacity="0.82"/>
<path d="M14.5253 26.7734C11.7327 36.378 16.9927 42.0662 14.3338 45.6726C13.9352 46.2812 13.5865 46.9466 13.2352 47.6064C15.4404 42.6321 11.7564 36.5484 14.2395 27.6178C14.3313 27.3334 14.4283 27.0521 14.5253 26.7734Z" fill="#000033" fill-opacity="0.82"/>
<path d="M14.2422 27.6175C13.0028 32.0827 13.3013 35.8371 13.6367 39.0964C13.3957 39.287 13.1548 39.4776 12.8901 39.7051C12.864 36.2694 12.8857 32.5949 13.9748 28.4651C14.0612 28.1807 14.1505 27.899 14.2422 27.6175Z" fill="#000033" fill-opacity="0.82"/>
<path d="M13.9727 28.4648C12.8845 32.5945 12.861 36.269 12.8872 39.7047C12.625 39.9294 12.339 40.1939 12.0087 40.5352C12.3259 36.9743 12.7035 33.2885 13.7209 29.3125C13.8022 29.0309 13.8861 28.7464 13.9727 28.4648Z" fill="#000033" fill-opacity="0.82"/>
<path d="M13.632 39.0958C13.1495 39.4798 12.667 39.8524 12.0063 40.5349C11.6916 44.0957 11.4348 47.5344 10.6638 51.0156C11.8203 50.2164 12.5334 48.9224 13.2335 47.6055C14.3375 45.1169 13.9676 42.3552 13.632 39.0958Z" fill="#000033" fill-opacity="0.82"/>
<path d="M13.7188 29.3125C13.6479 29.5599 13.5798 29.8045 13.5143 30.049C12.5677 33.8431 11.9436 37.4977 11.351 41.0898C11.5582 40.9505 11.7652 40.8025 12.0065 40.5352C12.3238 36.9743 12.7013 33.2886 13.7188 29.3125Z" fill="#000033" fill-opacity="0.82"/>
<path d="M12.0078 40.5356C11.7666 40.803 11.5595 40.9509 11.3524 41.0903C10.7597 44.6825 10.1959 48.215 9.37 51.7588C9.81311 51.5369 10.2485 51.3036 10.6654 51.0164C11.4363 47.5351 11.6931 44.0965 12.0078 40.5356Z" fill="#000033" fill-opacity="0.82"/>
<path d="M13.5156 30.0491C13.4501 30.2937 13.3871 30.5384 13.3268 30.7829C12.4458 34.3922 11.5674 37.9982 10.689 41.6074C10.9355 41.3657 11.1452 41.2321 11.3524 41.0899C11.945 37.4978 12.569 33.8432 13.5156 30.0491Z" fill="#000033" fill-opacity="0.82"/>
<path d="M11.3516 41.0892C11.1444 41.2314 10.9346 41.365 10.6882 41.6067C9.80714 45.2159 8.9287 48.8253 8.04765 52.4316C8.48293 52.1927 8.92863 51.9824 9.36917 51.7577C10.1951 48.2139 10.7589 44.6814 11.3516 41.0892Z" fill="#000033" fill-opacity="0.82"/>
<path d="M27.6417 37.7533C27.7989 37.7905 27.8828 37.8105 27.8828 37.8105C27.6024 37.9868 27.3116 38.1572 27.0129 38.3193C27.0129 38.3147 26.971 38.3048 26.8898 38.2849C27.1492 38.1171 27.398 37.9382 27.6417 37.7533Z" fill="#000033" fill-opacity="0.82"/>
<path d="M26.8887 38.2856C26.9699 38.3056 27.0117 38.3169 27.0117 38.3201C26.713 38.4851 26.409 38.6411 26.0998 38.7891C26.0998 38.7835 26.0999 38.7782 26.0956 38.7782C26.3655 38.6217 26.6302 38.4567 26.887 38.2861L26.8887 38.2856Z" fill="#000033" fill-opacity="0.82"/>
<path d="M27.8828 37.8108C27.6022 37.9872 27.3112 38.1576 27.0123 38.3197C26.4616 39.5398 25.2738 42.1423 24.0518 44.793C24.2458 44.7105 24.44 44.6221 24.6786 44.4515C25.7458 42.2387 26.8156 40.0235 27.8828 37.8108Z" fill="#000033" fill-opacity="0.82"/>
<path d="M24.6758 44.4514C24.4372 44.622 24.243 44.7104 24.049 44.7929C22.8244 47.4465 21.5684 50.1514 20.8814 51.5791C21.0781 51.417 21.2721 51.2573 21.4662 51.0952C22.536 48.8825 23.6059 46.6669 24.6758 44.4514Z" fill="#000033" fill-opacity="0.82"/>
<path d="M27.0117 38.3199C25.9104 40.7602 22.2603 48.724 20.8837 51.5794C20.6871 51.7416 20.4879 51.9034 20.2912 52.0684C20.9048 50.7856 26.031 39.2415 26.0991 38.7893C26.4086 38.6414 26.7128 38.4849 27.0117 38.3199Z" fill="#000033" fill-opacity="0.82"/>
<path d="M26.0956 38.7777C26.2162 38.8204 20.9143 50.7626 20.2902 52.0681C19.0814 53.0607 17.8437 54.0847 16.6192 55.1172C17.259 53.6098 20.707 42.3269 20.7805 41.2604C22.5924 40.4697 24.4515 39.7305 26.0956 38.7777Z" fill="#000033" fill-opacity="0.82"/>
<path d="M20.7812 41.2604C18.9693 42.051 17.2021 42.893 15.7389 44.0591C15.6052 45.1058 15.0912 48.2172 14.5326 51.2803C15.8385 50.1824 17.3595 49.0876 18.9118 48.0239C19.8636 44.8811 20.7445 41.7922 20.7812 41.2604Z" fill="#000033" fill-opacity="0.82"/>
<path d="M18.9102 48.0244C17.3579 49.0881 15.8368 50.1829 14.531 51.2808C13.9699 54.3439 13.3616 57.3587 13.0339 58.2148C14.185 57.1881 15.3938 56.1501 16.6183 55.1177C16.9382 54.364 17.9609 51.1672 18.9102 48.0244Z" fill="#000033" fill-opacity="0.82"/>
<path d="M15.7383 44.0588C14.6265 44.9462 13.9368 46.2858 13.2341 47.6055C12.9378 49.1698 12.408 51.7637 11.8364 54.3291C12.6729 53.2512 13.4962 52.1503 14.532 51.28C15.0905 48.2169 15.6046 45.1055 15.7383 44.0588Z" fill="#000033" fill-opacity="0.82"/>
<path d="M14.5312 51.2801C13.4955 52.1504 12.6722 53.2513 11.8357 54.3292C11.2667 56.8946 10.6531 59.4314 10.1864 60.8818C11.1408 59.9916 12.077 59.0702 13.0341 58.2141C13.3619 57.358 13.9701 54.3432 14.5312 51.2801Z" fill="#000033" fill-opacity="0.82"/>
<path d="M13.2344 47.6058C12.6392 50.7344 11.1209 57.9811 10.1874 60.8821C9.23293 61.7752 8.2601 62.6343 7.23223 63.3652C8.44627 59.2725 9.73913 55.1854 10.6647 51.016C11.8211 50.2167 12.5343 48.9227 13.2344 47.6058Z" fill="#000033" fill-opacity="0.82"/>
<path d="M10.668 51.0154C9.74239 55.1849 8.44952 59.272 7.23548 63.3647C6.93131 63.5809 6.57478 63.7487 6.21293 63.8994C7.30374 59.8664 8.42598 55.8306 9.37258 51.7579C9.8157 51.536 10.2511 51.3027 10.668 51.0154Z" fill="#000033" fill-opacity="0.82"/>
<path d="M9.37109 51.7583C8.93055 51.983 8.48485 52.1933 8.04957 52.4323C7.80834 53.4249 7.56711 54.4176 7.32327 55.4102C7.74279 55.1855 8.19107 55.0004 8.63162 54.807C8.88856 53.7916 9.13509 52.7765 9.37109 51.7583Z" fill="#000033" fill-opacity="0.82"/>
<path d="M8.63281 54.8068C8.19227 55.0002 7.74398 55.1853 7.32446 55.41C7.08323 56.4026 6.84194 57.3951 6.60067 58.3906C6.98354 58.1915 7.41885 58.0237 7.8463 57.8446C8.11373 56.8321 8.37844 55.8193 8.63281 54.8068Z" fill="#000033" fill-opacity="0.82"/>
<path d="M7.84375 57.8437C7.41631 58.0229 6.98099 58.1906 6.59812 58.3897C6.35428 59.3823 6.11305 60.3746 5.87182 61.3672C6.21795 61.1937 6.62687 61.0402 7.03068 60.8724C7.30339 59.8627 7.57627 58.8534 7.84375 57.8437Z" fill="#000033" fill-opacity="0.82"/>
<path d="M7.03125 60.873C6.62744 61.0408 6.21852 61.1943 5.87238 61.3678C5.63115 62.3604 5.38731 63.3531 5.14608 64.3457C5.47646 64.1865 5.84615 64.0502 6.21066 63.8994C6.48336 62.8898 6.75855 61.8826 7.03125 60.873Z" fill="#000033" fill-opacity="0.82"/>
<path d="M21.4688 51.0946C21.2747 51.2568 21.0806 51.4165 20.884 51.5786C19.1167 55.2532 17.394 58.933 15.687 62.6162C15.8338 62.4797 15.9832 62.3433 16.1091 62.2039C17.8948 58.5009 19.6831 54.7977 21.4688 51.0946Z" fill="#000033" fill-opacity="0.82"/>
<path d="M16.1094 62.205C15.9835 62.3444 15.8341 62.4807 15.6873 62.6172C14.8325 64.4602 13.9801 66.3034 13.1306 68.1436C13.2407 68.0127 13.3484 67.8821 13.427 67.7599C14.3212 65.9083 15.2152 64.0565 16.1094 62.205Z" fill="#000033" fill-opacity="0.82"/>
<path d="M13.4297 67.7592C13.351 67.8815 13.2434 68.0121 13.1332 68.1429C12.2836 69.9859 11.4315 71.8258 10.5767 73.666C10.6344 73.5465 10.6922 73.4304 10.7498 73.3109C11.6414 71.4594 12.5355 69.6079 13.4297 67.7592Z" fill="#000033" fill-opacity="0.82"/>
<path d="M20.8867 51.5793C20.6901 51.7415 20.4909 51.9033 20.2942 52.0683C18.5478 55.7116 16.8907 59.372 15.2624 63.0352C15.3909 62.893 15.5402 62.7564 15.6897 62.617C17.3967 58.9338 19.1194 55.254 20.8867 51.5793Z" fill="#000033" fill-opacity="0.82"/>
<path d="M15.6875 62.6165C15.538 62.7558 15.3887 62.8924 15.2602 63.0346C13.6318 66.6979 12.0347 70.3639 10.4037 74.0215C10.4614 73.902 10.5192 73.7854 10.5743 73.6659C12.284 69.9856 13.9779 66.2996 15.6875 62.6165Z" fill="#000033" fill-opacity="0.82"/>
<path d="M20.2891 52.0681C16.7989 59.3547 13.6601 66.7067 10.4007 74.0218C10.052 74.7414 9.70593 75.4611 9.3598 76.1807C9.87373 69.6534 13.8726 61.3771 16.618 55.1172C17.8426 54.0847 19.0802 53.0607 20.2891 52.0681Z" fill="#000033" fill-opacity="0.82"/>
<path d="M16.6211 55.1167C15.3965 56.1491 14.1878 57.1871 13.0366 58.2139C12.0349 60.8333 10.2991 64.4284 9.09024 68.0859C9.84018 67.2156 10.994 66.3793 12.1556 65.5489C13.5611 61.88 15.2497 58.248 16.6211 55.1167Z" fill="#000033" fill-opacity="0.82"/>
<path d="M12.1523 65.5495C10.9908 66.38 9.83692 67.2163 9.08698 68.0866C7.87816 71.747 7.20174 75.4672 8.31615 78.3369C8.66489 77.6202 9.01086 76.9004 9.35961 76.1808C9.6166 72.9158 10.7443 69.2156 12.1523 65.5495Z" fill="#000033" fill-opacity="0.82"/>
<path d="M13.0352 58.2135C12.0781 59.0695 11.1419 59.991 10.1874 60.8812C9.35884 63.293 7.80918 66.9307 6.90715 70.5342C7.6964 69.6696 8.47782 68.788 9.08878 68.0856C10.2976 64.428 12.0335 60.8329 13.0352 58.2135Z" fill="#000033" fill-opacity="0.82"/>
<path d="M9.08984 68.0865C8.47888 68.789 7.69746 69.6706 6.90821 70.5352C6.0088 74.1415 5.75708 77.708 7.52706 79.9805C7.79188 79.4315 8.0568 78.8858 8.31901 78.3369C7.2046 75.4671 7.88103 71.7469 9.08984 68.0865Z" fill="#000033" fill-opacity="0.82"/>
<path d="M10.1875 60.8819C8.5303 65.7055 3.98614 75.4381 7.52606 79.9802C7.26119 80.5263 6.99893 81.0722 6.73411 81.6211C1.88574 78.2793 5.92387 67.7734 7.23232 63.365C8.26019 62.6341 9.23302 61.775 10.1875 60.8819Z" fill="#000033" fill-opacity="0.82"/>
<path d="M7.23438 63.3645C6.62603 63.7968 5.81065 64.0269 5.14724 64.3455C4.57825 66.6834 4.00648 69.0215 3.43748 71.3594C4.04061 70.8588 4.74069 70.4149 5.30969 69.8432C5.94424 67.3091 6.76501 64.9458 7.23438 63.3645Z" fill="#000033" fill-opacity="0.82"/>
<path d="M5.30859 69.8438C4.7396 70.4155 4.03951 70.8594 3.43639 71.3599C2.71269 74.3263 2.8675 77.4916 4.01864 80.2959C4.30706 79.9233 4.6242 79.565 4.90216 79.1725C3.98177 76.6384 4.4931 73.1003 5.30859 69.8438Z" fill="#000033" fill-opacity="0.82"/>
<path d="M4.90147 79.1723C4.6235 79.5647 4.30636 79.9231 4.01795 80.2957C4.524 81.5329 5.18992 82.6051 6.04738 83.0459C6.27551 82.5709 6.50624 82.0959 6.73438 81.6209C5.85332 81.0123 5.26593 80.1706 4.90147 79.1723Z" fill="#000033" fill-opacity="0.82"/>
</g>
</g>
</g>
<path d="M40.882 51V29.614H35.986V25.67H45.506V51H40.882ZM58.8109 51.408C57.4736 51.408 56.1929 51.1587 54.9689 50.66C53.7676 50.1613 52.7249 49.4587 51.8409 48.552C50.9796 47.6227 50.3902 46.5233 50.0729 45.254L54.0849 43.826C54.4702 44.982 55.0936 45.8433 55.9549 46.41C56.8162 46.954 57.7682 47.226 58.8109 47.226C59.6722 47.226 60.4316 47.0447 61.0889 46.682C61.7689 46.2967 62.2902 45.7753 62.6529 45.118C63.0156 44.438 63.1969 43.656 63.1969 42.772C63.1969 41.888 63.0042 41.1173 62.6189 40.46C62.2562 39.8027 61.7462 39.2927 61.0889 38.93C60.4316 38.5447 59.6722 38.352 58.8109 38.352C57.9269 38.352 57.1222 38.5447 56.3969 38.93C55.6942 39.3153 55.1842 39.8707 54.8669 40.596L51.0929 39.746L53.0989 25.67H66.9029V29.58H54.9349L56.6689 27.574L55.2409 38.182L53.9149 37.094C54.5496 36.1647 55.3202 35.4847 56.2269 35.054C57.1562 34.6233 58.2782 34.408 59.5929 34.408C61.2702 34.408 62.7209 34.7707 63.9449 35.496C65.1916 36.2213 66.1549 37.2073 66.8349 38.454C67.5149 39.7007 67.8549 41.14 67.8549 42.772C67.8549 44.404 67.4582 45.8773 66.6649 47.192C65.8716 48.5067 64.7949 49.538 63.4349 50.286C62.0749 51.034 60.5336 51.408 58.8109 51.408ZM82.8478 51L76.0478 25.67H81.0118L86.3498 47.26H85.0578L90.6338 25.67H95.4278L100.97 47.26H99.6778L105.016 25.67H109.98L103.18 51H97.8758L92.2658 29.988H93.7618L88.1518 51H82.8478ZM120.088 51.408C118.184 51.408 116.518 50.9773 115.09 50.116C113.662 49.2547 112.552 48.0873 111.758 46.614C110.965 45.1407 110.568 43.5087 110.568 41.718C110.568 39.8593 110.965 38.216 111.758 36.788C112.574 35.3373 113.674 34.1927 115.056 33.354C116.462 32.5153 118.026 32.096 119.748 32.096C121.199 32.096 122.468 32.334 123.556 32.81C124.667 33.286 125.608 33.9433 126.378 34.782C127.149 35.6207 127.738 36.584 128.146 37.672C128.554 38.7373 128.758 39.8933 128.758 41.14C128.758 41.4573 128.736 41.786 128.69 42.126C128.668 42.466 128.611 42.7607 128.52 43.01H114.24V39.61H126.004L123.896 41.208C124.1 40.1653 124.044 39.236 123.726 38.42C123.432 37.604 122.933 36.958 122.23 36.482C121.55 36.006 120.723 35.768 119.748 35.768C118.819 35.768 117.992 36.006 117.266 36.482C116.541 36.9353 115.986 37.6153 115.6 38.522C115.238 39.406 115.102 40.4827 115.192 41.752C115.102 42.8853 115.249 43.894 115.634 44.778C116.042 45.6393 116.632 46.308 117.402 46.784C118.196 47.26 119.102 47.498 120.122 47.498C121.142 47.498 122.004 47.2827 122.706 46.852C123.432 46.4213 123.998 45.8433 124.406 45.118L128.01 46.886C127.648 47.77 127.081 48.552 126.31 49.232C125.54 49.912 124.622 50.4447 123.556 50.83C122.514 51.2153 121.358 51.408 120.088 51.408ZM140.907 51.408C139.003 51.408 137.337 50.9773 135.909 50.116C134.481 49.2547 133.37 48.0873 132.577 46.614C131.783 45.1407 131.387 43.5087 131.387 41.718C131.387 39.8593 131.783 38.216 132.577 36.788C133.393 35.3373 134.492 34.1927 135.875 33.354C137.28 32.5153 138.844 32.096 140.567 32.096C142.017 32.096 143.287 32.334 144.375 32.81C145.485 33.286 146.426 33.9433 147.197 34.782C147.967 35.6207 148.557 36.584 148.965 37.672C149.373 38.7373 149.577 39.8933 149.577 41.14C149.577 41.4573 149.554 41.786 149.509 42.126C149.486 42.466 149.429 42.7607 149.339 43.01H135.059V39.61H146.823L144.715 41.208C144.919 40.1653 144.862 39.236 144.545 38.42C144.25 37.604 143.751 36.958 143.049 36.482C142.369 36.006 141.541 35.768 140.567 35.768C139.637 35.768 138.81 36.006 138.085 36.482C137.359 36.9353 136.804 37.6153 136.419 38.522C136.056 39.406 135.92 40.4827 136.011 41.752C135.92 42.8853 136.067 43.894 136.453 44.778C136.861 45.6393 137.45 46.308 138.221 46.784C139.014 47.26 139.921 47.498 140.941 47.498C141.961 47.498 142.822 47.2827 143.525 46.852C144.25 46.4213 144.817 45.8433 145.225 45.118L148.829 46.886C148.466 47.77 147.899 48.552 147.129 49.232C146.358 49.912 145.44 50.4447 144.375 50.83C143.332 51.2153 142.176 51.408 140.907 51.408ZM152.953 51V25.262H157.407V42.126L155.707 41.616L164.411 32.504H169.953L163.119 39.95L170.089 51H164.989L158.937 41.412L161.589 40.868L156.013 46.852L157.407 44.132V51H152.953ZM179.614 51.408C177.642 51.408 175.919 50.9433 174.446 50.014C172.995 49.062 171.998 47.7813 171.454 46.172L174.786 44.574C175.262 45.6167 175.919 46.4327 176.758 47.022C177.619 47.6113 178.571 47.906 179.614 47.906C180.43 47.906 181.076 47.7247 181.552 47.362C182.028 46.9993 182.266 46.5233 182.266 45.934C182.266 45.5713 182.164 45.2767 181.96 45.05C181.779 44.8007 181.518 44.5967 181.178 44.438C180.861 44.2567 180.509 44.1093 180.124 43.996L177.098 43.146C175.534 42.6927 174.344 42.0013 173.528 41.072C172.735 40.1427 172.338 39.0433 172.338 37.774C172.338 36.6407 172.621 35.6547 173.188 34.816C173.777 33.9547 174.582 33.286 175.602 32.81C176.645 32.334 177.835 32.096 179.172 32.096C180.917 32.096 182.459 32.5153 183.796 33.354C185.133 34.1927 186.085 35.3713 186.652 36.89L183.252 38.488C182.935 37.6493 182.402 36.9807 181.654 36.482C180.906 35.9833 180.067 35.734 179.138 35.734C178.39 35.734 177.801 35.904 177.37 36.244C176.939 36.584 176.724 37.026 176.724 37.57C176.724 37.91 176.815 38.2047 176.996 38.454C177.177 38.7033 177.427 38.9073 177.744 39.066C178.084 39.2247 178.469 39.372 178.9 39.508L181.858 40.392C183.377 40.8453 184.544 41.5253 185.36 42.432C186.199 43.3387 186.618 44.4493 186.618 45.764C186.618 46.8747 186.323 47.8607 185.734 48.722C185.145 49.5607 184.329 50.218 183.286 50.694C182.243 51.17 181.019 51.408 179.614 51.408Z" fill="#0000FF"/>
<defs>
<filter id="filter0_d_3454_11787" x="0" y="0" width="199.574" height="89.042" filterUnits="userSpaceOnUse" color-interpolation-filters="sRGB">
<feFlood flood-opacity="0" result="BackgroundImageFix"/>
<feColorMatrix in="SourceAlpha" type="matrix" values="0 0 0 0 0 0 0 0 0 0 0 0 0 0 0 0 0 0 127 0" result="hardAlpha"/>
<feOffset dx="1" dy="2"/>
<feGaussianBlur stdDeviation="2"/>
<feComposite in2="hardAlpha" operator="out"/>
<feColorMatrix type="matrix" values="0 0 0 0 0 0 0 0 0 0 0 0 0 0 0 0 0 0 0.25 0"/>
<feBlend mode="normal" in2="BackgroundImageFix" result="effect1_dropShadow_3454_11787"/>
<feBlend mode="normal" in="SourceGraphic" in2="effect1_dropShadow_3454_11787" result="shape"/>
</filter>
</defs>
</svg>
