<svg width="21" height="16" viewBox="0 0 21 16" fill="none" xmlns="http://www.w3.org/2000/svg">
<path d="M16.1117 1.12648C16.7735 0.288322 17.4595 -0.0822659 18.1737 0.0152302C18.8859 0.114768 19.3687 0.484846 19.6242 1.12648C19.8796 1.76761 19.6744 2.50674 19.0145 3.3449C18.403 4.08557 17.9443 4.85124 17.6388 5.63887C17.3348 6.42853 17.1054 7.19268 16.9525 7.93334C18.1737 7.98439 19.1542 8.37794 19.8926 9.11656C20.629 9.85723 21 10.7949 21 11.9297C21 13.1129 20.6179 14.0884 19.8535 14.8525C19.0909 15.6172 18.0972 16 16.8761 16C15.5506 16 14.5197 15.5682 13.7832 14.7045C13.0449 13.8408 12.6757 12.5948 12.6757 10.9664C12.6757 9.43816 12.9163 7.81083 13.4008 6.08347C13.8838 4.35661 14.788 2.70531 16.1117 1.12648ZM3.436 1.12648C4.0961 0.288322 4.78396 -0.0822659 5.49801 0.0152302C6.21021 0.114768 6.69294 0.484846 6.94848 1.12648C7.20202 1.76761 6.99868 2.50674 6.33695 3.3449C5.72726 4.08557 5.26875 4.85124 4.96301 5.63887C4.65701 6.42853 4.42781 7.19268 4.27489 7.93334C5.49801 7.98439 6.47665 8.37794 7.21498 9.11656C7.95325 9.85723 8.32242 10.7949 8.32242 11.9297C8.32242 13.1129 7.94029 14.0884 7.17773 14.8525C6.41349 15.6172 5.42147 16 4.19856 16C2.87482 16 1.84392 15.5682 1.10744 14.7045C0.367321 13.8408 0 12.5948 0 10.9664C0 9.43816 0.240525 7.81083 0.725158 6.08347C1.20811 4.35661 2.11037 2.70531 3.436 1.12648Z" fill="#0000FF"/>
</svg>
