<svg width="396" height="229" viewBox="0 0 396 229" fill="none" xmlns="http://www.w3.org/2000/svg">
<path d="M0.0699089 186.436L0 186.737L0.28636 186.661L0.0699089 186.436ZM42.023 6.70422C42.1826 6.86401 42.3355 7.06068 42.5126 7.16516C42.5672 7.20203 42.6962 6.99611 42.7902 6.90393C42.6285 6.73492 42.4689 6.57204 42.3115 6.4061C42.2132 6.50443 42.1192 6.60283 42.023 6.70422ZM389.469 130.278C390.297 130.819 391.106 131.348 391.945 131.898C391.731 132.46 391.659 132.946 391.51 132.998C389.965 133.529 388.406 133.99 386.658 134.531C386.398 135.597 386.107 136.79 385.757 138.218C385.344 138.283 384.819 138.492 384.317 138.421C379.923 137.782 375.534 137.085 371.14 136.421C370.478 136.32 369.805 136.203 369.14 136.243C368.089 136.304 367.466 137.284 367.022 138.513C366.565 139.773 366.998 141.429 367.96 141.66C369.936 142.133 371.934 142.422 373.923 142.791C374.714 142.935 375.567 142.944 375.899 144.779C374.41 145.135 372.931 145.492 371.099 145.931C371.759 147.32 372.288 148.438 373.027 149.999C370.773 150.089 368.834 150.162 366.869 150.236C366.202 152.587 367.599 153.862 367.779 155.401C369.009 157.159 371.097 155.838 372.332 158.511C369.61 159.393 367.219 160.293 364.701 160.063C358.025 159.448 351.356 158.726 344.68 158.139C339.207 157.657 333.729 157.273 328.252 156.916C327.237 156.852 326.212 157.107 325.167 157.214C325.281 158.877 326.103 158.726 326.689 158.818C331.607 159.599 336.532 160.29 341.452 161.068C348.095 162.115 354.738 163.209 361.378 164.303C364.279 164.779 367.184 164.893 369.969 166.666C371.612 167.714 373.632 167.594 375.481 168.015C376.375 168.218 377.267 168.454 378.271 168.7C378.312 170.701 377.101 171.337 376.655 172.587C376.24 173.752 375.678 174.812 375.143 175.891C374.839 176.505 374.445 177.034 374.128 177.639C372.587 180.577 372.74 182.26 374.788 184.872C375.077 185.238 375.42 185.518 375.722 185.819C374.904 190.781 374.904 190.781 376.509 199.056C378.489 200.254 381.278 200.632 380.902 205.675C378.835 205.515 376.74 205.349 374.644 205.195C373.049 205.079 371.512 204.851 370.074 206.498C369.475 207.187 368.297 207.076 367.396 207.002C357.107 206.154 346.823 205.152 336.53 204.394C332.523 204.099 328.499 204.329 324.479 204.304C323.386 204.298 322.328 204.406 321.353 205.954C322.068 206.422 322.693 207.119 323.366 207.22C326.827 207.755 330.293 208.182 333.762 208.557C338.158 209.033 342.556 209.427 346.908 209.854C347.409 211.009 347.813 211.943 348.243 212.942C351.002 212.681 353.468 214.647 356.213 214.813C359.144 214.991 362.058 215.8 364.976 216.35C367.761 216.872 370.544 217.419 373.258 217.941C374.275 220.022 375.232 221.982 376.292 224.151C375.234 224.683 373.678 224.778 373.138 225.872C371.761 228.65 369.942 228.008 368.154 227.968C363.066 227.854 358.027 227.052 353.022 225.777C351.977 225.513 350.888 225.583 349.819 225.519C346.746 225.347 343.671 225.258 340.602 224.999C333.786 224.431 326.975 223.773 320.162 223.159C318.293 222.987 316.422 222.821 314.551 222.686C313.484 222.609 312.356 222.283 311.353 222.627C306.196 224.4 300.979 223.159 295.798 223.337C289.249 223.568 282.692 223.316 276.139 223.352C275.389 223.359 274.622 223.847 273.896 224.228C273.155 224.615 272.482 225.35 271.726 225.565C270.635 225.878 269.444 225.977 269.684 223.386C267.739 223.608 266.012 223.027 264.589 225.11C264.25 225.608 263.312 225.543 262.694 225.387C258.759 224.406 254.794 224.981 250.848 224.751C244.42 224.379 238.041 225.909 231.617 225.424C230.293 225.325 228.953 225.574 227.617 225.629C226.684 225.663 225.639 226.026 224.826 225.577C221.982 224.019 219.363 224.981 216.66 226.262C215.42 226.849 214.036 226.935 212.712 227.034C205.52 227.541 198.338 228.49 191.127 227.833C188.248 229.052 185.382 228.137 182.49 227.903C180.243 227.716 177.966 228.33 175.699 227.716C175.209 227.581 174.591 227.728 174.138 228.051C172.204 229.443 170.263 229.095 168.287 228.333C167.646 228.088 166.837 227.565 166.343 227.891C163.521 229.753 160.577 228.395 157.711 228.65C153.993 228.982 150.236 228.505 146.496 228.367C139.943 228.121 133.389 227.879 126.836 227.614C121.085 227.387 115.33 227.23 109.581 226.843C106.67 226.646 103.817 225.872 100.84 226.517C98.7743 226.963 96.5863 226.394 94.4572 226.17C90.0637 225.709 85.6745 225.107 81.2766 224.689C77.5956 224.339 73.9408 223.3 70.2161 223.958C69.309 224.115 68.1439 224.213 67.4707 223.571C65.6411 221.828 63.7132 222.105 61.7153 222.105C60.5481 222.105 59.3502 221.057 58.218 221.22C54.137 221.801 50.3664 219.299 46.3772 219.14C44.2416 219.057 42.0973 218.667 39.977 218.842C38.0425 218.998 36.2436 218.636 34.4971 217.588C31.1025 215.554 27.4761 215.007 23.8913 215.127C20.8377 215.231 18.1513 213.922 15.4146 212.549C14.5425 212.109 13.7621 211.31 12.9249 210.726C10.7544 209.209 10.75 209.221 8.03738 210.748C5.07774 209.064 3.86893 205.254 2.70606 201.474C2.4219 200.549 2.64701 199.302 2.67543 198.205C2.71477 196.73 3.04707 195.274 2.34104 193.842C2.14213 193.436 2.31045 192.367 2.57275 191.881C3.01867 191.055 2.98584 190.336 2.96616 189.346C2.8984 185.616 4.16618 184.058 6.8832 184.122C7.49523 184.138 8.1095 184.03 8.67564 183.987C9.00789 181.959 7.9412 180.973 7.54119 179.065C8.09421 177.433 8.76964 175.436 9.45381 173.414C8.53794 170.433 7.60678 167.407 6.68436 164.405C7.73138 160.828 8.08542 156.959 10.3849 154.673C9.10184 147.824 9.1019 147.824 6.78052 145.642C7.61114 144.653 8.40019 143.716 9.35103 142.585C8.86577 141.642 8.37183 140.674 7.72264 139.405C9.32705 138.194 10.809 137.075 12.2408 135.997C12.1424 134.737 11.95 133.689 12.0112 132.672C12.0724 131.594 12.3762 130.543 12.6079 129.304C10.0177 127.129 6.85042 126.883 4.60555 123.042C3.78149 119.527 4.0176 115.406 4.97719 111.233C5.23512 110.109 5.38369 109.126 6.16404 108.523C6.38044 108.357 6.54662 108.026 6.70837 107.74C7.2439 106.796 5.8209 105.53 6.8548 104.802C7.71603 104.2 7.50833 103.333 7.41215 102.476C7.32909 101.754 7.14552 101.026 6.90945 100.371C6.45042 99.1145 6.29527 97.9868 6.95759 96.7085C7.8363 95.0062 7.41875 92.9997 7.12804 91.2574C6.94224 90.1482 6.01981 89.2847 5.32908 88.1478C5.65696 81.738 6.00232 75.0793 6.35861 68.1441C5.32252 67.336 4.32143 66.5524 3.2744 65.7381C3.40993 65.0253 3.38804 64.254 3.6263 64.0358C4.73015 63.0187 5.9039 62.1491 7.18044 61.1259C7.55204 59.6663 6.4439 58.7415 6.01547 57.1375C6.44171 56.4492 7.01002 55.7209 7.41877 54.8421C8.68875 52.0951 8.5445 51.2839 6.34335 48.6597C6.80238 47.8362 7.18483 46.4504 7.74878 46.2753C9.47124 45.756 9.01437 43.7249 9.47559 42.1608C8.64715 40.6245 7.77718 39.002 6.74327 37.0846C7.64603 34.6848 7.65046 31.953 7.57396 29.1384C7.48434 25.9704 7.59362 22.8178 8.32588 19.6774C8.88983 17.2623 8.85272 14.5705 9.13906 11.381C9.64181 10.8862 10.492 10.0443 11.4232 9.12862C11.3555 7.70592 11.2877 6.27092 11.2134 4.71916C11.5456 4.51636 11.9064 4.08925 12.2539 4.10768C15.9917 4.30434 19.7273 4.56248 23.4629 4.82674C24.2498 4.88512 25.0848 5.32764 25.8127 5.08797C30.3243 3.59767 34.6698 6.13574 39.1399 5.30302C39.1399 5.68098 39.1377 6.062 39.1377 6.44302C37.1857 6.44302 35.236 6.44302 33.284 6.44302C36.1016 7.8903 38.7267 10.1334 41.8197 9.59875C42.2722 9.52193 42.7575 9.85681 43.234 9.94286C44.1433 10.1119 45.0614 10.3853 45.9663 10.3208C46.3838 10.2901 46.9608 9.70325 47.1488 9.15323C47.5575 7.94255 46.6657 7.65984 46.1105 7.05757C46.8122 6.07121 47.7084 5.18013 47.2253 3.22893C46.7051 3.05685 46.0777 2.85098 45.3913 2.6236C45.6056 2.45459 45.7783 2.19952 45.9532 2.19644C47.4264 2.17186 48.9018 2.24867 50.3729 2.18414C51.7085 2.12576 53.1162 2.27017 54.3577 1.71709C56.9589 0.561722 59.6191 0.650833 62.2705 0.269806C66.0324 -0.270996 69.7506 0.110062 73.4905 0.466507C83.1061 1.38527 92.7216 2.25174 102.342 3.09982C111.422 3.89874 120.497 4.7438 129.584 5.39215C141.482 6.24023 153.383 6.92851 165.285 7.66597C172.107 8.08694 178.932 8.44337 185.752 8.88277C189.492 9.12245 193.245 9.26691 196.963 9.83844C199.455 10.2195 201.912 10.3639 204.414 10.2287C206.095 10.1396 207.789 10.9937 209.488 11.1013C211.217 11.215 212.959 10.837 214.692 10.8647C215.606 10.877 216.544 11.172 217.425 11.553C219.501 12.4533 221.626 12.481 223.709 11.9986C226.258 11.4117 228.782 11.5346 231.294 12.0416C232.579 12.3028 233.803 13.1263 235.429 13.8668C236.28 12.8528 237.517 12.0692 239.097 12.2474C245.491 12.9757 251.893 13.5196 258.291 14.1065C262.431 14.4844 266.571 14.8501 270.711 15.1635C277.129 15.6521 283.544 16.0976 289.964 16.5524C296.644 17.0194 303.329 17.4834 310.013 17.932C316.424 18.3592 322.837 18.8047 329.251 19.1611C334.859 19.4746 340.473 19.5729 346.08 19.9632C349.404 20.1936 352.718 20.7805 356.032 21.2507C360.152 21.8345 364.27 22.446 368.386 23.0943C370.362 23.4046 372.332 23.8318 374.24 24.1913C374.653 26.1917 373.63 26.7847 373.114 27.7496C372.141 29.5656 372.343 30.6994 373.849 31.6734C374.57 32.1405 375.335 32.4601 376.275 32.9487C376.275 35.9108 376.275 38.8545 376.275 42.0164C378.618 43.098 379.569 46.3183 381.543 47.8669C381.862 48.1158 382.321 48.6751 382.295 49.0284C382.059 52.2333 384.006 53.4962 385.104 55.5058C385.501 56.2371 385.914 56.95 386.384 57.7827C385.501 58.6861 384.756 59.4513 383.897 60.3301C383.855 61.5008 383.807 62.7883 383.75 64.3216C380.465 65.4831 377.171 66.6477 373.901 67.8061C374.43 71.9236 374.649 72.3599 376.909 72.9284C380.852 73.9209 384.804 74.8212 388.537 75.7154C389.521 77.3439 390.229 79.0217 391.259 80.0726C392.129 80.9668 393.373 81.145 394.496 81.6581C394.254 82.3065 394.184 82.792 394.024 82.8657C393.018 83.3082 391.899 83.4004 391.364 85.0166C390.704 87.017 390.715 89.1526 391.233 91.0761C391.685 92.7569 392.358 94.8587 393.37 95.5931C395.272 96.9728 395.438 99.2958 395.904 101.591C395.974 101.948 395.967 102.332 396 102.747C394.352 105.832 394.476 109.62 394.026 113.194C393.91 113.289 393.792 113.473 393.681 113.467C391.279 113.323 388.846 112.739 386.489 113.114C384.107 113.495 381.785 114.315 379.35 113.836C378.583 113.682 377.768 114.07 376.97 114.128C375.639 114.232 374.303 114.371 372.97 114.315C368.563 114.134 364.154 113.879 359.656 114.306C360.113 114.494 360.563 114.743 361.026 114.856C362.808 115.286 362.81 115.271 363.614 118.209C364.889 118.436 366.209 118.673 367.621 118.928C368.067 120.049 368.506 121.155 368.882 122.096C375.39 123.491 381.729 124.852 388.179 126.238C388.631 127.654 389.053 128.976 389.469 130.278Z" fill="white"/>
</svg>
