<svg width="25" height="25" viewBox="0 0 25 25" fill="none" xmlns="http://www.w3.org/2000/svg">
<path d="M15.1042 5.73013L19.2708 9.8968M3.125 21.876H7.29167L20.8333 8.3343C21.3859 7.78176 21.6963 7.03237 21.6963 6.25097C21.6963 5.46956 21.3859 4.72017 20.8333 4.16763C20.2808 3.6151 19.5314 3.30469 18.75 3.30469C17.9686 3.30469 17.2192 3.6151 16.6667 4.16763L3.125 17.7093V21.876Z" stroke="white" stroke-linecap="round" stroke-linejoin="round"/>
<path d="M12.5 8.33333L7.29167 3.125L3.125 7.29167L8.33333 12.5M7.29167 8.33333L5.72917 9.89583M16.6667 12.5L21.875 17.7083L17.7083 21.875L12.5 16.6667M16.6667 17.7083L15.1042 19.2708" stroke="white" stroke-linecap="round" stroke-linejoin="round"/>
</svg>
