<svg width="34" height="34" viewBox="0 0 34 34" fill="none" xmlns="http://www.w3.org/2000/svg">
<rect x="0.5" y="0.5" width="33" height="33" rx="3.5" fill="white" stroke="#CCCCCC"/>
<path d="M9 25C8.45 25 7.97917 24.8042 7.5875 24.4125C7.19583 24.0208 7 23.55 7 23V11C7 10.45 7.19583 9.97917 7.5875 9.5875C7.97917 9.19583 8.45 9 9 9H25C25.55 9 26.0208 9.19583 26.4125 9.5875C26.8042 9.97917 27 10.45 27 11V23C27 23.55 26.8042 24.0208 26.4125 24.4125C26.0208 24.8042 25.55 25 25 25H9ZM17 18L9 13V23H25V13L17 18ZM17 16L25 11H9L17 16ZM9 13V11V23V13Z" fill="#373737"/>
</svg>
