<svg width="64" height="64" viewBox="0 0 64 64" fill="none" xmlns="http://www.w3.org/2000/svg">
<rect width="64" height="64" rx="16" fill="#C4E9FD" fill-opacity="0.4"/>
<path d="M27.5223 26.7222C28.5863 25.4344 30.1971 24.6111 32 24.6111C33.8029 24.6111 35.4137 25.4344 36.4777 26.7222C37.1782 27.5715 37.6228 28.6026 37.7595 29.695C37.8963 30.7874 37.7196 31.8962 37.2501 32.892C36.7806 33.8878 36.0377 34.7296 35.1079 35.3191C34.1781 35.9087 33.0999 36.2218 31.9989 36.2218C30.898 36.2218 29.8198 35.9087 28.89 35.3191C27.9602 34.7296 27.2172 33.8878 26.7477 32.892C26.2783 31.8962 26.1016 30.7874 26.2384 29.695C26.3751 28.6026 26.8197 27.5715 27.5202 26.7222M39.9146 30.4167C39.9146 29.0824 39.5852 27.8242 39.0026 26.7222H47.8333C48.6732 26.7222 49.4786 27.0559 50.0725 27.6497C50.6664 28.2436 51 29.049 51 29.8889V30.9444C51 34.2948 48.454 37.7253 44.0017 38.9329C43.5441 38.111 42.8752 37.4263 42.0642 36.9497C41.2532 36.4731 40.3296 36.222 39.3889 36.2222H37.3833C38.1835 35.4819 38.8217 34.5838 39.2577 33.5846C39.6937 32.5855 39.9181 31.5068 39.9167 30.4167M39.3889 38.3333C39.8051 38.3322 40.2173 38.4134 40.602 38.5721C40.9867 38.7309 41.3363 38.9641 41.6305 39.2583C41.9248 39.5526 42.158 39.9022 42.3168 40.2869C42.4755 40.6716 42.5567 41.0838 42.5556 41.5V42.5556C42.5556 46.7166 38.6289 51 32 51C25.3711 51 21.4444 46.7166 21.4444 42.5556V41.5C21.4433 41.0838 21.5245 40.6716 21.6832 40.2869C21.842 39.9022 22.0752 39.5526 22.3695 39.2583C22.6637 38.9641 23.0133 38.7309 23.398 38.5721C23.7827 38.4134 24.1949 38.3322 24.6111 38.3333H39.3889ZM13 30.9444C13 34.2948 15.546 37.7253 19.9983 38.9329C20.4559 38.111 21.1248 37.4263 21.9358 36.9497C22.7468 36.4731 23.6704 36.222 24.6111 36.2222H26.6167C25.8165 35.4819 25.1783 34.5838 24.7423 33.5846C24.3063 32.5855 24.0819 31.5068 24.0833 30.4167C24.0833 29.0824 24.4127 27.8242 24.9974 26.7222H16.1667C15.3268 26.7222 14.5214 27.0559 13.9275 27.6497C13.3336 28.2436 13 29.049 13 29.8889V30.9444ZM29.3611 18.8056C29.3611 17.2658 28.7495 15.7892 27.6607 14.7004C26.572 13.6117 25.0953 13 23.5556 13C22.0158 13 20.5392 13.6117 19.4504 14.7004C18.3617 15.7892 17.75 17.2658 17.75 18.8056C17.75 20.3453 18.3617 21.822 19.4504 22.9107C20.5392 23.9995 22.0158 24.6111 23.5556 24.6111C25.0953 24.6111 26.572 23.9995 27.6607 22.9107C28.7495 21.822 29.3611 20.3453 29.3611 18.8056ZM46.25 18.8056C46.25 17.2658 45.6383 15.7892 44.5496 14.7004C43.4608 13.6117 41.9842 13 40.4444 13C38.9047 13 37.428 13.6117 36.3393 14.7004C35.2505 15.7892 34.6389 17.2658 34.6389 18.8056C34.6389 20.3453 35.2505 21.822 36.3393 22.9107C37.428 23.9995 38.9047 24.6111 40.4444 24.6111C41.9842 24.6111 43.4608 23.9995 44.5496 22.9107C45.6383 21.822 46.25 20.3453 46.25 18.8056Z" fill="#003AD4"/>
</svg>
