<svg width="141" height="25" viewBox="0 0 141 25" fill="none" xmlns="http://www.w3.org/2000/svg">
<path d="M30.3687 11.5816H34.3711C34.3412 11.0301 34.0132 10.6425 33.3872 10.419C32.761 10.1805 32.1201 10.173 31.4643 10.3966C30.8234 10.6202 30.4582 11.0152 30.3687 11.5816ZM32.3364 7.26631C34.3635 7.26631 35.9361 7.8998 37.0539 9.16683C38.187 10.419 38.5224 12.1033 38.0603 14.22H30.3463C30.4805 14.6672 30.7936 15.0175 31.2855 15.2709C31.7774 15.5094 32.284 15.6287 32.8057 15.6287C33.909 15.6287 34.8554 15.3305 35.6455 14.7343L37.6577 16.9926C36.3461 18.2149 34.669 18.826 32.627 18.826C30.7488 18.826 29.206 18.349 27.9986 17.3951C26.7912 16.4261 26.1875 14.9877 26.1875 13.0797C26.1875 11.2015 26.7986 9.76307 28.021 8.76437C29.2433 7.76566 30.6818 7.26631 32.3364 7.26631ZM51.8302 18.5801H47.716V12.476C47.716 11.85 47.5668 11.3878 47.2689 11.0897C46.9707 10.7916 46.6054 10.6425 46.1732 10.6425C45.6365 10.6425 45.1818 10.8289 44.8092 11.2015C44.4513 11.5593 44.2726 12.081 44.2726 12.7667V18.5801H40.2032V7.53462H43.8479L44.0267 8.74201C44.8912 7.72841 46.0538 7.23649 47.5147 7.26631C48.8116 7.2812 49.8549 7.69113 50.645 8.49605C51.4351 9.301 51.8302 10.6202 51.8302 12.4537V18.5801ZM60.0375 7.28866C61.8112 7.28866 63.3019 7.78055 64.5093 8.76437C65.7316 9.74818 66.3426 11.1866 66.3426 13.0797C66.3426 14.9579 65.7167 16.3889 64.4645 17.3727C63.2275 18.3565 61.7518 18.8484 60.0375 18.8484C59.2175 18.8484 58.435 18.7366 57.6897 18.513C56.9593 18.2745 56.2962 17.9317 55.6998 17.4845C55.1037 17.0373 54.6267 16.4336 54.2688 15.6734C53.9112 14.9132 53.7321 14.0486 53.7321 13.0797C53.7321 11.7829 54.0376 10.6873 54.6489 9.7929C55.2748 8.88362 56.05 8.24266 56.9742 7.87001C57.8983 7.48245 58.9196 7.28866 60.0375 7.28866ZM60.0375 15.4721C60.7231 15.4721 61.2748 15.2486 61.6921 14.8014C62.1094 14.3393 62.318 13.7654 62.318 13.0797C62.318 12.4089 62.1094 11.8425 61.6921 11.3804C61.2897 10.9034 60.7381 10.6649 60.0375 10.6649C59.3369 10.6649 58.778 10.9034 58.3604 11.3804C57.958 11.8425 57.7567 12.4089 57.7567 13.0797C57.7567 13.7505 57.958 14.3169 58.3604 14.779C58.778 15.2411 59.3369 15.4721 60.0375 15.4721ZM71.0057 7.53462L72.2128 10.6202L73.398 14.1977L74.5158 10.6202L75.701 7.53462H80.061L75.4997 18.6472H71.4081L66.6454 7.53462H71.0057ZM84.65 11.5816H88.6524C88.6226 11.0301 88.2945 10.6425 87.6686 10.419C87.0426 10.1805 86.4015 10.173 85.7457 10.3966C85.1048 10.6202 84.7396 11.0152 84.65 11.5816ZM86.6177 7.26631C88.6448 7.26631 90.2174 7.8998 91.3356 9.16683C92.4684 10.419 92.8038 12.1033 92.3417 14.22H84.6278C84.7618 14.6672 85.075 15.0175 85.5669 15.2709C86.0588 15.5094 86.5656 15.6287 87.0871 15.6287C88.1904 15.6287 89.1367 15.3305 89.9268 14.7343L91.9393 16.9926C90.6274 18.2149 88.9506 18.826 86.9083 18.826C85.0302 18.826 83.4874 18.349 82.28 17.3951C81.0726 16.4261 80.4689 14.9877 80.4689 13.0797C80.4689 11.2015 81.0802 9.76307 82.3025 8.76437C83.5246 7.76566 84.9632 7.26631 86.6177 7.26631ZM94.4848 7.53462H98.1741L98.4199 8.74201C98.9715 7.7582 99.8658 7.26631 101.103 7.26631C102.296 7.26631 103.264 7.66131 104.01 8.45133L102.355 11.4251C101.804 10.9779 101.185 10.7544 100.499 10.7544C99.9477 10.7544 99.4933 10.9332 99.1354 11.291C98.7778 11.6338 98.5987 12.1481 98.5987 12.8338V18.5801H94.4848V7.53462ZM105.255 2.90625H109.324V18.5801H105.255V2.90625ZM119.968 8.71965L120.169 7.53462H124.037V18.5801H120.236L120.057 17.3951C119.61 17.9018 119.059 18.267 118.403 18.4907C117.747 18.7142 117.084 18.8111 116.413 18.7813C114.818 18.677 113.573 18.1105 112.679 17.082C111.799 16.0386 111.36 14.697 111.36 13.0573C111.36 11.4028 111.852 10.0314 112.835 8.94326C113.834 7.8402 115.131 7.28866 116.726 7.28866C118.261 7.28866 119.342 7.76566 119.968 8.71965ZM117.665 10.6202C117.024 10.6202 116.495 10.8438 116.077 11.291C115.66 11.7232 115.451 12.3121 115.451 13.0573C115.451 13.8027 115.66 14.3914 116.077 14.8237C116.495 15.256 117.024 15.4721 117.665 15.4721C118.336 15.4721 118.88 15.2411 119.297 14.779C119.729 14.302 119.946 13.7281 119.946 13.0573C119.946 12.3121 119.744 11.7232 119.342 11.291C118.939 10.8438 118.38 10.6202 117.665 10.6202ZM130.8 2.92861V8.47369C131.44 7.68366 132.461 7.28866 133.863 7.28866C135.458 7.28866 136.747 7.82527 137.731 8.89854C138.73 9.97178 139.229 11.358 139.229 13.0573C139.229 14.8014 138.789 16.1653 137.91 17.1491C137.045 18.1329 135.8 18.677 134.176 18.7813C133.505 18.8111 132.842 18.7142 132.186 18.4907C131.53 18.267 130.978 17.9018 130.531 17.3951L130.352 18.5801H126.685V2.92861H130.8ZM132.924 10.6202C132.223 10.6202 131.679 10.8661 131.292 11.3581C130.904 11.85 130.71 12.4537 130.71 13.1692C130.71 13.7803 130.911 14.3169 131.314 14.779C131.731 15.2411 132.268 15.4721 132.924 15.4721C133.565 15.4721 134.094 15.256 134.511 14.8237C134.929 14.3914 135.137 13.8027 135.137 13.0573C135.137 12.3121 134.929 11.7232 134.511 11.291C134.094 10.8438 133.565 10.6202 132.924 10.6202Z" fill="#0046FF"/>
<path d="M30.3686 11.5826L30.2182 11.5588C30.2113 11.6028 30.2239 11.6477 30.2528 11.6815C30.2818 11.7154 30.3241 11.7349 30.3686 11.7349V11.5826ZM34.371 11.5826V11.7349C34.4128 11.7349 34.4527 11.7177 34.4816 11.6873C34.5102 11.6569 34.5251 11.6161 34.523 11.5743L34.371 11.5826ZM33.3872 10.4199L33.333 10.5622L33.336 10.5633L33.3872 10.4199ZM31.4643 10.3975L31.4152 10.2534L31.414 10.2537L31.4643 10.3975ZM37.0539 9.16776L36.94 9.26855L36.9412 9.26995L37.0539 9.16776ZM38.0603 14.221V14.3733C38.1319 14.3733 38.1937 14.3234 38.2089 14.2534L38.0603 14.221ZM30.3463 14.221V14.0687C30.2981 14.0687 30.2528 14.0914 30.2241 14.13C30.1954 14.1687 30.1865 14.2186 30.2004 14.2647L30.3463 14.221ZM31.2855 15.2719L31.2157 15.4073L31.2188 15.4089L31.2855 15.2719ZM35.6454 14.7352L35.7591 14.6339C35.7064 14.5747 35.6168 14.5659 35.5538 14.6137L35.6454 14.7352ZM37.6576 16.9935L37.7615 17.1049C37.8221 17.0485 37.8267 16.954 37.7715 16.8922L37.6576 16.9935ZM27.9985 17.396L27.9032 17.5147L27.9041 17.5155L27.9985 17.396ZM30.3686 11.7349H34.371V11.4303H30.3686V11.7349ZM34.523 11.5743C34.5066 11.2685 34.4064 11.0013 34.219 10.7799C34.0329 10.5602 33.7691 10.3946 33.4384 10.2765L33.336 10.5633C33.6312 10.6688 33.8444 10.8087 33.9863 10.9766C34.127 11.1428 34.2056 11.3451 34.2187 11.5908L34.523 11.5743ZM33.4414 10.2776C32.7807 10.026 32.1033 10.0187 31.4152 10.2534L31.5133 10.5417C32.1368 10.3291 32.7411 10.3369 33.333 10.5622L33.4414 10.2776ZM31.414 10.2537C30.7317 10.4917 30.3182 10.9257 30.2182 11.5588L30.5191 11.6063C30.598 11.1066 30.9148 10.7505 31.5145 10.5413L31.414 10.2537ZM32.3363 7.41953C34.3293 7.41953 35.8565 8.04085 36.94 9.26855L37.1681 9.067C36.0155 7.76068 34.3975 7.11494 32.3363 7.11494V7.41953ZM36.9412 9.26995C38.032 10.4755 38.3664 12.1048 37.9113 14.1885L38.2089 14.2534C38.6783 12.1038 38.342 10.3643 37.1669 9.0656L36.9412 9.26995ZM38.0603 14.0687H30.3463V14.3733H38.0603V14.0687ZM30.2004 14.2647C30.3486 14.7588 30.6942 15.1387 31.2157 15.4073L31.3552 15.1365C30.8925 14.8982 30.6123 14.5775 30.492 14.1772L30.2004 14.2647ZM31.2188 15.4089C31.7305 15.6569 32.2599 15.7819 32.8057 15.7819V15.4773C32.3083 15.4773 31.824 15.3638 31.3519 15.1348L31.2188 15.4089ZM32.8057 15.7819C33.9379 15.7819 34.9178 15.4753 35.7371 14.8568L35.5538 14.6137C34.7932 15.1877 33.8797 15.4773 32.8057 15.4773V15.7819ZM35.5318 14.8365L37.544 17.0948L37.7715 16.8922L35.7591 14.6339L35.5318 14.8365ZM37.554 16.8821C36.2744 18.0744 34.6363 18.6747 32.6269 18.6747V18.9793C34.7018 18.9793 36.4176 18.3572 37.7615 17.1049L37.554 16.8821ZM32.6269 18.6747C30.7753 18.6747 29.2679 18.2049 28.093 17.2765L27.9041 17.5155C29.1439 18.4951 30.7223 18.9793 32.6269 18.9793V18.6747ZM28.0939 17.2772C26.9308 16.3438 26.3398 14.9543 26.3398 13.0806H26.0352C26.0352 15.023 26.6515 16.5103 27.9032 17.5147L28.0939 17.2772ZM26.3398 13.0806C26.3398 11.2386 26.9372 9.84743 28.1173 8.88324L27.9245 8.64736C26.66 9.68061 26.0352 11.1664 26.0352 13.0806H26.3398ZM28.1173 8.88324C29.311 7.90789 30.715 7.41953 32.3363 7.41953V7.11494C30.6483 7.11494 29.1754 7.62529 27.9245 8.64736L28.1173 8.88324ZM51.8301 18.581V18.7333C51.9142 18.7333 51.9824 18.6651 51.9824 18.581H51.8301ZM47.716 18.581H47.5637C47.5637 18.6651 47.6319 18.7333 47.716 18.7333V18.581ZM44.2725 18.581V18.7333C44.3566 18.7333 44.4248 18.6651 44.4248 18.581H44.2725ZM40.2031 18.581H40.0508C40.0508 18.6651 40.119 18.7333 40.2031 18.7333V18.581ZM40.2031 7.53555V7.38326C40.119 7.38326 40.0508 7.45143 40.0508 7.53555H40.2031ZM43.8479 7.53555L43.9984 7.51323C43.9874 7.43854 43.9231 7.38326 43.8479 7.38326V7.53555ZM44.0267 8.74294L43.8759 8.76527C43.8848 8.82433 43.9271 8.87285 43.9847 8.88933C44.0419 8.90581 44.1038 8.88723 44.1424 8.84178L44.0267 8.74294ZM47.5146 7.26724L47.5116 7.4195L47.5128 7.41953L47.5146 7.26724ZM51.8301 18.4287H47.716V18.7333H51.8301V18.4287ZM47.8683 18.581V12.4769H47.5637V18.581H47.8683ZM47.8683 12.4769C47.8683 11.8299 47.7144 11.3209 47.3763 10.983L47.161 11.1983C47.4193 11.4566 47.5637 11.8718 47.5637 12.4769H47.8683ZM47.3763 10.983C47.0489 10.6555 46.6447 10.4912 46.1732 10.4912V10.7958C46.5661 10.7958 46.8923 10.9296 47.161 11.1983L47.3763 10.983ZM46.1732 10.4912C45.5969 10.4912 45.1034 10.693 44.7014 11.0948L44.917 11.3102C45.2603 10.9666 45.6761 10.7958 46.1732 10.7958V10.4912ZM44.7014 11.0948C44.3063 11.49 44.1202 12.0563 44.1202 12.7676H44.4248C44.4248 12.1076 44.5966 11.6304 44.917 11.3102L44.7014 11.0948ZM44.1202 12.7676V18.581H44.4248V12.7676H44.1202ZM44.2725 18.4287H40.2031V18.7333H44.2725V18.4287ZM40.3554 18.581V7.53555H40.0508V18.581H40.3554ZM40.2031 7.68785H43.8479V7.38326H40.2031V7.68785ZM43.6971 7.55785L43.8759 8.76527L44.1772 8.72061L43.9984 7.51323L43.6971 7.55785ZM44.1424 8.84178C44.9743 7.86656 46.0916 7.39051 47.5116 7.4195L47.5177 7.11497C46.0163 7.08433 44.808 7.59209 43.9106 8.6441L44.1424 8.84178ZM47.5128 7.41953C48.776 7.43403 49.7787 7.83183 50.5362 8.60368L50.7537 8.39031C49.9313 7.55228 48.8469 7.13023 47.5164 7.11494L47.5128 7.41953ZM50.5362 8.60368C51.2852 9.36675 51.6778 10.6372 51.6778 12.4546H51.9824C51.9824 10.605 51.5846 9.23709 50.7537 8.39031L50.5362 8.60368ZM51.6778 12.4546V18.581H51.9824V12.4546H51.6778ZM64.5092 8.7653L64.413 8.88336L64.4139 8.88394L64.5092 8.7653ZM57.6896 18.5139L57.6424 18.6587L57.6461 18.6598L57.6896 18.5139ZM56.9741 7.87094L57.0311 8.01219L57.0332 8.01139L56.9741 7.87094ZM61.692 14.8023L61.8035 14.9062L61.805 14.9044L61.692 14.8023ZM61.692 11.3813L61.5757 11.4795L61.579 11.4834L61.692 11.3813ZM58.3604 14.7799L58.2455 14.88L58.2473 14.882L58.3604 14.7799ZM60.0375 7.44189C61.7813 7.44189 63.2366 7.92474 64.413 8.88336L64.6055 8.64724C63.3673 7.63823 61.8413 7.1373 60.0375 7.1373V7.44189ZM64.4139 8.88394C65.5927 9.83281 66.1903 11.2231 66.1903 13.0806H66.4949C66.4949 11.152 65.8711 9.66599 64.6055 8.64724L64.4139 8.88394ZM66.1903 13.0806C66.1903 14.9215 65.579 16.3043 64.3703 17.2539L64.5586 17.4934C65.8543 16.4753 66.4949 14.9961 66.4949 13.0806H66.1903ZM64.3703 17.2539C63.1623 18.2144 61.7203 18.697 60.0375 18.697V19.0016C61.7831 19.0016 63.293 18.4999 64.5595 17.4928L64.3703 17.2539ZM60.0375 18.697C59.2315 18.697 58.4639 18.5872 57.7335 18.3681L57.6461 18.6598C58.406 18.8879 59.2035 19.0016 60.0375 19.0016V18.697ZM57.7368 18.3692C57.022 18.1357 56.3735 17.8004 55.7911 17.3636L55.6083 17.6072C56.2184 18.0648 56.8968 18.4152 57.6424 18.6587L57.7368 18.3692ZM55.7911 17.3636C55.2172 16.9331 54.7552 16.3501 54.4064 15.6095L54.131 15.7392C54.4978 16.519 54.9897 17.1433 55.6083 17.6072L55.7911 17.3636ZM54.4064 15.6095C54.0598 14.8724 53.8843 14.0305 53.8843 13.0806H53.5797C53.5797 14.0685 53.7622 14.9558 54.131 15.7392L54.4064 15.6095ZM53.8843 13.0806C53.8843 11.8083 54.184 10.7442 54.7747 9.87975L54.5234 9.70747C53.8916 10.6318 53.5797 11.7593 53.5797 13.0806H53.8843ZM54.7747 9.87975C55.3857 8.99231 56.1377 8.37246 57.0311 8.01219L56.9172 7.72967C55.9623 8.11471 55.1645 8.77632 54.5234 9.70747L54.7747 9.87975ZM57.0332 8.01139C57.9367 7.63251 58.9373 7.44189 60.0375 7.44189V7.1373C58.9016 7.1373 57.8602 7.33425 56.9154 7.7305L57.0332 8.01139ZM60.0375 15.6254C60.7597 15.6254 61.3539 15.3881 61.8035 14.9062L61.5805 14.6984C61.1958 15.1108 60.6866 15.3208 60.0375 15.3208V15.6254ZM61.805 14.9044C62.2503 14.4114 62.4703 13.7999 62.4703 13.0806H62.1657C62.1657 13.7327 61.9683 14.269 61.579 14.7002L61.805 14.9044ZM62.4703 13.0806C62.4703 12.3753 62.2497 11.7716 61.805 11.2792L61.579 11.4834C61.9689 11.9152 62.1657 12.4444 62.1657 13.0806H62.4703ZM61.8084 11.2831C61.3731 10.7674 60.7767 10.5136 60.0375 10.5136V10.8181C60.6993 10.8181 61.2059 11.0413 61.5757 11.4795L61.8084 11.2831ZM60.0375 10.5136C59.2982 10.5136 58.6954 10.7673 58.2458 11.281L58.4752 11.4816C58.8602 11.0414 59.3756 10.8181 60.0375 10.8181V10.5136ZM58.2458 11.281C57.817 11.7735 57.6043 12.3768 57.6043 13.0806H57.9089C57.9089 12.4429 58.0993 11.9133 58.4752 11.4816L58.2458 11.281ZM57.6043 13.0806C57.6043 13.7844 57.8167 14.3875 58.2455 14.88L58.4752 14.6799C58.0993 14.2483 57.9089 13.7184 57.9089 13.0806H57.6043ZM58.2473 14.882C58.6975 15.3803 59.2997 15.6254 60.0375 15.6254V15.3208C59.374 15.3208 58.8581 15.1038 58.4734 14.6779L58.2473 14.882ZM71.0056 7.53555L71.1473 7.48006C71.1244 7.42167 71.0681 7.38326 71.0056 7.38326V7.53555ZM72.2127 10.6211L72.3574 10.5732C72.3565 10.5707 72.3556 10.5681 72.3547 10.5656L72.2127 10.6211ZM73.3979 14.1986L73.2533 14.2465C73.2743 14.3093 73.333 14.3515 73.3991 14.3509C73.4652 14.3503 73.5234 14.3071 73.5432 14.244L73.3979 14.1986ZM74.5158 10.6211L74.3739 10.5665C74.3726 10.5695 74.3714 10.5726 74.3705 10.5757L74.5158 10.6211ZM75.701 7.53555V7.38326C75.6379 7.38326 75.5813 7.42209 75.5587 7.48094L75.701 7.53555ZM80.061 7.53555L80.202 7.59337C80.2212 7.5464 80.2157 7.49291 80.1874 7.45072C80.1593 7.40857 80.1118 7.38326 80.061 7.38326V7.53555ZM75.4996 18.6481V18.8004C75.5615 18.8004 75.6172 18.7631 75.6407 18.7059L75.4996 18.6481ZM71.408 18.6481L71.2679 18.7081C71.292 18.7641 71.3471 18.8004 71.408 18.8004V18.6481ZM66.6454 7.53555V7.38326C66.5942 7.38326 66.5464 7.40896 66.5183 7.4517C66.49 7.49443 66.4854 7.54847 66.5055 7.59553L66.6454 7.53555ZM70.8637 7.59105L72.0711 10.6766L72.3547 10.5656L71.1473 7.48006L70.8637 7.59105ZM72.0684 10.669L73.2533 14.2465L73.5426 14.1507L72.3574 10.5732L72.0684 10.669ZM73.5432 14.244L74.6614 10.6666L74.3705 10.5757L73.2526 14.1532L73.5432 14.244ZM74.658 10.6757L75.8432 7.59014L75.5587 7.48094L74.3739 10.5665L74.658 10.6757ZM75.701 7.68785H80.061V7.38326H75.701V7.68785ZM79.9202 7.47771L75.3589 18.5903L75.6407 18.7059L80.202 7.59337L79.9202 7.47771ZM75.4996 18.4958H71.408V18.8004H75.4996V18.4958ZM71.5478 18.5881L66.7855 7.47555L66.5055 7.59553L71.2679 18.7081L71.5478 18.5881ZM66.6454 7.68785H71.0056V7.38326H66.6454V7.68785ZM84.65 11.5826L84.4995 11.5588C84.4928 11.6028 84.5053 11.6477 84.5342 11.6815C84.5632 11.7154 84.6055 11.7349 84.65 11.7349V11.5826ZM88.6524 11.5826V11.7349C88.6941 11.7349 88.734 11.7177 88.763 11.6873C88.7916 11.6569 88.8068 11.6161 88.8044 11.5743L88.6524 11.5826ZM87.6685 10.4199L87.6143 10.5622L87.6174 10.5633L87.6685 10.4199ZM85.7456 10.3975L85.6966 10.2534L85.6954 10.2537L85.7456 10.3975ZM91.3356 9.16776L91.2213 9.26855L91.2226 9.26995L91.3356 9.16776ZM92.3416 14.221V14.3733C92.4132 14.3733 92.4751 14.3234 92.4903 14.2534L92.3416 14.221ZM84.6278 14.221V14.0687C84.5796 14.0687 84.5342 14.0914 84.5056 14.13C84.4767 14.1687 84.4678 14.2186 84.4819 14.2647L84.6278 14.221ZM85.5668 15.2719L85.4971 15.4073L85.5004 15.4089L85.5668 15.2719ZM89.9268 14.7352L90.0404 14.6339C89.9877 14.5747 89.8985 14.5659 89.8351 14.6137L89.9268 14.7352ZM91.9393 16.9935L92.0431 17.1049C92.1034 17.0485 92.108 16.954 92.0529 16.8922L91.9393 16.9935ZM82.2799 17.396L82.1846 17.5147L82.1855 17.5155L82.2799 17.396ZM84.65 11.7349H88.6524V11.4303H84.65V11.7349ZM88.8044 11.5743C88.7879 11.2685 88.6877 11.0013 88.5004 10.7799C88.3146 10.5602 88.0505 10.3946 87.7197 10.2765L87.6174 10.5633C87.9128 10.6688 88.1257 10.8087 88.2677 10.9766C88.4084 11.1428 88.487 11.3451 88.5004 11.5908L88.8044 11.5743ZM87.7228 10.2776C87.0624 10.026 86.3847 10.0187 85.6966 10.2534L85.7947 10.5417C86.4182 10.3291 87.0228 10.3369 87.6143 10.5622L87.7228 10.2776ZM85.6954 10.2537C85.0134 10.4917 84.5997 10.9257 84.4995 11.5588L84.8005 11.6063C84.8794 11.1066 85.1961 10.7505 85.7959 10.5413L85.6954 10.2537ZM86.6177 7.41953C88.6107 7.41953 90.1379 8.04085 91.2213 9.26855L91.4498 9.067C90.2969 7.76068 88.6792 7.11494 86.6177 7.11494V7.41953ZM91.2226 9.26995C92.3133 10.4755 92.6478 12.1048 92.1927 14.1885L92.4903 14.2534C92.9597 12.1038 92.6234 10.3643 91.4483 9.0656L91.2226 9.26995ZM92.3416 14.0687H84.6278V14.3733H92.3416V14.0687ZM84.4819 14.2647C84.6302 14.7588 84.9756 15.1387 85.4971 15.4073L85.6366 15.1365C85.1739 14.8982 84.8937 14.5775 84.7737 14.1772L84.4819 14.2647ZM85.5004 15.4089C86.0118 15.6569 86.5412 15.7819 87.0871 15.7819V15.4773C86.5897 15.4773 86.1053 15.3638 85.6332 15.1348L85.5004 15.4089ZM87.0871 15.7819C88.2192 15.7819 89.1991 15.4753 90.0185 14.8568L89.8351 14.6137C89.0746 15.1877 88.1611 15.4773 87.0871 15.4773V15.7819ZM89.8132 14.8365L91.8253 17.0948L92.0529 16.8922L90.0404 14.6339L89.8132 14.8365ZM91.8354 16.8821C90.5558 18.0744 88.9177 18.6747 86.9083 18.6747V18.9793C88.9832 18.9793 90.699 18.3572 92.0431 17.1049L91.8354 16.8821ZM86.9083 18.6747C85.0566 18.6747 83.5495 18.2049 82.3744 17.2765L82.1855 17.5155C83.4255 18.4951 85.0036 18.9793 86.9083 18.9793V18.6747ZM82.3753 17.2772C81.2123 16.3438 80.6211 14.9543 80.6211 13.0806H80.3165C80.3165 15.023 80.933 16.5103 82.1846 17.5147L82.3753 17.2772ZM80.6211 13.0806C80.6211 11.2386 81.2187 9.84743 82.3987 8.88324L82.2059 8.64736C80.9415 9.68061 80.3165 11.1664 80.3165 13.0806H80.6211ZM82.3987 8.88324C83.5924 7.90789 84.9963 7.41953 86.6177 7.41953V7.11494C84.9299 7.11494 83.4569 7.62529 82.2059 8.64736L82.3987 8.88324ZM94.4848 7.53555V7.38326C94.4004 7.38326 94.3325 7.45143 94.3325 7.53555H94.4848ZM98.174 7.53555L98.323 7.50516C98.3087 7.43422 98.2462 7.38326 98.174 7.38326V7.53555ZM98.4198 8.74294L98.2706 8.77334C98.2834 8.83569 98.3333 8.8836 98.3964 8.89341C98.4591 8.90325 98.5216 8.87294 98.5526 8.81741L98.4198 8.74294ZM104.01 8.45226L104.143 8.52631C104.175 8.46832 104.166 8.39607 104.12 8.34776L104.01 8.45226ZM102.355 11.4261L102.259 11.5443C102.294 11.5727 102.34 11.5841 102.384 11.5756C102.428 11.5671 102.466 11.5394 102.488 11.5001L102.355 11.4261ZM99.1353 11.2919L99.2407 11.4019L99.2432 11.3996L99.1353 11.2919ZM98.5986 18.581V18.7333C98.6827 18.7333 98.7509 18.6651 98.7509 18.581H98.5986ZM94.4848 18.581H94.3325C94.3325 18.6651 94.4004 18.7333 94.4848 18.7333V18.581ZM94.4848 7.68785H98.174V7.38326H94.4848V7.68785ZM98.0248 7.56595L98.2706 8.77334L98.5691 8.71254L98.323 7.50516L98.0248 7.56595ZM98.5526 8.81741C99.0741 7.88709 99.9142 7.41953 101.103 7.41953V7.11494C99.817 7.11494 98.8685 7.63117 98.287 8.66847L98.5526 8.81741ZM101.103 7.41953C102.258 7.41953 103.185 7.80043 103.899 8.55677L104.12 8.34776C103.343 7.52407 102.333 7.11494 101.103 7.11494V7.41953ZM103.877 8.37822L102.222 11.352L102.488 11.5001L104.143 8.52631L103.877 8.37822ZM102.451 11.3078C101.873 10.8394 101.221 10.603 100.499 10.603V10.9076C101.149 10.9076 101.734 11.1183 102.259 11.5443L102.451 11.3078ZM100.499 10.603C99.9114 10.603 99.4168 10.7952 99.0275 11.1842L99.2432 11.3996C99.5694 11.0731 99.9842 10.9076 100.499 10.9076V10.603ZM99.03 11.1819C98.6321 11.5631 98.4463 12.1238 98.4463 12.8347H98.7509C98.7509 12.1742 98.923 11.7064 99.2407 11.4019L99.03 11.1819ZM98.4463 12.8347V18.581H98.7509V12.8347H98.4463ZM98.5986 18.4287H94.4848V18.7333H98.5986V18.4287ZM94.6371 18.581V7.53555H94.3325V18.581H94.6371ZM105.255 2.90718V2.75488C105.171 2.75488 105.102 2.82307 105.102 2.90718H105.255ZM109.324 2.90718H109.476C109.476 2.82307 109.408 2.75488 109.324 2.75488V2.90718ZM109.324 18.581V18.7333C109.408 18.7333 109.476 18.6651 109.476 18.581H109.324ZM105.255 18.581H105.102C105.102 18.6651 105.171 18.7333 105.255 18.7333V18.581ZM105.255 3.05949H109.324V2.75488H105.255V3.05949ZM109.172 2.90718V18.581H109.476V2.90718H109.172ZM109.324 18.4287H105.255V18.7333H109.324V18.4287ZM105.407 18.581V2.90718H105.102V18.581H105.407ZM119.968 8.72058L119.841 8.80413C119.875 8.85649 119.938 8.88248 119.999 8.86965C120.06 8.85683 120.108 8.80782 120.118 8.74608L119.968 8.72058ZM120.169 7.53555V7.38326C120.095 7.38326 120.032 7.43684 120.019 7.51006L120.169 7.53555ZM124.037 7.53555H124.19C124.19 7.45143 124.121 7.38326 124.037 7.38326V7.53555ZM124.037 18.581V18.7333C124.121 18.7333 124.19 18.6651 124.19 18.581H124.037ZM120.236 18.581L120.086 18.6037C120.097 18.6782 120.161 18.7333 120.236 18.7333V18.581ZM120.057 17.396L120.208 17.3732C120.199 17.3147 120.157 17.2666 120.1 17.2499C120.044 17.2331 119.982 17.2508 119.943 17.2952L120.057 17.396ZM116.413 18.7823L116.403 18.9342L116.406 18.9344L116.413 18.7823ZM112.679 17.0829L112.562 17.1811L112.564 17.1829L112.679 17.0829ZM116.077 11.2919L116.187 11.3977L116.189 11.3958L116.077 11.2919ZM119.342 11.2919L119.229 11.3938L119.23 11.3957L119.342 11.2919ZM120.118 8.74608L120.319 7.56105L120.019 7.51006L119.818 8.69509L120.118 8.74608ZM120.169 7.68785H124.037V7.38326H120.169V7.68785ZM123.885 7.53555V18.581H124.19V7.53555H123.885ZM124.037 18.4287H120.236V18.7333H124.037V18.4287ZM120.387 18.5583L120.208 17.3732L119.907 17.4187L120.086 18.6037L120.387 18.5583ZM119.943 17.2952C119.514 17.7816 118.985 18.1322 118.353 18.3474L118.452 18.6357C119.132 18.4038 119.706 18.0239 120.172 17.4967L119.943 17.2952ZM118.353 18.3474C117.715 18.5651 117.071 18.659 116.42 18.6301L116.406 18.9344C117.096 18.9651 117.779 18.8653 118.452 18.6357L118.353 18.3474ZM116.423 18.6303C114.861 18.5281 113.657 17.9756 112.794 16.983L112.564 17.1829C113.489 18.2473 114.775 18.8277 116.403 18.9342L116.423 18.6303ZM112.795 16.9848C111.943 15.9741 111.512 14.6696 111.512 13.0583H111.207C111.207 14.7263 111.655 16.1049 112.562 17.1811L112.795 16.9848ZM111.512 13.0583C111.512 11.4362 111.993 10.1028 112.948 9.04632L112.722 8.84196C111.71 9.96175 111.207 11.3711 111.207 13.0583H111.512ZM112.948 9.04632C113.916 7.97761 115.17 7.44189 116.726 7.44189V7.1373C115.091 7.1373 113.752 7.70451 112.722 8.84196L112.948 9.04632ZM116.726 7.44189C118.23 7.44189 119.252 7.90722 119.841 8.80413L120.095 8.63703C119.432 7.62596 118.293 7.1373 116.726 7.1373V7.44189ZM117.665 10.4688C116.984 10.4688 116.414 10.7083 115.966 11.188L116.189 11.3958C116.576 10.9811 117.064 10.7734 117.665 10.7734V10.4688ZM115.968 11.1861C115.517 11.6532 115.299 12.2835 115.299 13.0583H115.604C115.604 12.3424 115.803 11.7951 116.187 11.3977L115.968 11.1861ZM115.299 13.0583C115.299 13.8331 115.517 14.4633 115.968 14.9304L116.187 14.7189C115.803 14.3215 115.604 13.7741 115.604 13.0583H115.299ZM115.968 14.9304C116.416 15.3946 116.986 15.6254 117.665 15.6254V15.3208C117.062 15.3208 116.573 15.1193 116.187 14.7189L115.968 14.9304ZM117.665 15.6254C118.375 15.6254 118.961 15.3788 119.41 14.882L119.184 14.6777C118.798 15.1051 118.296 15.3208 117.665 15.3208V15.6254ZM119.41 14.882C119.869 14.3758 120.098 13.7651 120.098 13.0583H119.793C119.793 13.693 119.59 14.23 119.184 14.6777L119.41 14.882ZM120.098 13.0583C120.098 12.285 119.888 11.6554 119.453 11.1881L119.23 11.3957C119.6 11.7929 119.793 12.341 119.793 13.0583H120.098ZM119.455 11.19C119.018 10.7047 118.415 10.4688 117.665 10.4688V10.7734C118.346 10.7734 118.861 10.9848 119.229 11.3938L119.455 11.19ZM130.8 2.92954H130.952C130.952 2.84543 130.884 2.77724 130.8 2.77724V2.92954ZM130.8 8.47462H130.647C130.647 8.5391 130.688 8.59661 130.749 8.61818C130.809 8.63971 130.877 8.62068 130.918 8.5706L130.8 8.47462ZM137.731 8.89947L137.619 9.00236L137.619 9.00322L137.731 8.89947ZM137.91 17.15L137.796 17.0485L137.796 17.0495L137.91 17.15ZM134.176 18.7823L134.182 18.9344L134.185 18.9342L134.176 18.7823ZM130.531 17.396L130.645 17.2952C130.606 17.2508 130.545 17.2331 130.488 17.2499C130.431 17.2666 130.39 17.3147 130.381 17.3732L130.531 17.396ZM130.352 18.581V18.7333C130.428 18.7333 130.492 18.6782 130.503 18.6037L130.352 18.581ZM126.685 18.581H126.533C126.533 18.6651 126.601 18.7333 126.685 18.7333V18.581ZM126.685 2.92954V2.77724C126.601 2.77724 126.533 2.84543 126.533 2.92954H126.685ZM131.314 14.7799L131.199 14.88L131.201 14.882L131.314 14.7799ZM134.511 11.2919L134.4 11.3958L134.402 11.3977L134.511 11.2919ZM130.647 2.92954V8.47462H130.952V2.92954H130.647ZM130.918 8.5706C131.52 7.82833 132.489 7.44189 133.863 7.44189V7.1373C132.434 7.1373 131.361 7.54088 130.681 8.37867L130.918 8.5706ZM133.863 7.44189C135.42 7.44189 136.667 7.96379 137.619 9.00236L137.843 8.79655C136.828 7.68864 135.496 7.1373 133.863 7.1373V7.44189ZM137.619 9.00322C138.588 10.0438 139.077 11.3909 139.077 13.0583H139.381C139.381 11.327 138.871 9.90159 137.842 8.7957L137.619 9.00322ZM139.077 13.0583C139.077 14.7771 138.644 16.1006 137.796 17.0485L138.023 17.2515C138.935 16.2318 139.381 14.8275 139.381 13.0583H139.077ZM137.796 17.0495C136.964 17.9959 135.761 18.5278 134.166 18.6303L134.185 18.9342C135.84 18.828 137.127 18.2717 138.024 17.2506L137.796 17.0495ZM134.169 18.6301C133.518 18.659 132.874 18.5651 132.235 18.3474L132.137 18.6357C132.81 18.8653 133.492 18.9651 134.182 18.9344L134.169 18.6301ZM132.235 18.3474C131.603 18.1322 131.075 17.7816 130.645 17.2952L130.417 17.4967C130.882 18.0239 131.456 18.4038 132.137 18.6357L132.235 18.3474ZM130.381 17.3732L130.202 18.5583L130.503 18.6037L130.682 17.4187L130.381 17.3732ZM130.352 18.4287H126.685V18.7333H130.352V18.4287ZM126.838 18.581V2.92954H126.533V18.581H126.838ZM126.685 3.08185H130.8V2.77724H126.685V3.08185ZM132.924 10.4688C132.183 10.4688 131.592 10.7315 131.172 11.2647L131.411 11.4532C131.766 11.0027 132.263 10.7734 132.924 10.7734V10.4688ZM131.172 11.2647C130.76 11.7873 130.558 12.4255 130.558 13.1701H130.862C130.862 12.4836 131.048 11.9145 131.411 11.4532L131.172 11.2647ZM130.558 13.1701C130.558 13.8181 130.772 14.3903 131.199 14.88L131.429 14.6799C131.05 14.2455 130.862 13.7443 130.862 13.1701H130.558ZM131.201 14.882C131.649 15.3779 132.227 15.6254 132.924 15.6254V15.3208C132.308 15.3208 131.814 15.1061 131.427 14.6779L131.201 14.882ZM132.924 15.6254C133.603 15.6254 134.173 15.3946 134.621 14.9304L134.402 14.7189C134.015 15.1193 133.526 15.3208 132.924 15.3208V15.6254ZM134.621 14.9304C135.072 14.4633 135.29 13.8331 135.29 13.0583H134.985C134.985 13.7741 134.785 14.3215 134.402 14.7189L134.621 14.9304ZM135.29 13.0583C135.29 12.2835 135.072 11.6532 134.621 11.1861L134.402 11.3977C134.785 11.7951 134.985 12.3424 134.985 13.0583H135.29ZM134.623 11.188C134.175 10.7083 133.605 10.4688 132.924 10.4688V10.7734C133.525 10.7734 134.013 10.9811 134.4 11.3958L134.623 11.188Z" fill="#0046FF"/>
<path fill-rule="evenodd" clip-rule="evenodd" d="M0.637765 10.9272L15.3004 0.453917C16.2697 -0.238444 17.5975 -0.12855 18.4398 0.713747L22.1243 4.39824C22.7833 5.05726 22.7011 6.14835 21.9508 6.70122L19.0362 8.84887L16.2393 10.9097C15.713 10.8574 15.1412 10.8287 14.5434 10.8287C11.9359 10.8287 9.82217 11.3742 9.82217 12.0471C9.82217 12.72 11.9359 13.2655 14.5434 13.2655C15.1805 13.2655 15.788 13.2329 16.3426 13.1739L21.9335 16.9993C22.6963 17.5212 22.8221 18.5967 22.2003 19.2807L18.7059 23.1246C17.8904 24.0216 16.5394 24.1827 15.5358 23.5026L0.66859 13.4273C-0.209626 12.8321 -0.225513 11.5439 0.637765 10.9272Z" fill="#52DEE5"/>
</svg>
