<svg width="184" height="85" viewBox="0 0 184 85" fill="none" xmlns="http://www.w3.org/2000/svg">
<g id="Frame 1000003329">
<g id="Vector">
<path id="Vector_2" d="M61.1769 39.4748L104.004 4.88799C106.62 2.77516 110.196 3.10035 112.485 5.68831L123.246 17.8558C124.99 19.8278 124.762 23.1062 122.794 24.7457L114.281 31.8381L106.275 38.5077C104.778 38.3476 103.162 38.2605 101.478 38.2605C97.6369 38.2605 94.14 38.7142 91.5875 39.4589C90.3146 39.8303 89.248 40.2822 88.4884 40.8063C87.7442 41.3197 87.1886 41.9796 87.1886 42.784C87.1886 43.5884 87.7442 44.2483 88.4884 44.7617C89.248 45.2857 90.3146 45.7376 91.5875 46.1091C94.14 46.8538 97.6369 47.3076 101.478 47.3076C103.28 47.3076 105.004 47.2077 106.589 47.0255L122.757 59.5333C124.753 61.0773 125.103 64.3072 123.453 66.3585L113.247 79.0525C111.027 81.8136 107.387 82.2902 104.681 80.2173L61.2569 46.9449L60.9528 47.3418L61.2569 46.9449C58.9504 45.1776 58.9058 41.3089 61.1769 39.4748Z" fill="url(#paint0_linear_2650_7763)" stroke="url(#paint1_linear_2650_7763)"/>
</g>
<g id="Vector_3">
<path id="Vector_4" d="M61.1769 45.5252L104.004 80.112C106.62 82.2248 110.196 81.8997 112.485 79.3117L123.246 67.1442C124.99 65.1722 124.762 61.8938 122.794 60.2543L114.281 53.1619L106.275 46.4923C104.778 46.6524 103.162 46.7395 101.478 46.7395C97.6369 46.7395 94.14 46.2858 91.5875 45.5411C90.3146 45.1697 89.248 44.7178 88.4884 44.1937C87.7442 43.6803 87.1886 43.0204 87.1886 42.216C87.1886 41.4116 87.7442 40.7517 88.4884 40.2383C89.248 39.7143 90.3146 39.2624 91.5875 38.8909C94.14 38.1462 97.6369 37.6924 101.478 37.6924C103.28 37.6924 105.004 37.7923 106.589 37.9745L122.757 25.4667C124.753 23.9227 125.103 20.6928 123.453 18.6415L113.247 5.94753C111.027 3.18642 107.387 2.70979 104.681 4.78271L61.2569 38.0551L60.9528 37.6582L61.2569 38.0551C58.9504 39.8224 58.9058 43.6911 61.1769 45.5252Z" fill="url(#paint2_linear_2650_7763)" stroke="url(#paint3_linear_2650_7763)"/>
</g>
</g>
<defs>
<linearGradient id="paint0_linear_2650_7763" x1="92" y1="82" x2="92" y2="43" gradientUnits="userSpaceOnUse">
<stop stop-color="#0000FF"/>
<stop offset="1" stop-color="white" stop-opacity="0.35"/>
</linearGradient>
<linearGradient id="paint1_linear_2650_7763" x1="92" y1="82" x2="92" y2="35" gradientUnits="userSpaceOnUse">
<stop stop-color="#0000FF"/>
<stop offset="1" stop-color="white" stop-opacity="0.35"/>
</linearGradient>
<linearGradient id="paint2_linear_2650_7763" x1="92" y1="3" x2="92" y2="43" gradientUnits="userSpaceOnUse">
<stop stop-color="#0000FF"/>
<stop offset="1" stop-color="white" stop-opacity="0.35"/>
</linearGradient>
<linearGradient id="paint3_linear_2650_7763" x1="92" y1="3" x2="92" y2="50" gradientUnits="userSpaceOnUse">
<stop stop-color="#0000FF"/>
<stop offset="1" stop-color="white" stop-opacity="0.35"/>
</linearGradient>
</defs>
</svg>
