<svg width="66" height="79" viewBox="0 0 66 79" fill="none" xmlns="http://www.w3.org/2000/svg">
<g id="Group 1000002318">
<g id="top">
<path id="Vector" d="M2.17693 42.5252L45.0037 77.112C47.6199 79.2248 51.1956 78.8997 53.4846 76.3117L64.2462 64.1442C65.9904 62.1722 65.762 58.8938 63.794 57.2543L55.2809 50.1619L47.2751 43.4923C45.7777 43.6524 44.1622 43.7395 42.4784 43.7395C38.6369 43.7395 35.14 43.2858 32.5875 42.5411C31.3146 42.1697 30.248 41.7178 29.4884 41.1937C28.7442 40.6803 28.1886 40.0204 28.1886 39.216C28.1886 38.4116 28.7442 37.7517 29.4884 37.2383C30.248 36.7143 31.3146 36.2624 32.5875 35.8909C35.14 35.1462 38.6369 34.6924 42.4784 34.6924C44.2804 34.6924 46.0042 34.7923 47.589 34.9745L63.7574 22.4667C65.7533 20.9227 66.1026 17.6928 64.4532 15.6415L54.2466 2.94753C52.0265 0.186417 48.3866 -0.290207 45.6812 1.78271L2.25693 35.0551L1.95282 34.6582L2.25692 35.0551C-0.0495665 36.8224 -0.0942165 40.6911 2.17693 42.5252Z" fill="url(#paint0_linear_2658_7742)" stroke="url(#paint1_linear_2658_7742)"/>
<g id="bottom">
<path id="Vector_2" d="M2.17693 36.4748L45.0037 1.88799C47.6199 -0.224842 51.1956 0.100346 53.4846 2.68831L64.2462 14.8558C65.9904 16.8278 65.762 20.1062 63.794 21.7457L55.2809 28.8381L47.2751 35.5077C45.7777 35.3476 44.1622 35.2605 42.4784 35.2605C38.6369 35.2605 35.14 35.7142 32.5875 36.4589C31.3146 36.8303 30.248 37.2822 29.4884 37.8063C28.7442 38.3197 28.1886 38.9796 28.1886 39.784C28.1886 40.5884 28.7442 41.2483 29.4884 41.7617C30.248 42.2857 31.3146 42.7376 32.5875 43.1091C35.14 43.8538 38.6369 44.3076 42.4784 44.3076C44.2804 44.3076 46.0042 44.2077 47.589 44.0255L63.7574 56.5333C65.7533 58.0773 66.1026 61.3072 64.4532 63.3585L54.2466 76.0525C52.0265 78.8136 48.3866 79.2902 45.6812 77.2173L2.25693 43.9449L1.95282 44.3418L2.25692 43.9449C-0.0495665 42.1776 -0.0942165 38.3089 2.17693 36.4748Z" fill="url(#paint2_linear_2658_7742)" stroke="url(#paint3_linear_2658_7742)"/>
</g>
</g>
</g>
<defs>
<linearGradient id="paint0_linear_2658_7742" x1="33" y1="0" x2="33" y2="40" gradientUnits="userSpaceOnUse">
<stop stop-color="#0000FF"/>
<stop offset="1" stop-color="white"/>
</linearGradient>
<linearGradient id="paint1_linear_2658_7742" x1="33" y1="0" x2="33" y2="47" gradientUnits="userSpaceOnUse">
<stop stop-color="#0000FF"/>
<stop offset="1" stop-color="white"/>
</linearGradient>
<linearGradient id="paint2_linear_2658_7742" x1="33" y1="79" x2="33" y2="40" gradientUnits="userSpaceOnUse">
<stop stop-color="#0000FF"/>
<stop offset="1" stop-color="white"/>
</linearGradient>
<linearGradient id="paint3_linear_2658_7742" x1="33" y1="79" x2="33" y2="32" gradientUnits="userSpaceOnUse">
<stop stop-color="#0000FF"/>
<stop offset="1" stop-color="white"/>
</linearGradient>
</defs>
</svg>
