<svg width="352" height="59" viewBox="0 0 352 59" fill="none" xmlns="http://www.w3.org/2000/svg">
<path d="M7.84443 2.15039H16.2444C19.4444 2.15039 22.0444 4.75039 22.0444 7.95039V16.3504C22.0444 17.8886 21.4334 19.3639 20.3457 20.4516C19.2579 21.5393 17.7827 22.1504 16.2444 22.1504H7.84443C4.64443 22.1504 2.04443 19.5504 2.04443 16.3504V7.95039C2.04443 6.41214 2.6555 4.93688 3.74321 3.84917C4.83093 2.76146 6.30618 2.15039 7.84443 2.15039ZM7.64443 4.15039C6.68965 4.15039 5.77398 4.52968 5.09885 5.20481C4.42372 5.87994 4.04443 6.79561 4.04443 7.75039V16.5504C4.04443 18.5404 5.65443 20.1504 7.64443 20.1504H16.4444C17.3992 20.1504 18.3149 19.7711 18.99 19.096C19.6651 18.4208 20.0444 17.5052 20.0444 16.5504V7.75039C20.0444 5.76039 18.4344 4.15039 16.4444 4.15039H7.64443ZM17.2944 5.65039C17.626 5.65039 17.9439 5.78209 18.1783 6.01651C18.4127 6.25093 18.5444 6.56887 18.5444 6.90039C18.5444 7.23191 18.4127 7.54985 18.1783 7.78427C17.9439 8.01869 17.626 8.15039 17.2944 8.15039C16.9629 8.15039 16.645 8.01869 16.4105 7.78427C16.1761 7.54985 16.0444 7.23191 16.0444 6.90039C16.0444 6.56887 16.1761 6.25093 16.4105 6.01651C16.645 5.78209 16.9629 5.65039 17.2944 5.65039ZM12.0444 7.15039C13.3705 7.15039 14.6423 7.67717 15.58 8.61486C16.5176 9.55254 17.0444 10.8243 17.0444 12.1504C17.0444 13.4765 16.5176 14.7482 15.58 15.6859C14.6423 16.6236 13.3705 17.1504 12.0444 17.1504C10.7184 17.1504 9.44658 16.6236 8.5089 15.6859C7.57122 14.7482 7.04443 13.4765 7.04443 12.1504C7.04443 10.8243 7.57122 9.55254 8.5089 8.61486C9.44658 7.67717 10.7184 7.15039 12.0444 7.15039ZM12.0444 9.15039C11.2488 9.15039 10.4857 9.46646 9.92311 10.0291C9.3605 10.5917 9.04443 11.3547 9.04443 12.1504C9.04443 12.946 9.3605 13.7091 9.92311 14.2717C10.4857 14.8343 11.2488 15.1504 12.0444 15.1504C12.8401 15.1504 13.6031 14.8343 14.1658 14.2717C14.7284 13.7091 15.0444 12.946 15.0444 12.1504C15.0444 11.3547 14.7284 10.5917 14.1658 10.0291C13.6031 9.46646 12.8401 9.15039 12.0444 9.15039Z" fill="#8C8C8C"/>
<g clip-path="url(#clip0_737_1655)">
<mask id="mask0_737_1655" style="mask-type:luminance" maskUnits="userSpaceOnUse" x="30" y="1" width="22" height="22">
<path d="M30.0444 1.65039H51.0444V22.6504H30.0444V1.65039Z" fill="white"/>
</mask>
<g mask="url(#mask0_737_1655)">
<path d="M46.5819 2.63477H49.8024L42.7674 10.6958L51.0444 21.6668H44.5644L39.4854 15.0143L33.6804 21.6668H30.4569L37.9809 13.0418L30.0444 2.63627H36.6894L41.2734 8.71577L46.5819 2.63477ZM45.4494 19.7348H47.2344L35.7144 4.46627H33.8004L45.4494 19.7348Z" fill="#8C8C8C"/>
</g>
</g>
<path d="M75.0444 3.15039C75.8401 3.15039 76.6031 3.46646 77.1658 4.02907C77.7284 4.59168 78.0444 5.35474 78.0444 6.15039V18.1504C78.0444 18.946 77.7284 19.7091 77.1658 20.2717C76.6031 20.8343 75.8401 21.1504 75.0444 21.1504H63.0444C62.2488 21.1504 61.4857 20.8343 60.9231 20.2717C60.3605 19.7091 60.0444 18.946 60.0444 18.1504V6.15039C60.0444 5.35474 60.3605 4.59168 60.9231 4.02907C61.4857 3.46646 62.2488 3.15039 63.0444 3.15039H75.0444ZM75.0444 5.15039H63.0444C62.7792 5.15039 62.5249 5.25575 62.3373 5.44328C62.1498 5.63082 62.0444 5.88517 62.0444 6.15039V18.1504C62.0444 18.4156 62.1498 18.67 62.3373 18.8575C62.5249 19.045 62.7792 19.1504 63.0444 19.1504H75.0444C75.3097 19.1504 75.564 19.045 75.7515 18.8575C75.9391 18.67 76.0444 18.4156 76.0444 18.1504V6.15039C76.0444 5.88517 75.9391 5.63082 75.7515 5.44328C75.564 5.25575 75.3097 5.15039 75.0444 5.15039ZM65.0444 10.1504C65.2894 10.1504 65.5258 10.2403 65.7088 10.4031C65.8918 10.5659 66.0088 10.7901 66.0374 11.0334L66.0444 11.1504V16.1504C66.0442 16.4053 65.9466 16.6504 65.7716 16.8358C65.5966 17.0211 65.3575 17.1326 65.103 17.1476C64.8486 17.1625 64.5981 17.0797 64.4026 16.9161C64.2071 16.7525 64.0815 16.5205 64.0514 16.2674L64.0444 16.1504V11.1504C64.0444 10.8852 64.1498 10.6308 64.3373 10.4433C64.5249 10.2557 64.7792 10.1504 65.0444 10.1504ZM68.0444 9.15039C68.2786 9.15036 68.5054 9.23252 68.6852 9.38255C68.8651 9.53259 68.9865 9.74098 69.0284 9.97139C69.2299 9.85507 69.4379 9.75056 69.6514 9.65839C70.3184 9.37339 71.3174 9.21639 72.2194 9.49939C72.6924 9.64939 73.1674 9.92939 73.5194 10.4064C73.8344 10.8314 74.0044 11.3484 74.0384 11.9294L74.0444 12.1504V16.1504C74.0442 16.4053 73.9466 16.6504 73.7716 16.8358C73.5966 17.0211 73.3575 17.1326 73.103 17.1476C72.8486 17.1625 72.5981 17.0797 72.4026 16.9161C72.2071 16.7525 72.0815 16.5205 72.0514 16.2674L72.0444 16.1504V12.1504C72.0444 11.8204 71.9644 11.6664 71.9124 11.5954C71.8377 11.5027 71.7349 11.4367 71.6194 11.4074C71.2714 11.2974 70.7704 11.3554 70.4374 11.4974C69.9374 11.7114 69.4794 12.0474 69.1674 12.3584L69.0444 12.4904V16.1504C69.0442 16.4053 68.9466 16.6504 68.7716 16.8358C68.5966 17.0211 68.3575 17.1326 68.103 17.1476C67.8486 17.1625 67.5981 17.0797 67.4026 16.9161C67.2071 16.7525 67.0815 16.5205 67.0514 16.2674L67.0444 16.1504V10.1504C67.0444 9.88517 67.1498 9.63082 67.3373 9.44328C67.5249 9.25575 67.7792 9.15039 68.0444 9.15039ZM65.0444 7.15039C65.3096 7.15039 65.564 7.25575 65.7515 7.44328C65.9391 7.63082 66.0444 7.88517 66.0444 8.15039C66.0444 8.41561 65.9391 8.66996 65.7515 8.8575C65.564 9.04503 65.3096 9.15039 65.0444 9.15039C64.7792 9.15039 64.5249 9.04503 64.3373 8.8575C64.1498 8.66996 64.0444 8.41561 64.0444 8.15039C64.0444 7.88517 64.1498 7.63082 64.3373 7.44328C64.5249 7.25575 64.7792 7.15039 65.0444 7.15039Z" fill="#8C8C8C"/>
<path d="M93.6211 18.7857C92.6751 18.7857 91.8591 18.5769 91.173 18.1593C90.4912 17.7374 89.9649 17.1493 89.5941 16.3951C89.2277 15.6365 89.0444 14.7544 89.0444 13.7488C89.0444 12.7431 89.2277 11.8567 89.5941 11.0897C89.9649 10.3184 90.4805 9.71751 91.141 9.28711C91.8058 8.85245 92.5814 8.63512 93.4677 8.63512C93.9791 8.63512 94.4841 8.72035 94.9826 8.8908C95.4812 9.06126 95.9351 9.33825 96.3441 9.72177C96.7532 10.101 97.0792 10.6039 97.3221 11.2303C97.565 11.8567 97.6865 12.628 97.6865 13.5442V14.1834H90.1183V12.8794H96.1524C96.1524 12.3255 96.0416 11.8311 95.82 11.3965C95.6027 10.9618 95.2916 10.6188 94.8868 10.3674C94.4862 10.1159 94.0132 9.99023 93.4677 9.99023C92.8669 9.99023 92.347 10.1394 91.9081 10.4377C91.4734 10.7317 91.1389 11.1152 90.9045 11.5882C90.6701 12.0613 90.553 12.5684 90.553 13.1096V13.9789C90.553 14.7203 90.6808 15.3489 90.9365 15.8645C91.1964 16.3759 91.5565 16.7658 92.0167 17.0343C92.477 17.2985 93.0118 17.4306 93.6211 17.4306C94.0174 17.4306 94.3754 17.3752 94.695 17.2644C95.0189 17.1493 95.298 16.9789 95.5324 16.753C95.7667 16.5229 95.9478 16.2374 96.0757 15.8965L97.5331 16.3056C97.3797 16.7999 97.1218 17.2346 96.7596 17.6096C96.3974 17.9803 95.95 18.2701 95.4173 18.4789C94.8846 18.6834 94.2859 18.7857 93.6211 18.7857Z" fill="#8C8C8C"/>
<path d="M101.49 12.6749V18.5811H99.9812V8.76296H101.439V10.2971H101.566C101.797 9.79847 102.146 9.39791 102.615 9.09535C103.083 8.78853 103.689 8.63512 104.43 8.63512C105.095 8.63512 105.677 8.77148 106.175 9.04421C106.674 9.31268 107.061 9.72177 107.338 10.2715C107.615 10.8169 107.754 11.5073 107.754 12.3425V18.5811H106.245V12.4448C106.245 11.6735 106.045 11.0726 105.645 10.6422C105.244 10.2076 104.694 9.99023 103.995 9.99023C103.514 9.99023 103.083 10.0946 102.704 10.3034C102.329 10.5123 102.033 10.8169 101.816 11.2175C101.598 11.6181 101.49 12.1039 101.49 12.6749Z" fill="#8C8C8C"/>
<path d="M114.499 18.7857C113.613 18.7857 112.835 18.5748 112.166 18.1529C111.501 17.731 110.981 17.1408 110.606 16.3823C110.236 15.6238 110.05 14.7374 110.05 13.7232C110.05 12.7005 110.236 11.8077 110.606 11.0449C110.981 10.2821 111.501 9.68981 112.166 9.26793C112.835 8.84606 113.613 8.63512 114.499 8.63512C115.386 8.63512 116.161 8.84606 116.826 9.26793C117.495 9.68981 118.015 10.2821 118.386 11.0449C118.761 11.8077 118.948 12.7005 118.948 13.7232C118.948 14.7374 118.761 15.6238 118.386 16.3823C118.015 17.1408 117.495 17.731 116.826 18.1529C116.161 18.5748 115.386 18.7857 114.499 18.7857ZM114.499 17.4306C115.172 17.4306 115.726 17.258 116.161 16.9128C116.596 16.5676 116.917 16.1138 117.126 15.5513C117.335 14.9888 117.439 14.3794 117.439 13.7232C117.439 13.0669 117.335 12.4554 117.126 11.8887C116.917 11.3219 116.596 10.8638 116.161 10.5144C115.726 10.165 115.172 9.99023 114.499 9.99023C113.826 9.99023 113.272 10.165 112.837 10.5144C112.403 10.8638 112.081 11.3219 111.872 11.8887C111.663 12.4554 111.559 13.0669 111.559 13.7232C111.559 14.3794 111.663 14.9888 111.872 15.5513C112.081 16.1138 112.403 16.5676 112.837 16.9128C113.272 17.258 113.826 17.4306 114.499 17.4306Z" fill="#8C8C8C"/>
<path d="M128.928 8.76296L125.297 18.5811H123.763L120.132 8.76296H121.769L124.479 16.5868H124.581L127.291 8.76296H128.928Z" fill="#8C8C8C"/>
<path d="M134.684 18.7857C133.738 18.7857 132.922 18.5769 132.235 18.1593C131.554 17.7374 131.027 17.1493 130.657 16.3951C130.29 15.6365 130.107 14.7544 130.107 13.7488C130.107 12.7431 130.29 11.8567 130.657 11.0897C131.027 10.3184 131.543 9.71751 132.204 9.28711C132.868 8.85245 133.644 8.63512 134.53 8.63512C135.042 8.63512 135.547 8.72035 136.045 8.8908C136.544 9.06126 136.998 9.33825 137.407 9.72177C137.816 10.101 138.142 10.6039 138.385 11.2303C138.628 11.8567 138.749 12.628 138.749 13.5442V14.1834H131.181V12.8794H137.215C137.215 12.3255 137.104 11.8311 136.883 11.3965C136.665 10.9618 136.354 10.6188 135.949 10.3674C135.549 10.1159 135.076 9.99023 134.53 9.99023C133.929 9.99023 133.409 10.1394 132.971 10.4377C132.536 10.7317 132.201 11.1152 131.967 11.5882C131.733 12.0613 131.615 12.5684 131.615 13.1096V13.9789C131.615 14.7203 131.743 15.3489 131.999 15.8645C132.259 16.3759 132.619 16.7658 133.079 17.0343C133.539 17.2985 134.074 17.4306 134.684 17.4306C135.08 17.4306 135.438 17.3752 135.758 17.2644C136.081 17.1493 136.36 16.9789 136.595 16.753C136.829 16.5229 137.01 16.2374 137.138 15.8965L138.596 16.3056C138.442 16.7999 138.184 17.2346 137.822 17.6096C137.46 17.9803 137.012 18.2701 136.48 18.4789C135.947 18.6834 135.348 18.7857 134.684 18.7857Z" fill="#8C8C8C"/>
<path d="M141.044 18.5811V8.76296H142.501V10.2459H142.603C142.782 9.76012 143.106 9.36594 143.575 9.06339C144.044 8.76083 144.572 8.60955 145.16 8.60955C145.271 8.60955 145.409 8.61168 145.576 8.61594C145.742 8.62021 145.868 8.6266 145.953 8.63512V10.1692C145.902 10.1564 145.784 10.1373 145.601 10.1117C145.422 10.0819 145.233 10.0669 145.032 10.0669C144.555 10.0669 144.129 10.1671 143.754 10.3674C143.383 10.5634 143.089 10.8361 142.872 11.1855C142.659 11.5307 142.552 11.9249 142.552 12.3681V18.5811H141.044Z" fill="#8C8C8C"/>
<path d="M149.25 5.49023V18.5811H147.741V5.49023H149.25Z" fill="#8C8C8C"/>
<path d="M154.902 18.8113C154.28 18.8113 153.715 18.6941 153.208 18.4597C152.701 18.2211 152.298 17.878 152 17.4306C151.701 16.9789 151.552 16.4334 151.552 15.7942C151.552 15.2317 151.663 14.7757 151.885 14.4263C152.106 14.0726 152.402 13.7956 152.773 13.5953C153.144 13.3951 153.553 13.2459 154 13.1479C154.452 13.0456 154.906 12.9647 155.362 12.905C155.958 12.8283 156.442 12.7708 156.813 12.7324C157.188 12.6898 157.461 12.6195 157.631 12.5215C157.806 12.4235 157.893 12.253 157.893 12.0101V11.959C157.893 11.3283 157.721 10.8382 157.375 10.4888C157.034 10.1394 156.517 9.96467 155.822 9.96467C155.102 9.96467 154.537 10.1223 154.128 10.4377C153.719 10.753 153.432 11.0897 153.265 11.4476L151.833 10.9363C152.089 10.3397 152.43 9.87518 152.856 9.54279C153.287 9.20614 153.755 8.97177 154.262 8.83967C154.774 8.7033 155.277 8.63512 155.771 8.63512C156.086 8.63512 156.449 8.67347 156.858 8.75018C157.271 8.82262 157.669 8.9739 158.053 9.20401C158.441 9.43413 158.762 9.78143 159.018 10.2459C159.274 10.7104 159.402 11.3326 159.402 12.1124V18.5811H157.893V17.2516H157.816C157.714 17.4647 157.544 17.6926 157.305 17.9355C157.066 18.1784 156.749 18.3851 156.353 18.5556C155.956 18.726 155.473 18.8113 154.902 18.8113ZM155.132 17.4561C155.728 17.4561 156.231 17.339 156.64 17.1046C157.054 16.8702 157.365 16.5676 157.574 16.1969C157.787 15.8262 157.893 15.4363 157.893 15.0272V13.6465C157.829 13.7232 157.689 13.7935 157.471 13.8574C157.258 13.9171 157.011 13.9703 156.73 14.0172C156.453 14.0598 156.182 14.0982 155.918 14.1323C155.658 14.1621 155.447 14.1877 155.285 14.209C154.893 14.2601 154.527 14.3432 154.186 14.4583C153.849 14.5691 153.576 14.7374 153.368 14.9632C153.163 15.1848 153.061 15.4874 153.061 15.8709C153.061 16.3951 153.255 16.7914 153.642 17.0598C154.034 17.324 154.531 17.4561 155.132 17.4561Z" fill="#8C8C8C"/>
<path d="M162.36 18.5811V5.49023H163.868V10.3226H163.996C164.107 10.1522 164.26 9.93484 164.456 9.67063C164.656 9.40217 164.942 9.16353 165.313 8.95472C165.688 8.74166 166.195 8.63512 166.834 8.63512C167.661 8.63512 168.389 8.8418 169.02 9.25515C169.651 9.6685 170.143 10.2544 170.497 11.013C170.85 11.7715 171.027 12.6664 171.027 13.6976C171.027 14.7374 170.85 15.6387 170.497 16.4015C170.143 17.16 169.653 17.748 169.026 18.1657C168.4 18.579 167.678 18.7857 166.86 18.7857C166.229 18.7857 165.724 18.6813 165.345 18.4725C164.965 18.2594 164.674 18.0186 164.469 17.7502C164.264 17.4775 164.107 17.2516 163.996 17.0726H163.817V18.5811H162.36ZM163.843 13.6721C163.843 14.4135 163.951 15.0676 164.169 15.6344C164.386 16.1969 164.703 16.638 165.121 16.9576C165.539 17.2729 166.05 17.4306 166.655 17.4306C167.286 17.4306 167.812 17.2644 168.234 16.932C168.66 16.5953 168.98 16.1436 169.193 15.5769C169.41 15.0059 169.519 14.3709 169.519 13.6721C169.519 12.9817 169.412 12.3596 169.199 11.8056C168.99 11.2473 168.673 10.8063 168.247 10.4824C167.825 10.1543 167.294 9.99023 166.655 9.99023C166.041 9.99023 165.526 10.1458 165.108 10.4569C164.691 10.7637 164.375 11.1941 164.162 11.748C163.949 12.2978 163.843 12.9391 163.843 13.6721Z" fill="#8C8C8C"/>
<path d="M213.387 14.1504C213.467 13.4904 213.527 12.8304 213.527 12.1504C213.527 11.4704 213.467 10.8104 213.387 10.1504H216.767C216.927 10.7904 217.027 11.4604 217.027 12.1504C217.027 12.8404 216.927 13.5104 216.767 14.1504M211.617 19.7104C212.217 18.6004 212.677 17.4004 212.997 16.1504H215.947C214.979 17.8187 213.441 19.0824 211.617 19.7104ZM211.367 14.1504H206.687C206.587 13.4904 206.527 12.8304 206.527 12.1504C206.527 11.4704 206.587 10.8004 206.687 10.1504H211.367C211.457 10.8004 211.527 11.4704 211.527 12.1504C211.527 12.8304 211.457 13.4904 211.367 14.1504ZM209.027 20.1104C208.197 18.9104 207.527 17.5804 207.117 16.1504H210.937C210.527 17.5804 209.857 18.9104 209.027 20.1104ZM205.027 8.15039H202.107C203.066 6.47742 204.602 5.21163 206.427 4.59039C205.827 5.70039 205.377 6.90039 205.027 8.15039ZM202.107 16.1504H205.027C205.377 17.4004 205.827 18.6004 206.427 19.7104C204.606 19.0827 203.072 17.8186 202.107 16.1504ZM201.287 14.1504C201.127 13.5104 201.027 12.8404 201.027 12.1504C201.027 11.4604 201.127 10.7904 201.287 10.1504H204.667C204.587 10.8104 204.527 11.4704 204.527 12.1504C204.527 12.8304 204.587 13.4904 204.667 14.1504M209.027 4.18039C209.857 5.38039 210.527 6.72039 210.937 8.15039H207.117C207.527 6.72039 208.197 5.38039 209.027 4.18039ZM215.947 8.15039H212.997C212.684 6.912 212.22 5.7165 211.617 4.59039C213.457 5.22039 214.987 6.49039 215.947 8.15039ZM209.027 2.15039C203.497 2.15039 199.027 6.65039 199.027 12.1504C199.027 14.8026 200.081 17.3461 201.956 19.2215C202.885 20.15 203.987 20.8866 205.201 21.3892C206.414 21.8917 207.714 22.1504 209.027 22.1504C211.68 22.1504 214.223 21.0968 216.098 19.2215C217.974 17.3461 219.027 14.8026 219.027 12.1504C219.027 10.8372 218.769 9.53681 218.266 8.32356C217.764 7.1103 217.027 6.00791 216.098 5.07932C215.17 4.15074 214.067 3.41414 212.854 2.9116C211.641 2.40905 210.341 2.15039 209.027 2.15039Z" fill="#8C8C8C"/>
<path d="M233.604 18.7857C232.658 18.7857 231.842 18.5769 231.156 18.1593C230.474 17.7374 229.948 17.1493 229.577 16.3951C229.211 15.6365 229.027 14.7544 229.027 13.7488C229.027 12.7431 229.211 11.8567 229.577 11.0897C229.948 10.3184 230.463 9.71751 231.124 9.28711C231.789 8.85245 232.564 8.63512 233.451 8.63512C233.962 8.63512 234.467 8.72035 234.966 8.8908C235.464 9.06126 235.918 9.33825 236.327 9.72177C236.736 10.101 237.062 10.6039 237.305 11.2303C237.548 11.8567 237.669 12.628 237.669 13.5442V14.1834H230.101V12.8794H236.135C236.135 12.3255 236.025 11.8311 235.803 11.3965C235.586 10.9618 235.275 10.6188 234.87 10.3674C234.469 10.1159 233.996 9.99023 233.451 9.99023C232.85 9.99023 232.33 10.1394 231.891 10.4377C231.456 10.7317 231.122 11.1152 230.887 11.5882C230.653 12.0613 230.536 12.5684 230.536 13.1096V13.9789C230.536 14.7203 230.664 15.3489 230.919 15.8645C231.179 16.3759 231.539 16.7658 232 17.0343C232.46 17.2985 232.995 17.4306 233.604 17.4306C234 17.4306 234.358 17.3752 234.678 17.2644C235.002 17.1493 235.281 16.9789 235.515 16.753C235.75 16.5229 235.931 16.2374 236.059 15.8965L237.516 16.3056C237.363 16.7999 237.105 17.2346 236.743 17.6096C236.38 17.9803 235.933 18.2701 235.4 18.4789C234.868 18.6834 234.269 18.7857 233.604 18.7857Z" fill="#8C8C8C"/>
<path d="M241.473 12.6749V18.5811H239.964V8.76296H241.422V10.2971H241.549C241.779 9.79847 242.129 9.39791 242.598 9.09535C243.066 8.78853 243.672 8.63512 244.413 8.63512C245.078 8.63512 245.659 8.77148 246.158 9.04421C246.657 9.31268 247.044 9.72177 247.321 10.2715C247.598 10.8169 247.737 11.5073 247.737 12.3425V18.5811H246.228V12.4448C246.228 11.6735 246.028 11.0726 245.627 10.6422C245.227 10.2076 244.677 9.99023 243.978 9.99023C243.497 9.99023 243.066 10.0946 242.687 10.3034C242.312 10.5123 242.016 10.8169 241.799 11.2175C241.581 11.6181 241.473 12.1039 241.473 12.6749Z" fill="#8C8C8C"/>
<path d="M254.482 18.7857C253.596 18.7857 252.818 18.5748 252.149 18.1529C251.484 17.731 250.964 17.1408 250.589 16.3823C250.219 15.6238 250.033 14.7374 250.033 13.7232C250.033 12.7005 250.219 11.8077 250.589 11.0449C250.964 10.2821 251.484 9.68981 252.149 9.26793C252.818 8.84606 253.596 8.63512 254.482 8.63512C255.368 8.63512 256.144 8.84606 256.809 9.26793C257.478 9.68981 257.998 10.2821 258.368 11.0449C258.743 11.8077 258.931 12.7005 258.931 13.7232C258.931 14.7374 258.743 15.6238 258.368 16.3823C257.998 17.1408 257.478 17.731 256.809 18.1529C256.144 18.5748 255.368 18.7857 254.482 18.7857ZM254.482 17.4306C255.155 17.4306 255.709 17.258 256.144 16.9128C256.579 16.5676 256.9 16.1138 257.109 15.5513C257.318 14.9888 257.422 14.3794 257.422 13.7232C257.422 13.0669 257.318 12.4554 257.109 11.8887C256.9 11.3219 256.579 10.8638 256.144 10.5144C255.709 10.165 255.155 9.99023 254.482 9.99023C253.809 9.99023 253.255 10.165 252.82 10.5144C252.385 10.8638 252.064 11.3219 251.855 11.8887C251.646 12.4554 251.542 13.0669 251.542 13.7232C251.542 14.3794 251.646 14.9888 251.855 15.5513C252.064 16.1138 252.385 16.5676 252.82 16.9128C253.255 17.258 253.809 17.4306 254.482 17.4306Z" fill="#8C8C8C"/>
<path d="M268.911 8.76296L265.28 18.5811H263.746L260.115 8.76296H261.751L264.462 16.5868H264.564L267.274 8.76296H268.911Z" fill="#8C8C8C"/>
<path d="M274.667 18.7857C273.721 18.7857 272.904 18.5769 272.218 18.1593C271.537 17.7374 271.01 17.1493 270.64 16.3951C270.273 15.6365 270.09 14.7544 270.09 13.7488C270.09 12.7431 270.273 11.8567 270.64 11.0897C271.01 10.3184 271.526 9.71751 272.186 9.28711C272.851 8.85245 273.627 8.63512 274.513 8.63512C275.025 8.63512 275.529 8.72035 276.028 8.8908C276.527 9.06126 276.98 9.33825 277.39 9.72177C277.799 10.101 278.125 10.6039 278.368 11.2303C278.61 11.8567 278.732 12.628 278.732 13.5442V14.1834H271.164V12.8794H277.198C277.198 12.3255 277.087 11.8311 276.865 11.3965C276.648 10.9618 276.337 10.6188 275.932 10.3674C275.532 10.1159 275.059 9.99023 274.513 9.99023C273.912 9.99023 273.392 10.1394 272.953 10.4377C272.519 10.7317 272.184 11.1152 271.95 11.5882C271.716 12.0613 271.598 12.5684 271.598 13.1096V13.9789C271.598 14.7203 271.726 15.3489 271.982 15.8645C272.242 16.3759 272.602 16.7658 273.062 17.0343C273.522 17.2985 274.057 17.4306 274.667 17.4306C275.063 17.4306 275.421 17.3752 275.74 17.2644C276.064 17.1493 276.343 16.9789 276.578 16.753C276.812 16.5229 276.993 16.2374 277.121 15.8965L278.578 16.3056C278.425 16.7999 278.167 17.2346 277.805 17.6096C277.443 17.9803 276.995 18.2701 276.463 18.4789C275.93 18.6834 275.331 18.7857 274.667 18.7857Z" fill="#8C8C8C"/>
<path d="M281.027 18.5811V8.76296H282.484V10.2459H282.586C282.765 9.76012 283.089 9.36594 283.558 9.06339C284.027 8.76083 284.555 8.60955 285.143 8.60955C285.254 8.60955 285.392 8.61168 285.559 8.61594C285.725 8.62021 285.85 8.6266 285.936 8.63512V10.1692C285.885 10.1564 285.767 10.1373 285.584 10.1117C285.405 10.0819 285.216 10.0669 285.015 10.0669C284.538 10.0669 284.112 10.1671 283.737 10.3674C283.366 10.5634 283.072 10.8361 282.855 11.1855C282.642 11.5307 282.535 11.9249 282.535 12.3681V18.5811H281.027Z" fill="#8C8C8C"/>
<path d="M289.232 5.49023V18.5811H287.724V5.49023H289.232Z" fill="#8C8C8C"/>
<path d="M294.885 18.8113C294.262 18.8113 293.698 18.6941 293.191 18.4597C292.684 18.2211 292.281 17.878 291.983 17.4306C291.684 16.9789 291.535 16.4334 291.535 15.7942C291.535 15.2317 291.646 14.7757 291.868 14.4263C292.089 14.0726 292.385 13.7956 292.756 13.5953C293.127 13.3951 293.536 13.2459 293.983 13.1479C294.435 13.0456 294.889 12.9647 295.345 12.905C295.941 12.8283 296.425 12.7708 296.796 12.7324C297.171 12.6898 297.444 12.6195 297.614 12.5215C297.789 12.4235 297.876 12.253 297.876 12.0101V11.959C297.876 11.3283 297.703 10.8382 297.358 10.4888C297.017 10.1394 296.5 9.96467 295.805 9.96467C295.085 9.96467 294.52 10.1223 294.111 10.4377C293.702 10.753 293.414 11.0897 293.248 11.4476L291.816 10.9363C292.072 10.3397 292.413 9.87518 292.839 9.54279C293.27 9.20614 293.738 8.97177 294.245 8.83967C294.757 8.7033 295.26 8.63512 295.754 8.63512C296.069 8.63512 296.431 8.67347 296.841 8.75018C297.254 8.82262 297.652 8.9739 298.036 9.20401C298.424 9.43413 298.745 9.78143 299.001 10.2459C299.257 10.7104 299.385 11.3326 299.385 12.1124V18.5811H297.876V17.2516H297.799C297.697 17.4647 297.527 17.6926 297.288 17.9355C297.049 18.1784 296.732 18.3851 296.336 18.5556C295.939 18.726 295.456 18.8113 294.885 18.8113ZM295.115 17.4561C295.711 17.4561 296.214 17.339 296.623 17.1046C297.037 16.8702 297.348 16.5676 297.556 16.1969C297.77 15.8262 297.876 15.4363 297.876 15.0272V13.6465C297.812 13.7232 297.672 13.7935 297.454 13.8574C297.241 13.9171 296.994 13.9703 296.713 14.0172C296.436 14.0598 296.165 14.0982 295.901 14.1323C295.641 14.1621 295.43 14.1877 295.268 14.209C294.876 14.2601 294.51 14.3432 294.169 14.4583C293.832 14.5691 293.559 14.7374 293.35 14.9632C293.146 15.1848 293.044 15.4874 293.044 15.8709C293.044 16.3951 293.238 16.7914 293.625 17.0598C294.017 17.324 294.514 17.4561 295.115 17.4561Z" fill="#8C8C8C"/>
<path d="M302.343 18.5811V5.49023H303.851V10.3226H303.979C304.09 10.1522 304.243 9.93484 304.439 9.67063C304.639 9.40217 304.925 9.16353 305.296 8.95472C305.671 8.74166 306.178 8.63512 306.817 8.63512C307.644 8.63512 308.372 8.8418 309.003 9.25515C309.634 9.6685 310.126 10.2544 310.48 11.013C310.833 11.7715 311.01 12.6664 311.01 13.6976C311.01 14.7374 310.833 15.6387 310.48 16.4015C310.126 17.16 309.636 17.748 309.009 18.1657C308.383 18.579 307.661 18.7857 306.843 18.7857C306.212 18.7857 305.707 18.6813 305.328 18.4725C304.948 18.2594 304.656 18.0186 304.452 17.7502C304.247 17.4775 304.09 17.2516 303.979 17.0726H303.8V18.5811H302.343ZM303.825 13.6721C303.825 14.4135 303.934 15.0676 304.151 15.6344C304.369 16.1969 304.686 16.638 305.104 16.9576C305.521 17.2729 306.033 17.4306 306.638 17.4306C307.269 17.4306 307.795 17.2644 308.217 16.932C308.643 16.5953 308.963 16.1436 309.176 15.5769C309.393 15.0059 309.502 14.3709 309.502 13.6721C309.502 12.9817 309.395 12.3596 309.182 11.8056C308.973 11.2473 308.656 10.8063 308.23 10.4824C307.808 10.1543 307.277 9.99023 306.638 9.99023C306.024 9.99023 305.509 10.1458 305.091 10.4569C304.673 10.7637 304.358 11.1941 304.145 11.748C303.932 12.2978 303.825 12.9391 303.825 13.6721Z" fill="#8C8C8C"/>
<path d="M314.417 18.6834C314.102 18.6834 313.831 18.5705 313.605 18.3446C313.379 18.1188 313.267 17.8482 313.267 17.5328C313.267 17.2175 313.379 16.9469 313.605 16.7211C313.831 16.4952 314.102 16.3823 314.417 16.3823C314.732 16.3823 315.003 16.4952 315.229 16.7211C315.455 16.9469 315.568 17.2175 315.568 17.5328C315.568 17.7417 315.514 17.9334 315.408 18.1081C315.306 18.2828 315.167 18.4235 314.992 18.53C314.822 18.6323 314.63 18.6834 314.417 18.6834Z" fill="#8C8C8C"/>
<path d="M322.263 18.7857C321.343 18.7857 320.55 18.5684 319.885 18.1337C319.221 17.699 318.709 17.1003 318.351 16.3375C317.993 15.5748 317.814 14.7033 317.814 13.7232C317.814 12.726 317.998 11.8461 318.364 11.0833C318.735 10.3162 319.251 9.71751 319.911 9.28711C320.576 8.85245 321.351 8.63512 322.238 8.63512C322.928 8.63512 323.55 8.76296 324.104 9.01864C324.658 9.27433 325.112 9.63228 325.466 10.0925C325.819 10.5527 326.039 11.0897 326.124 11.7033H324.616C324.501 11.2559 324.245 10.8596 323.849 10.5144C323.456 10.165 322.928 9.99023 322.263 9.99023C321.675 9.99023 321.16 10.1436 320.716 10.4505C320.278 10.753 319.934 11.1813 319.687 11.7353C319.444 12.285 319.323 12.9306 319.323 13.6721C319.323 14.4306 319.442 15.0911 319.681 15.6536C319.924 16.2161 320.265 16.6529 320.704 16.964C321.147 17.275 321.667 17.4306 322.263 17.4306C322.655 17.4306 323.011 17.3624 323.331 17.226C323.65 17.0897 323.921 16.8936 324.143 16.638C324.364 16.3823 324.522 16.0755 324.616 15.7175H326.124C326.039 16.2971 325.828 16.8191 325.491 17.2836C325.159 17.7438 324.718 18.1103 324.168 18.383C323.623 18.6515 322.988 18.7857 322.263 18.7857Z" fill="#8C8C8C"/>
<path d="M332.318 18.7857C331.432 18.7857 330.654 18.5748 329.985 18.1529C329.32 17.731 328.8 17.1408 328.425 16.3823C328.055 15.6238 327.869 14.7374 327.869 13.7232C327.869 12.7005 328.055 11.8077 328.425 11.0449C328.8 10.2821 329.32 9.68981 329.985 9.26793C330.654 8.84606 331.432 8.63512 332.318 8.63512C333.204 8.63512 333.98 8.84606 334.645 9.26793C335.314 9.68981 335.834 10.2821 336.204 11.0449C336.579 11.8077 336.767 12.7005 336.767 13.7232C336.767 14.7374 336.579 15.6238 336.204 16.3823C335.834 17.1408 335.314 17.731 334.645 18.1529C333.98 18.5748 333.204 18.7857 332.318 18.7857ZM332.318 17.4306C332.991 17.4306 333.545 17.258 333.98 16.9128C334.415 16.5676 334.736 16.1138 334.945 15.5513C335.154 14.9888 335.258 14.3794 335.258 13.7232C335.258 13.0669 335.154 12.4554 334.945 11.8887C334.736 11.3219 334.415 10.8638 333.98 10.5144C333.545 10.165 332.991 9.99023 332.318 9.99023C331.645 9.99023 331.091 10.165 330.656 10.5144C330.221 10.8638 329.9 11.3219 329.691 11.8887C329.482 12.4554 329.378 13.0669 329.378 13.7232C329.378 14.3794 329.482 14.9888 329.691 15.5513C329.9 16.1138 330.221 16.5676 330.656 16.9128C331.091 17.258 331.645 17.4306 332.318 17.4306Z" fill="#8C8C8C"/>
<path d="M339.07 18.5811V8.76296H340.527V10.2971H340.655C340.859 9.77291 341.19 9.36594 341.646 9.07617C342.102 8.78214 342.649 8.63512 343.288 8.63512C343.936 8.63512 344.475 8.78214 344.906 9.07617C345.34 9.36594 345.679 9.77291 345.922 10.2971H346.024C346.276 9.78995 346.653 9.38725 347.156 9.08896C347.658 8.7864 348.261 8.63512 348.964 8.63512C349.842 8.63512 350.56 8.90998 351.119 9.45969C351.677 10.0051 351.956 10.8553 351.956 12.0101V18.5811H350.447V12.0101C350.447 11.2857 350.249 10.7679 349.853 10.4569C349.457 10.1458 348.99 9.99023 348.453 9.99023C347.763 9.99023 347.228 10.199 346.849 10.6167C346.469 11.03 346.28 11.5542 346.28 12.1891V18.5811H344.746V11.8567C344.746 11.2985 344.565 10.8489 344.202 10.508C343.84 10.1628 343.374 9.99023 342.803 9.99023C342.411 9.99023 342.044 10.0946 341.703 10.3034C341.366 10.5123 341.094 10.802 340.885 11.1728C340.68 11.5392 340.578 11.9632 340.578 12.4448V18.5811H339.07Z" fill="#8C8C8C"/>
<path d="M77.3721 54.1504C76.8221 54.1504 76.3514 53.9547 75.9601 53.5634C75.5687 53.1721 75.3727 52.7011 75.3721 52.1504V40.1504C75.3721 39.6004 75.5681 39.1297 75.9601 38.7384C76.3521 38.3471 76.8227 38.1511 77.3721 38.1504H93.3721C93.9221 38.1504 94.3931 38.3464 94.7851 38.7384C95.1771 39.1304 95.3727 39.6011 95.3721 40.1504V52.1504C95.3721 52.7004 95.1764 53.1714 94.7851 53.5634C94.3937 53.9554 93.9227 54.1511 93.3721 54.1504H77.3721ZM85.3721 47.1504L77.3721 42.1504V52.1504H93.3721V42.1504L85.3721 47.1504ZM85.3721 45.1504L93.3721 40.1504H77.3721L85.3721 45.1504ZM77.3721 42.1504V40.1504V52.1504V42.1504Z" fill="#8C8C8C"/>
<path d="M107.679 51.2768V41.4586H109.187V51.2768H107.679ZM108.446 39.8223C108.152 39.8223 107.898 39.7221 107.685 39.5218C107.476 39.3216 107.372 39.0808 107.372 38.7995C107.372 38.5183 107.476 38.2775 107.685 38.0772C107.898 37.877 108.152 37.7768 108.446 37.7768C108.74 37.7768 108.991 37.877 109.2 38.0772C109.413 38.2775 109.52 38.5183 109.52 38.7995C109.52 39.0808 109.413 39.3216 109.2 39.5218C108.991 39.7221 108.74 39.8223 108.446 39.8223Z" fill="#8C8C8C"/>
<path d="M113.459 45.3706V51.2768H111.95V41.4586H113.408V42.9927H113.536C113.766 42.4941 114.115 42.0936 114.584 41.791C115.053 41.4842 115.658 41.3308 116.399 41.3308C117.064 41.3308 117.646 41.4672 118.144 41.7399C118.643 42.0083 119.031 42.4174 119.308 42.9672C119.585 43.5126 119.723 44.2029 119.723 45.0382V51.2768H118.215V45.1404C118.215 44.3691 118.014 43.7683 117.614 43.3379C117.213 42.9032 116.663 42.6859 115.965 42.6859C115.483 42.6859 115.053 42.7903 114.673 42.9991C114.298 43.2079 114.002 43.5126 113.785 43.9132C113.568 44.3137 113.459 44.7995 113.459 45.3706Z" fill="#8C8C8C"/>
<path d="M126.852 41.4586V42.737H121.559V41.4586H126.852ZM123.144 51.2768V40.1035C123.144 39.541 123.277 39.0723 123.541 38.6973C123.805 38.3223 124.148 38.041 124.57 37.8535C124.992 37.666 125.437 37.5723 125.906 37.5723C126.277 37.5723 126.579 37.6021 126.813 37.6618C127.048 37.7214 127.223 37.7768 127.338 37.8279L126.903 39.1319C126.826 39.1064 126.72 39.0744 126.583 39.036C126.451 38.9977 126.277 38.9785 126.059 38.9785C125.561 38.9785 125.201 39.1042 124.979 39.3556C124.762 39.6071 124.653 39.9757 124.653 40.4615V51.2768H123.144Z" fill="#8C8C8C"/>
<path d="M132.55 51.4814C131.664 51.4814 130.886 51.2704 130.217 50.8485C129.552 50.4267 129.033 49.8365 128.658 49.0779C128.287 48.3194 128.101 47.4331 128.101 46.4189C128.101 45.3961 128.287 44.5034 128.658 43.7406C129.033 42.9778 129.552 42.3855 130.217 41.9636C130.886 41.5417 131.664 41.3308 132.55 41.3308C133.437 41.3308 134.212 41.5417 134.877 41.9636C135.546 42.3855 136.066 42.9778 136.437 43.7406C136.812 44.5034 136.999 45.3961 136.999 46.4189C136.999 47.4331 136.812 48.3194 136.437 49.0779C136.066 49.8365 135.546 50.4267 134.877 50.8485C134.212 51.2704 133.437 51.4814 132.55 51.4814ZM132.55 50.1262C133.224 50.1262 133.778 49.9537 134.212 49.6085C134.647 49.2633 134.969 48.8095 135.177 48.247C135.386 47.6845 135.491 47.0751 135.491 46.4189C135.491 45.7626 135.386 45.1511 135.177 44.5843C134.969 44.0176 134.647 43.5595 134.212 43.2101C133.778 42.8606 133.224 42.6859 132.55 42.6859C131.877 42.6859 131.323 42.8606 130.888 43.2101C130.454 43.5595 130.132 44.0176 129.923 44.5843C129.714 45.1511 129.61 45.7626 129.61 46.4189C129.61 47.0751 129.714 47.6845 129.923 48.247C130.132 48.8095 130.454 49.2633 130.888 49.6085C131.323 49.9537 131.877 50.1262 132.55 50.1262Z" fill="#8C8C8C"/>
<path d="M146.845 54.7285C145.541 54.7285 144.388 54.5495 143.386 54.1916C142.385 53.8379 141.543 53.3159 140.862 52.6255C140.18 51.9352 139.664 51.0893 139.315 50.0879C138.965 49.0865 138.791 47.9402 138.791 46.649C138.791 45.4004 138.967 44.2839 139.321 43.2995C139.679 42.3152 140.197 41.4799 140.874 40.7939C141.556 40.1035 142.383 39.5772 143.354 39.215C144.33 38.8528 145.434 38.6717 146.666 38.6717C147.863 38.6717 148.911 38.8677 149.81 39.2598C150.714 39.6476 151.468 40.1738 152.073 40.8386C152.683 41.4991 153.139 42.2427 153.441 43.0694C153.748 43.8961 153.901 44.7484 153.901 45.6262C153.901 46.2441 153.872 46.8706 153.812 47.5055C153.752 48.1404 153.627 48.7243 153.435 49.2569C153.243 49.7853 152.947 50.2115 152.546 50.5353C152.15 50.8592 151.613 51.0211 150.935 51.0211C150.637 51.0211 150.309 50.9743 149.951 50.8805C149.593 50.7868 149.276 50.6312 148.999 50.4139C148.722 50.1966 148.558 49.9047 148.506 49.5382H148.43C148.328 49.7853 148.17 50.0197 147.957 50.2413C147.748 50.4629 147.473 50.6397 147.132 50.7718C146.796 50.9039 146.384 50.9615 145.899 50.9444C145.345 50.9231 144.857 50.7995 144.435 50.5737C144.013 50.3436 143.659 50.0325 143.374 49.6404C143.092 49.2441 142.879 48.786 142.734 48.2662C142.594 47.742 142.524 47.1774 142.524 46.5723C142.524 45.997 142.609 45.4707 142.779 44.9934C142.95 44.5162 143.186 44.0985 143.489 43.7406C143.796 43.3826 144.153 43.0971 144.563 42.8841C144.976 42.6667 145.421 42.5325 145.899 42.4814C146.325 42.4387 146.712 42.4579 147.062 42.5389C147.411 42.6156 147.699 42.7328 147.925 42.8904C148.151 43.0439 148.293 43.2143 148.353 43.4018H148.43V42.6859H149.785V48.4643C149.785 48.8223 149.885 49.1376 150.085 49.4103C150.286 49.6831 150.578 49.8194 150.961 49.8194C151.396 49.8194 151.728 49.6703 151.958 49.372C152.193 49.0737 152.352 48.6135 152.438 47.9913C152.527 47.3691 152.572 46.5723 152.572 45.6007C152.572 45.0297 152.493 44.4672 152.335 43.9132C152.182 43.3549 151.948 42.8329 151.632 42.3471C151.321 41.8613 150.927 41.4331 150.45 41.0623C149.972 40.6916 149.412 40.4018 148.769 40.193C148.129 39.9799 147.403 39.8734 146.589 39.8734C145.587 39.8734 144.69 40.0289 143.898 40.34C143.109 40.6468 142.438 41.0964 141.884 41.6887C141.335 42.2768 140.915 42.9927 140.625 43.8365C140.34 44.676 140.197 45.6305 140.197 46.7001C140.197 47.7868 140.34 48.752 140.625 49.5957C140.915 50.4395 141.341 51.1511 141.903 51.7306C142.47 52.3102 143.171 52.7491 144.006 53.0474C144.842 53.35 145.805 53.5012 146.896 53.5012C147.364 53.5012 147.827 53.4565 148.283 53.367C148.739 53.2775 149.141 53.1795 149.491 53.073C149.84 52.9664 150.092 52.8876 150.245 52.8365L150.603 54.0126C150.339 54.1234 149.994 54.2342 149.568 54.345C149.146 54.4558 148.694 54.5474 148.212 54.6199C147.735 54.6923 147.279 54.7285 146.845 54.7285ZM146.103 49.6404C146.674 49.6404 147.136 49.5254 147.49 49.2953C147.844 49.0652 148.102 48.7179 148.264 48.2534C148.426 47.7889 148.506 47.2029 148.506 46.4956C148.506 45.7797 148.417 45.2214 148.238 44.8208C148.059 44.4203 147.795 44.139 147.445 43.9771C147.096 43.8152 146.666 43.7342 146.154 43.7342C145.668 43.7342 145.253 43.862 144.908 44.1177C144.567 44.3691 144.305 44.7058 144.122 45.1277C143.943 45.5453 143.853 46.0012 143.853 46.4956C143.853 47.041 143.926 47.5545 144.07 48.036C144.215 48.5133 144.452 48.9011 144.78 49.1994C145.108 49.4934 145.549 49.6404 146.103 49.6404Z" fill="#8C8C8C"/>
<path d="M160.276 51.4814C159.33 51.4814 158.514 51.2726 157.828 50.8549C157.146 50.4331 156.62 49.845 156.249 49.0907C155.882 48.3322 155.699 47.4501 155.699 46.4444C155.699 45.4387 155.882 44.5524 156.249 43.7853C156.62 43.014 157.135 42.4132 157.796 41.9828C158.46 41.5481 159.236 41.3308 160.122 41.3308C160.634 41.3308 161.139 41.416 161.637 41.5865C162.136 41.7569 162.59 42.0339 162.999 42.4174C163.408 42.7967 163.734 43.2995 163.977 43.926C164.22 44.5524 164.341 45.3237 164.341 46.2399V46.8791H156.773V45.5751H162.807C162.807 45.0211 162.696 44.5268 162.475 44.0922C162.257 43.6575 161.946 43.3145 161.541 43.063C161.141 42.8116 160.668 42.6859 160.122 42.6859C159.522 42.6859 159.002 42.8351 158.563 43.1333C158.128 43.4274 157.794 43.8109 157.559 44.2839C157.325 44.7569 157.208 45.264 157.208 45.8052V46.6745C157.208 47.416 157.335 48.0446 157.591 48.5602C157.851 49.0716 158.211 49.4615 158.671 49.7299C159.132 49.9941 159.666 50.1262 160.276 50.1262C160.672 50.1262 161.03 50.0708 161.35 49.9601C161.674 49.845 161.953 49.6745 162.187 49.4487C162.421 49.2186 162.603 48.9331 162.73 48.5922L164.188 49.0012C164.034 49.4956 163.777 49.9302 163.414 50.3052C163.052 50.676 162.605 50.9657 162.072 51.1745C161.539 51.3791 160.941 51.4814 160.276 51.4814Z" fill="#8C8C8C"/>
<path d="M168.144 45.3706V51.2768H166.636V41.4586H168.093V42.9927H168.221C168.451 42.4941 168.801 42.0936 169.269 41.791C169.738 41.4842 170.343 41.3308 171.085 41.3308C171.75 41.3308 172.331 41.4672 172.83 41.7399C173.328 42.0083 173.716 42.4174 173.993 42.9672C174.27 43.5126 174.409 44.2029 174.409 45.0382V51.2768H172.9V45.1404C172.9 44.3691 172.7 43.7683 172.299 43.3379C171.899 42.9032 171.349 42.6859 170.65 42.6859C170.169 42.6859 169.738 42.7903 169.359 42.9991C168.984 43.2079 168.688 43.5126 168.47 43.9132C168.253 44.3137 168.144 44.7995 168.144 45.3706Z" fill="#8C8C8C"/>
<path d="M181.154 51.4814C180.267 51.4814 179.49 51.2704 178.821 50.8485C178.156 50.4267 177.636 49.8365 177.261 49.0779C176.89 48.3194 176.705 47.4331 176.705 46.4189C176.705 45.3961 176.89 44.5034 177.261 43.7406C177.636 42.9778 178.156 42.3855 178.821 41.9636C179.49 41.5417 180.267 41.3308 181.154 41.3308C182.04 41.3308 182.816 41.5417 183.481 41.9636C184.15 42.3855 184.669 42.9778 185.04 43.7406C185.415 44.5034 185.603 45.3961 185.603 46.4189C185.603 47.4331 185.415 48.3194 185.04 49.0779C184.669 49.8365 184.15 50.4267 183.481 50.8485C182.816 51.2704 182.04 51.4814 181.154 51.4814ZM181.154 50.1262C181.827 50.1262 182.381 49.9537 182.816 49.6085C183.25 49.2633 183.572 48.8095 183.781 48.247C183.99 47.6845 184.094 47.0751 184.094 46.4189C184.094 45.7626 183.99 45.1511 183.781 44.5843C183.572 44.0176 183.25 43.5595 182.816 43.2101C182.381 42.8606 181.827 42.6859 181.154 42.6859C180.481 42.6859 179.927 42.8606 179.492 43.2101C179.057 43.5595 178.736 44.0176 178.527 44.5843C178.318 45.1511 178.214 45.7626 178.214 46.4189C178.214 47.0751 178.318 47.6845 178.527 48.247C178.736 48.8095 179.057 49.2633 179.492 49.6085C179.927 49.9537 180.481 50.1262 181.154 50.1262Z" fill="#8C8C8C"/>
<path d="M195.582 41.4586L191.952 51.2768H190.418L186.787 41.4586H188.423L191.133 49.2825H191.236L193.946 41.4586H195.582Z" fill="#8C8C8C"/>
<path d="M201.338 51.4814C200.392 51.4814 199.576 51.2726 198.89 50.8549C198.208 50.4331 197.682 49.845 197.311 49.0907C196.945 48.3322 196.762 47.4501 196.762 46.4444C196.762 45.4387 196.945 44.5524 197.311 43.7853C197.682 43.014 198.198 42.4132 198.858 41.9828C199.523 41.5481 200.299 41.3308 201.185 41.3308C201.696 41.3308 202.201 41.416 202.7 41.5865C203.198 41.7569 203.652 42.0339 204.061 42.4174C204.47 42.7967 204.796 43.2995 205.039 43.926C205.282 44.5524 205.404 45.3237 205.404 46.2399V46.8791H197.835V45.5751H203.87C203.87 45.0211 203.759 44.5268 203.537 44.0922C203.32 43.6575 203.009 43.3145 202.604 43.063C202.203 42.8116 201.73 42.6859 201.185 42.6859C200.584 42.6859 200.064 42.8351 199.625 43.1333C199.191 43.4274 198.856 43.8109 198.622 44.2839C198.387 44.7569 198.27 45.264 198.27 45.8052V46.6745C198.27 47.416 198.398 48.0446 198.654 48.5602C198.914 49.0716 199.274 49.4615 199.734 49.7299C200.194 49.9941 200.729 50.1262 201.338 50.1262C201.735 50.1262 202.093 50.0708 202.412 49.9601C202.736 49.845 203.015 49.6745 203.25 49.4487C203.484 49.2186 203.665 48.9331 203.793 48.5922L205.25 49.0012C205.097 49.4956 204.839 49.9302 204.477 50.3052C204.115 50.676 203.667 50.9657 203.134 51.1745C202.602 51.3791 202.003 51.4814 201.338 51.4814Z" fill="#8C8C8C"/>
<path d="M207.698 51.2768V41.4586H209.156V42.9416H209.258C209.437 42.4558 209.761 42.0616 210.23 41.7591C210.698 41.4565 211.227 41.3052 211.815 41.3052C211.926 41.3052 212.064 41.3074 212.23 41.3116C212.397 41.3159 212.522 41.3223 212.608 41.3308V42.8649C212.556 42.8521 212.439 42.8329 212.256 42.8074C212.077 42.7775 211.887 42.7626 211.687 42.7626C211.21 42.7626 210.784 42.8627 210.409 43.063C210.038 43.2591 209.744 43.5318 209.527 43.8812C209.313 44.2264 209.207 44.6206 209.207 45.0637V51.2768H207.698Z" fill="#8C8C8C"/>
<path d="M215.904 38.1859V51.2768H214.396V38.1859H215.904Z" fill="#8C8C8C"/>
<path d="M221.556 51.5069C220.934 51.5069 220.37 51.3897 219.862 51.1554C219.355 50.9167 218.953 50.5737 218.654 50.1262C218.356 49.6745 218.207 49.1291 218.207 48.4899C218.207 47.9274 218.318 47.4714 218.539 47.122C218.761 46.7683 219.057 46.4913 219.428 46.291C219.799 46.0907 220.208 45.9416 220.655 45.8436C221.107 45.7413 221.561 45.6603 222.017 45.6007C222.613 45.524 223.097 45.4664 223.468 45.4281C223.843 45.3855 224.115 45.3152 224.286 45.2172C224.46 45.1191 224.548 44.9487 224.548 44.7058V44.6547C224.548 44.024 224.375 43.5339 224.03 43.1845C223.689 42.8351 223.171 42.6603 222.477 42.6603C221.757 42.6603 221.192 42.818 220.783 43.1333C220.374 43.4487 220.086 43.7853 219.92 44.1433L218.488 43.6319C218.744 43.0353 219.085 42.5708 219.511 42.2385C219.941 41.9018 220.41 41.6674 220.917 41.5353C221.429 41.399 221.931 41.3308 222.426 41.3308C222.741 41.3308 223.103 41.3691 223.512 41.4458C223.926 41.5183 224.324 41.6696 224.708 41.8997C225.095 42.1298 225.417 42.4771 225.673 42.9416C225.929 43.4061 226.056 44.0282 226.056 44.8081V51.2768H224.548V49.9473H224.471C224.369 50.1603 224.198 50.3883 223.96 50.6312C223.721 50.8741 223.404 51.0808 223.007 51.2512C222.611 51.4217 222.127 51.5069 221.556 51.5069ZM221.786 50.1518C222.383 50.1518 222.886 50.0346 223.295 49.8002C223.708 49.5659 224.019 49.2633 224.228 48.8926C224.441 48.5218 224.548 48.1319 224.548 47.7228V46.3422C224.484 46.4189 224.343 46.4892 224.126 46.5531C223.913 46.6127 223.666 46.666 223.384 46.7129C223.108 46.7555 222.837 46.7939 222.573 46.8279C222.313 46.8578 222.102 46.8833 221.94 46.9047C221.548 46.9558 221.181 47.0389 220.84 47.1539C220.504 47.2647 220.231 47.4331 220.022 47.6589C219.818 47.8805 219.715 48.1831 219.715 48.5666C219.715 49.0907 219.909 49.487 220.297 49.7555C220.689 50.0197 221.186 50.1518 221.786 50.1518Z" fill="#8C8C8C"/>
<path d="M229.014 51.2768V38.1859H230.523V43.0183H230.651C230.761 42.8478 230.915 42.6305 231.111 42.3663C231.311 42.0978 231.597 41.8592 231.967 41.6504C232.342 41.4373 232.85 41.3308 233.489 41.3308C234.315 41.3308 235.044 41.5375 235.675 41.9508C236.305 42.3642 236.798 42.9501 237.151 43.7086C237.505 44.4672 237.682 45.362 237.682 46.3933C237.682 47.4331 237.505 48.3343 237.151 49.0971C236.798 49.8556 236.308 50.4437 235.681 50.8613C235.055 51.2747 234.332 51.4814 233.514 51.4814C232.884 51.4814 232.379 51.377 231.999 51.1681C231.62 50.9551 231.328 50.7143 231.124 50.4458C230.919 50.1731 230.761 49.9473 230.651 49.7683H230.472V51.2768H229.014ZM230.497 46.3677C230.497 47.1092 230.606 47.7633 230.823 48.3301C231.041 48.8926 231.358 49.3336 231.776 49.6532C232.193 49.9686 232.705 50.1262 233.31 50.1262C233.94 50.1262 234.467 49.9601 234.889 49.6277C235.315 49.291 235.634 48.8393 235.847 48.2726C236.065 47.7015 236.173 47.0666 236.173 46.3677C236.173 45.6774 236.067 45.0552 235.854 44.5012C235.645 43.943 235.328 43.502 234.901 43.1781C234.479 42.85 233.949 42.6859 233.31 42.6859C232.696 42.6859 232.18 42.8414 231.763 43.1525C231.345 43.4593 231.03 43.8897 230.817 44.4437C230.604 44.9934 230.497 45.6348 230.497 46.3677Z" fill="#8C8C8C"/>
<path d="M241.089 51.3791C240.774 51.3791 240.503 51.2662 240.277 51.0403C240.051 50.8145 239.938 50.5439 239.938 50.2285C239.938 49.9132 240.051 49.6426 240.277 49.4167C240.503 49.1909 240.774 49.0779 241.089 49.0779C241.404 49.0779 241.675 49.1909 241.901 49.4167C242.126 49.6426 242.239 49.9132 242.239 50.2285C242.239 50.4373 242.186 50.6291 242.08 50.8038C241.977 50.9785 241.839 51.1191 241.664 51.2257C241.494 51.3279 241.302 51.3791 241.089 51.3791Z" fill="#8C8C8C"/>
<path d="M248.935 51.4814C248.015 51.4814 247.222 51.264 246.557 50.8294C245.892 50.3947 245.381 49.796 245.023 49.0332C244.665 48.2704 244.486 47.399 244.486 46.4189C244.486 45.4217 244.669 44.5417 245.036 43.7789C245.407 43.0119 245.922 42.4132 246.583 41.9828C247.248 41.5481 248.023 41.3308 248.91 41.3308C249.6 41.3308 250.222 41.4586 250.776 41.7143C251.33 41.97 251.784 42.3279 252.138 42.7882C252.491 43.2484 252.711 43.7853 252.796 44.399H251.287C251.172 43.9515 250.917 43.5552 250.52 43.2101C250.128 42.8606 249.6 42.6859 248.935 42.6859C248.347 42.6859 247.831 42.8393 247.388 43.1461C246.949 43.4487 246.606 43.877 246.359 44.4309C246.116 44.9806 245.995 45.6262 245.995 46.3677C245.995 47.1262 246.114 47.7868 246.353 48.3493C246.596 48.9118 246.937 49.3485 247.375 49.6596C247.819 49.9707 248.339 50.1262 248.935 50.1262C249.327 50.1262 249.683 50.0581 250.003 49.9217C250.322 49.7853 250.593 49.5893 250.814 49.3336C251.036 49.0779 251.194 48.7711 251.287 48.4132H252.796C252.711 48.9927 252.5 49.5147 252.163 49.9792C251.831 50.4395 251.39 50.8059 250.84 51.0787C250.294 51.3471 249.66 51.4814 248.935 51.4814Z" fill="#8C8C8C"/>
<path d="M258.99 51.4814C258.103 51.4814 257.326 51.2704 256.657 50.8485C255.992 50.4267 255.472 49.8365 255.097 49.0779C254.726 48.3194 254.541 47.4331 254.541 46.4189C254.541 45.3961 254.726 44.5034 255.097 43.7406C255.472 42.9778 255.992 42.3855 256.657 41.9636C257.326 41.5417 258.103 41.3308 258.99 41.3308C259.876 41.3308 260.652 41.5417 261.316 41.9636C261.986 42.3855 262.505 42.9778 262.876 43.7406C263.251 44.5034 263.439 45.3961 263.439 46.4189C263.439 47.4331 263.251 48.3194 262.876 49.0779C262.505 49.8365 261.986 50.4267 261.316 50.8485C260.652 51.2704 259.876 51.4814 258.99 51.4814ZM258.99 50.1262C259.663 50.1262 260.217 49.9537 260.652 49.6085C261.086 49.2633 261.408 48.8095 261.617 48.247C261.826 47.6845 261.93 47.0751 261.93 46.4189C261.93 45.7626 261.826 45.1511 261.617 44.5843C261.408 44.0176 261.086 43.5595 260.652 43.2101C260.217 42.8606 259.663 42.6859 258.99 42.6859C258.316 42.6859 257.763 42.8606 257.328 43.2101C256.893 43.5595 256.571 44.0176 256.363 44.5843C256.154 45.1511 256.049 45.7626 256.049 46.4189C256.049 47.0751 256.154 47.6845 256.363 48.247C256.571 48.8095 256.893 49.2633 257.328 49.6085C257.763 49.9537 258.316 50.1262 258.99 50.1262Z" fill="#8C8C8C"/>
<path d="M265.741 51.2768V41.4586H267.199V42.9927H267.327C267.531 42.4686 267.861 42.0616 268.317 41.7718C268.773 41.4778 269.321 41.3308 269.96 41.3308C270.608 41.3308 271.147 41.4778 271.577 41.7718C272.012 42.0616 272.351 42.4686 272.594 42.9927H272.696C272.947 42.4856 273.324 42.0829 273.827 41.7846C274.33 41.4821 274.933 41.3308 275.636 41.3308C276.514 41.3308 277.232 41.6056 277.79 42.1554C278.349 42.7008 278.628 43.551 278.628 44.7058V51.2768H277.119V44.7058C277.119 43.9814 276.921 43.4636 276.525 43.1525C276.128 42.8414 275.662 42.6859 275.125 42.6859C274.435 42.6859 273.9 42.8947 273.521 43.3123C273.141 43.7257 272.952 44.2498 272.952 44.8848V51.2768H271.418V44.5524C271.418 43.9941 271.236 43.5446 270.874 43.2037C270.512 42.8585 270.045 42.6859 269.474 42.6859C269.082 42.6859 268.716 42.7903 268.375 42.9991C268.038 43.2079 267.766 43.4977 267.557 43.8684C267.352 44.2349 267.25 44.6589 267.25 45.1404V51.2768H265.741Z" fill="#8C8C8C"/>
<defs>
<clipPath id="clip0_737_1655">
<rect width="21" height="21" fill="white" transform="translate(30.0444 1.65039)"/>
</clipPath>
</defs>
</svg>
