<svg width="50" height="50" viewBox="0 0 50 50" fill="none" xmlns="http://www.w3.org/2000/svg">
<g clip-path="url(#clip0_737_1766)">
<path d="M0 25.0195C0 18.3891 2.63392 12.0303 7.32233 7.34186C12.0107 2.65345 18.3696 0.0195313 25 0.0195312C31.6304 0.0195313 37.9893 2.65345 42.6777 7.34186C47.3661 12.0303 50 18.3891 50 25.0195C50 31.6499 47.3661 38.0088 42.6777 42.6972C37.9893 47.3856 31.6304 50.0195 25 50.0195C18.3696 50.0195 12.0107 47.3856 7.32233 42.6972C2.63392 38.0088 0 31.6499 0 25.0195ZM25 4.70703C19.6128 4.70703 14.4462 6.84709 10.6369 10.6564C6.82756 14.4658 4.6875 19.6323 4.6875 25.0195C4.6875 30.4067 6.82756 35.5733 10.6369 39.3826C14.4462 43.192 19.6128 45.332 25 45.332C30.3872 45.332 35.5538 43.192 39.3631 39.3826C43.1724 35.5733 45.3125 30.4067 45.3125 25.0195C45.3125 19.6323 43.1724 14.4658 39.3631 10.6564C35.5538 6.84709 30.3872 4.70703 25 4.70703ZM21.625 19.0352C21.3474 19.5913 20.8633 20.0143 20.2737 20.2112C19.6841 20.4082 19.0405 20.3628 18.4844 20.0852C17.9282 19.8075 17.5052 19.3203 17.3083 18.7307C17.1114 18.1412 17.1567 17.4975 17.4344 16.9414C17.9625 15.882 18.7969 14.7508 20.0875 13.8883C21.3906 13.0195 23.0281 12.5195 25 12.5195C26.8364 12.5079 28.6286 13.0826 30.1156 14.1602C31.6875 15.3383 32.8125 17.1758 32.8125 19.5508C32.8125 20.9508 32.4531 22.1445 31.7844 23.1445C31.1437 24.1039 30.3156 24.7477 29.6219 25.2133C29.2812 25.4383 28.9344 25.6445 28.6438 25.8227L28.625 25.8352C28.35 25.9949 28.079 26.1616 27.8125 26.3352C27.48 26.5346 27.1875 26.7943 26.95 27.1008C26.602 27.6105 26.0671 27.9624 25.4613 28.0801C24.8555 28.1978 24.2277 28.0718 23.7142 27.7295C23.2007 27.3871 22.843 26.8561 22.7186 26.2516C22.5943 25.6471 22.7133 25.018 23.05 24.5008C23.625 23.6758 24.3625 22.9727 25.2125 22.4352C25.5333 22.2268 25.8594 22.0237 26.1906 21.8258L26.2125 21.8133C26.525 21.6227 26.7812 21.4695 27.0187 21.3102C27.3524 21.111 27.6459 20.8513 27.8844 20.5445C28 20.3758 28.125 20.1039 28.125 19.5508C28.1374 19.2305 28.0689 18.9123 27.9258 18.6256C27.7827 18.3388 27.5696 18.0927 27.3062 17.9102C26.629 17.4423 25.8231 17.1966 25 17.207C23.8469 17.207 23.1406 17.4883 22.6875 17.7914C22.2292 18.1043 21.8625 18.5336 21.625 19.0352ZM28.125 34.3945C28.125 35.2233 27.7958 36.0182 27.2097 36.6042C26.6237 37.1903 25.8288 37.5195 25 37.5195C24.1712 37.5195 23.3763 37.1903 22.7903 36.6042C22.2042 36.0182 21.875 35.2233 21.875 34.3945C21.875 33.5657 22.2042 32.7709 22.7903 32.1848C23.3763 31.5988 24.1712 31.2695 25 31.2695C25.8288 31.2695 26.6237 31.5988 27.2097 32.1848C27.7958 32.7709 28.125 33.5657 28.125 34.3945Z" fill="#303030"/>
</g>
<defs>
<clipPath id="clip0_737_1766">
<rect width="50" height="50" fill="white" transform="translate(0 0.00390625)"/>
</clipPath>
</defs>
</svg>
