<svg width="198" height="35" viewBox="0 0 198 35" fill="none" xmlns="http://www.w3.org/2000/svg">
<g clip-path="url(#clip0_3254_8535)">
<path d="M42.9125 16.8634H48.5684C48.5262 16.0841 48.0626 15.5365 47.1781 15.2206C46.2931 14.8836 45.3875 14.8731 44.4608 15.189C43.5551 15.5049 43.039 16.0631 42.9125 16.8634ZM45.6931 10.766C48.5576 10.766 50.78 11.6611 52.3597 13.4514C53.9609 15.2206 54.4348 17.6005 53.7818 20.5913H42.8809C43.0705 21.2232 43.5129 21.7181 44.2081 22.0762C44.9032 22.4132 45.6191 22.5817 46.3564 22.5817C47.9154 22.5817 49.2528 22.1604 50.3693 21.318L53.2128 24.5088C51.3593 26.2359 48.9894 27.0994 46.1037 27.0994C43.4497 27.0994 41.2694 26.4254 39.5632 25.0775C37.857 23.7085 37.0039 21.676 37.0039 18.9801C37.0039 16.3263 37.8675 14.2939 39.5948 12.8827C41.3221 11.4716 43.355 10.766 45.6931 10.766ZM73.2405 26.7519H67.4266V18.1271C67.4266 17.2425 67.2157 16.5896 66.7947 16.1684C66.3733 15.7471 65.8572 15.5365 65.2465 15.5365C64.488 15.5365 63.8454 15.7998 63.319 16.3263C62.8132 16.8318 62.5605 17.569 62.5605 18.5378V26.7519H56.8099V11.1452H61.9605L62.2132 12.8511C63.4348 11.419 65.0777 10.7239 67.1421 10.766C68.9749 10.7871 70.4491 11.3663 71.5657 12.5036C72.6822 13.641 73.2405 15.5049 73.2405 18.0955V26.7519ZM84.8386 10.7976C87.345 10.7976 89.4515 11.4926 91.1578 12.8827C92.8851 14.2728 93.7486 16.3053 93.7486 18.9801C93.7486 21.6339 92.864 23.6558 91.0945 25.0459C89.3465 26.4359 87.261 27.131 84.8386 27.131C83.6798 27.131 82.574 26.973 81.5208 26.6571C80.4886 26.3201 79.5515 25.8357 78.7087 25.2039C77.8664 24.572 77.1923 23.719 76.6866 22.6449C76.1812 21.5707 75.9281 20.3491 75.9281 18.9801C75.9281 17.1477 76.3599 15.5997 77.2237 14.336C78.1083 13.0512 79.2037 12.1456 80.5097 11.619C81.8156 11.0714 83.2589 10.7976 84.8386 10.7976ZM84.8386 22.3605C85.8075 22.3605 86.587 22.0446 87.1767 21.4127C87.7664 20.7598 88.0612 19.949 88.0612 18.9801C88.0612 18.0323 87.7664 17.232 87.1767 16.5791C86.6081 15.9051 85.8286 15.5681 84.8386 15.5681C83.8486 15.5681 83.0587 15.9051 82.4686 16.5791C81.9 17.232 81.6155 18.0323 81.6155 18.9801C81.6155 19.9279 81.9 20.7282 82.4686 21.3811C83.0587 22.0341 83.8486 22.3605 84.8386 22.3605ZM100.338 11.1452L102.044 15.5049L103.719 20.5598L105.298 15.5049L106.973 11.1452H113.134L106.689 26.8467H100.907L94.1764 11.1452H100.338ZM119.619 16.8634H125.275C125.233 16.0841 124.77 15.5365 123.885 15.2206C123 14.8836 122.094 14.8731 121.168 15.189C120.262 15.5049 119.746 16.0631 119.619 16.8634ZM122.4 10.766C125.265 10.766 127.487 11.6611 129.067 13.4514C130.668 15.2206 131.142 17.6005 130.489 20.5913H119.588C119.777 21.2232 120.22 21.7181 120.915 22.0762C121.61 22.4132 122.326 22.5817 123.063 22.5817C124.622 22.5817 125.96 22.1604 127.076 21.318L129.92 24.5088C128.066 26.2359 125.697 27.0994 122.811 27.0994C120.157 27.0994 117.976 26.4254 116.27 25.0775C114.564 23.7085 113.711 21.676 113.711 18.9801C113.711 16.3263 114.575 14.2939 116.302 12.8827C118.029 11.4716 120.062 10.766 122.4 10.766ZM133.517 11.1452H138.731L139.078 12.8511C139.858 11.4611 141.121 10.766 142.87 10.766C144.555 10.766 145.924 11.3241 146.977 12.4404L144.639 16.6423C143.86 16.0104 142.986 15.6945 142.017 15.6945C141.237 15.6945 140.595 15.9472 140.089 16.4527C139.584 16.9371 139.331 17.6637 139.331 18.6326V26.7519H133.517V11.1452ZM148.737 4.60547H154.487V26.7519H148.737V4.60547ZM169.528 12.8195L169.813 11.1452H175.279V26.7519H169.908L169.655 25.0775C169.023 25.7936 168.243 26.3096 167.317 26.6255C166.39 26.9414 165.453 27.0783 164.504 27.0362C162.251 26.8888 160.492 26.0885 159.228 24.6352C157.985 23.1608 157.364 21.2653 157.364 18.9485C157.364 16.6107 158.059 14.673 159.449 13.1355C160.86 11.5769 162.693 10.7976 164.947 10.7976C167.117 10.7976 168.644 11.4716 169.528 12.8195ZM166.274 15.5049C165.368 15.5049 164.621 15.8208 164.03 16.4527C163.441 17.0635 163.146 17.8954 163.146 18.9485C163.146 20.0016 163.441 20.8335 164.03 21.4443C164.621 22.0551 165.368 22.3605 166.274 22.3605C167.222 22.3605 167.991 22.0341 168.581 21.3811C169.191 20.7072 169.497 19.8963 169.497 18.9485C169.497 17.8954 169.212 17.0635 168.644 16.4527C168.075 15.8208 167.285 15.5049 166.274 15.5049ZM184.835 4.63706V12.472C185.741 11.3557 187.183 10.7976 189.164 10.7976C191.418 10.7976 193.24 11.5558 194.63 13.0723C196.041 14.5888 196.747 16.5475 196.747 18.9485C196.747 21.4127 196.125 23.3399 194.883 24.73C193.661 26.12 191.902 26.8888 189.606 27.0362C188.658 27.0783 187.721 26.9414 186.794 26.6255C185.867 26.3096 185.088 25.7936 184.456 25.0775L184.203 26.7519H179.021V4.63706H184.835ZM187.836 15.5049C186.846 15.5049 186.078 15.8524 185.53 16.5475C184.982 17.2425 184.708 18.0955 184.708 19.1065C184.708 19.97 184.993 20.7282 185.562 21.3811C186.151 22.0341 186.91 22.3605 187.836 22.3605C188.743 22.3605 189.49 22.0551 190.08 21.4443C190.67 20.8335 190.965 20.0016 190.965 18.9485C190.965 17.8954 190.67 17.0635 190.08 16.4527C189.49 15.8208 188.743 15.5049 187.836 15.5049Z" fill="#0046FF"/>
<path d="M42.9246 16.8637L42.712 16.8302C42.7022 16.8924 42.72 16.9557 42.7609 17.0035C42.8018 17.0514 42.8616 17.0789 42.9246 17.0789V16.8637ZM48.5805 16.8637V17.0789C48.6395 17.0789 48.6958 17.0547 48.7367 17.0117C48.7772 16.9688 48.7983 16.9111 48.7953 16.8521L48.5805 16.8637ZM47.1902 15.2209L47.1136 15.4221L47.1179 15.4236L47.1902 15.2209ZM44.4728 15.1893L44.4035 14.9857L44.4018 14.9862L44.4728 15.1893ZM52.3718 13.4517L52.2108 13.5941L52.2125 13.5961L52.3718 13.4517ZM53.7939 20.5917V20.8069C53.8951 20.8069 53.9824 20.7364 54.004 20.6376L53.7939 20.5917ZM42.893 20.5917V20.3765C42.8249 20.3765 42.7609 20.4086 42.7203 20.4632C42.6797 20.5178 42.6673 20.5883 42.6868 20.6535L42.893 20.5917ZM44.2202 22.0765L44.1216 22.2679L44.1259 22.2702L44.2202 22.0765ZM50.3814 21.3183L50.542 21.1752C50.4675 21.0915 50.341 21.0791 50.2519 21.1465L50.3814 21.3183ZM53.2249 24.5091L53.3717 24.6666C53.4573 24.5869 53.4638 24.4533 53.3859 24.366L53.2249 24.5091ZM39.5753 25.0778L39.4406 25.2456L39.4419 25.2467L39.5753 25.0778ZM39.6069 12.8831L39.7431 13.0497L39.6069 12.8831ZM42.9246 17.0789H48.5805V16.6486H42.9246V17.0789ZM48.7953 16.8521C48.772 16.42 48.6304 16.0424 48.3657 15.7296C48.1027 15.4192 47.7299 15.1852 47.2625 15.0183L47.1179 15.4236C47.535 15.5726 47.8363 15.7704 48.0368 16.0076C48.2357 16.2424 48.3468 16.5282 48.3653 16.8754L48.7953 16.8521ZM47.2668 15.0198C46.3332 14.6643 45.3759 14.6541 44.4035 14.9857L44.5421 15.393C45.4232 15.0927 46.2772 15.1036 47.1136 15.422L47.2668 15.0198ZM44.4018 14.9862C43.4377 15.3224 42.8533 15.9356 42.712 16.8302L43.1372 16.8973C43.2487 16.1912 43.6963 15.6881 44.5439 15.3925L44.4018 14.9862ZM45.7052 10.9816C48.5215 10.9816 50.6797 11.8594 52.2108 13.5941L52.5332 13.3094C50.9044 11.4636 48.6179 10.5512 45.7052 10.5512V10.9816ZM52.2125 13.5961C53.7539 15.2995 54.2265 17.6016 53.5834 20.5458L54.004 20.6376C54.6673 17.6003 54.1921 15.1424 52.5314 13.3074L52.2125 13.5961ZM53.7939 20.3765H42.893V20.8069H53.7939V20.3765ZM42.6868 20.6535C42.8963 21.3516 43.3847 21.8884 44.1216 22.2678L44.3188 21.8852C43.6649 21.5486 43.2689 21.0954 43.0989 20.5298L42.6868 20.6535ZM44.1259 22.2702C44.849 22.6206 45.5971 22.7972 46.3685 22.7972V22.3668C45.6656 22.3668 44.9812 22.2064 44.314 21.8829L44.1259 22.2702ZM46.3685 22.7972C47.9684 22.7972 49.3531 22.364 50.511 21.4901L50.2519 21.1465C49.1771 21.9576 47.8862 22.3668 46.3685 22.3668V22.7972ZM50.2209 21.4614L53.0643 24.6523L53.3859 24.366L50.542 21.1752L50.2209 21.4614ZM53.0785 24.3517C51.2703 26.0365 48.9554 26.8846 46.1158 26.8846V27.315C49.0479 27.315 51.4726 26.436 53.3717 24.6666L53.0785 24.3517ZM46.1158 26.8846C43.4992 26.8846 41.3692 26.2208 39.7088 24.909L39.4419 25.2467C41.1939 26.6308 43.4243 27.315 46.1158 27.315V26.8846ZM39.71 24.91C38.0664 23.5912 37.2312 21.6278 37.2312 18.9804H36.8008C36.8008 21.7249 37.6718 23.8264 39.4406 25.2456L39.71 24.91ZM37.2312 18.9804C37.2312 16.3777 38.0755 14.4121 39.7431 13.0497L39.4707 12.7164C37.6838 14.1764 36.8008 16.2757 36.8008 18.9804H37.2312ZM39.7431 13.0497C41.43 11.6716 43.414 10.9816 45.7052 10.9816V10.5512C43.3197 10.5512 41.2384 11.2723 39.4707 12.7164L39.7431 13.0497ZM73.2526 26.7522V26.9674C73.3714 26.9674 73.4678 26.8711 73.4678 26.7522H73.2526ZM67.4387 26.7522H67.2235C67.2235 26.8711 67.3199 26.9674 67.4387 26.9674V26.7522ZM66.8068 16.1687L66.6544 16.3209L66.8068 16.1687ZM63.3311 16.3267L63.4834 16.4789L63.3311 16.3267ZM62.5726 26.7522V26.9674C62.6914 26.9674 62.7878 26.8711 62.7878 26.7522H62.5726ZM56.822 26.7522H56.6068C56.6068 26.8711 56.7032 26.9674 56.822 26.9674V26.7522ZM56.822 11.1455V10.9303C56.7032 10.9303 56.6068 11.0266 56.6068 11.1455H56.822ZM61.9726 11.1455L62.1852 11.114C62.1697 11.0084 62.0789 10.9303 61.9726 10.9303V11.1455ZM62.2253 12.8515L62.0122 12.883C62.0247 12.9665 62.0845 13.035 62.1659 13.0583C62.2468 13.0816 62.3342 13.0554 62.3888 12.9911L62.2253 12.8515ZM67.1542 10.7664L67.1499 10.9815L67.1516 10.9816L67.1542 10.7664ZM71.5777 12.504L71.7314 12.3532L71.5777 12.504ZM73.2526 26.537H67.4387V26.9674H73.2526V26.537ZM67.6539 26.7522V18.1275H67.2235V26.7522H67.6539ZM67.6539 18.1275C67.6539 17.2133 67.4365 16.4941 66.9588 16.0165L66.6544 16.3209C67.0195 16.6858 67.2235 17.2725 67.2235 18.1275H67.6539ZM66.9588 16.0165C66.496 15.5538 65.9249 15.3216 65.2585 15.3216V15.752C65.8138 15.752 66.2748 15.9411 66.6544 16.3209L66.9588 16.0165ZM65.2585 15.3216C64.4442 15.3216 63.7469 15.6068 63.1787 16.1745L63.4834 16.4789C63.9685 15.9935 64.5561 15.752 65.2585 15.752V15.3216ZM63.1787 16.1745C62.6204 16.733 62.3574 17.5331 62.3574 18.5381H62.7878C62.7878 17.6055 63.0306 16.9313 63.4834 16.4789L63.1787 16.1745ZM62.3574 18.5381V26.7522H62.7878V18.5381H62.3574ZM62.5726 26.537H56.822V26.9674H62.5726V26.537ZM57.0372 26.7522V11.1455H56.6068V26.7522H57.0372ZM56.822 11.3607H61.9726V10.9303H56.822V11.3607ZM61.7595 11.177L62.0122 12.883L62.4379 12.8199L62.1852 11.114L61.7595 11.177ZM62.3888 12.9911C63.5644 11.6132 65.1432 10.9406 67.1499 10.9815L67.1585 10.5512C65.0369 10.5079 63.3293 11.2254 62.0613 12.7118L62.3888 12.9911ZM67.1516 10.9816C68.9366 11.0021 70.3536 11.5641 71.4241 12.6547L71.7314 12.3532C70.5692 11.1691 69.0369 10.5728 67.1568 10.5512L67.1516 10.9816ZM71.4241 12.6547C72.4825 13.7329 73.0374 15.528 73.0374 18.0959H73.4678C73.4678 15.4825 72.9056 13.5497 71.7314 12.3532L71.4241 12.6547ZM73.0374 18.0959V26.7522H73.4678V18.0959H73.0374ZM91.1699 12.8831L91.0338 13.0499L91.0351 13.0507L91.1699 12.8831ZM91.1066 25.0462L90.9736 24.877L90.9727 24.8778L91.1066 25.0462ZM81.5328 26.6575L81.4661 26.8621L81.4713 26.8636L81.5328 26.6575ZM76.6986 22.6452L76.8932 22.5536L76.6986 22.6452ZM77.2358 14.3363L77.0585 14.2143L77.058 14.2149L77.2358 14.3363ZM80.5218 11.6194L80.6022 11.819L80.6053 11.8178L80.5218 11.6194ZM87.1888 21.4131L87.3463 21.5599L87.3484 21.5573L87.1888 21.4131ZM87.1888 16.5794L87.0243 16.7182C87.0256 16.72 87.0273 16.7218 87.0291 16.7237L87.1888 16.5794ZM82.4807 16.5794L82.3188 16.4377L82.3184 16.4381L82.4807 16.5794ZM82.4807 21.3815L82.3184 21.5229L82.321 21.5257L82.4807 21.3815ZM84.8506 11.0132C87.3149 11.0132 89.3715 11.6954 91.0338 13.0499L91.3059 12.7163C89.5561 11.2906 87.3997 10.5828 84.8506 10.5828V11.0132ZM91.0351 13.0507C92.7009 14.3914 93.5454 16.3559 93.5454 18.9804H93.9758C93.9758 16.2554 93.0935 14.1549 91.305 12.7154L91.0351 13.0507ZM93.5454 18.9804C93.5454 21.5815 92.6815 23.5353 90.9736 24.877L91.2396 25.2154C93.0706 23.777 93.9758 21.687 93.9758 18.9804H93.5454ZM90.9727 24.8778C89.2656 26.235 87.2288 26.9162 84.8506 26.9162V27.3465C87.3175 27.3465 89.4511 26.6376 91.2409 25.2147L90.9727 24.8778ZM84.8506 26.9162C83.7117 26.9162 82.627 26.7609 81.5948 26.4514L81.4713 26.8636C82.5452 27.1858 83.6721 27.3465 84.8506 27.3465V26.9162ZM81.5996 26.4529C80.5893 26.123 79.6729 25.6493 78.8499 25.032L78.5917 25.3764C79.4538 26.0228 80.4124 26.5179 81.4661 26.862L81.5996 26.4529ZM78.8499 25.032C78.039 24.4238 77.386 23.6 76.8932 22.5536L76.5041 22.7368C77.0223 23.8386 77.7175 24.7208 78.5917 25.3764L78.8499 25.032ZM76.8932 22.5536C76.4034 21.5121 76.1554 20.3226 76.1554 18.9804H75.725C75.725 20.3763 75.9828 21.6299 76.5041 22.7368L76.8932 22.5536ZM76.1554 18.9804C76.1554 17.1827 76.579 15.6791 77.4136 14.4577L77.058 14.2149C76.1653 15.521 75.725 17.1134 75.725 18.9804H76.1554ZM77.4132 14.4584C78.2766 13.2045 79.3398 12.328 80.6022 11.819L80.4413 11.4198C79.0919 11.9638 77.9645 12.8987 77.0585 14.2143L77.4132 14.4584ZM80.6053 11.8178C81.8819 11.2825 83.2959 11.0132 84.8506 11.0132V10.5828C83.2455 10.5828 81.7739 10.8611 80.4387 11.4209L80.6053 11.8178ZM84.8506 22.576C85.8712 22.576 86.7105 22.2409 87.3459 21.5599L87.0312 21.2663C86.4876 21.849 85.7679 22.1457 84.8506 22.1457V22.576ZM87.3484 21.5573C87.9777 20.8607 88.2885 19.9967 88.2885 18.9804H87.8581C87.8581 19.9018 87.5792 20.6596 87.0291 21.2689L87.3484 21.5573ZM88.2885 18.9804C88.2885 17.9838 87.9769 17.1308 87.3484 16.4352L87.0291 16.7237C87.58 17.3338 87.8581 18.0815 87.8581 18.9804H88.2885ZM87.3532 16.4406C86.7381 15.7119 85.8953 15.3533 84.8506 15.3533V15.7837C85.786 15.7837 86.5018 16.099 87.0243 16.7182L87.3532 16.4406ZM84.8506 15.3533C83.806 15.3533 82.9541 15.7118 82.3188 16.4377L82.6429 16.7211C83.187 16.0991 83.9153 15.7837 84.8506 15.7837V15.3533ZM82.3184 16.4381C81.7123 17.134 81.4123 17.986 81.4123 18.9804H81.8428C81.8428 18.0793 82.1118 17.3307 82.6429 16.7207L82.3184 16.4381ZM81.4123 18.9804C81.4123 19.9749 81.7123 20.8269 82.3184 21.5228L82.6429 21.2401C82.1118 20.6303 81.8428 19.8816 81.8428 18.9804H81.4123ZM82.321 21.5257C82.9571 22.2297 83.8081 22.576 84.8506 22.576V22.1457C83.9132 22.1457 83.184 21.8391 82.6404 21.2373L82.321 21.5257ZM100.35 11.1455L100.55 11.0671C100.518 10.9846 100.438 10.9303 100.35 10.9303V11.1455ZM102.056 15.5052L102.26 15.4376C102.259 15.434 102.258 15.4304 102.257 15.4268L102.056 15.5052ZM103.731 20.5601L103.526 20.6278C103.556 20.7165 103.639 20.7761 103.733 20.7752C103.826 20.7745 103.908 20.7134 103.936 20.6243L103.731 20.5601ZM105.31 15.5052L105.11 15.4281C105.108 15.4324 105.106 15.4367 105.105 15.4411L105.31 15.5052ZM106.985 11.1455V10.9303C106.896 10.9303 106.816 10.9852 106.784 11.0683L106.985 11.1455ZM113.147 11.1455L113.346 11.2272C113.373 11.1608 113.365 11.0852 113.325 11.0256C113.286 10.9661 113.218 10.9303 113.147 10.9303V11.1455ZM106.701 26.847V27.0622C106.788 27.0622 106.867 27.0095 106.9 26.9287L106.701 26.847ZM100.919 26.847L100.721 26.9318C100.755 27.0109 100.833 27.0622 100.919 27.0622V26.847ZM94.1885 11.1455V10.9303C94.1162 10.9303 94.0486 10.9666 94.009 11.027C93.969 11.0874 93.9625 11.1637 93.9909 11.2302L94.1885 11.1455ZM100.15 11.2239L101.856 15.5837L102.257 15.4268L100.55 11.0671L100.15 11.2239ZM101.852 15.5729L103.526 20.6278L103.935 20.4924L102.26 15.4376L101.852 15.5729ZM103.936 20.6243L105.516 15.5695L105.105 15.4411L103.525 20.4959L103.936 20.6243ZM105.512 15.5824L107.186 11.2226L106.784 11.0683L105.11 15.4281L105.512 15.5824ZM106.985 11.3607H113.147V10.9303H106.985V11.3607ZM112.948 11.0638L106.502 26.7653L106.9 26.9287L113.346 11.2272L112.948 11.0638ZM106.701 26.6318H100.919V27.0622H106.701V26.6318ZM101.116 26.7623L94.3865 11.0607L93.9909 11.2302L100.721 26.9318L101.116 26.7623ZM94.1885 11.3607H100.35V10.9303H94.1885V11.3607ZM119.631 16.8637L119.419 16.8302C119.409 16.8924 119.427 16.9557 119.468 17.0035C119.509 17.0514 119.569 17.0789 119.631 17.0789V16.8637ZM125.287 16.8637V17.0789C125.346 17.0789 125.403 17.0547 125.444 17.0117C125.484 16.9688 125.506 16.9111 125.502 16.8521L125.287 16.8637ZM123.897 15.2209L123.82 15.4221L123.825 15.4236L123.897 15.2209ZM121.18 15.1893L121.11 14.9857L121.109 14.9862L121.18 15.1893ZM129.079 13.4517L128.918 13.5941L128.919 13.5961L129.079 13.4517ZM130.501 20.5917V20.8069C130.602 20.8069 130.689 20.7364 130.711 20.6376L130.501 20.5917ZM119.6 20.5917V20.3765C119.532 20.3765 119.468 20.4086 119.427 20.4632C119.387 20.5178 119.374 20.5883 119.394 20.6535L119.6 20.5917ZM120.927 22.0765L120.829 22.2679L120.833 22.2702L120.927 22.0765ZM127.088 21.3183L127.249 21.1752C127.174 21.0915 127.048 21.0791 126.959 21.1465L127.088 21.3183ZM129.932 24.5091L130.079 24.6666C130.164 24.5869 130.171 24.4533 130.093 24.366L129.932 24.5091ZM116.282 25.0778L116.148 25.2456L116.149 25.2467L116.282 25.0778ZM116.314 12.8831L116.45 13.0497L116.314 12.8831ZM119.631 17.0789H125.287V16.6486H119.631V17.0789ZM125.502 16.8521C125.479 16.42 125.337 16.0424 125.073 15.7296C124.81 15.4192 124.437 15.1852 123.969 15.0183L123.825 15.4236C124.242 15.5726 124.543 15.7704 124.744 16.0076C124.943 16.2424 125.054 16.5282 125.073 16.8754L125.502 16.8521ZM123.974 15.0198C123.041 14.6643 122.083 14.6541 121.11 14.9857L121.249 15.393C122.13 15.0927 122.985 15.1036 123.82 15.422L123.974 15.0198ZM121.109 14.9862C120.145 15.3224 119.56 15.9356 119.419 16.8302L119.844 16.8973C119.956 16.1912 120.403 15.6881 121.251 15.3925L121.109 14.9862ZM122.412 10.9816C125.228 10.9816 127.387 11.8594 128.918 13.5941L129.241 13.3094C127.611 11.4636 125.325 10.5512 122.412 10.5512V10.9816ZM128.919 13.5961C130.461 15.2995 130.933 17.6016 130.29 20.5458L130.711 20.6376C131.374 17.6003 130.899 15.1424 129.238 13.3074L128.919 13.5961ZM130.501 20.3765H119.6V20.8069H130.501V20.3765ZM119.394 20.6535C119.604 21.3516 120.092 21.8884 120.829 22.2678L121.026 21.8852C120.372 21.5486 119.976 21.0954 119.806 20.5298L119.394 20.6535ZM120.833 22.2702C121.556 22.6206 122.304 22.7972 123.075 22.7972V22.3668C122.372 22.3668 121.688 22.2064 121.021 21.8829L120.833 22.2702ZM123.075 22.7972C124.675 22.7972 126.06 22.364 127.218 21.4901L126.959 21.1465C125.884 21.9576 124.593 22.3668 123.075 22.3668V22.7972ZM126.928 21.4614L129.771 24.6523L130.093 24.366L127.249 21.1752L126.928 21.4614ZM129.785 24.3517C127.977 26.0365 125.662 26.8846 122.823 26.8846V27.315C125.755 27.315 128.179 26.436 130.079 24.6666L129.785 24.3517ZM122.823 26.8846C120.206 26.8846 118.076 26.2208 116.416 24.909L116.149 25.2467C117.901 26.6308 120.131 27.315 122.823 27.315V26.8846ZM116.417 24.91C114.774 23.5912 113.938 21.6278 113.938 18.9804H113.508C113.508 21.7249 114.379 23.8264 116.148 25.2456L116.417 24.91ZM113.938 18.9804C113.938 16.3777 114.783 14.4121 116.45 13.0497L116.178 12.7164C114.391 14.1764 113.508 16.2757 113.508 18.9804H113.938ZM116.45 13.0497C118.137 11.6716 120.121 10.9816 122.412 10.9816V10.5512C120.027 10.5512 117.945 11.2723 116.178 12.7164L116.45 13.0497ZM133.529 11.1455V10.9303C133.41 10.9303 133.314 11.0266 133.314 11.1455H133.529ZM138.743 11.1455L138.953 11.1025C138.933 11.0023 138.845 10.9303 138.743 10.9303V11.1455ZM139.09 12.8515L138.879 12.8944C138.897 12.9825 138.968 13.0502 139.057 13.0641C139.146 13.078 139.234 13.0352 139.278 12.9567L139.09 12.8515ZM146.989 12.4408L147.178 12.5454C147.223 12.4635 147.21 12.3614 147.146 12.2931L146.989 12.4408ZM144.651 16.6426L144.516 16.8097C144.565 16.8498 144.629 16.8659 144.692 16.8539C144.754 16.8418 144.808 16.8028 144.839 16.7472L144.651 16.6426ZM140.101 16.453L140.25 16.6084L140.254 16.6052L140.101 16.453ZM139.343 26.7522V26.9674C139.462 26.9674 139.558 26.8711 139.558 26.7522H139.343ZM133.529 26.7522H133.314C133.314 26.8711 133.41 26.9674 133.529 26.9674V26.7522ZM133.529 11.3607H138.743V10.9303H133.529V11.3607ZM138.532 11.1885L138.879 12.8944L139.301 12.8085L138.953 11.1025L138.532 11.1885ZM139.278 12.9567C140.015 11.6422 141.202 10.9816 142.882 10.9816V10.5512C141.065 10.5512 139.724 11.2806 138.902 12.7463L139.278 12.9567ZM142.882 10.9816C144.514 10.9816 145.824 11.5198 146.833 12.5884L147.146 12.2931C146.048 11.1293 144.62 10.5512 142.882 10.5512V10.9816ZM146.801 12.3361L144.463 16.538L144.839 16.7472L147.178 12.5454L146.801 12.3361ZM144.787 16.4755C143.97 15.8137 143.049 15.4796 142.029 15.4796V15.91C142.946 15.91 143.773 16.2078 144.516 16.8097L144.787 16.4755ZM142.029 15.4796C141.198 15.4796 140.499 15.7512 139.949 16.3009L140.254 16.6052C140.715 16.1439 141.301 15.91 142.029 15.91V15.4796ZM139.952 16.2977C139.39 16.8363 139.128 17.6285 139.128 18.6329H139.558C139.558 17.6997 139.801 17.0386 140.25 16.6084L139.952 16.2977ZM139.128 18.6329V26.7522H139.558V18.6329H139.128ZM139.343 26.537H133.529V26.9674H139.343V26.537ZM133.745 26.7522V11.1455H133.314V26.7522H133.745ZM148.749 4.60581V4.39062C148.63 4.39062 148.533 4.48697 148.533 4.60581H148.749ZM154.499 4.60581H154.715C154.715 4.48697 154.618 4.39062 154.499 4.39062V4.60581ZM154.499 26.7522V26.9674C154.618 26.9674 154.715 26.8711 154.715 26.7522H154.499ZM148.749 26.7522H148.533C148.533 26.8711 148.63 26.9674 148.749 26.9674V26.7522ZM148.749 4.82103H154.499V4.39062H148.749V4.82103ZM154.284 4.60581V26.7522H154.715V4.60581H154.284ZM154.499 26.537H148.749V26.9674H154.499V26.537ZM148.964 26.7522V4.60581H148.533V26.7522H148.964ZM169.54 12.8199L169.36 12.9379C169.409 13.0119 169.498 13.0486 169.585 13.0305C169.671 13.0124 169.738 12.9432 169.753 12.8559L169.54 12.8199ZM169.825 11.1455V10.9303C169.72 10.9303 169.63 11.006 169.613 11.1095L169.825 11.1455ZM175.291 11.1455H175.506C175.506 11.0266 175.41 10.9303 175.291 10.9303V11.1455ZM175.291 26.7522V26.9674C175.41 26.9674 175.506 26.8711 175.506 26.7522H175.291ZM169.92 26.7522L169.707 26.7843C169.722 26.8896 169.813 26.9674 169.92 26.9674V26.7522ZM169.667 25.0778L169.88 25.0457C169.867 24.963 169.808 24.8951 169.728 24.8714C169.648 24.8478 169.561 24.8728 169.506 24.9355L169.667 25.0778ZM164.516 27.0366L164.503 27.2513L164.507 27.2516L164.516 27.0366ZM159.24 24.6355L159.075 24.7742L159.077 24.7767L159.24 24.6355ZM159.461 13.1358L159.302 12.9914V12.9915L159.461 13.1358ZM164.042 16.453L164.197 16.6025L164.2 16.5999L164.042 16.453ZM168.593 21.3815L168.433 21.237V21.2373L168.593 21.3815ZM168.656 16.453L168.496 16.597L168.498 16.5997L168.656 16.453ZM169.753 12.8559L170.037 11.1815L169.613 11.1095L169.328 12.7839L169.753 12.8559ZM169.825 11.3607H175.291V10.9303H169.825V11.3607ZM175.076 11.1455V26.7522H175.506V11.1455H175.076ZM175.291 26.537H169.92V26.9674H175.291V26.537ZM170.132 26.7201L169.88 25.0457L169.454 25.1099L169.707 26.7843L170.132 26.7201ZM169.506 24.9355C168.899 25.6227 168.151 26.118 167.259 26.4222L167.398 26.8295C168.359 26.5018 169.171 25.9651 169.828 25.2202L169.506 24.9355ZM167.259 26.4222C166.357 26.7297 165.447 26.8625 164.526 26.8216L164.507 27.2516C165.483 27.2949 166.447 27.1539 167.398 26.8295L167.259 26.4222ZM164.531 26.8218C162.323 26.6774 160.622 25.8968 159.402 24.4943L159.077 24.7767C160.385 26.2808 162.202 27.1008 164.503 27.2513L164.531 26.8218ZM159.405 24.4968C158.201 23.0688 157.591 21.2256 157.591 18.9488H157.161C157.161 21.3057 157.793 23.2536 159.075 24.7742L159.405 24.4968ZM157.591 18.9488C157.591 16.657 158.271 14.773 159.621 13.2801L159.302 12.9915C157.871 14.5737 157.161 16.565 157.161 18.9488H157.591ZM159.621 13.2803C160.988 11.7702 162.761 11.0132 164.959 11.0132V10.5828C162.649 10.5828 160.757 11.3842 159.302 12.9914L159.621 13.2803ZM164.959 11.0132C167.084 11.0132 168.529 11.6706 169.36 12.9379L169.72 12.7018C168.783 11.2732 167.173 10.5828 164.959 10.5828V11.0132ZM166.286 15.2901C165.324 15.2901 164.518 15.6285 163.885 16.3062L164.2 16.5999C164.747 16.0139 165.437 15.7204 166.286 15.7204V15.2901ZM163.888 16.3036C163.25 16.9636 162.943 17.8541 162.943 18.9488H163.373C163.373 17.9374 163.655 17.1641 164.197 16.6025L163.888 16.3036ZM162.943 18.9488C162.943 20.0436 163.25 20.9341 163.888 21.5941L164.197 21.2952C163.655 20.7337 163.373 19.9603 163.373 18.9488H162.943ZM163.888 21.5941C164.521 22.2499 165.326 22.576 166.286 22.576V22.1457C165.434 22.1457 164.744 21.861 164.197 21.2952L163.888 21.5941ZM166.286 22.576C167.29 22.576 168.118 22.2276 168.752 21.5257L168.433 21.2373C167.887 21.8412 167.178 22.1457 166.286 22.1457V22.576ZM168.752 21.526C169.4 20.8107 169.724 19.9476 169.724 18.9488H169.294C169.294 19.8457 169.006 20.6044 168.433 21.237L168.752 21.526ZM169.724 18.9488C169.724 17.8562 169.428 16.9667 168.813 16.3064L168.498 16.5997C169.021 17.161 169.294 17.9353 169.294 18.9488H169.724ZM168.816 16.3091C168.198 15.6233 167.346 15.2901 166.286 15.2901V15.7204C167.249 15.7204 167.976 16.0191 168.496 16.597L168.816 16.3091ZM184.847 4.63741H185.062C185.062 4.51856 184.966 4.42222 184.847 4.42222V4.63741ZM184.847 12.4724H184.632C184.632 12.5635 184.689 12.6447 184.775 12.6752C184.861 12.7056 184.957 12.6787 185.014 12.608L184.847 12.4724ZM194.642 13.0727L194.483 13.218L194.485 13.2192L194.642 13.0727ZM194.895 24.7303L194.734 24.5869L194.733 24.5882L194.895 24.7303ZM189.618 27.0366L189.627 27.2516L189.632 27.2513L189.618 27.0366ZM184.468 25.0778L184.629 24.9355C184.574 24.8728 184.487 24.8478 184.407 24.8714C184.327 24.8951 184.268 24.963 184.255 25.0457L184.468 25.0778ZM184.215 26.7522V26.9674C184.322 26.9674 184.412 26.8896 184.428 26.7843L184.215 26.7522ZM179.033 26.7522H178.818C178.818 26.8711 178.914 26.9674 179.033 26.9674V26.7522ZM179.033 4.63741V4.42222C178.914 4.42222 178.818 4.51856 178.818 4.63741H179.033ZM185.542 16.5478L185.711 16.681L185.542 16.5478ZM185.574 21.3815L185.411 21.5229L185.414 21.5257L185.574 21.3815ZM190.092 16.453L189.935 16.5999L189.937 16.6025L190.092 16.453ZM184.632 4.63741V12.4724H185.062V4.63741H184.632ZM185.014 12.608C185.865 11.5592 187.235 11.0132 189.176 11.0132V10.5828C187.157 10.5828 185.64 11.153 184.68 12.3368L185.014 12.608ZM189.176 11.0132C191.376 11.0132 193.138 11.7506 194.483 13.218L194.8 12.9272C193.365 11.3618 191.484 10.5828 189.176 10.5828V11.0132ZM194.485 13.2192C195.853 14.6895 196.544 16.5929 196.544 18.9488H196.974C196.974 16.5027 196.254 14.4886 194.8 12.926L194.485 13.2192ZM196.544 18.9488C196.544 21.3775 195.932 23.2475 194.734 24.5869L195.055 24.8737C196.343 23.4329 196.974 21.4487 196.974 18.9488H196.544ZM194.733 24.5882C193.558 25.9256 191.858 26.6771 189.604 26.8218L189.632 27.2513C191.97 27.1012 193.788 26.3152 195.057 24.8724L194.733 24.5882ZM189.609 26.8216C188.688 26.8625 187.778 26.7297 186.875 26.4222L186.737 26.8295C187.688 27.1539 188.652 27.2949 189.627 27.2516L189.609 26.8216ZM186.875 26.4222C185.983 26.118 185.236 25.6227 184.629 24.9355L184.306 25.2202C184.964 25.9651 185.775 26.5018 186.737 26.8295L186.875 26.4222ZM184.255 25.0457L184.002 26.7201L184.428 26.7843L184.68 25.1099L184.255 25.0457ZM184.215 26.537H179.033V26.9674H184.215V26.537ZM179.248 26.7522V4.63741H178.818V26.7522H179.248ZM179.033 4.85262H184.847V4.42222H179.033V4.85262ZM187.848 15.2901C186.802 15.2901 185.967 15.6612 185.373 16.4146L185.711 16.681C186.213 16.0444 186.916 15.7204 187.848 15.7204V15.2901ZM185.373 16.4146C184.791 17.153 184.505 18.0548 184.505 19.1068H184.936C184.936 18.1369 185.197 17.3328 185.711 16.681L185.373 16.4146ZM184.505 19.1068C184.505 20.0225 184.809 20.8309 185.411 21.5228L185.736 21.2401C185.201 20.6263 184.936 19.9182 184.936 19.1068H184.505ZM185.414 21.5257C186.047 22.2264 186.865 22.576 187.848 22.576V22.1457C186.979 22.1457 186.28 21.8423 185.733 21.2373L185.414 21.5257ZM187.848 22.576C188.808 22.576 189.614 22.2499 190.247 21.5941L189.937 21.2952C189.391 21.861 188.7 22.1457 187.848 22.1457V22.576ZM190.247 21.5941C190.884 20.9341 191.192 20.0436 191.192 18.9488H190.762C190.762 19.9603 190.479 20.7337 189.937 21.2952L190.247 21.5941ZM191.192 18.9488C191.192 17.8541 190.884 16.9636 190.247 16.3036L189.937 16.6025C190.479 17.1641 190.762 17.9374 190.762 18.9488H191.192ZM190.249 16.3062C189.617 15.6285 188.811 15.2901 187.848 15.2901V15.7204C188.698 15.7204 189.388 16.0139 189.935 16.5999L190.249 16.3062Z" fill="#0046FF"/>
<path fill-rule="evenodd" clip-rule="evenodd" d="M0.901249 15.9397L21.6216 1.14136C22.9913 0.16309 24.8677 0.318364 26.058 1.50849L31.2646 6.71451C32.1959 7.64568 32.0798 9.18734 31.0195 9.96852L26.9007 13.003L22.9484 15.9149C22.2046 15.841 21.3965 15.8005 20.5518 15.8005C16.8671 15.8005 13.8801 16.5712 13.8801 17.522C13.8801 18.4728 16.8671 19.2436 20.5518 19.2436C21.4521 19.2436 22.3106 19.1975 23.0942 19.1141L30.995 24.5192C32.0729 25.2566 32.2507 26.7764 31.3721 27.7427L26.434 33.174C25.2815 34.4415 23.3725 34.6691 21.9542 33.7081L0.944809 19.4721C-0.29623 18.6312 -0.31868 16.811 0.901249 15.9397Z" fill="#52DEE5"/>
</g>
<defs>
<clipPath id="clip0_3254_8535">
<rect width="198" height="34" fill="white" transform="translate(0 0.5)"/>
</clipPath>
</defs>
</svg>
