<svg width="20" height="21" viewBox="0 0 20 21" fill="none" xmlns="http://www.w3.org/2000/svg">
<g clip-path="url(#clip0_3254_8525)">
<path d="M0.0117188 7.20833C0.0117188 4.83546 0.0117188 3.64902 0.480829 2.74594C0.876144 1.98493 1.49665 1.36443 2.25766 0.969111C3.16074 0.5 4.34717 0.5 6.72005 0.5H13.3034C15.6763 0.5 16.8627 0.5 17.7658 0.969111C18.5268 1.36443 19.1473 1.98493 19.5426 2.74594C20.0117 3.64902 20.0117 4.83546 20.0117 7.20833V13.7917C20.0117 16.1645 20.0117 17.351 19.5426 18.2541C19.1473 19.0151 18.5268 19.6356 17.7658 20.0309C16.8627 20.5 15.6763 20.5 13.3034 20.5H6.72005C4.34717 20.5 3.16074 20.5 2.25766 20.0309C1.49665 19.6356 0.876144 19.0151 0.480829 18.2541C0.0117188 17.351 0.0117188 16.1645 0.0117188 13.7917V7.20833Z" fill="url(#paint0_radial_3254_8525)"/>
<path d="M0.0117188 7.20833C0.0117188 4.83546 0.0117188 3.64902 0.480829 2.74594C0.876144 1.98493 1.49665 1.36443 2.25766 0.969111C3.16074 0.5 4.34717 0.5 6.72005 0.5H13.3034C15.6763 0.5 16.8627 0.5 17.7658 0.969111C18.5268 1.36443 19.1473 1.98493 19.5426 2.74594C20.0117 3.64902 20.0117 4.83546 20.0117 7.20833V13.7917C20.0117 16.1645 20.0117 17.351 19.5426 18.2541C19.1473 19.0151 18.5268 19.6356 17.7658 20.0309C16.8627 20.5 15.6763 20.5 13.3034 20.5H6.72005C4.34717 20.5 3.16074 20.5 2.25766 20.0309C1.49665 19.6356 0.876144 19.0151 0.480829 18.2541C0.0117188 17.351 0.0117188 16.1645 0.0117188 13.7917V7.20833Z" fill="url(#paint1_radial_3254_8525)"/>
<path d="M9.99968 3.22656C8.02458 3.22656 7.77671 3.2352 7.00098 3.2705C6.22676 3.30596 5.69829 3.42853 5.23588 3.60838C4.75756 3.79414 4.35182 4.04262 3.94759 4.44702C3.54305 4.85126 3.29458 5.25702 3.10822 5.7352C2.92792 6.19777 2.8052 6.72641 2.77035 7.50035C2.73565 8.27611 2.72656 8.52414 2.72656 10.4993C2.72656 12.4744 2.73535 12.7216 2.7705 13.4973C2.80611 14.2716 2.92868 14.8 3.10837 15.2625C3.29427 15.7408 3.54275 16.1466 3.94713 16.5508C4.35121 16.9553 4.75696 17.2044 5.23497 17.3902C5.69768 17.57 6.22631 17.6926 7.00037 17.7281C7.77611 17.7634 8.02383 17.772 9.99877 17.772C11.974 17.772 12.2211 17.7634 12.9969 17.7281C13.7711 17.6926 14.3002 17.57 14.7629 17.3902C15.241 17.2044 15.6462 16.9553 16.0503 16.5508C16.4548 16.1466 16.7033 15.7408 16.8896 15.2626C17.0684 14.8 17.1911 14.2714 17.2275 13.4975C17.2623 12.7217 17.2714 12.4744 17.2714 10.4993C17.2714 8.52414 17.2623 8.27626 17.2275 7.5005C17.1911 6.72626 17.0684 6.19777 16.8896 5.73535C16.7033 5.25702 16.4548 4.85126 16.0503 4.44702C15.6457 4.04247 15.2412 3.79399 14.7624 3.60838C14.2988 3.42853 13.77 3.30596 12.9958 3.2705C12.2201 3.2352 11.9731 3.22656 9.9974 3.22656H9.99968ZM9.34727 4.53717C9.5409 4.53687 9.75696 4.53717 9.99968 4.53717C11.9414 4.53717 12.1716 4.54414 12.9384 4.57899C13.6474 4.61141 14.0323 4.7299 14.2886 4.82944C14.628 4.96126 14.87 5.11883 15.1244 5.37338C15.3789 5.62793 15.5365 5.87035 15.6686 6.20974C15.7681 6.4658 15.8868 6.85065 15.919 7.55974C15.9539 8.32641 15.9615 8.55671 15.9615 10.4976C15.9615 12.4385 15.9539 12.6688 15.919 13.4355C15.8866 14.1446 15.7681 14.5294 15.6686 14.7855C15.5368 15.1249 15.3789 15.3666 15.1244 15.621C14.8698 15.8755 14.6282 16.0331 14.2886 16.1649C14.0326 16.2649 13.6474 16.3831 12.9384 16.4155C12.1717 16.4503 11.9414 16.4579 9.99968 16.4579C8.05776 16.4579 7.82762 16.4503 7.06098 16.4155C6.35191 16.3828 5.96707 16.2643 5.71056 16.1647C5.37118 16.0329 5.12876 15.8753 4.87422 15.6208C4.61969 15.3663 4.46212 15.1244 4.33 14.7849C4.23046 14.5288 4.11182 14.144 4.07955 13.4349C4.0447 12.6682 4.03773 12.4379 4.03773 10.4958C4.03773 8.55368 4.0447 8.32459 4.07955 7.55793C4.11198 6.84884 4.23046 6.46399 4.33 6.20762C4.46181 5.86823 4.61969 5.6258 4.87422 5.37126C5.12876 5.11671 5.37118 4.95914 5.71056 4.82702C5.96692 4.72702 6.35191 4.60884 7.06098 4.57626C7.73187 4.54596 7.99186 4.53687 9.34727 4.53535V4.53717ZM13.8817 5.74474C13.3999 5.74474 13.009 6.1352 13.009 6.61717C13.009 7.09899 13.3999 7.4899 13.8817 7.4899C14.3635 7.4899 14.7544 7.09899 14.7544 6.61717C14.7544 6.13535 14.3635 5.74444 13.8817 5.74444V5.74474ZM9.99968 6.76444C7.93716 6.76444 6.26494 8.43671 6.26494 10.4993C6.26494 12.5619 7.93716 14.2334 9.99968 14.2334C12.0622 14.2334 13.7338 12.5619 13.7338 10.4993C13.7338 8.43671 12.062 6.76444 9.99952 6.76444H9.99968ZM9.99968 8.07505C11.3384 8.07505 12.4238 9.16035 12.4238 10.4993C12.4238 11.8381 11.3384 12.9235 9.99968 12.9235C8.66078 12.9235 7.57551 11.8381 7.57551 10.4993C7.57551 9.16035 8.66078 8.07505 9.99968 8.07505Z" fill="white"/>
</g>
<defs>
<radialGradient id="paint0_radial_3254_8525" cx="0" cy="0" r="1" gradientUnits="userSpaceOnUse" gradientTransform="translate(5.32424 22.0404) rotate(-90) scale(19.8215 18.4355)">
<stop stop-color="#4B4B4B"/>
<stop offset="0.1" stop-color="#4B4B4B"/>
<stop offset="0.5" stop-color="#4B4B4B"/>
<stop offset="1" stop-color="#4B4B4B"/>
</radialGradient>
<radialGradient id="paint1_radial_3254_8525" cx="0" cy="0" r="1" gradientUnits="userSpaceOnUse" gradientTransform="translate(-3.33839 1.94077) rotate(78.6806) scale(8.86028 36.5225)">
<stop stop-color="#4B4B4B"/>
<stop offset="0.128" stop-color="#4B4B4B"/>
<stop offset="1" stop-color="#4B4B4B"/>
</radialGradient>
<clipPath id="clip0_3254_8525">
<rect width="20" height="20" fill="white" transform="translate(0 0.5)"/>
</clipPath>
</defs>
</svg>
